<svg width="783" height="539" viewBox="0 0 783 539" fill="none" xmlns="http://www.w3.org/2000/svg">
<path opacity="0.05" d="M164.316 75.7095L38.7968 123.635V226.332L136.169 189.818V494.867H38.7968V593H333.957V494.867H247.234V75.7095H164.316ZM400.853 208.075C400.853 260.565 426.717 294.797 462.471 319.14C413.785 348.048 381.835 397.495 381.835 449.224C381.835 528.339 447.257 603.65 601.683 603.65C757.631 603.65 820.01 529.099 820.01 453.027C820.01 390.648 782.735 354.134 735.57 330.551C777.41 299.362 801.753 261.326 800.992 211.118C800.231 138.849 731.766 65.0594 600.162 65.0594C458.667 65.0594 400.853 138.849 400.853 208.075ZM613.094 379.998C664.062 397.495 706.663 411.948 706.663 456.07C706.663 491.063 664.823 513.885 610.051 513.885C531.697 513.885 496.703 479.653 495.943 435.531C495.182 408.905 508.114 377.716 536.261 354.134C562.886 364.023 590.272 371.63 613.094 379.998ZM691.448 219.486C692.209 244.59 679.277 275.019 654.933 299.362C638.198 294.797 622.222 289.472 607.008 285.669C556.04 268.933 509.636 254.479 509.636 208.836C509.636 179.928 540.825 154.825 595.597 154.825C659.498 154.825 691.448 183.732 691.448 219.486Z" transform="translate(-38 -65)" fill="white"/>
</svg>
