<svg width="407" height="568" viewBox="0 0 407 568" fill="none" xmlns="http://www.w3.org/2000/svg">
<path opacity="0.05" d="M421.6 219.2C421.6 120 337.6 68.8 224.8 68.8C157.6 68.8 96 84.8 47.2 111.2V222.4C100.8 189.6 159.2 173.6 208 173.6C273.6 173.6 308 196.8 308 236C308 273.6 275.2 293.6 221.6 293.6L146.4 292.8L145.6 395.2H235.2C289.6 395.2 329.6 412 329.6 458.4C329.6 509.6 278.4 529.6 216.8 529.6C154.4 530.4 99.2 521.6 37.6 487.2V598.4C99.2 624 156 635.2 226.4 635.2C338.4 635.2 444 589.6 444 475.2C444 395.2 394.4 352.8 339.2 336C390.4 318.4 421.6 275.2 421.6 219.2Z" transform="translate(-37 -68)" fill="white"/>
</svg>
