<svg width="86" height="86" viewBox="0 0 86 86" fill="none" xmlns="http://www.w3.org/2000/svg">
<path d="M5.70796 86C2.66372 86 0 83.348 0 80.3172V5.68282C0 2.65198 2.66372 0 5.70796 0H80.292C83.3363 0 86 2.65198 86 5.68282V80.3172C86 83.348 83.3363 86 80.292 86" fill="#B3B1B2"/>
<path d="M74.2035 54.9339C74.2035 62.511 68.115 68.5726 60.5044 68.5726H13.6991C6.08852 68.5726 0 62.511 0 54.9339V13.6387C0 6.06158 6.08852 0 13.6991 0H60.5044C68.115 0 74.2035 6.06158 74.2035 13.6387" transform="translate(5.71094 9.09262)" fill="white"/>
<path d="M74.2035 25.0044C74.2035 17.4273 67.7345 12.8811 67.7345 12.8811L66.2124 15.5331C69.2566 17.0485 71.1592 21.5947 71.1592 25.0044C71.1592 28.4141 71.1592 44.7049 71.1592 44.7049H66.5929L72.6814 57.9648L78.7698 44.7049H74.2035V25.0044ZM58.6017 67.4362C66.9734 67.4362 71.9203 61.3745 71.9203 61.3745L68.8761 59.8591C66.9735 62.8899 62.407 64.4052 58.6017 64.4052C54.7964 64.4052 36.9114 64.4052 36.9114 64.4052V60.6167L22.0707 66.2995L36.9114 71.9823V67.815H58.6017V67.4362ZM12.1769 53.4185C12.1769 60.9956 18.646 65.5419 18.646 65.5419L20.1681 62.8899C17.1238 61.3744 15.2212 56.8282 15.2212 53.4185C15.2212 50.0088 15.2212 33.7181 15.2212 33.7181H19.7875L13.6991 20.4582L7.61062 33.7181H12.1769V53.4185V53.4185ZM27.3982 10.9869C19.0265 10.9869 14.0796 17.0484 14.0796 17.0484L17.1239 18.564C19.0265 15.5331 23.5928 14.0177 27.3982 14.0177C31.2035 14.0177 49.0885 14.0177 49.0885 14.0177V17.8062L63.9291 12.1234L49.0885 6.81945V10.9869H27.3982V10.9869ZM5.70796 78.044C2.66372 78.044 0 75.7709 0 72.7401V5.30405C0 2.27322 2.66372 0 5.70796 0H80.292C83.3363 0 86 2.27322 86 5.30405V72.7401C86 75.7709 83.3363 78.044 80.292 78.044H5.70796Z" transform="translate(0 3.7886)" fill="#B3B1B2"/>
<path d="M15.9823 9.09248L12.5576 18.5638H19.0265L15.9823 9.09248ZM10.2744 24.2467L8.37173 29.5506H0L11.4159 0H19.7877L30.823 29.5506H22.4514L20.5488 24.2467H10.2744Z" transform="translate(27.3945 27.6564)" fill="white"/>
</svg>
