<svg width="86" height="86" viewBox="0 0 86 86" fill="none" xmlns="http://www.w3.org/2000/svg">
<path d="M5.70797 86C2.66372 86 0 83.3244 0 80.2667V5.73333C0 2.67556 2.66372 0 5.70797 0H80.292C83.3363 0 86 2.67556 86 5.73333V80.2667C86 83.3244 83.3363 86 80.292 86" fill="#B3B1B2"/>
<path d="M0 0V38.9866" transform="translate(11.4141 41.28)" stroke="white" stroke-width="4.23355"/>
<path d="M0 0H56.3187" transform="translate(6.4668 80.2668)" stroke="white" stroke-width="4.23355"/>
<path d="M0 21.0222L23.9734 0L51.7524 21.0222" transform="translate(6.08594 24.0801)" stroke="white" stroke-width="4.23355"/>
<path d="M19.7877 38.9867C30.8231 38.9867 39.5754 30.1956 39.5754 19.4934C39.5754 8.79113 30.8231 0 19.7877 0C8.75227 0 0 8.79113 0 19.4934C0 30.1956 8.75227 38.9867 19.7877 38.9867Z" transform="translate(25.1113 40.1333)" fill="#B3B1B2"/>
<path d="M19.7877 38.9867C30.8231 38.9867 39.5754 30.1956 39.5754 19.4934C39.5754 8.79113 30.8231 0 19.7877 0C8.75227 0 0 8.79113 0 19.4934C0 30.1956 8.75227 38.9867 19.7877 38.9867Z" transform="translate(25.1113 40.1333)" stroke="white" stroke-width="4.19055"/>
<path d="M0 0C0.761063 1.14667 3.04425 1.52898 5.70797 1.52898C8.37169 1.52898 10.2743 0.764444 11.4159 0" transform="translate(31.2031 53.5111)" stroke="white" stroke-width="2.28682" stroke-linecap="round"/>
<path d="M0 0C0.761063 1.14667 3.04425 1.52898 5.70797 1.52898C8.37169 1.52898 10.2743 0.764444 11.4159 0" transform="translate(46.8027 53.5111)" stroke="white" stroke-width="2.28682" stroke-linecap="round"/>
<path d="M15.2213 20.64V3.43998C15.2213 1.52887 13.6991 0.382222 11.4159 0C9.13275 0 7.61063 1.91109 7.61063 3.43998V9.55556C6.84956 8.40889 5.70797 8.02669 3.80531 8.02669C1.90266 8.02669 0 9.55558 0 11.8489V19.4934" transform="translate(34.25 58.0977)" stroke="white" stroke-width="2.28682" stroke-linejoin="round"/>
<path d="M0 0C9.13275 0 14.4602 15.2889 1.90266 19.1111C4.94691 11.8489 4.18585 4.96889 0 0Z" transform="translate(62.0254 14.9067)" fill="white"/>
<path d="M2.66365 2.29336L3.80531 0L4.18587 2.6756L7.23007 3.05773L4.56631 4.20447L5.32742 6.87995L3.0442 4.96884L0.760993 6.49782L1.90266 3.82222L0 1.91111" transform="translate(7.23047 10.3201)" fill="white"/>
<path d="M2.66377 2.29336L3.80531 0L4.56642 2.6756L7.23019 3.05785L4.94686 4.20447L5.32753 6.88007L3.42488 4.96896L0.761109 6.49782L1.90266 3.82222L0 1.91111" transform="translate(48.7109 19.4934)" fill="white"/>
<path d="M3.0442 2.67549L4.18575 0L4.56619 2.67549L7.61063 3.05773L4.94686 4.5866L5.70797 7.2622L3.42464 5.35109L1.14155 6.87995L2.2831 4.20447L0 2.29336" transform="translate(29.3027 6.88016)" fill="white"/>
<path d="M2.66353 2.67549L3.80531 0L4.18575 2.67549L7.22996 3.05773L4.56619 4.20447L5.3273 7.2622L3.0442 5.35109L0.760877 6.49771L1.90266 4.20447L0 2.29336" transform="translate(71.1582 39.369)" fill="white"/>
<path d="M3.0442 2.6756L4.18575 0L4.56642 2.6756L7.22996 3.05785L4.94686 4.58671L5.70797 7.26232L3.42464 5.3512L1.14155 6.88007L2.2831 4.20447L0 2.29336" transform="translate(72.3027 5.73325)" fill="white"/>
</svg>
