<svg width="85" height="86" viewBox="0 0 85 86" fill="none" xmlns="http://www.w3.org/2000/svg">
<path d="M5.61674 86C2.62115 86 0 83.348 0 80.3172V5.68282C0 2.65198 2.62115 0 5.61674 0H79.3833C82.3789 0 85 2.65198 85 5.68282V80.3172C85 83.348 82.3789 86 79.3833 86" fill="#B3B1B2"/>
<path d="M10.8589 22.7313V0H8.23771V22.7313H0V76.1498H22.467V22.7313H10.8589Z" transform="translate(31.0801 4.92535)" fill="white"/>
<path d="M6.74005 0H0V48.1146H6.74005V0Z" transform="translate(34.4453 30.3087)" fill="#B3B1B2"/>
<path d="M1.87225 3.78854C2.9956 3.78854 3.7445 3.03084 3.7445 1.89427C3.7445 0.757709 2.9956 0 1.87225 0C0.748899 0 0 0.757709 0 1.89427C0.37445 3.03084 1.12335 3.78854 1.87225 3.78854Z" transform="translate(47.5527 53.4186)" fill="#B3B1B2"/>
</svg>
