<svg width="85" height="86" viewBox="0 0 85 86" fill="none" xmlns="http://www.w3.org/2000/svg">
<path d="M5.24226 81.4537C2.24667 81.4537 0 79.1806 0 76.1498V5.30394C0 2.2731 2.24667 0 5.24226 0H75.2643C78.2599 0 80.5066 2.2731 80.5066 5.30394V76.1498C80.5066 79.1806 78.2599 81.4537 75.2643 81.4537" transform="translate(2.25 2.27328)" fill="white"/>
<path d="M3.37002 0H0V2.65191H3.37002V0Z" transform="translate(21.3398 6.44052)" fill="#B3B1B2"/>
<path d="M78.6343 31.0661H57.2907V39.7797H78.6343V31.0661ZM78.6343 25.3833H57.2907V29.9295H78.6343V25.3833ZM73.7665 26.5198H77.1365V29.1718H73.7665V26.5198ZM26.2114 31.0661H4.86779V39.7797H26.2114V31.0661ZM26.2114 25.3833H4.86779V29.9295H26.2114V25.3833ZM21.3436 26.5198H24.7137V29.1718H21.3436V26.5198ZM78.6343 11.3656H57.2907V20.0794H78.6343V11.3656ZM78.6343 5.68282H57.2907V10.2291H78.6343V5.68282ZM73.7665 6.44057H77.1365V9.09248H73.7665V6.44057ZM52.4229 11.3656H31.0792V20.0794H52.4229V11.3656ZM52.4229 5.68282H31.0792V10.2291H52.4229V5.68282ZM47.5551 6.44057H50.9251V9.09248H47.5551V6.44057ZM26.2114 11.3656H4.86779V20.0794H26.2114V11.3656ZM26.2114 5.68282H4.86779V10.2291H26.2114V5.68282ZM43.0617 51.1453V35.6123H56.5418V34.4758H44.5594L57.6651 20.837H55.7929L43.0617 34.0969V20.837H41.5639V33.718L28.4582 20.837H26.5859L40.0661 34.4758H26.9604V35.9912H41.1894L41.5639 51.5242H43.0617V51.1453ZM5.61674 86C2.62114 86 0 83.348 0 80.3172V5.68282C0 2.65198 2.62114 0 5.61674 0H79.3833C82.3789 0 85 2.65198 85 5.68282V79.9383C85 82.9691 82.3789 85.6211 79.3833 85.6211H5.61674V86Z" fill="#B3B1B2"/>
<path d="M30.7048 0H0V28.0352H30.7048V0Z" transform="translate(26.957 51.5244)" fill="white"/>
<path d="M4.49344 0H0V4.5463H4.49344V0Z" transform="translate(50.1719 54.9341)" fill="#B3B1B2"/>
<path d="M10.1101 20.4581C15.7268 20.4581 20.2202 15.9118 20.2202 10.229C20.2202 4.54618 15.7268 0 10.1101 0C4.49332 0 0 4.54618 0 10.229C0 15.9118 4.49332 20.4581 10.1101 20.4581Z" transform="translate(28.8281 56.0707)" fill="#B3B1B2"/>
<path d="M8.98676 18.185C13.8546 18.185 17.9735 14.0176 17.9735 9.09248C17.9735 4.16738 13.8546 0 8.98676 0C4.11892 0 0 4.16738 0 9.09248C0 14.0176 4.11892 18.185 8.98676 18.185Z" transform="translate(29.9512 57.2073)" fill="white"/>
<path d="M7.88931 15.9119C12.3827 15.9119 15.7528 12.1234 15.7528 7.95596C15.7528 3.40971 12.0083 0 7.88931 0C3.39592 0 0.0258561 3.78857 0.0258561 7.95596C-0.348593 12.5022 3.39592 15.9119 7.88931 15.9119Z" transform="translate(31.0488 58.3434)" fill="#B3B1B2"/>
<path d="M6.76856 13.6388C10.5131 13.6388 13.5087 10.6079 13.5087 6.81933C13.5087 3.03079 10.5131 0 6.76856 0C3.02407 0 0.0285202 3.03079 0.0285202 6.81933C-0.345929 10.6079 3.02407 13.6388 6.76856 13.6388Z" transform="translate(32.1738 59.48)" fill="white"/>
<path d="M5.99121 12.1234C9.36125 12.1234 11.9824 9.47138 11.9824 6.06169C11.9824 2.652 9.36125 0 5.99121 0C2.62117 0 0 2.652 0 6.06169C0 9.47138 2.62117 12.1234 5.99121 12.1234Z" transform="translate(32.9473 60.238)" fill="#B3B1B2"/>
<path d="M3.41822 6.81933C5.29046 6.81933 6.78823 5.30394 6.78823 3.40967C6.78823 1.51539 5.29046 0 3.41822 0C1.54597 0 0.0481956 1.51539 0.0481956 3.40967C-0.326254 5.30394 1.54597 6.81933 3.41822 6.81933Z" transform="translate(35.5234 62.8901)" fill="white"/>
<path d="M3.41822 6.81933C5.29046 6.81933 6.78823 5.30394 6.78823 3.40967C6.78823 1.51539 5.29046 0 3.41822 0C1.54597 0 0.0481956 1.51539 0.0481956 3.40967C-0.326254 5.30394 1.54597 6.81933 3.41822 6.81933Z" transform="translate(35.5234 62.8901)" stroke="#B3B1B2" stroke-width="1.03764"/>
</svg>
