<svg width="86" height="87" viewBox="0 0 86 87" fill="none" xmlns="http://www.w3.org/2000/svg">
<path d="M5.68282 86.2334C2.65198 86.2334 0 83.5506 0 80.4845V5.74889C0 2.68282 2.65198 0 5.68282 0H80.3172C83.348 0 86 2.68282 86 5.74889V80.4845C86 83.5506 83.348 86.2334 80.3172 86.2334" transform="translate(0 0.766357)" fill="#B3B1B2"/>
<path d="M0 69.7533H9.85024L4.92518 87L24.2467 62.8547H12.881L19.7005 52.8899H6.81945L0 69.7533ZM4.16742 22.9956H14.0177L9.09248 40.2423L28.4141 16.097H17.0484L27.6564 0H13.6388L4.16742 22.9956Z" transform="translate(29.9316)" fill="white"/>
<path d="M4.92506 2.68286L3.78854 5.74889H5.68282L4.92506 2.68286ZM3.40967 7.66519L2.65203 9.19832H0L3.78854 0H6.44057L9.85024 9.19832H7.19821L6.44057 7.66519H3.40967Z" transform="translate(24.6191 42.1584)" fill="white"/>
<path d="M8.33484 0V5.36561C8.33484 6.51539 8.33489 7.66515 7.19833 8.81492C6.44062 9.58144 5.30398 9.96466 4.16742 9.96466C3.03086 9.96466 1.89434 9.58144 1.13663 8.81492C6.93251e-05 8.04841 0 6.89865 0 5.36561V0H2.27315V4.98233C2.27315 6.13211 2.27313 7.66519 3.78854 7.66519C5.30396 7.66519 5.30405 6.51537 5.30405 4.98233V0" transform="translate(35.2363 41.7755)" fill="white"/>
<path d="M4.54618 9.58149H1.89427V2.29946H0V0H6.44046V2.29946H4.54618" transform="translate(44.3281 41.7755)" fill="white"/>
<path d="M3.0309 4.59905C3.0309 6.13208 4.1674 7.28191 5.68282 7.28191C7.19823 7.28191 8.33484 6.13208 8.33484 4.59905C8.33484 3.44927 7.19823 2.29946 5.68282 2.29946C4.1674 2.29946 3.0309 3.44927 3.0309 4.59905ZM10.608 4.59905C10.608 7.66512 8.33477 9.58149 5.30394 9.58149C2.2731 9.58149 0 7.28186 0 4.59905C0 1.91623 2.65196 0 5.30394 0C8.33477 0 10.608 1.91623 10.608 4.59905Z" transform="translate(50.7695 41.7755)" fill="white"/>
</svg>
