<svg width="200" height="41" viewBox="0 0 200 41" fill="none" xmlns="http://www.w3.org/2000/svg">
<path d="M0 0H24.2211H24.3386H45.1499L0 40.9295V0Z" fill="#7BCDEF"/>
<path d="M22.575 0H0V20.4071L22.575 0Z" fill="#00242F"/>
<path d="M5.87889 -1.09953e-07H16.5785L10.6996 23.4047H-3.58819e-06L5.87889 -1.09953e-07Z" transform="translate(151.323 8.76263)" fill="#59A3E8"/>
<path d="M-1.7941e-06 23.4047H9.64139L11.4051 16.3718L16.8136 23.4047H28.5714L20.1058 11.5294L33.2746 -1.09953e-07H22.1047L13.639 7.26354L15.5203 -1.09953e-07H5.40858L-1.7941e-06 23.4047Z" transform="translate(119.46 8.76263)" fill="#59A3E8"/>
<path d="M-1.7941e-06 23.4047L5.8789 -1.09953e-07H16.5785L10.6996 23.4047H-1.7941e-06Z" transform="translate(102.999 8.76263)" fill="#59A3E8"/>
<path d="M7.17639e-06 23.4047H7.28984L10.6996 10.0306L15.05 23.4047H26.9254L32.9218 -1.09953e-07H25.0441L21.7519 12.913L17.0488 -1.09953e-07H5.8789L7.17639e-06 23.4047Z" transform="translate(167.079 8.76263)" fill="#59A3E8"/>
<path d="M1.7941e-06 23.4047L5.99648 -1.09953e-07H21.8695C21.8695 -1.09953e-07 32.9218 0.807059 31.746 11.76C31.746 12.1059 31.1582 21.4447 19.4004 23.2894H1.7941e-06V23.4047ZM16.1082 17.9859C16.1082 17.9859 20.6937 17.64 21.9871 12.3365C21.9871 12.3365 22.6925 8.30119 21.164 6.80236C21.164 6.80236 20.1058 5.88001 18.5773 5.88001H14.4621L11.5226 17.9859H16.1082Z" transform="translate(39.2715 8.7627)" fill="#59A3E8"/>
<path d="M9.87655 18.9083L7.05468 23.4047H-1.7941e-06L13.1687 -1.09953e-07H25.2793L29.5121 23.4047H18.93L18.2246 18.9083H9.87655ZM17.1664 13.6047L16.1082 7.60942L12.816 13.6047H17.1664Z" transform="translate(70.0771 8.76263)" fill="#59A3E8"/>
</svg>
