<svg width="1232" height="426" viewBox="0 0 1232 426" fill="none" xmlns="http://www.w3.org/2000/svg">
<path opacity="0.05" d="M316.2 164.4C316.2 90 253.2 51.6 168.6 51.6C118.2 51.6 72 63.6 35.4 83.4V166.8C75.6 142.2 119.4 130.2 156 130.2C205.2 130.2 231 147.6 231 177C231 205.2 206.4 220.2 166.2 220.2L109.8 219.6L109.2 296.4H176.4C217.2 296.4 247.2 309 247.2 343.8C247.2 382.2 208.8 397.2 162.6 397.2C115.8 397.8 74.4 391.2 28.2 365.4V448.8C74.4 468 117 476.4 169.8 476.4C253.8 476.4 333 442.2 333 356.4C333 296.4 295.8 264.6 254.4 252C292.8 238.8 316.2 206.4 316.2 164.4ZM483.83 59.4L469.43 296.4C504.83 283.8 542.63 279 572.03 279C637.43 279 671.63 298.8 671.63 339C671.63 378.6 632.03 397.8 578.63 397.8C537.83 397.8 490.43 386.4 457.43 365.4V448.8C493.43 466.2 541.43 476.4 588.83 476.4C678.83 476.4 761.63 435 761.63 340.2C761.63 246.6 693.83 210 612.23 210C595.43 210 576.83 212.4 559.43 216L564.83 136.2L743.03 136.8V59.4H483.83ZM779.55 264C779.55 381.6 835.35 476.4 965.55 476.4C1095.75 476.4 1151.55 381.6 1151.55 264C1151.55 146.4 1095.75 51.6 965.55 51.6C835.35 51.6 779.55 146.4 779.55 264ZM1061.55 264C1061.55 351 1031.55 397.2 965.55 397.2C899.55 397.2 869.55 351 869.55 264C869.55 177 899.55 130.8 965.55 130.8C1031.55 130.8 1061.55 177 1061.55 264ZM1173.18 264C1173.18 381.6 1228.98 476.4 1359.18 476.4C1489.38 476.4 1545.18 381.6 1545.18 264C1545.18 146.4 1489.38 51.6 1359.18 51.6C1228.98 51.6 1173.18 146.4 1173.18 264ZM1455.18 264C1455.18 351 1425.18 397.2 1359.18 397.2C1293.18 397.2 1263.18 351 1263.18 264C1263.18 177 1293.18 130.8 1359.18 130.8C1425.18 130.8 1455.18 177 1455.18 264Z" transform="translate(-28 -51)" fill="white"/>
</svg>
