<svg width="119" height="61" viewBox="0 0 119 61" fill="none" xmlns="http://www.w3.org/2000/svg">
<path fill-rule="evenodd" clip-rule="evenodd" d="M-1.10686e-06 6.46477L2.6114 1.10217e-06H3.0829V0.830669C3.0829 0.72232 3.0829 0.722322 2.97409 0.722322C2.97409 1.08348 2.86529 1.44464 2.6114 1.76969L1.88601 3.75607H3.0829V4.47839H1.66839L0.943006 6.46477H-1.10686e-06ZM14.544 6.46477V1.10217e-06H15.3782V2.23919C15.7409 1.76969 16.2124 1.51687 16.7927 1.51687C17.1554 1.51687 17.3731 1.62522 17.7358 1.76969C17.9534 1.87803 18.0984 2.13085 18.2073 2.34754C18.3161 2.60036 18.4611 2.9254 18.4611 3.39491V6.46477H17.6269V3.39491C17.6269 3.03375 17.5181 2.67259 17.3731 2.56424C17.1554 2.31143 16.9016 2.20308 16.5389 2.20308C16.285 2.20308 16.0674 2.31143 15.9585 2.41978C15.7047 2.52812 15.487 2.67259 15.487 2.88928C15.3782 3.1421 15.3782 3.35879 15.3782 3.8283V6.42866H14.544V6.46477ZM13.7098 5.77857L13.8187 6.50089C13.5648 6.50089 13.3471 6.50089 13.2383 6.50089C12.8756 6.50089 12.658 6.50089 12.513 6.39254C12.4041 6.28419 12.2591 6.13973 12.1503 6.03138C12.1503 5.92303 12.0415 5.56187 12.0415 5.09236V2.38366H11.4611V1.66134H12.0415V0.613973L12.8756 0.144463V1.66134H13.7098V2.38366H12.8756V5.09236C12.8756 5.34517 12.8756 5.45352 12.8756 5.56187C12.9845 5.67022 12.9845 5.67022 13.1295 5.67022C13.1295 5.77857 13.2383 5.77857 13.3834 5.77857C13.456 5.77857 13.601 5.77857 13.7098 5.77857ZM9.93782 6.46477V5.74245C9.57513 6.21196 9.10363 6.57312 8.41451 6.57312C8.16062 6.57312 7.94301 6.46477 7.68912 6.32031C7.32643 6.21196 7.21762 6.0675 7.10881 5.95915C7 5.70634 6.85492 5.59799 6.85492 5.38129C6.85492 5.12848 6.74611 4.91178 6.74611 4.55062V1.5891H7.54404V4.29781C7.54404 4.65897 7.54404 5.02013 7.65285 5.12848C7.65285 5.38129 7.76166 5.48964 7.90674 5.59799C8.16062 5.70634 8.37824 5.81468 8.63212 5.81468C8.88601 5.81468 9.10363 5.70634 9.21243 5.59799C9.46632 5.48964 9.57513 5.34517 9.68394 5.12848C9.79275 4.87567 9.79274 4.55062 9.79274 4.18946V1.5891H10.6269V6.42866H9.93782V6.46477ZM21.6166 1.51687V2.23919C21.1451 2.23919 20.7824 2.34754 20.5648 2.7087C20.3109 2.9254 20.2021 3.43102 20.2021 4.00888C20.2021 4.69508 20.3109 5.20071 20.5648 5.41741C20.8187 5.77857 21.1451 5.88692 21.6166 5.88692V6.60924C20.8912 6.60924 20.3109 6.35643 19.9482 5.88692C19.4767 5.52576 19.3679 4.83955 19.3679 4.00888C19.3679 3.17821 19.5855 2.49201 20.0933 2.13085C20.456 1.76969 21.0363 1.51687 21.6166 1.51687ZM3.04663 1.10217e-06H3.51814L6.12953 6.46477H5.18653L4.46114 4.47839H3.04663V3.75607H4.09845L3.37306 1.87803C3.26425 1.40853 3.11917 1.04736 3.01036 0.830669V1.10217e-06H3.04663ZM21.6166 6.60924V5.88692C21.9793 5.88692 22.342 5.77857 22.5596 5.41741C22.8135 5.1646 23.0311 4.69508 23.0311 4.00888C23.0311 3.43102 22.8135 2.96152 22.5596 2.7087C22.3057 2.34754 21.9793 2.23919 21.6166 2.23919V1.51687C22.1969 1.51687 22.8135 1.76969 23.1399 2.23919C23.6114 2.60036 23.8653 3.17821 23.8653 4.00888C23.8653 4.58674 23.7565 5.05625 23.5026 5.41741C23.3938 5.77857 23.0311 6.13973 22.6684 6.24808C22.342 6.46477 21.9793 6.60924 21.6166 6.60924ZM24.9534 1.66134V6.50089H24.8446V1.66134H24.9534ZM29.4145 6.46477V5.74245L32.4974 2.31143C32.1347 2.31143 31.9171 2.31143 31.5544 2.31143H29.6684V1.5891H33.5855V2.16696L30.9741 5.09236L30.5026 5.67022C30.8653 5.67022 31.228 5.67022 31.5544 5.67022H33.6943V6.39254H29.4145V6.46477ZM27.8912 6.46477V1.62522H28.7254V6.46477H27.8912ZM27.8912 0.939018V1.10217e-06H28.7254V0.939018H27.8912ZM24.9534 6.46477V1.62522H25.5337V2.34754C25.6425 1.98638 25.8964 1.87803 26.0052 1.76969C26.114 1.66134 26.3679 1.51687 26.4767 1.51687C26.8394 1.51687 27.057 1.62522 27.4197 1.76969L27.057 2.60036C26.9482 2.49201 26.6943 2.34754 26.4767 2.34754C26.3679 2.34754 26.114 2.45589 26.0052 2.60036C25.8964 2.7087 25.7876 2.81705 25.7876 2.96152C25.6788 3.32268 25.5337 3.68383 25.5337 4.00888V6.46477H24.9534ZM36.5233 1.51687V2.23919C36.1606 2.23919 35.7979 2.34754 35.5803 2.60036C35.3264 2.81705 35.2176 3.17821 35.1088 3.64772H36.5233V4.22558H35.1088C35.1088 4.80343 35.2176 5.1646 35.5803 5.41741C35.8342 5.77857 36.0518 5.88692 36.5233 5.88692V6.60924C35.7979 6.60924 35.2176 6.35643 34.8549 5.88692C34.4922 5.52576 34.2746 4.83955 34.2746 4.11723C34.2746 3.28656 34.5285 2.7087 34.8549 2.23919C35.3264 1.76969 35.8342 1.51687 36.5233 1.51687ZM38.3005 4.9479V5.77857C38.1917 5.88692 38.0466 6.03138 37.9378 6.13973C37.5751 6.39254 37.1036 6.60924 36.5233 6.60924V5.88692C36.886 5.88692 37.1036 5.77857 37.3575 5.67022C37.4663 5.56187 37.7202 5.30906 37.829 4.9479H38.3005ZM38.3005 2.60036V4.2617H36.5233V3.68384H37.829C37.829 3.21433 37.7202 2.96152 37.4663 2.74482C37.2487 2.38366 36.886 2.27531 36.5233 2.27531V1.55299C37.1036 1.55299 37.7202 1.8058 38.0466 2.27531C38.1917 2.34754 38.3005 2.45589 38.3005 2.60036ZM38.3005 4.22558V2.56424C38.5544 2.9254 38.6632 3.39491 38.6632 3.97277C38.6632 4.08111 38.6632 4.08111 38.6632 4.18946H38.3005V4.22558ZM38.3005 5.77857V4.9479L38.6632 5.05625C38.5544 5.30906 38.4093 5.52576 38.3005 5.77857ZM41.4922 1.51687V2.23919C41.1295 2.23919 40.7668 2.34754 40.5492 2.7087C40.2953 2.9254 40.1865 3.43102 40.1865 4.00888C40.1865 4.69508 40.2953 5.20071 40.5492 5.41741C40.9119 5.77857 41.1295 5.88692 41.4922 5.88692V6.60924C41.0207 6.60924 40.658 6.50089 40.4404 6.24808C40.0777 6.03138 39.8601 5.77857 39.6062 5.30906C39.4974 4.9479 39.3523 4.58674 39.3523 4.00888C39.3523 3.53937 39.4611 3.17821 39.6062 2.7087C39.715 2.34754 39.9689 2.13085 40.3316 1.87803C40.6943 1.66134 41.057 1.51687 41.3834 1.51687H41.4922ZM41.4922 6.60924V5.88692C41.8549 5.88692 42.2176 5.77857 42.4352 5.41741C42.6891 5.1646 42.7979 4.69509 42.7979 4.11723C42.7979 3.53937 42.6891 2.9254 42.4352 2.7087C42.1813 2.34754 41.8549 2.23919 41.4922 2.23919V1.51687C41.7461 1.51687 41.9637 1.62522 42.2176 1.76969C42.4715 1.87803 42.5803 2.0225 42.6891 2.23919V1.10217e-06H43.5233V6.46477H42.7979V5.88692C42.4352 6.24808 42.0725 6.46477 41.4922 6.60924Z" transform="translate(25.4609 43.0864)" fill="#CCAA66"/>
<path fill-rule="evenodd" clip-rule="evenodd" d="M2.35752 0V0.83067C2.35752 0.83067 2.35751 0.83067 2.24871 0.83067H0.943004V5.77857H2.35752V6.60924H2.21371e-06V0H2.35752ZM19.9845 6.57312V1.87803H20.8187V6.57312H19.9845ZM19.9845 0.939017V0H20.8187V0.939017H19.9845ZM16.6839 6.57312V1.87803H17.4093V2.60035C17.6632 2.23919 17.772 2.0225 17.8808 1.87803C18.1347 1.76969 18.2435 1.76969 18.4611 1.76969C18.6788 1.76969 19.0414 1.76969 19.2953 1.98638L19.0415 2.7087C18.7876 2.60036 18.5699 2.60035 18.4611 2.60035C18.2073 2.60035 18.0984 2.60036 17.8808 2.7087C17.772 2.81705 17.6269 2.96152 17.6269 3.17821C17.5181 3.39491 17.5181 3.75607 17.5181 4.11723V6.57312H16.6839ZM15.7409 5.88692V6.60924C15.6321 6.60924 15.3782 6.71759 15.1606 6.71759C14.943 6.71759 14.6891 6.60923 14.5803 6.46477C14.3264 6.46477 14.2176 6.35642 14.2176 6.10361C14.1088 5.99526 14.1088 5.6341 14.1088 5.1646V2.45589H13.5285V1.87803H14.1088V0.577856L14.943 0.108349V1.87803H15.7772V2.45589H14.943V5.27294C14.943 5.38129 14.943 5.63411 14.943 5.63411C14.943 5.74245 15.0518 5.74245 15.0518 5.8508C15.1606 5.8508 15.1606 5.8508 15.3057 5.8508C15.3782 5.88691 15.487 5.88692 15.7409 5.88692ZM8.74093 5.1646L9.57513 5.05625C9.57513 5.41741 9.68394 5.6341 9.93782 5.77857C10.1917 5.99526 10.4093 5.99527 10.772 5.99527C11.1347 5.99527 11.4974 5.99526 11.6062 5.77857C11.8601 5.67022 11.9689 5.52575 11.9689 5.30906C11.9689 5.05625 11.8601 4.9479 11.715 4.83955C11.6062 4.83955 11.2435 4.7312 10.772 4.62286C10.1917 4.51451 9.82902 4.26169 9.57513 4.26169C9.32124 4.15335 9.21243 3.90053 9.10363 3.79218C8.99482 3.53937 8.88601 3.32268 8.88601 3.06986C8.88601 2.85317 8.88601 2.7087 8.99482 2.49201C9.10362 2.38366 9.21243 2.13085 9.46632 2.0225C9.57513 2.0225 9.72021 1.91415 9.93782 1.8058C10.1917 1.8058 10.4093 1.8058 10.6632 1.8058C11.0259 1.8058 11.3886 1.8058 11.6062 1.91415C11.9689 2.0225 12.1865 2.13085 12.3316 2.38366C12.4404 2.49201 12.5855 2.74482 12.5855 3.10598L11.7513 3.21433C11.7513 2.96152 11.6425 2.74482 11.4974 2.63647C11.2798 2.52812 11.0259 2.41977 10.6632 2.41977C10.3005 2.41977 10.0829 2.52812 9.93782 2.63647C9.72021 2.74482 9.72021 2.88928 9.72021 2.99763C9.72021 3.10598 9.72021 3.25045 9.82901 3.35879C9.82901 3.46714 9.93783 3.46714 10.0466 3.57549C10.1554 3.57549 10.4093 3.68384 10.772 3.68384C11.3523 3.93665 11.8238 4.045 11.9689 4.15335C12.2228 4.15335 12.4404 4.37004 12.5492 4.51451C12.658 4.76732 12.8031 4.98401 12.8031 5.23683C12.8031 5.48964 12.6943 5.81468 12.5492 6.0675C12.2953 6.32031 12.0777 6.42866 11.8238 6.53701C11.4611 6.64535 11.0984 6.78982 10.772 6.78982C10.1917 6.78982 9.72021 6.68147 9.35751 6.42866C8.99482 5.99526 8.88601 5.6341 8.74093 5.1646ZM6.85492 6.57312V1.87803H7.58031V6.57312H6.85492ZM6.85492 0.939017V0H7.58031V0.939017H6.85492ZM2.35752 6.57312V5.74245C2.72021 5.74245 3.0829 5.74245 3.30052 5.63411C3.51813 5.63411 3.77202 5.52576 3.88083 5.27294C4.13472 5.1646 4.24353 4.80344 4.35233 4.44227C4.46114 4.08111 4.60622 3.71995 4.60622 3.25044C4.60622 2.52812 4.49741 1.95027 4.24352 1.58911C4.02591 1.22795 3.77202 1.01125 3.40933 0.866786C3.15544 0.758438 2.82902 0.758436 2.35752 0.758436V0C2.82902 0 3.19171 1.09787e-06 3.40933 0.108349C3.88083 0.216697 4.13471 0.36116 4.46114 0.577856C4.82383 0.794552 5.04145 1.30018 5.18653 1.62522C5.44041 2.09473 5.54922 2.67259 5.54922 3.28656C5.54922 3.75607 5.44041 4.22558 5.29534 4.58674C5.18653 4.9479 5.04145 5.30906 4.82383 5.52576C4.71502 5.77857 4.46114 5.99526 4.24352 6.10361C4.02591 6.21196 3.77202 6.32031 3.40933 6.46477C3.19171 6.57312 2.82902 6.57312 2.35752 6.57312ZM24.228 1.76969V2.34754C23.8653 2.34754 23.6477 2.56424 23.285 2.81705C23.0311 3.17821 22.9223 3.64772 22.9223 4.11723C22.9223 4.69508 23.0311 5.16459 23.1762 5.41741C23.3938 5.88692 23.7565 5.99527 24.228 5.99527V6.71759C23.6477 6.71759 23.285 6.46477 22.9223 5.99527V6.57312H22.1969V0H23.0311V2.34754C23.285 1.98638 23.7565 1.76969 24.228 1.76969ZM34.6373 5.88692L34.7461 6.60924C34.4922 6.60924 34.3834 6.71759 34.1658 6.71759C33.9119 6.71759 33.6943 6.60923 33.4404 6.46477C33.3316 6.46477 33.2228 6.35642 33.0777 6.10361C33.0777 5.99526 33.0777 5.6341 33.0777 5.1646V2.45589H32.4974V1.87803H33.0777V0.577856L33.8031 0.108349V1.87803H34.6373V2.45589H33.8031V5.27294C33.8031 5.38129 33.8031 5.63411 33.9119 5.63411C33.9119 5.74245 33.9119 5.74245 34.0207 5.8508C34.0207 5.8508 34.1295 5.8508 34.2383 5.8508C34.4197 5.88691 34.5285 5.88692 34.6373 5.88692ZM30.7565 6.57312V5.8508C30.285 6.42866 29.8135 6.68147 29.2332 6.68147C28.8705 6.68147 28.6528 6.57312 28.399 6.57312C28.1451 6.46477 27.9275 6.21196 27.8186 6.10361C27.7098 5.99526 27.7098 5.74245 27.5648 5.52576C27.5648 5.41741 27.5648 5.1646 27.5648 4.80344V1.87803H28.399V4.47839C28.399 4.9479 28.399 5.20071 28.399 5.30906C28.5078 5.52575 28.6528 5.67022 28.7617 5.77857C28.8705 5.99526 29.1244 5.99527 29.342 5.99527C29.5596 5.99527 29.8135 5.88692 30.0674 5.77857C30.3212 5.67022 30.43 5.52575 30.5389 5.30906C30.6477 5.05625 30.6477 4.83955 30.6477 4.37004V1.91415H31.4819V6.60924H30.7565V6.57312ZM24.228 6.71759V5.99527C24.5907 5.99527 24.9534 5.88692 25.171 5.52576C25.3886 5.30906 25.5337 4.80343 25.5337 4.22558C25.5337 3.50326 25.4249 3.17821 25.171 2.81705C24.9534 2.45589 24.5907 2.34754 24.228 2.34754V1.76969H24.3368C24.5907 1.76969 24.9171 1.76969 25.171 1.87803C25.3886 1.98638 25.6425 2.23919 25.7513 2.34754C26.0052 2.56424 26.114 2.81705 26.2228 3.17821C26.3316 3.39491 26.3316 3.75607 26.3316 4.11723C26.3316 4.9479 26.0777 5.52576 25.7513 5.99527C25.3161 6.46477 24.8446 6.71759 24.228 6.71759ZM35.8342 2.56424V5.74245C35.4715 5.38129 35.3627 4.80343 35.3627 4.22558C35.3627 3.50326 35.4715 3.03375 35.8342 2.56424ZM37.6114 1.76969V2.34754C37.2487 2.34754 36.886 2.56424 36.6684 2.81705C36.3057 3.17821 36.1969 3.64772 36.1969 4.22558C36.1969 4.80343 36.3057 5.27294 36.6684 5.52576C36.9223 5.88692 37.2487 5.99527 37.6114 5.99527V6.71759C37.0311 6.71759 36.4145 6.46477 35.943 5.99527C35.943 5.99527 35.8342 5.88692 35.8342 5.77857V2.60035C35.8342 2.49201 35.943 2.38366 36.0881 2.23919C36.5233 1.87803 37.0311 1.76969 37.6114 1.76969ZM37.6114 6.71759V5.99527C38.0829 5.99527 38.3368 5.88692 38.6632 5.52576C38.9171 5.30906 39.0259 4.80343 39.0259 4.22558C39.0259 3.64772 38.9171 3.17821 38.6632 2.81705C38.3005 2.56424 38.0829 2.34754 37.6114 2.34754V1.76969C38.3368 1.76969 38.8083 1.87803 39.2798 2.34754C39.6425 2.81705 39.8601 3.39491 39.8601 4.11723C39.8601 4.69508 39.7513 5.30906 39.6062 5.52576C39.3523 5.88692 39.1347 6.24808 38.772 6.35643C38.4456 6.57312 38.0829 6.71759 37.6114 6.71759ZM41.0207 6.57312V1.87803H41.7461V2.60035C42 2.23919 42.1088 2.0225 42.2176 1.87803C42.4715 1.76969 42.5803 1.76969 42.7979 1.76969C43.0518 1.76969 43.3782 1.76969 43.6321 1.98638L43.4145 2.7087C43.1606 2.60036 42.943 2.60035 42.8342 2.60035C42.6166 2.60035 42.4715 2.60036 42.2539 2.7087C42.1451 2.81705 42 2.96152 42 3.17821C41.8912 3.39491 41.8912 3.75607 41.8912 4.11723V6.57312H41.0207Z" transform="translate(74.9326 42.978)" fill="#CCAA66"/>
<path fill-rule="evenodd" clip-rule="evenodd" d="M17.5544 20.6584H38.6995L53.4611 5.27294V0L35.7979 20.1889L12.5492 20.0805L24.8083 32.5767L0 61L26.6218 34.4908L17.5544 20.6584Z" fill="#CCAA66"/>
<path fill-rule="evenodd" clip-rule="evenodd" d="M17.0497 17.9858C14.4021 18.5275 12.3347 18.672 10.6663 18.672C4.82693 18.672 -0.141981 16.4689 0.00309676 11.3404C0.00309676 5.95915 5.11708 -5.51087e-07 15.3813 -5.51087e-07C17.8839 -5.51087e-07 19.9513 0.288928 21.0756 0.54174H21.4746L20.2414 5.38129C18.8632 4.83955 17.3399 4.69509 16.0705 4.69509C11.5005 4.69509 8.70776 7.43991 8.70776 10.3653C8.70776 12.7128 10.9202 13.8324 13.7129 13.8324C14.4021 13.8324 15.9254 13.688 18.2829 13.1462L17.0497 17.9858Z" transform="translate(97.5254 18.9971)" fill="#CCAA66"/>
<path fill-rule="evenodd" clip-rule="evenodd" d="M11.6788 10.6542H9.32124L11.6788 6.93428V5.51087e-07H10.5544L-1.10686e-06 18.0941H5.11399L7.18135 14.7715H11.6062V10.6542H11.6788ZM13.057 4.98401L14.0363 10.6542H11.6788V14.8076H14.5803L15.4145 18.1303H23.3212L19.9845 0.036116H11.6788V6.93428L13.057 4.98401Z" transform="translate(71.7051 19.2859)" fill="#CCAA66"/>
<path fill-rule="evenodd" clip-rule="evenodd" d="M11.6425 4.00888L8.88601 14.2297H11.6425C12.3316 14.2297 12.8756 14.0853 13.456 13.9408V17.9497C13.1658 18.0941 12.7668 18.0941 12.4767 18.0941H-1.10686e-06L4.86011 5.51087e-07H13.456V4.00888H11.6425ZM13.4197 13.9408C15.7772 13.2546 17.0104 11.3043 17.7358 8.95678C18.4249 6.21196 17.5907 3.97277 14.399 3.97277H13.4197V5.51087e-07H16.3212C23.1036 5.51087e-07 26.7306 3.71995 25.2073 9.53464C23.5389 15.4577 19.3679 17.8052 13.4197 17.9497V13.9408Z" transform="translate(46.1348 19.2859)" fill="#CCAA66"/>
</svg>
