<svg width="97" height="51" viewBox="0 0 97 51" fill="none" xmlns="http://www.w3.org/2000/svg">
<path fill-rule="evenodd" clip-rule="evenodd" d="M-9.02226e-07 5.40497L2.12862 9.2149e-07H2.51295V0.694493C2.51295 0.603907 2.51295 0.603909 2.42426 0.603909C2.42426 0.905862 2.33557 1.20781 2.12862 1.47957L1.53734 3.14032H2.51295V3.74423H1.35995L0.768669 5.40497H-9.02226e-07ZM11.8552 5.40497V9.2149e-07H12.5352V1.87211C12.8308 1.47957 13.2152 1.26821 13.6882 1.26821C13.9838 1.26821 14.1612 1.35879 14.4569 1.47957C14.6343 1.57016 14.7525 1.78153 14.8412 1.9627C14.9299 2.17407 15.0482 2.44582 15.0482 2.83836V5.40497H14.3682V2.83836C14.3682 2.53641 14.2795 2.23446 14.1612 2.14387C13.9838 1.9325 13.7769 1.84192 13.4813 1.84192C13.2743 1.84192 13.0969 1.9325 13.0082 2.02309C12.8013 2.11368 12.6239 2.23446 12.6239 2.41563C12.5352 2.627 12.5352 2.80817 12.5352 3.20071V5.37478H11.8552V5.40497ZM11.1753 4.83126L11.2639 5.43517C11.057 5.43517 10.8796 5.43517 10.7909 5.43517C10.4953 5.43517 10.3179 5.43517 10.1996 5.34458C10.1109 5.254 9.99268 5.13321 9.90399 5.04263C9.90399 4.95204 9.8153 4.65009 9.8153 4.25755V1.9929H9.34227V1.38899H9.8153V0.513321L10.4953 0.120781V1.38899H11.1753V1.9929H10.4953V4.25755C10.4953 4.46891 10.4953 4.5595 10.4953 4.65009C10.584 4.74067 10.584 4.74067 10.7022 4.74067C10.7022 4.83126 10.7909 4.83126 10.9092 4.83126C10.9683 4.83126 11.0866 4.83126 11.1753 4.83126ZM8.10058 5.40497V4.80106C7.80494 5.1936 7.4206 5.49556 6.85888 5.49556C6.65194 5.49556 6.47455 5.40497 6.2676 5.28419C5.97196 5.19361 5.88327 5.07282 5.79458 4.98224C5.70588 4.77087 5.58762 4.68028 5.58762 4.49911C5.58762 4.28774 5.49893 4.10657 5.49893 3.80462V1.3286H6.14934V3.59325C6.14934 3.8952 6.14934 4.19716 6.23804 4.28774C6.23804 4.49911 6.32673 4.5897 6.44499 4.68028C6.65193 4.77087 6.82932 4.86145 7.03627 4.86145C7.24322 4.86145 7.4206 4.77087 7.50929 4.68028C7.71624 4.5897 7.80494 4.46892 7.89363 4.28774C7.98232 4.07638 7.98232 3.80462 7.98232 3.50266V1.3286H8.6623V5.37478H8.10058V5.40497ZM17.6202 1.26821V1.87211C17.2359 1.87211 16.9403 1.9627 16.7629 2.26465C16.5559 2.44583 16.4672 2.86856 16.4672 3.35169C16.4672 3.9254 16.5559 4.34814 16.7629 4.52931C16.9698 4.83126 17.2359 4.92185 17.6202 4.92185V5.52576C17.029 5.52576 16.5559 5.31439 16.2603 4.92185C15.8759 4.6199 15.7873 4.04618 15.7873 3.35169C15.7873 2.65719 15.9646 2.08348 16.3785 1.78153C16.6742 1.47957 17.1472 1.26821 17.6202 1.26821ZM2.48339 9.2149e-07H2.86772L4.99634 5.40497H4.22767L3.63639 3.74423H2.48339V3.14032H3.34075L2.74947 1.57016C2.66077 1.17762 2.54252 0.875666 2.45382 0.694493V9.2149e-07H2.48339ZM17.6202 5.52576V4.92185C17.9159 4.92185 18.2115 4.83126 18.3889 4.52931C18.5959 4.31794 18.7732 3.9254 18.7732 3.35169C18.7732 2.86856 18.5959 2.47602 18.3889 2.26465C18.182 1.9627 17.9159 1.87211 17.6202 1.87211V1.26821C18.0933 1.26821 18.5959 1.47957 18.8619 1.87211C19.2463 2.17407 19.4532 2.65719 19.4532 3.35169C19.4532 3.83481 19.3645 4.22735 19.1576 4.52931C19.0689 4.83126 18.7732 5.13322 18.4776 5.2238C18.2115 5.40498 17.9159 5.52576 17.6202 5.52576ZM20.3401 1.38899V5.43517H20.2514V1.38899H20.3401ZM23.9765 5.40497V4.80106L26.4895 1.9325C26.1938 1.9325 26.0165 1.9325 25.7208 1.9325H24.1835V1.3286H27.3764V1.81172L25.2478 4.25755L24.8635 4.74067C25.1591 4.74067 25.4547 4.74067 25.7208 4.74067H27.4651V5.34458H23.9765V5.40497ZM22.7348 5.40497V1.35879H23.4148V5.40497H22.7348ZM22.7348 0.78508V9.2149e-07H23.4148V0.78508H22.7348ZM20.3401 5.40497V1.35879H20.8132V1.9627C20.9019 1.66075 21.1088 1.57016 21.1975 1.47957C21.2862 1.38899 21.4931 1.26821 21.5818 1.26821C21.8775 1.26821 22.0549 1.35879 22.3505 1.47957L22.0549 2.17407C21.9662 2.08348 21.7592 1.9627 21.5818 1.9627C21.4931 1.9627 21.2862 2.05329 21.1975 2.17407C21.1088 2.26465 21.0201 2.35524 21.0201 2.47602C20.9314 2.77798 20.8132 3.07993 20.8132 3.35169V5.40497H20.3401ZM29.7711 1.26821V1.87211C29.4755 1.87211 29.1798 1.9627 29.0024 2.17407C28.7955 2.35524 28.7068 2.65719 28.6181 3.04973H29.7711V3.53286H28.6181C28.6181 4.01599 28.7068 4.31794 29.0024 4.52931C29.2094 4.83126 29.3868 4.92185 29.7711 4.92185V5.52576C29.1798 5.52576 28.7068 5.31439 28.4112 4.92185C28.1155 4.6199 27.9381 4.04618 27.9381 3.44227C27.9381 2.74778 28.1451 2.26465 28.4112 1.87211C28.7955 1.47957 29.2094 1.26821 29.7711 1.26821ZM31.2197 4.13677V4.83126C31.1311 4.92185 31.0128 5.04263 30.9241 5.13322C30.6285 5.34458 30.2441 5.52576 29.7711 5.52576V4.92185C30.0667 4.92185 30.2441 4.83126 30.4511 4.74067C30.5398 4.65009 30.7467 4.43872 30.8354 4.13677H31.2197ZM31.2197 2.17407V3.56306H29.7711V3.07993H30.8354C30.8354 2.68739 30.7467 2.47602 30.5398 2.29485C30.3624 1.9929 30.0667 1.90231 29.7711 1.90231V1.2984C30.2441 1.2984 30.7467 1.50977 31.0128 1.90231C31.1311 1.9627 31.2197 2.05329 31.2197 2.17407ZM31.2197 3.53286V2.14387C31.4267 2.44583 31.5154 2.83837 31.5154 3.32149C31.5154 3.41208 31.5154 3.41208 31.5154 3.50266H31.2197V3.53286ZM31.2197 4.83126V4.13677L31.5154 4.22735C31.4267 4.43872 31.3084 4.61989 31.2197 4.83126ZM33.8214 1.26821V1.87211C33.5258 1.87211 33.2301 1.9627 33.0527 2.26465C32.8458 2.44583 32.7571 2.86856 32.7571 3.35169C32.7571 3.9254 32.8458 4.34814 33.0527 4.52931C33.3484 4.83126 33.5258 4.92185 33.8214 4.92185V5.52576C33.4371 5.52576 33.1414 5.43517 32.964 5.2238C32.6684 5.04263 32.491 4.83126 32.2841 4.43872C32.1954 4.13677 32.0771 3.83481 32.0771 3.35169C32.0771 2.95915 32.1658 2.65719 32.2841 2.26465C32.3727 1.9627 32.5797 1.78153 32.8753 1.57016C33.171 1.38899 33.4666 1.26821 33.7327 1.26821H33.8214ZM33.8214 5.52576V4.92185C34.117 4.92185 34.4127 4.83126 34.5901 4.52931C34.797 4.31794 34.8857 3.9254 34.8857 3.44227C34.8857 2.95915 34.797 2.44583 34.5901 2.26465C34.3831 1.9627 34.117 1.87211 33.8214 1.87211V1.26821C34.0283 1.26821 34.2057 1.35879 34.4127 1.47957C34.6196 1.57016 34.7083 1.69094 34.797 1.87211V9.2149e-07H35.477V5.40497H34.8857V4.92185C34.5901 5.2238 34.2944 5.40498 33.8214 5.52576Z" transform="translate(20.7539 36.0231)" fill="white"/>
<path fill-rule="evenodd" clip-rule="evenodd" d="M1.92167 0V0.694495C1.92167 0.694495 1.92167 0.694495 1.83298 0.694495H0.768667V4.83126H1.92167V5.52576H1.80445e-06V0H1.92167ZM16.2899 5.49556V1.57016H16.9698V5.49556H16.2899ZM16.2899 0.78508V0H16.9698V0.78508H16.2899ZM13.5995 5.49556V1.57016H14.1908V2.17407C14.3977 1.87211 14.4864 1.69094 14.5751 1.57016C14.7821 1.47957 14.8708 1.47957 15.0482 1.47957C15.2255 1.47957 15.5212 1.47957 15.7281 1.66075L15.5212 2.26465C15.3142 2.17407 15.1368 2.17407 15.0482 2.17407C14.8412 2.17407 14.7525 2.17407 14.5751 2.26465C14.4864 2.35524 14.3682 2.47602 14.3682 2.65719C14.2795 2.83837 14.2795 3.14032 14.2795 3.44227V5.49556H13.5995ZM12.8308 4.92185V5.52576C12.7422 5.52576 12.5352 5.61634 12.3578 5.61634C12.1804 5.61634 11.9735 5.52575 11.8848 5.40497C11.6778 5.40497 11.5892 5.31439 11.5892 5.10302C11.5005 5.01243 11.5005 4.71048 11.5005 4.31794V2.05329H11.0274V1.57016H11.5005V0.483126L12.1804 0.0905871V1.57016H12.8604V2.05329H12.1804V4.40853C12.1804 4.49911 12.1804 4.71048 12.1804 4.71048C12.1804 4.80107 12.2691 4.80107 12.2691 4.89165C12.3578 4.89165 12.3578 4.89165 12.4761 4.89165C12.5352 4.92185 12.6239 4.92185 12.8308 4.92185ZM7.12496 4.31794L7.80494 4.22735C7.80494 4.52931 7.89363 4.71048 8.10058 4.83126C8.30753 5.01243 8.48491 5.01244 8.78056 5.01244C9.0762 5.01244 9.37184 5.01243 9.46053 4.83126C9.66748 4.74068 9.75617 4.61989 9.75617 4.43872C9.75617 4.22735 9.66748 4.13677 9.54922 4.04618C9.46053 4.04618 9.16489 3.9556 8.78056 3.86501C8.30753 3.77442 8.01189 3.56306 7.80494 3.56306C7.59799 3.47247 7.50929 3.2611 7.4206 3.17052C7.33191 2.95915 7.24322 2.77798 7.24322 2.56661C7.24322 2.38544 7.24322 2.26465 7.33191 2.08348C7.4206 1.9929 7.50929 1.78153 7.71624 1.69094C7.80494 1.69094 7.92319 1.60036 8.10058 1.50977C8.30753 1.50977 8.48491 1.50977 8.69186 1.50977C8.9875 1.50977 9.28315 1.50977 9.46053 1.60036C9.75617 1.69094 9.93356 1.78153 10.0518 1.99289C10.1405 2.08348 10.2588 2.29485 10.2588 2.5968L9.57879 2.68739C9.57879 2.47602 9.4901 2.29485 9.37184 2.20426C9.19445 2.11368 8.9875 2.02309 8.69186 2.02309C8.39622 2.02309 8.21884 2.11368 8.10058 2.20426C7.92319 2.29485 7.92319 2.41563 7.92319 2.50622C7.92319 2.5968 7.92319 2.71759 8.01189 2.80817C8.01189 2.89876 8.10058 2.89876 8.18927 2.98934C8.27796 2.98934 8.48491 3.07993 8.78056 3.07993C9.25358 3.2913 9.63792 3.38188 9.75617 3.47247C9.96312 3.47247 10.1405 3.65364 10.2292 3.77442C10.3179 3.98579 10.4361 4.16696 10.4361 4.37833C10.4361 4.5897 10.3475 4.86146 10.2292 5.07283C10.0222 5.28419 9.84486 5.37478 9.63791 5.46537C9.34227 5.55595 9.04663 5.67673 8.78056 5.67673C8.30753 5.67673 7.92319 5.58615 7.62755 5.37478C7.33191 5.01243 7.24322 4.71048 7.12496 4.31794ZM5.58763 5.49556V1.57016H6.17891V5.49556H5.58763ZM5.58763 0.78508V0H6.17891V0.78508H5.58763ZM1.92167 5.49556V4.80106C2.21731 4.80106 2.51295 4.80107 2.69034 4.71048C2.86772 4.71048 3.07467 4.6199 3.16337 4.40853C3.37031 4.31794 3.45901 4.01599 3.5477 3.71403C3.63639 3.41208 3.75465 3.11012 3.75465 2.71758C3.75465 2.11368 3.66596 1.63055 3.45901 1.3286C3.28162 1.02664 3.07467 0.845471 2.77903 0.72469C2.57208 0.634104 2.30601 0.634103 1.92167 0.634103V0C2.30601 0 2.60165 9.1789e-07 2.77903 0.0905871C3.16336 0.181173 3.37031 0.301953 3.63639 0.483126C3.93203 0.664298 4.10942 1.08703 4.22767 1.35879C4.43462 1.75133 4.52331 2.23446 4.52331 2.74778C4.52331 3.14032 4.43462 3.53286 4.31637 3.83481C4.22767 4.13677 4.10942 4.43872 3.93203 4.61989C3.84334 4.83126 3.63639 5.01243 3.45901 5.10302C3.28162 5.1936 3.07467 5.28419 2.77903 5.40497C2.60165 5.49556 2.30601 5.49556 1.92167 5.49556ZM19.7489 1.47957V1.9627C19.4532 1.9627 19.2758 2.14387 18.9802 2.35524C18.7732 2.65719 18.6845 3.04973 18.6845 3.44227C18.6845 3.9254 18.7732 4.31794 18.8915 4.52931C19.0689 4.92185 19.3645 5.01244 19.7489 5.01244V5.61634C19.2758 5.61634 18.9802 5.40498 18.6845 5.01244V5.49556H18.0933V0H18.7732V1.9627C18.9802 1.66075 19.3645 1.47957 19.7489 1.47957ZM28.2338 4.92185L28.3225 5.52576C28.1155 5.52576 28.0268 5.61634 27.8494 5.61634C27.6425 5.61634 27.4651 5.52575 27.2582 5.40497C27.1695 5.40497 27.0808 5.31439 26.9625 5.10302C26.9625 5.01243 26.9625 4.71048 26.9625 4.31794V2.05329H26.4895V1.57016H26.9625V0.483126L27.5538 0.0905871V1.57016H28.2338V2.05329H27.5538V4.40853C27.5538 4.49911 27.5538 4.71048 27.6425 4.71048C27.6425 4.80107 27.6425 4.80107 27.7312 4.89165C27.7312 4.89165 27.8199 4.89165 27.9086 4.89165C28.0564 4.92185 28.1451 4.92185 28.2338 4.92185ZM25.0704 5.49556V4.89165C24.6861 5.37478 24.3017 5.58615 23.8287 5.58615C23.5331 5.58615 23.3557 5.49556 23.1487 5.49556C22.9418 5.40497 22.7644 5.1936 22.6757 5.10302C22.587 5.01243 22.587 4.80107 22.4688 4.61989C22.4688 4.52931 22.4688 4.31794 22.4688 4.01599V1.57016H23.1487V3.74423C23.1487 4.13677 23.1487 4.34813 23.1487 4.43872C23.2374 4.61989 23.3557 4.74068 23.4444 4.83126C23.5331 5.01243 23.74 5.01244 23.9174 5.01244C24.0948 5.01244 24.3017 4.92185 24.5087 4.83126C24.7156 4.74068 24.8043 4.61989 24.893 4.43872C24.9817 4.22735 24.9817 4.04618 24.9817 3.65364V1.60036H25.6617V5.52576H25.0704V5.49556ZM19.7489 5.61634V5.01244C20.0445 5.01244 20.3401 4.92185 20.5175 4.61989C20.6949 4.43872 20.8132 4.01599 20.8132 3.53286C20.8132 2.92895 20.7245 2.65719 20.5175 2.35524C20.3401 2.05329 20.0445 1.9627 19.7489 1.9627V1.47957H19.8376C20.0445 1.47957 20.3106 1.47957 20.5175 1.57016C20.6949 1.66075 20.9019 1.87211 20.9906 1.9627C21.1975 2.14387 21.2862 2.35524 21.3749 2.65719C21.4636 2.83837 21.4636 3.14032 21.4636 3.44227C21.4636 4.13677 21.2566 4.6199 20.9906 5.01244C20.6358 5.40498 20.2514 5.61634 19.7489 5.61634ZM29.2094 2.14387V4.80106C28.9137 4.49911 28.8251 4.01599 28.8251 3.53286C28.8251 2.92895 28.9137 2.53641 29.2094 2.14387ZM30.658 1.47957V1.9627C30.3624 1.9627 30.0668 2.14387 29.8894 2.35524C29.5937 2.65719 29.505 3.04973 29.505 3.53286C29.505 4.01599 29.5937 4.40853 29.8894 4.61989C30.0963 4.92185 30.3624 5.01244 30.658 5.01244V5.61634C30.185 5.61634 29.6824 5.40498 29.2981 5.01244C29.2981 5.01244 29.2094 4.92185 29.2094 4.83126V2.17407C29.2094 2.08348 29.2981 1.99289 29.4163 1.87211C29.7711 1.57016 30.185 1.47957 30.658 1.47957ZM30.658 5.61634V5.01244C31.0424 5.01244 31.2493 4.92185 31.5154 4.61989C31.7223 4.43872 31.811 4.01599 31.811 3.53286C31.811 3.04973 31.7223 2.65719 31.5154 2.35524C31.2198 2.14387 31.0424 1.9627 30.658 1.9627V1.47957C31.2493 1.47957 31.6336 1.57016 32.018 1.9627C32.3136 2.35524 32.491 2.83836 32.491 3.44227C32.491 3.9254 32.4023 4.43872 32.2841 4.61989C32.0771 4.92185 31.8997 5.2238 31.6041 5.31439C31.338 5.49556 31.0424 5.61634 30.658 5.61634ZM33.4371 5.49556V1.57016H34.0283V2.17407C34.2353 1.87211 34.324 1.69094 34.4127 1.57016C34.6196 1.47957 34.7083 1.47957 34.8857 1.47957C35.0927 1.47957 35.3587 1.47957 35.5657 1.66075L35.3883 2.26465C35.1813 2.17407 35.004 2.17407 34.9153 2.17407C34.7379 2.17407 34.6196 2.17407 34.4422 2.26465C34.3536 2.35524 34.2353 2.47602 34.2353 2.65719C34.1466 2.83837 34.1466 3.14032 34.1466 3.44227V5.49556H33.4371Z" transform="translate(61.0791 35.9325)" fill="white"/>
<path fill-rule="evenodd" clip-rule="evenodd" d="M14.3091 17.2718H31.545L43.5776 4.40853V0L29.1798 16.8792L10.2292 16.7886L20.2219 27.2362L0 51L21.7001 28.8366L14.3091 17.2718Z" fill="white"/>
<path fill-rule="evenodd" clip-rule="evenodd" d="M13.8977 15.0373C11.7395 15.4902 10.0543 15.611 8.69438 15.611C3.93455 15.611 -0.115732 13.7691 0.00252425 9.48135C0.00252425 4.98224 4.17107 -4.60745e-07 12.5377 -4.60745e-07C14.5777 -4.60745e-07 16.2628 0.241563 17.1793 0.45293H17.5045L16.4993 4.49911C15.3759 4.04618 14.1342 3.9254 13.0995 3.9254C9.37437 3.9254 7.09792 6.22025 7.09792 8.66608C7.09792 10.6288 8.90134 11.5648 11.1778 11.5648C11.7395 11.5648 12.9812 11.4441 14.9029 10.9911L13.8977 15.0373Z" transform="translate(79.4951 15.8828)" fill="white"/>
<path fill-rule="evenodd" clip-rule="evenodd" d="M9.51966 8.90764H7.59799L9.51966 5.79751V4.60745e-07H8.60317L-9.02227e-07 15.1279H4.16855L5.8537 12.3499H9.46053V8.90764H9.51966ZM10.6431 4.16696L11.4413 8.90764H9.51966V12.3801H11.8848L12.5648 15.1581H19.0098L16.2899 0.0301954H9.51966V5.79751L10.6431 4.16696Z" transform="translate(58.4482 16.1243)" fill="white"/>
<path fill-rule="evenodd" clip-rule="evenodd" d="M9.4901 3.35169L7.24322 11.897H9.4901C10.0518 11.897 10.4953 11.7762 10.9683 11.6554V15.0071C10.7318 15.1279 10.4066 15.1279 10.1701 15.1279H-9.02226e-07L3.9616 4.60745e-07H10.9683V3.35169H9.4901ZM10.9387 11.6554C12.8604 11.0817 13.8656 9.45116 14.4569 7.48846C15.0186 5.19361 14.3386 3.32149 11.737 3.32149H10.9387V4.60745e-07H13.3039C18.8324 4.60745e-07 21.7888 3.11013 20.5471 7.97158C19.1871 12.9236 15.7873 14.8863 10.9387 15.0071V11.6554Z" transform="translate(37.6055 16.1243)" fill="white"/>
</svg>
