<svg width="246" height="61" viewBox="0 0 246 61" fill="none" xmlns="http://www.w3.org/2000/svg">
<path d="M166.169 60.8567H169.206L171.954 51.0966H168.917L166.169 60.8567ZM143.029 55.9766C142.596 57.699 142.017 58.2731 140.716 58.2731H135.798L137.1 53.5366H142.017C143.319 53.5366 143.608 54.1108 143.029 55.9766ZM143.319 51.0966H134.786L132.038 60.8567H140.571C144.186 60.8567 145.054 59.7084 146.066 55.9766C147.079 52.2449 146.79 51.0966 143.319 51.0966ZM155.033 51.0966L154.31 53.6802H158.649L156.624 60.8567H159.661L161.686 53.6802H166.024L166.747 51.0966H155.033ZM182.656 55.9766C181.932 58.4167 181.932 58.4167 178.462 58.4167C174.991 58.4167 174.991 58.4167 175.714 55.9766C176.437 53.5366 176.437 53.5366 179.908 53.5366C183.379 53.3931 183.379 53.5366 182.656 55.9766ZM180.631 50.9531C174.268 50.9531 173.978 51.2402 172.677 55.9766C171.375 60.7131 171.375 61.0002 177.738 61.0002C184.102 61.0002 184.391 60.7131 185.693 55.9766C186.994 51.2402 186.994 50.9531 180.631 50.9531ZM239.058 54.5413C240.07 50.9531 239.492 50.8096 233.707 50.8096C227.488 50.8096 227.199 51.0966 225.897 55.8331C224.596 60.5696 224.74 60.8567 230.959 60.8567C237.322 60.8567 237.322 60.8567 238.913 55.1155H232.116L231.393 57.4119H235.153C234.864 58.4167 234.864 58.4167 231.537 58.4167C228.211 58.4167 228.211 58.4167 228.79 55.9766C229.513 53.5366 229.513 53.3931 232.839 53.3931C236.165 53.3931 236.165 53.3931 235.876 54.5413H239.058ZM129.146 51.0966L127.266 57.8425C127.266 57.9861 127.266 58.7037 127.266 58.8472V58.9908C127.121 58.9908 127.121 58.5602 127.121 58.4167L123.94 51.2402H119.022L116.275 61.0002H119.312L121.192 54.2543C121.192 54.1108 121.192 53.3931 121.192 53.2496C121.336 53.2496 121.336 53.6802 121.336 53.8237L124.518 61.0002H129.435L132.183 51.2402H129.146V51.0966ZM199.865 51.0966L197.985 57.8425C197.985 57.9861 197.985 58.7037 197.985 58.8472V58.9908C197.841 58.9908 197.841 58.5602 197.841 58.4167L194.659 51.2402H189.742L186.994 61.0002H190.031L191.911 54.2543C191.911 54.1108 191.911 53.3931 191.911 53.2496C192.056 53.2496 192.056 53.6802 192.056 53.8237L195.238 61.0002H200.155L202.902 51.2402H199.865V51.0966ZM219.245 57.8425C219.245 57.9861 219.245 58.7037 219.245 58.8472V58.9908C219.1 58.9908 219.1 58.5602 219.1 58.4167L215.918 51.2402H211.001L208.253 61.0002H211.29L213.171 54.2543C213.171 54.1108 213.171 53.3931 213.171 53.2496C213.315 53.2496 213.315 53.6802 213.315 53.8237L216.497 61.0002H221.414L224.162 51.2402H221.125L219.245 57.8425ZM205.361 51.0966L202.613 60.8567H205.65L208.398 51.0966H205.361ZM147.223 60.8567H150.261L153.008 51.0966H149.971L147.223 60.8567ZM75.3469 54.5413C75.2023 55.259 74.7685 55.5461 74.19 55.5461H69.2729L69.8513 53.5366H74.7685C75.3469 53.5366 75.4916 53.8237 75.3469 54.5413ZM76.3593 51.0966H67.5374L64.7896 60.8567H67.8267L68.5498 58.1296H73.3223C74.0454 58.1296 74.19 58.7037 74.0453 59.1343L73.6115 60.8567H76.6485L77.227 58.7037C77.5163 57.412 77.3716 57.1249 76.3593 56.6943C77.3716 56.2637 78.0947 55.5461 78.5286 53.9672C79.1071 51.6707 78.384 51.0966 76.3593 51.0966ZM95.16 50.9531C89.3752 50.9531 89.0859 51.3837 87.7843 55.9766C86.4827 60.5696 86.6274 61.0002 92.4122 61.0002C98.197 61.0002 98.6309 60.4261 99.4986 57.1249H96.4616C96.1723 58.2731 95.7385 58.5602 93.1353 58.5602C90.0983 58.5602 90.0983 58.5602 90.8214 56.1202C91.5445 53.6802 91.5445 53.6802 94.4369 53.6802C97.1847 53.6802 97.3293 53.9672 97.0401 55.1155H100.077C101.089 51.5272 100.945 50.9531 95.16 50.9531ZM50.1829 56.6943L52.7861 53.2496H53.22L53.9431 56.6943H50.1829ZM51.0506 51.0966L43.3857 60.8567H46.8566L48.3029 59.2778H54.3769L54.8108 60.8567H58.2817L56.1124 51.0966H51.0506ZM62.4757 51.0966L59.7279 60.8567H62.7649L65.5127 51.0966H62.4757ZM112.081 55.9766C111.358 58.4167 111.358 58.4167 107.887 58.4167C104.416 58.4167 104.416 58.4167 105.139 55.9766C105.862 53.5366 105.862 53.5366 109.333 53.5366C112.659 53.3931 112.659 53.5366 112.081 55.9766ZM109.911 50.9531C103.548 50.9531 103.259 51.2402 101.957 55.9766C100.656 60.7131 100.656 61.0002 107.019 61.0002C113.382 61.0002 113.671 60.7131 114.973 55.9766C116.419 51.2402 116.275 50.9531 109.911 50.9531Z" fill="#6E7272"/>
<path d="M0 0H55.5344L0 50.9531V0Z" fill="#6E7272"/>
<path d="M27.7672 0H0V25.4048L27.7672 0Z" fill="#6E7272"/>
<path d="M193.358 10.9084H206.518L199.287 40.045H186.127L193.358 10.9084Z" fill="#6E7272"/>
<path d="M146.936 40.045H158.794L160.964 31.2897L167.616 40.045H182.078L171.666 25.2614L187.863 10.9084H174.124L163.712 19.9508L166.025 10.9084H153.588L146.936 40.045Z" fill="#6E7272"/>
<path d="M126.688 40.045L133.92 10.9084H147.08L139.849 40.045H126.688Z" fill="#6E7272"/>
<path d="M205.507 40.045H214.473L218.667 23.3955L224.018 40.045H238.625L246.001 10.9084H236.311L232.262 26.9838L226.477 10.9084H212.738L205.507 40.045Z" fill="#6E7272"/>
<path d="M48.3037 40.045L55.6794 10.9084H75.2032C75.2032 10.9084 88.7975 11.9132 87.3513 25.5485C87.3513 25.9791 86.6282 37.605 72.1661 39.9015H48.3037V40.045ZM68.1168 33.2991C68.1168 33.2991 73.757 32.8685 75.3478 26.2661C75.3478 26.2661 76.2155 21.2426 74.3355 19.3767C74.3355 19.3767 73.0339 18.2285 71.1538 18.2285H66.0921L62.4766 33.2991H68.1168Z" fill="#6E7272"/>
<path d="M98.3425 34.4474L94.8716 40.045H86.1943L102.392 10.9084H117.288L122.494 40.045H109.478L108.611 34.4474H98.3425ZM107.309 27.845L106.007 20.3814L101.958 27.845H107.309Z" fill="#6E7272"/>
</svg>
