<svg width="259" height="38" viewBox="0 0 259 38" fill="none" xmlns="http://www.w3.org/2000/svg">
<path d="M24.8648 0.408602H15.9338L7.51019 11.9516H7.4087V0.408602H-1.5486e-06V28.6021H7.4087V15.8333H7.51019L16.2382 28.6021H25.7782L14.6144 13.586L24.8648 0.408602ZM36.536 16.957H48.1058V11.6452H36.536V5.82258H48.8162V0.408602H29.1274V28.6021H49.3237V23.2903H36.536V16.957ZM73.3766 19.6129L63.8366 0.408602H54.2966V28.6021H61.1979L60.9949 9.39785H61.0964L70.8393 28.6021H80.0748V0.408602H73.2751L73.3766 19.6129ZM104.94 0.408602H83.7284V5.92473H90.6297V28.5H98.0384V6.02688H104.94V0.408602ZM113.871 0.408602L103.214 28.6021H110.826L113.059 22.5753H123.512L125.643 28.6021H133.864L123.005 0.408602H113.871ZM114.683 17.2634L118.336 6.23118H118.438L121.787 17.2634H114.683ZM132.24 6.02688H139.141V28.6021H146.55V6.02688H153.451V0.408602H132.24V6.02688ZM163.905 8.17204C163.905 5.72043 167.051 5.51613 168.878 5.51613C171.009 5.51613 173.14 5.92473 175.069 6.84409L175.576 1.02151C173.648 0.408602 171.009 9.74183e-08 168.37 9.74183e-08C162.788 9.74183e-08 156.192 1.83871 156.192 8.58064C156.192 18.7957 169.385 15.5269 169.385 20.7366C169.385 22.9839 167.152 23.4946 164.818 23.4946C161.773 23.4946 159.033 22.6774 157.105 21.6559L156.496 27.8871C158.932 28.7043 162.179 29.1129 164.818 29.1129C171.009 29.1129 177.098 27.172 177.098 19.8172C177.098 9.7043 163.905 12.7688 163.905 8.17204ZM198.614 0.408602V16.6505C198.614 20.328 197.599 23.4946 193.844 23.4946C189.987 23.4946 189.074 20.328 189.074 16.6505V0.408602H181.564V17.8763C181.564 25.5376 186.537 29.0107 193.844 29.0107C201.151 29.0107 206.124 25.5376 206.124 17.8763V0.408602H198.614Z" transform="translate(52.876 4.49414)" fill="#6E7272"/>
<path d="M37.8554 24.1075L29.1274 19L37.8554 13.7903L32.6795 5.00538L23.9514 10.1129V0H13.8025V10.1129L5.17594 5.00538L0 13.7903L8.72806 19L0 24.1075L5.07445 32.8925L13.8025 27.7849V38H23.9514V27.7849L32.6795 32.8925L37.8554 24.1075ZM29.0259 19L23.9514 27.7849H13.8025L8.72806 19L13.8025 10.2151H23.8499L29.0259 19Z" fill="#6E7272"/>
</svg>
