<svg width="211" height="56" viewBox="0 0 211 56" fill="none" xmlns="http://www.w3.org/2000/svg">
<path d="M44.3338 48.3236L43.3814 51.3753C42.683 53.4831 43.0005 54.8674 44.3338 55.4966V48.3236ZM15.9847 40.1438L12.7783 50.6202C12.3974 51.564 12.6514 52.0045 13.3498 52.0045H13.7307C14.3656 52.0045 14.8736 51.564 15.2545 50.6202L18.3974 40.1438H30.7783L27.5719 50.6202C27.191 51.564 27.445 52.0045 28.2069 52.0045H28.4608C29.1592 52.0045 29.6672 51.564 30.0481 50.6202L33.2545 40.1438H44.3338V44.391L42.2703 51.2494C41.3814 54.427 39.3179 56 36.2703 56H3.44503C0.492656 56 -0.586706 54.427 0.30218 51.2494L3.82598 40.1438H15.9847ZM58.1115 40.1438H51.4449C48.429 40.1438 46.3973 41.6539 45.4449 44.7056L44.3021 48.3236V55.4966C44.8735 55.8112 45.6354 55.9371 46.4925 55.9371H58.0798V51.8787C57.8258 52.0674 57.5719 52.1933 57.1909 52.1933H56.302C55.6036 52.1933 55.4766 51.7528 55.6036 51.0607L57.5084 44.8C57.5719 44.4225 57.7623 44.1708 58.0798 44.0449V40.1438H58.1115ZM44.3338 40.1438H45.6036L44.3338 44.391V40.1438ZM71.6036 51.6899L70.2702 55.9371H71.6036V51.6899ZM71.6036 40.5843V47.8202L70.4607 51.3753C69.5083 54.427 67.5083 55.9371 64.3972 55.9371H58.1115V51.8787C58.3655 51.6899 58.4925 51.4382 58.556 51.0607L60.5877 44.8C60.7147 44.1079 60.5877 43.8562 59.7623 43.8562H59.0004C58.6195 43.8562 58.3655 43.9191 58.1115 44.0449V40.1124H69.1909C70.2385 40.1438 70.9687 40.2697 71.6036 40.5843ZM71.6036 47.8202L72.5559 44.7056C73.2544 42.5663 72.9369 41.2135 71.6036 40.5843V47.8202ZM87.3496 45.7438L85.5718 51.2494C85.0639 52.8225 85.3178 53.9236 86.0162 54.7416C86.3972 55.182 86.8416 55.4966 87.3496 55.6225V45.7438ZM87.3496 35.2674V41.6225L82.8734 55.9371H71.6036V51.6899L76.7147 35.2674H87.3496ZM87.3496 41.6225L89.3178 35.2674H87.3496V41.6225ZM105.826 46.9393C105.445 48.0719 105 49.4247 104.619 50.9978C103.857 53.2944 104.238 54.8045 105.826 55.5596V46.9393ZM105.826 40.018V43.8876H100.588C100.08 45.3978 99.7622 46.5618 99.5717 47.2539C99.3178 47.8202 99.1908 48.4494 98.9368 48.9528C98.8098 49.5191 98.6194 50.1483 98.4924 50.6517C98.3019 51.5955 98.5559 52.036 99.5717 52.036H103.54L102.334 55.9685H90.3654C89.3496 55.9685 88.7146 55.9685 88.2384 55.7798C87.8575 55.7798 87.6035 55.7798 87.3496 55.6539V45.7753L89.1908 39.8292L103.857 33.7258L101.762 40.018H105.826ZM105.826 43.8876H106.08L107.35 40.018H105.826V43.8876ZM133.222 52.1303L132.016 55.9371H133.222V52.1303ZM133.222 40.8045V48.0404L132.588 49.9281H118.143L119.286 46.1843H121.349L121.794 44.9888C121.857 44.6742 121.73 44.3596 121.603 44.1079C121.413 43.9191 121.222 43.8562 121.032 43.8562H120.524C119.953 43.8562 119.635 43.8562 119.381 44.1079C119.127 44.3596 118.81 44.7371 118.619 45.1775L117.032 50.6831C116.905 50.9978 116.905 51.3753 117.032 51.6899C117.159 51.9416 117.286 52.1303 117.73 52.1933H126.492H131.921L130.715 55.9371V56H107.73C106.905 55.9371 106.27 55.7483 105.794 55.5596V46.9393C105.921 46.436 106.048 45.9955 106.175 45.618C106.81 43.9191 107.635 42.7551 108.556 41.8742C109.699 40.6787 111.127 40.1124 112.842 40.1124H117.762H121.603H125.381H130.461C131.476 40.1124 132.302 40.3011 132.841 40.6157C132.968 40.6787 133.095 40.7416 133.222 40.8045ZM133.222 48.0719L134.175 44.9573C134.365 44.2652 134.492 43.5101 134.365 42.4719C134.238 41.8427 133.794 41.2764 133.222 40.836V48.0719ZM133.222 55.9371V52.1303L135.476 44.7056C135.794 43.6989 136.492 42.6292 137.54 41.591C138.365 40.773 139.857 40.3326 141.889 40.1438H148.619H157.762L156.619 43.8876H149.699C149.127 43.8876 148.683 43.9506 148.365 44.2652C148.175 44.4539 147.984 44.9573 147.667 45.7124L144.524 55.9685H133.222V55.9371ZM187.064 53.6719V55.6225C186.016 55.7483 184.937 55.7798 183.857 55.7483C181.635 55.7483 179.794 55.591 178.206 55.182L178.175 55.1191H178.238C180.841 55.4022 183.413 55.1191 185.825 54.1753C186.238 53.9865 186.651 53.8292 187.064 53.6719ZM187.064 26.1438C186.016 25.5775 184.937 25.1371 183.825 24.8854C182.746 24.6022 181.286 24.4449 179.445 24.4449C177.825 24.6022 176.365 24.8854 175.159 25.2944C173.381 26.0494 171.984 26.836 170.905 27.8112C168.492 29.7618 166.778 32.2157 165.952 35.3618C164.714 40.1753 165.667 44.4854 168.873 48.1978C170.873 50.5888 173.381 52.2247 176.492 53.0112C177.889 53.3573 179.381 53.5146 180.841 53.4831C182.46 53.3573 184.143 53.0112 185.857 52.3191C186.27 52.1618 186.651 51.973 187.064 51.7528V41.7169C186.714 42.5978 186.143 43.4157 185.413 44.1079C183.984 45.5551 182.206 46.3101 180.206 46.3101C178.175 46.3101 176.397 45.5551 174.937 44.1079C173.54 42.7236 172.778 40.9303 172.778 38.9483C172.778 36.9034 173.54 35.2045 174.937 33.7258C176.397 32.3416 178.143 31.5865 180.206 31.5865C182.206 31.5865 183.984 32.3416 185.413 33.7258C186.143 34.4809 186.683 35.2674 187.064 36.1483V26.1438ZM187.064 0.188764V7.29888C185.984 7.11011 184.905 6.98427 183.825 6.88989H170.175V17.4292C170.492 17.3348 170.905 17.2404 171.222 17.1461C171.54 16.9888 171.952 16.8629 172.302 16.7371C174.905 16.0135 177.413 15.7303 179.794 15.7303C182.016 15.7303 184.397 16.0135 186.905 16.6742C186.937 16.7056 187 16.7056 187.064 16.7056V24.0674C186.492 23.8157 185.952 23.627 185.381 23.4697C183.254 22.8719 181.127 22.5258 178.873 22.5573C176.333 22.7146 173.54 23.4697 170.397 24.791C167.349 26.1753 164.937 27.7798 163.127 29.6989H163.222L163.127 0H183.952C185.032 0 186.048 0.094382 187.064 0.188764ZM187.064 51.7528C188.333 51.0292 189.508 50.2112 190.46 49.2045C192.302 47.2854 193.635 45.1146 194.27 42.5978C194.683 41.3393 194.778 39.7978 194.778 38.2562C194.619 35.991 193.984 33.9146 193 31.9955C192.079 30.391 190.968 28.9438 189.413 27.7483C188.651 27.1191 187.857 26.5843 187 26.1124V36.1798C187.349 37.0607 187.508 37.973 187.508 38.9798C187.508 39.9865 187.349 40.8989 187 41.7798V51.7528H187.064ZM187.064 55.6225V53.6719C190.079 52.3506 192.429 50.2112 194.143 47.4742C195.032 45.964 195.635 44.5798 195.952 43.2899C196.27 42.3775 196.429 41.3393 196.46 40.3011C196.556 39.2315 196.556 38.1933 196.46 37.1865C196.333 36.1169 196.111 34.9843 195.825 33.9146C195.508 32.8135 195.064 31.7753 194.46 30.7685C193.54 29.3843 192.46 28 191 26.5843C189.825 25.5461 188.524 24.7281 187.064 24.1303V16.8C189.127 17.4292 190.841 18.1843 192.27 19.0337C195.318 20.8584 197.921 23.3753 199.952 26.427C201.667 28.9753 202.714 31.6494 203.127 34.418C203.603 32.6247 203.889 30.7685 203.921 28.7236C203.921 27.2135 203.762 25.4517 203.317 23.5955C202.746 21.582 201.952 19.6315 200.937 17.7753C199.889 16.1079 198.841 14.6607 197.889 13.5596C196.27 11.8921 194.714 10.6022 193.127 9.62697C191.857 8.84045 190.397 8.17978 188.619 7.6764C188.111 7.5191 187.571 7.39326 187.064 7.33034V0.188764C193.127 0.94382 198.46 3.80674 203 8.84045C208.333 14.818 211 21.4247 211 28.818C210.937 36.1798 208.238 42.6292 203.095 47.9461C198.619 52.5079 193.286 55.0562 187.064 55.6225Z" fill="#6E7272"/>
</svg>
