<svg width="246" height="61" viewBox="0 0 246 61" fill="none" xmlns="http://www.w3.org/2000/svg">
<path d="M122.783 10.0471H125.82L128.568 0.287058H125.531L122.783 10.0471ZM99.6437 5.16708C99.2099 6.88944 98.6314 7.46355 97.3298 7.46355H92.4127L93.7143 2.72707H98.6314C99.933 2.72707 100.222 3.30119 99.6437 5.16708ZM99.933 0.287058H91.4003L88.6526 10.0471H97.1852C100.801 10.0471 101.668 8.89886 102.681 5.16708C103.693 1.4353 103.404 0.287058 99.933 0.287058ZM111.647 0.287058L110.924 2.8706H115.263L113.238 10.0471H116.275L118.3 2.8706H122.638L123.362 0.287058H111.647ZM139.27 5.16708C138.547 7.60709 138.547 7.60709 135.076 7.60709C131.605 7.60709 131.605 7.60709 132.328 5.16708C133.051 2.72707 133.051 2.72707 136.522 2.72707C139.993 2.58354 139.993 2.72707 139.27 5.16708ZM137.245 0.14353C130.882 0.14353 130.593 0.43059 129.291 5.16708C127.989 9.90356 127.989 10.1906 134.353 10.1906C140.716 10.1906 141.005 9.90356 142.307 5.16708C143.608 0.43059 143.608 0.14353 137.245 0.14353ZM195.672 3.73178C196.684 0.14353 196.106 2.19009e-06 190.321 2.19009e-06C184.102 2.19009e-06 183.813 0.287062 182.511 5.02355C181.21 9.76004 181.354 10.0471 187.573 10.0471C193.936 10.0471 193.936 10.0471 195.527 4.3059H188.73L188.007 6.60238H191.767C191.478 7.60709 191.478 7.60709 188.152 7.60709C184.825 7.60709 184.825 7.60709 185.404 5.16708C186.127 2.72707 186.127 2.58354 189.453 2.58354C192.78 2.58354 192.78 2.58354 192.49 3.73178H195.672ZM85.7601 0.287058L83.8801 7.03296C83.8801 7.17649 83.8801 7.89415 83.8801 8.03768V8.1812C83.7354 8.1812 83.7354 7.75062 83.7354 7.60709L80.5538 0.430591H75.6367L72.8889 10.1906H75.9259L77.806 3.44472C77.806 3.30119 77.806 2.58354 77.806 2.44001C77.9506 2.44001 77.9506 2.8706 77.9506 3.01413L81.1323 10.1906H86.0494L88.7972 0.430591H85.7601V0.287058ZM156.48 0.287058L154.6 7.03296C154.6 7.17649 154.6 7.89415 154.6 8.03768V8.1812C154.455 8.1812 154.455 7.75062 154.455 7.60709L151.273 0.430591H146.356L143.608 10.1906H146.645L148.526 3.44472C148.526 3.30119 148.526 2.58354 148.526 2.44001C148.67 2.44001 148.67 2.8706 148.67 3.01413L151.852 10.1906H156.769L159.517 0.430591H156.48V0.287058ZM175.859 7.03296C175.859 7.17649 175.859 7.89415 175.859 8.03768V8.1812C175.714 8.1812 175.714 7.75062 175.714 7.60709L172.533 0.430591H167.615L164.868 10.1906H167.905L169.785 3.44472C169.785 3.30119 169.785 2.58354 169.785 2.44001C169.929 2.44001 169.929 2.8706 169.929 3.01413L173.111 10.1906H178.028L180.776 0.430591H177.739L175.859 7.03296ZM161.975 0.287058L159.228 10.0471H162.265L165.012 0.287058H161.975ZM103.838 10.0471H106.875L109.623 0.287058H106.586L103.838 10.0471ZM31.9612 3.73178C31.8166 4.44943 31.3827 4.73649 30.8042 4.73649H25.8871L26.4656 2.72707H31.3827C31.9612 2.72707 32.1058 3.01413 31.9612 3.73178ZM32.9735 0.287058H24.1517L21.4039 10.0471H24.4409L25.164 7.32003H29.9365C30.6596 7.32003 30.8042 7.89415 30.6596 8.32474L30.2257 10.0471H33.2628L33.8413 7.89415C34.1305 6.60238 33.9859 6.31532 32.9735 5.88473C33.9859 5.45414 34.709 4.73649 35.1429 3.15766C35.7213 0.861177 34.9982 0.287058 32.9735 0.287058ZM51.7743 0.14353C45.9894 0.14353 45.7002 0.574119 44.3986 5.16708C43.097 9.76003 43.2416 10.1906 49.0265 10.1906C54.8113 10.1906 55.2451 9.6165 56.1129 6.31532H53.0758C52.7866 7.46355 52.3527 7.75061 49.7496 7.75061C46.7125 7.75061 46.7125 7.75061 47.4356 5.3106C48.1587 2.8706 48.1587 2.8706 51.0511 2.8706C53.7989 2.8706 53.9436 3.15766 53.6543 4.3059H56.6913C57.7037 0.717652 57.5591 0.14353 51.7743 0.14353ZM6.79718 5.88473L9.40035 2.44001H9.83421L10.5573 5.88473H6.79718ZM7.6649 0.287058L0 10.0471H3.4709L4.91711 8.46826H10.9912L11.425 10.0471H14.8959L12.7266 0.287058H7.6649ZM19.0899 0.287058L16.3421 10.0471H19.3792L22.127 0.287058H19.0899ZM68.6949 5.16708C67.9718 7.60709 67.9718 7.60709 64.5009 7.60709C61.03 7.60709 61.03 7.60709 61.7531 5.16708C62.4762 2.72707 62.4762 2.72707 65.9471 2.72707C69.2734 2.58354 69.2734 2.72707 68.6949 5.16708ZM66.5256 0.14353C60.1623 0.14353 59.873 0.43059 58.5714 5.16708C57.2698 9.90356 57.2698 10.1906 63.6332 10.1906C69.9965 10.1906 70.2857 9.90356 71.5873 5.16708C73.0335 0.43059 72.8889 0.14353 66.5256 0.14353Z" transform="translate(43.3857 50.8096)" fill="#6E7272"/>
<path d="M0 0H29.7919H29.9365H55.5344L0 50.9531V0Z" fill="#6E7272"/>
<path d="M27.7672 0H0V25.4048L27.7672 0Z" fill="#6E7272"/>
<path d="M7.23104 -1.36881e-07H20.3915L13.1605 29.1366H-4.41348e-06L7.23104 -1.36881e-07Z" transform="translate(186.127 10.9084)" fill="#6E7272"/>
<path d="M-2.20674e-06 29.1366H11.8589L14.0282 20.3812L20.6808 29.1366H35.1429L24.7302 14.353L40.9277 -1.36881e-07H27.1887L16.776 9.04239L19.0899 -1.36881e-07H6.65255L-2.20674e-06 29.1366Z" transform="translate(146.936 10.9084)" fill="#6E7272"/>
<path d="M-2.20674e-06 29.1366L7.23104 -1.36881e-07H20.3915L13.1605 29.1366H-2.20674e-06Z" transform="translate(126.688 10.9084)" fill="#6E7272"/>
<path d="M8.82695e-06 29.1366H8.96649L13.1605 12.4871L18.5115 29.1366H33.1182L40.4938 -1.36881e-07H30.8042L26.7549 16.0754L20.97 -1.36881e-07H7.23105L8.82695e-06 29.1366Z" transform="translate(205.507 10.9084)" fill="#6E7272"/>
<path d="M2.20674e-06 29.1366L7.37566 -1.36881e-07H26.8995C26.8995 -1.36881e-07 40.4938 1.00471 39.0476 14.6401C39.0476 15.0706 38.3245 26.6966 23.8624 28.993H2.20674e-06V29.1366ZM19.813 22.3907C19.813 22.3907 25.4533 21.9601 27.0441 15.3577C27.0441 15.3577 27.9118 10.3342 26.0317 8.46827C26.0317 8.46827 24.7302 7.32003 22.8501 7.32003H17.7884L14.1728 22.3907H19.813Z" transform="translate(48.3037 10.9084)" fill="#6E7272"/>
<path d="M12.1481 23.5389L8.67725 29.1366H-2.20674e-06L16.1975 -1.36881e-07H31.0935L36.2998 29.1366H23.2839L22.4162 23.5389H12.1481ZM21.1146 16.9365L19.8131 9.47298L15.7637 16.9365H21.1146Z" transform="translate(86.1943 10.9084)" fill="#6E7272"/>
</svg>
