<svg width="45" height="44" viewBox="0 0 45 44" fill="none" xmlns="http://www.w3.org/2000/svg">
<path d="M2.89114 43.8461C1.3492 43.8461 0 42.4941 0 40.9488V2.89732C0 1.35208 1.3492 0 2.89114 0H40.6688C42.2107 0 43.5599 1.35208 43.5599 2.89732V40.9488C43.5599 42.4941 42.2107 43.8461 40.6688 43.8461" transform="translate(0.599609)" fill="#B3B1B2"/>
<path d="M3.59842 4.38464C3.59842 4.38464 2.84089 4.78326 2.27271 4.78326C0.946978 4.78326 0 3.78674 0 2.39163C0 1.19583 0.757587 0 2.27271 0C2.84089 0 3.21963 0.199325 3.59842 0.398626V1.79375C3.21963 1.39515 2.8409 1.39513 2.46212 1.39513C1.89394 1.39513 1.51516 1.79374 1.51516 2.59094C1.51516 3.18885 1.89394 3.78676 2.46212 3.78676C2.65151 3.78676 3.03029 3.78674 3.40907 3.38814" transform="translate(7.03711 34.8776)" fill="white"/>
<path d="M0 2.39163C0 0.996528 0.757552 0 2.65146 0C4.54537 0 5.30292 1.19583 5.30292 2.39163C5.30292 3.78674 4.54537 4.78326 2.65146 4.78326C0.757552 4.78326 0 3.58744 0 2.39163ZM3.59842 2.39163C3.59842 1.59443 3.21963 1.19582 2.65146 1.19582C2.08329 1.19582 1.70451 1.79373 1.70451 2.39163C1.70451 3.18883 2.08329 3.58745 2.65146 3.58745C3.21963 3.58745 3.59842 2.98953 3.59842 2.39163Z" transform="translate(11.207 34.8776)" fill="white"/>
<path d="M0 0.199252H1.5151V0.79719C1.89389 0.398589 2.27265 0 3.03021 0C4.54534 0 4.54537 1.39506 4.54537 2.19226V4.98252H3.03021V2.39157C3.03021 2.19227 3.03023 1.59438 2.46206 1.59438C2.08328 1.59438 1.70451 1.99299 1.70451 2.7902V4.98252H0.189345" transform="translate(17.0781 34.6783)" fill="white"/>
<path d="M0.568208 2.39157H0V1.19576H0.568208V0H2.08331V1.19576H3.03027V2.39157H2.08331V5.77971H0.568208" transform="translate(22.1895 33.6819)" fill="white"/>
<path d="M0 0.199252H1.51516V0.79719C1.51516 0.79719 1.51517 0.597878 1.70456 0.597878C2.08335 0.199276 2.46208 0 2.84086 0C3.03026 0 3.21967 0 3.21967 0V1.39507C3.03028 1.39507 3.03026 1.39507 2.84086 1.39507C1.70452 1.39507 1.70456 2.5909 1.70456 2.7902V4.7832H0.189403" transform="translate(25.791 34.6783)" fill="white"/>
<path d="M0 2.39163C0 0.996528 0.757552 0 2.65146 0C4.54537 0 5.30292 1.19583 5.30292 2.39163C5.30292 3.78674 4.54537 4.78326 2.65146 4.78326C0.757552 4.78326 0 3.58744 0 2.39163ZM3.59842 2.39163C3.59842 1.59443 3.21963 1.19582 2.65146 1.19582C2.08329 1.19582 1.70451 1.79373 1.70451 2.39163C1.70451 3.18883 2.08329 3.58745 2.65146 3.58745C3.21963 3.58745 3.59842 2.98953 3.59842 2.39163Z" transform="translate(29.3867 34.8776)" fill="white"/>
<path d="M1.51516 0H0V6.97552H1.51516V0Z" transform="translate(35.2598 32.4861)" fill="white"/>
<path d="M0 6.37758H1.70451L2.46206 0H0.757552L0 6.37758ZM2.65146 6.37758H4.35597L4.73477 2.59088L6.62868 6.37758H8.33319L9.09074 0H7.38624L7.00743 3.7867L5.30292 0H3.59842L2.65146 6.37758ZM11.1741 6.37758H12.8786L15.9088 0H14.0149L12.3104 4.18533L11.5529 0H9.65895L11.1741 6.37758ZM15.53 6.37758H19.1285L19.3178 4.7832H17.4239L17.6133 3.7867H19.3178L19.5072 2.39157H17.8027L17.9921 1.59438H19.8861L20.0755 0H16.477L15.53 6.37758ZM20.0755 6.37758H21.78L21.9694 4.38458L22.9163 6.37758H24.9996L23.6739 3.7867C24.242 3.5874 24.4314 3.38812 24.6208 3.18882C24.9996 2.79022 24.9996 2.39161 24.9996 1.99301C24.9996 1.59441 24.8102 1.19579 24.6208 0.79719C24.242 0.199288 23.4844 0.199313 23.1057 0.199313H20.6436L20.0755 6.37758ZM22.3481 1.59438H22.7269C22.9163 1.59438 23.1057 1.59439 23.2951 1.79369C23.2951 1.99299 23.4845 1.99302 23.4845 2.19232C23.4845 2.39162 23.4845 2.5909 23.2951 2.7902C23.1057 2.9895 22.7269 2.98951 22.5375 2.98951H22.1587L22.3481 1.59438ZM26.3253 6.37758H28.0298L28.598 1.59438H29.9237L30.1132 0H25.7572L25.5678 1.59438H26.8935L26.3253 6.37758ZM29.9237 6.37758H33.5222L33.7116 4.7832H31.8177L32.0071 3.7867H33.7116L33.901 2.39157H32.1965L32.3859 1.59438H34.2798L34.4691 0H30.8707L29.9237 6.37758ZM34.4691 6.37758H36.1737L36.363 4.38458L37.31 6.37758H39.3933L38.0676 3.7867C38.6358 3.5874 38.8252 3.38812 39.0145 3.18882C39.3933 2.79022 39.3933 2.39161 39.3933 1.99301C39.3933 1.59441 39.2039 1.19579 39.0145 0.79719C38.6358 0.199288 37.8782 0.199313 37.4994 0.199313H35.0373L34.4691 6.37758ZM36.7418 1.59438H37.1206C37.31 1.59438 37.4994 1.59439 37.6888 1.79369C37.6888 1.99299 37.8782 1.99302 37.8782 2.19232C37.8782 2.39162 37.8782 2.5909 37.6888 2.7902C37.4994 2.9895 37.1206 2.98951 36.9312 2.98951H36.5524L36.7418 1.59438Z" transform="translate(2.68359 22.5211)" fill="white"/>
<path d="M0 0H0.189403" transform="translate(0.599609 29.6958)" stroke="white" stroke-width="0.264203"/>
<path d="M0 0H0.56815" transform="translate(0.599609 28.6993)" stroke="white" stroke-width="0.264203"/>
<path d="M0 0H0.757552" transform="translate(0.599609 27.9021)" stroke="white" stroke-width="0.264203"/>
<path d="M0 0H0.946955" transform="translate(0.599609 26.9055)" stroke="white" stroke-width="0.264203"/>
<path d="M0 0H1.32576" transform="translate(0.599609 25.9091)" stroke="white" stroke-width="0.264203"/>
<path d="M0 0H1.5151" transform="translate(0.599609 24.9126)" stroke="white" stroke-width="0.264203"/>
<path d="M0 0H1.70451" transform="translate(0.599609 23.916)" stroke="white" stroke-width="0.264203"/>
<path d="M0 0H2.08331" transform="translate(0.599609 22.9196)" stroke="white" stroke-width="0.264203"/>
<path d="M0 0H2.27271" transform="translate(0.599609 22.1222)" stroke="white" stroke-width="0.264203"/>
<path d="M0 0H2.65146" transform="translate(0.599609 21.1257)" stroke="white" stroke-width="0.264203"/>
<path d="M0 0H2.84086" transform="translate(0.599609 20.1293)" stroke="white" stroke-width="0.264203"/>
<path d="M0 0H3.03027" transform="translate(0.791016 19.1327)" stroke="white" stroke-width="0.264203"/>
<path d="M0 0H2.84086" transform="translate(1.16992 18.3354)" stroke="white" stroke-width="0.264203"/>
<path d="M0 0H2.84086" transform="translate(1.54688 17.339)" stroke="white" stroke-width="0.264203"/>
<path d="M0 0H2.65146" transform="translate(1.92578 16.5421)" stroke="white" stroke-width="0.264203"/>
<path d="M0 0H2.65146" transform="translate(2.30469 15.5457)" stroke="white" stroke-width="0.264203"/>
<path d="M0 0H2.84086" transform="translate(2.49609 14.7483)" stroke="white" stroke-width="0.264203"/>
<path d="M0 0H2.65146" transform="translate(2.87305 13.951)" stroke="white" stroke-width="0.264203"/>
<path d="M0 0H2.65146" transform="translate(3.25195 13.1537)" stroke="white" stroke-width="0.264203"/>
<path d="M0 0H2.65146" transform="translate(3.63086 12.3564)" stroke="white" stroke-width="0.264203"/>
<path d="M0 0H2.46212" transform="translate(4.00977 11.5593)" stroke="white" stroke-width="0.264203"/>
<path d="M0 0H2.46206" transform="translate(4.38477 10.9615)" stroke="white" stroke-width="0.264203"/>
<path d="M0 0H2.46206" transform="translate(4.76562 10.3634)" stroke="white" stroke-width="0.264203"/>
<path d="M0 0H2.27271" transform="translate(5.14453 9.76575)" stroke="white" stroke-width="0.264203"/>
<path d="M0 0H2.27266" transform="translate(5.52344 9.16772)" stroke="white" stroke-width="0.264203"/>
<path d="M0 0H2.27271" transform="translate(5.90234 8.56982)" stroke="white" stroke-width="0.264203"/>
<path d="M0 0H2.27271" transform="translate(6.0918 8.17126)" stroke="white" stroke-width="0.264203"/>
<path d="M0 0H2.27266" transform="translate(6.4707 7.77283)" stroke="white" stroke-width="0.264203"/>
<path d="M0 0H2.27271" transform="translate(6.84961 7.3739)" stroke="white" stroke-width="0.264203"/>
<path d="M0 0H2.08331" transform="translate(7.22852 7.17468)" stroke="white" stroke-width="0.264203"/>
<path d="M0 0H2.08325" transform="translate(7.60547 6.77625)" stroke="white" stroke-width="0.262217"/>
<path d="M0 0H2.08331" transform="translate(7.98438 6.57715)" stroke="white" stroke-width="0.258244"/>
<path d="M0 0H2.08331" transform="translate(8.36328 6.37744)" stroke="white" stroke-width="0.256257"/>
<path d="M0 0H2.27266" transform="translate(8.55469 6.17822)" stroke="white" stroke-width="0.254271"/>
<path d="M0 0H2.27271" transform="translate(8.93359 5.979)" stroke="white" stroke-width="0.250298"/>
<path d="M0 0H2.27266" transform="translate(9.31055 5.979)" stroke="white" stroke-width="0.248311"/>
<path d="M0 0H2.27271" transform="translate(9.68945 5.979)" stroke="white" stroke-width="0.246325"/>
<path d="M0 0H2.27271" transform="translate(10.0723 5.77979)" stroke="white" stroke-width="0.244338"/>
<path d="M0 0H2.46206" transform="translate(10.2598 5.77979)" stroke="white" stroke-width="0.240365"/>
<path d="M0 0H2.46212" transform="translate(10.6367 5.77979)" stroke="white" stroke-width="0.238379"/>
<path d="M0 0H2.46206" transform="translate(11.0195 5.77979)" stroke="white" stroke-width="0.236392"/>
<path d="M0 0H2.65146" transform="translate(11.207 5.979)" stroke="white" stroke-width="0.232419"/>
<path d="M0 0H2.46212" transform="translate(11.582 5.979)" stroke="white" stroke-width="0.230433"/>
<path d="M0 0H2.46206" transform="translate(11.9609 6.17822)" stroke="white" stroke-width="0.228446"/>
<path d="M0 0H2.65146" transform="translate(12.1523 6.17822)" stroke="white" stroke-width="0.22646"/>
<path d="M0 0H2.65152" transform="translate(12.5293 6.37744)" stroke="white" stroke-width="0.222487"/>
<path d="M0 0H2.65146" transform="translate(12.9082 6.57715)" stroke="white" stroke-width="0.2205"/>
<path d="M0 0H2.65146" transform="translate(13.0996 6.77625)" stroke="white" stroke-width="0.218514"/>
<path d="M0 0H2.65152" transform="translate(13.4785 6.97546)" stroke="white" stroke-width="0.214541"/>
<path d="M0 0H2.65146" transform="translate(13.8555 7.17468)" stroke="white" stroke-width="0.212555"/>
<path d="M0 0H2.84086" transform="translate(14.0469 7.3739)" stroke="white" stroke-width="0.210568"/>
<path d="M0 0H2.65152" transform="translate(14.4258 7.57361)" stroke="white" stroke-width="0.206595"/>
<path d="M0 0H2.84086" transform="translate(14.6133 7.77283)" stroke="white" stroke-width="0.204609"/>
<path d="M0 0H2.84086" transform="translate(14.9922 8.17126)" stroke="white" stroke-width="0.202622"/>
<path d="M0 0H2.84086" transform="translate(15.1836 8.37048)" stroke="white" stroke-width="0.198649"/>
<path d="M0 0H2.84086" transform="translate(15.5605 8.57007)" stroke="white" stroke-width="0.196663"/>
<path d="M0 0H3.03027" transform="translate(15.752 8.96851)" stroke="white" stroke-width="0.194676"/>
<path d="M0 0H2.84086" transform="translate(16.1309 9.16772)" stroke="white" stroke-width="0.19269"/>
<path d="M0 0H3.03027" transform="translate(16.3184 9.56665)" stroke="white" stroke-width="0.188717"/>
<path d="M0 0H3.03027" transform="translate(16.5098 9.76575)" stroke="white" stroke-width="0.18673"/>
<path d="M0 0H3.03027" transform="translate(16.8867 10.1642)" stroke="white" stroke-width="0.184744"/>
<path d="M0 0H3.03021" transform="translate(17.0781 10.3634)" stroke="white" stroke-width="0.180771"/>
<path d="M0 0H3.21967" transform="translate(17.2656 10.5631)" stroke="white" stroke-width="0.178784"/>
<path d="M0 0H3.03027" transform="translate(17.6445 10.9615)" stroke="white" stroke-width="0.176798"/>
<path d="M0 0H3.21961" transform="translate(17.8359 11.1608)" stroke="white" stroke-width="0.172825"/>
<path d="M0 0H3.21961" transform="translate(18.0273 11.5596)" stroke="white" stroke-width="0.170838"/>
<path d="M0 0H3.21967" transform="translate(18.4043 11.7588)" stroke="white" stroke-width="0.168852"/>
<path d="M0 0H3.21967" transform="translate(18.5918 12.1572)" stroke="white" stroke-width="0.164879"/>
<path d="M0 0H3.21961" transform="translate(18.7793 12.3564)" stroke="white" stroke-width="0.162892"/>
<path d="M0 0H3.40901" transform="translate(18.9668 12.5562)" stroke="white" stroke-width="0.160906"/>
<path d="M0 0H3.40907" transform="translate(19.1582 12.7554)" stroke="white" stroke-width="0.158919"/>
<path d="M0 0H3.40901" transform="translate(19.5371 12.9545)" stroke="white" stroke-width="0.154946"/>
<path d="M0 0H3.40901" transform="translate(19.7285 13.3529)" stroke="white" stroke-width="0.15296"/>
<path d="M0 0H3.40901" transform="translate(19.916 13.5526)" stroke="white" stroke-width="0.150973"/>
<path d="M0 0H3.40907" transform="translate(20.1055 13.5526)" stroke="white" stroke-width="0.147"/>
<path d="M0 0H3.59842" transform="translate(20.293 13.7518)" stroke="white" stroke-width="0.145014"/>
<path d="M0 0H3.59842" transform="translate(20.4844 13.951)" stroke="white" stroke-width="0.143027"/>
<path d="M0 0H3.59842" transform="translate(20.6758 14.1503)" stroke="white" stroke-width="0.141041"/>
<path d="M0 0H3.59842" transform="translate(20.8633 14.1503)" stroke="white" stroke-width="0.137068"/>
<path d="M0 0H3.59847" transform="translate(21.0547 14.3495)" stroke="white" stroke-width="0.135081"/>
<path d="M0 0H3.59842" transform="translate(21.2422 14.3495)" stroke="white" stroke-width="0.133095"/>
<path d="M0 0H3.59842" transform="translate(21.6211 14.3495)" stroke="white" stroke-width="0.133095"/>
<path d="M0 0H3.59847" transform="translate(22.002 14.5491)" stroke="white" stroke-width="0.133095"/>
<path d="M0 0H3.59842" transform="translate(22.1895 14.5491)" stroke="white" stroke-width="0.133095"/>
<path d="M0 0H3.59842" transform="translate(22.5684 14.5491)" stroke="white" stroke-width="0.133095"/>
<path d="M0 0H3.40907" transform="translate(22.9473 14.5491)" stroke="white" stroke-width="0.133095"/>
<path d="M0 0H3.59842" transform="translate(23.1367 14.5491)" stroke="white" stroke-width="0.133095"/>
<path d="M0 0H3.40901" transform="translate(23.5156 14.5491)" stroke="white" stroke-width="0.133095"/>
<path d="M0 0H3.40907" transform="translate(23.8945 14.5491)" stroke="white" stroke-width="0.133095"/>
<path d="M0 0H3.40907" transform="translate(24.0859 14.5491)" stroke="white" stroke-width="0.133095"/>
<path d="M0 0H3.40901" transform="translate(24.4648 14.5491)" stroke="white" stroke-width="0.133095"/>
<path d="M0 0H3.21967" transform="translate(24.8418 14.5491)" stroke="white" stroke-width="0.133095"/>
<path d="M0 0H3.40907" transform="translate(25.0332 14.3495)" stroke="white" stroke-width="0.133095"/>
<path d="M0 0H3.21961" transform="translate(25.4121 14.3495)" stroke="white" stroke-width="0.133095"/>
<path d="M0 0H3.21961" transform="translate(25.5996 14.3495)" stroke="white" stroke-width="0.133095"/>
<path d="M0 0H3.21967" transform="translate(25.9805 14.1503)" stroke="white" stroke-width="0.133095"/>
<path d="M0 0H3.03027" transform="translate(26.3555 14.1503)" stroke="white" stroke-width="0.133095"/>
<path d="M0 0H3.21961" transform="translate(26.543 13.951)" stroke="white" stroke-width="0.133095"/>
<path d="M0 0H3.03027" transform="translate(26.9219 13.951)" stroke="white" stroke-width="0.133095"/>
<path d="M0 0H3.03027" transform="translate(27.1133 13.7518)" stroke="white" stroke-width="0.133095"/>
<path d="M0 0H3.03021" transform="translate(27.4922 13.5526)" stroke="white" stroke-width="0.133095"/>
<path d="M0 0H3.03027" transform="translate(27.6836 13.5526)" stroke="white" stroke-width="0.133095"/>
<path d="M0 0H3.03027" transform="translate(28.0605 13.3529)" stroke="white" stroke-width="0.133095"/>
<path d="M0 0H2.84086" transform="translate(28.4395 13.1537)" stroke="white" stroke-width="0.133095"/>
<path d="M0 0H2.84086" transform="translate(28.6309 13.1537)" stroke="white" stroke-width="0.133095"/>
<path d="M0 0H2.84086" transform="translate(29.0098 12.9545)" stroke="white" stroke-width="0.133095"/>
<path d="M0 0H2.84086" transform="translate(29.1973 12.7554)" stroke="white" stroke-width="0.133095"/>
<path d="M0 0H2.65152" transform="translate(29.5742 12.5562)" stroke="white" stroke-width="0.133095"/>
<path d="M0 0H2.84086" transform="translate(29.7656 12.5562)" stroke="white" stroke-width="0.133095"/>
<path d="M0 0H2.65146" transform="translate(30.1445 12.3564)" stroke="white" stroke-width="0.133095"/>
<path d="M0 0H2.65146" transform="translate(30.3359 12.1572)" stroke="white" stroke-width="0.133095"/>
<path d="M0 0H2.65146" transform="translate(30.7148 11.958)" stroke="white" stroke-width="0.133095"/>
<path d="M0 0H2.65146" transform="translate(30.9023 11.7588)" stroke="white" stroke-width="0.133095"/>
<path d="M0 0H2.65146" transform="translate(31.0918 11.7588)" stroke="white" stroke-width="0.133095"/>
<path d="M0 0H2.65152" transform="translate(31.4707 11.5596)" stroke="white" stroke-width="0.133095"/>
<path d="M0 0H2.65146" transform="translate(31.6621 11.36)" stroke="white" stroke-width="0.133095"/>
<path d="M0 0H2.46206" transform="translate(32.041 11.1608)" stroke="white" stroke-width="0.133095"/>
<path d="M0 0H2.46206" transform="translate(32.2285 11.1608)" stroke="white" stroke-width="0.133095"/>
<path d="M0 0H2.46212" transform="translate(32.6094 10.9615)" stroke="white" stroke-width="0.133095"/>
<path d="M0 0H2.46206" transform="translate(32.7969 10.7623)" stroke="white" stroke-width="0.133095"/>
<path d="M0 0H2.46206" transform="translate(32.9883 10.7623)" stroke="white" stroke-width="0.133095"/>
<path d="M0 0H2.27271" transform="translate(33.3633 10.5631)" stroke="white" stroke-width="0.133095"/>
<path d="M0 0H2.27271" transform="translate(33.5508 10.3634)" stroke="white" stroke-width="0.133095"/>
<path d="M0 0H2.46206" transform="translate(33.7422 10.3634)" stroke="white" stroke-width="0.133095"/>
<path d="M0 0H2.27266" transform="translate(34.1211 10.1642)" stroke="white" stroke-width="0.133095"/>
<path d="M0 0H2.27271" transform="translate(34.3105 10.1642)" stroke="white" stroke-width="0.133095"/>
<path d="M0 0H2.08331" transform="translate(34.6895 9.96497)" stroke="white" stroke-width="0.133095"/>
<path d="M0 0H2.08331" transform="translate(34.877 9.96497)" stroke="white" stroke-width="0.133095"/>
<path d="M0 0H2.27266" transform="translate(35.0684 9.96497)" stroke="white" stroke-width="0.133095"/>
<path d="M0 0H2.08331" transform="translate(35.4473 9.76575)" stroke="white" stroke-width="0.133095"/>
<path d="M0 0H2.08331" transform="translate(35.6367 9.76575)" stroke="white" stroke-width="0.133095"/>
<path d="M0 0H2.08331" transform="translate(35.8242 9.76575)" stroke="white" stroke-width="0.133095"/>
<path d="M0 0H1.89391" transform="translate(36.2031 9.76575)" stroke="white" stroke-width="0.133095"/>
<path d="M0 0H2.08331" transform="translate(36.3945 9.76575)" stroke="white" stroke-width="0.133095"/>
<path d="M0 0H2.08331" transform="translate(36.5859 9.76575)" stroke="white" stroke-width="0.133095"/>
<path d="M0 0H2.08325" transform="translate(36.9648 9.76575)" stroke="white" stroke-width="0.133095"/>
<path d="M0 0H2.08331" transform="translate(37.1523 9.76575)" stroke="white" stroke-width="0.133095"/>
<path d="M0 0H2.08331" transform="translate(37.5293 9.76575)" stroke="white" stroke-width="0.133095"/>
<path d="M0 0H2.08331" transform="translate(37.7207 9.76575)" stroke="white" stroke-width="0.133095"/>
<path d="M0 0H2.08331" transform="translate(38.0996 9.76575)" stroke="white" stroke-width="0.133095"/>
<path d="M0 0H2.08331" transform="translate(38.4785 9.76575)" stroke="white" stroke-width="0.133095"/>
<path d="M0 0H2.08331" transform="translate(38.668 9.76575)" stroke="white" stroke-width="0.133095"/>
<path d="M0 0H2.08331" transform="translate(39.0469 9.96497)" stroke="white" stroke-width="0.133095"/>
<path d="M0 0H2.08331" transform="translate(39.2383 9.96497)" stroke="white" stroke-width="0.133095"/>
<path d="M0 0H2.08331" transform="translate(39.6172 9.96497)" stroke="white" stroke-width="0.133095"/>
<path d="M0 0H2.08325" transform="translate(39.8047 10.1642)" stroke="white" stroke-width="0.133095"/>
<path d="M0 0H2.08331" transform="translate(40.1836 10.1642)" stroke="white" stroke-width="0.133095"/>
<path d="M0 0H2.27271" transform="translate(40.373 10.1642)" stroke="white" stroke-width="0.133095"/>
<path d="M0 0H2.08325" transform="translate(40.748 10.3634)" stroke="white" stroke-width="0.133095"/>
<path d="M0 0H2.08331" transform="translate(41.127 10.3634)" stroke="white" stroke-width="0.133095"/>
</svg>
