<svg width="45" height="45" viewBox="0 0 45 45" fill="none" xmlns="http://www.w3.org/2000/svg">
<path d="M2.89115 43.8461C1.3492 43.8461 0 42.482 0 40.9231V2.92308C0 1.3641 1.3492 0 2.89115 0H40.6688C42.2107 0 43.5599 1.3641 43.5599 2.92308V40.9231C43.5599 42.482 42.2107 43.8461 40.6688 43.8461" transform="translate(0.599609 0.832031)" fill="#B3B1B2"/>
<path d="M0 0V19.8769" transform="translate(6.38281 21.8785)" stroke="white" stroke-width="2.15137"/>
<path d="M0 0H28.526" transform="translate(3.875 41.7551)" stroke="white" stroke-width="2.15137"/>
<path d="M0 10.7179L12.1428 0L26.2131 10.7179" transform="translate(3.67969 13.1093)" stroke="white" stroke-width="2.15137"/>
<path d="M10.0227 19.8769C15.6122 19.8769 20.0453 15.3949 20.0453 9.93847C20.0453 4.48206 15.6122 0 10.0227 0C4.43312 0 0 4.48206 0 9.93847C0 15.3949 4.43312 19.8769 10.0227 19.8769Z" transform="translate(13.3184 21.2935)" fill="#B3B1B2"/>
<path d="M10.0227 19.8769C15.6122 19.8769 20.0453 15.3949 20.0453 9.93847C20.0453 4.48206 15.6122 0 10.0227 0C4.43312 0 0 4.48206 0 9.93847C0 15.3949 4.43312 19.8769 10.0227 19.8769Z" transform="translate(13.3184 21.2935)" stroke="white" stroke-width="2.12952"/>
<path d="M0 0C0.385486 0.584615 1.54195 0.779535 2.89115 0.779535C4.24035 0.779535 5.20407 0.389744 5.7823 0" transform="translate(16.4062 28.1141)" stroke="white" stroke-width="1.1621" stroke-linecap="round"/>
<path d="M0 0C0.385486 0.584615 1.54195 0.779535 2.89115 0.779535C4.24035 0.779535 5.20407 0.389744 5.7823 0" transform="translate(24.3047 28.1141)" stroke="white" stroke-width="1.1621" stroke-linecap="round"/>
<path d="M7.70973 10.5231V1.75383C7.70973 0.779475 6.93876 0.194872 5.7823 0C4.62584 0 3.85486 0.974347 3.85486 1.75383V4.87179C3.46938 4.28718 2.89115 4.09232 1.92743 4.09232C0.963716 4.09232 0 4.87181 0 6.04104V9.93847" transform="translate(17.9492 30.4526)" stroke="white" stroke-width="1.1621" stroke-linejoin="round"/>
<path d="M0 0C4.62584 0 7.32424 7.79487 0.963716 9.74359C2.50566 6.04102 2.12018 2.53333 0 0Z" transform="translate(32.0156 8.43225)" fill="white"/>
<path d="M1.34917 1.16924L1.92743 0L2.12019 1.36413L3.66211 1.55895L2.31288 2.1436L2.69839 3.50767L1.54192 2.53331L0.385451 3.31284L0.963716 1.94872L0 0.974359" transform="translate(4.25977 6.09375)" fill="white"/>
<path d="M1.34923 1.16924L1.92743 0L2.31294 1.36413L3.66217 1.55901L2.50564 2.1436L2.69845 3.50773L1.73474 2.53337L0.38551 3.31284L0.963716 1.94872L0 0.974359" transform="translate(25.2734 10.7708)" fill="white"/>
<path d="M1.54192 1.36407L2.12013 0L2.31282 1.36407L3.85486 1.55895L2.50564 2.33843L2.89115 3.70255L1.73462 2.72819L0.578206 3.50767L1.15641 2.1436L0 1.16924" transform="translate(15.4414 4.33984)" fill="white"/>
<path d="M1.34911 1.36407L1.92743 0L2.12013 1.36407L3.66205 1.55895L2.31282 2.1436L2.69833 3.70255L1.54192 2.72819L0.385392 3.31278L0.963716 2.1436L0 1.16924" transform="translate(36.6426 20.9042)" fill="white"/>
<path d="M1.54192 1.36413L2.12013 0L2.31294 1.36413L3.66205 1.55901L2.50564 2.33848L2.89115 3.70261L1.73462 2.72825L0.578206 3.50773L1.15641 2.1436L0 1.16924" transform="translate(37.2227 3.75537)" fill="white"/>
</svg>
