<svg width="44" height="45" viewBox="0 0 44 45" fill="none" xmlns="http://www.w3.org/2000/svg">
<path d="M2.87841 43.8461C1.34326 43.8461 0 42.4881 0 40.936V2.91014C0 1.35807 1.34326 0 2.87841 0H40.6815C42.2167 0 43.5599 1.35807 43.5599 2.91014V40.936C43.5599 42.4881 42.2167 43.8461 40.6815 43.8461" transform="translate(0.0820312 0.832031)" fill="#B3B1B2"/>
<path d="M26.0976 0H0V25.4152H26.0976V0Z" transform="translate(8.71484 14.801)" fill="white"/>
<path d="M34.5409 10.0885H0L17.2704 0" transform="translate(4.49219 5.10034)" fill="white"/>
<path d="M0 0V4.07421" transform="translate(16.582 25.8594)" stroke="#B3B1B2" stroke-width="2.11164"/>
<path d="M3.64591 7.37233C5.75674 7.37233 7.29194 5.62626 7.29194 3.68617C7.29194 1.55206 5.56485 0 3.64591 0C1.53508 0 0 1.74607 0 3.68617C0 5.62626 1.53508 7.37233 3.64591 7.37233Z" transform="translate(24.6426 26.2474)" stroke="#B3B1B2" stroke-width="2.11164"/>
<path d="M12.4731 4.07421H0V0" transform="translate(12.168 25.8594)" stroke="#B3B1B2" stroke-width="2.11164"/>
</svg>
