<svg width="45" height="45" viewBox="0 0 45 45" fill="none" xmlns="http://www.w3.org/2000/svg">
<path d="M2.87841 43.8461C1.34326 43.8461 0 42.4941 0 40.9488V2.89732C0 1.35208 1.34326 0 2.87841 0H40.6815C42.2167 0 43.5599 1.35208 43.5599 2.89732V40.9488C43.5599 42.4941 42.2167 43.8461 40.6815 43.8461" transform="translate(0.560547 0.832031)" fill="#B3B1B2"/>
<path d="M9.59469 4.82887C9.59469 7.53303 7.48386 9.65774 4.79735 9.65774C2.11083 9.65774 0 7.53303 0 4.82887C0 2.1247 2.11083 0 4.79735 0C7.48386 0 9.59469 2.1247 9.59469 4.82887Z" transform="translate(10.7285 5.46802)" stroke="white" stroke-width="1.59118"/>
<path d="M16.5028 12.5551C15.3515 12.5551 14.392 13.5208 14.2001 14.6797C13.8163 13.3276 13.0487 12.5551 11.8974 12.5551C10.746 12.5551 9.97848 13.5208 9.59469 14.6797H9.40279C9.21089 13.3276 8.2514 12.3619 7.10004 12.3619C5.94867 12.3619 4.98924 13.3276 4.79735 14.8729H4.60544V3.47676C4.60544 1.54521 3.45405 0 2.30269 0C0.959434 0 0 1.54521 0 5.40831V21.4401C0 19.5086 0 19.5086 0 19.7017V19.8949V23.3717C0 27.6211 2.68648 30.9048 6.14057 30.9048H12.8569C16.119 30.9048 18.8056 27.8143 18.9975 23.9512V23.758V14.6797C18.8056 13.5208 17.8461 12.5551 16.5028 12.5551Z" transform="translate(13.416 10.2968)" fill="#B3B1B2"/>
<path d="M16.5028 12.5551C15.3515 12.5551 14.392 13.5208 14.2001 14.6797C13.8163 13.3276 13.0487 12.5551 11.8974 12.5551C10.746 12.5551 9.97848 13.5208 9.59469 14.6797H9.40279C9.21089 13.3276 8.2514 12.3619 7.10004 12.3619C5.94867 12.3619 4.98924 13.3276 4.79735 14.8729H4.60544V3.47676C4.60544 1.54521 3.45405 0 2.30269 0C0.959434 0 0 1.54521 0 5.40831V21.4401C0 19.5086 0 19.5086 0 19.7017V19.8949V23.3717C0 27.6211 2.68648 30.9048 6.14057 30.9048H12.8569C16.119 30.9048 18.8056 27.8143 18.9975 23.9512V23.758V14.6797C18.8056 13.5208 17.8461 12.5551 16.5028 12.5551Z" transform="translate(13.416 10.2968)" stroke="white" stroke-width="1.59118" stroke-linecap="round" stroke-linejoin="round"/>
</svg>
