<svg width="44" height="45" viewBox="0 0 44 45" fill="none" xmlns="http://www.w3.org/2000/svg">
<path d="M2.87841 43.8461C1.34326 43.8461 0 42.4941 0 40.9488V2.89732C0 1.35208 1.34326 0 2.87841 0H40.6815C42.2167 0 43.5599 1.35208 43.5599 2.89732V40.9488C43.5599 42.4941 42.2167 43.8461 40.6815 43.8461" transform="translate(0.0371094 0.832031)" fill="#B3B1B2"/>
<path d="M25.1381 0H0V34.3816H25.1381V0Z" transform="translate(9.43945 5.66077)" fill="white"/>
<path d="M19.5732 0H0V5.2152H19.5732V0Z" transform="translate(12.127 8.75159)" fill="white"/>
<path d="M19.5732 0H0V5.2152H19.5732V0Z" transform="translate(12.127 8.75159)" stroke="#B3B1B2" stroke-width="0.530393"/>
<path d="M1.1391 4.24937C2.29046 2.89729 3.63372 3.28359 3.05804 4.24937C2.29046 5.4083 4.97702 5.02203 5.7446 4.05626C6.12838 3.66995 6.12838 5.98777 7.66353 4.44253C9.00679 3.09045 8.4311 5.98776 10.35 4.24937C11.8852 2.89729 11.1176 5.4083 12.6527 4.24937C13.996 3.09044 15.1474 4.44253 15.1474 4.44253V0H0.179629V4.44253C-0.204159 4.44253 -0.0122653 5.4083 1.1391 4.24937Z" transform="translate(16.7461 16.8641)" fill="white"/>
<path d="M1.1391 4.24937C2.29046 2.89729 3.63372 3.28359 3.05804 4.24937C2.29046 5.4083 4.97702 5.02203 5.7446 4.05626C6.12838 3.66995 6.12838 5.98777 7.66353 4.44253C9.00679 3.09045 8.4311 5.98776 10.35 4.24937C11.8852 2.89729 11.1176 5.4083 12.6527 4.24937C13.996 3.09044 15.1474 4.44253 15.1474 4.44253V0H0.179629V4.44253C-0.204159 4.44253 -0.0122653 5.4083 1.1391 4.24937Z" transform="translate(16.7461 16.8641)" stroke="#B3B1B2" stroke-width="0.530393"/>
<path d="M2.13529 4.24937C3.28666 4.24937 4.24608 3.28358 4.24608 2.12465C4.24608 0.965726 3.28666 0 2.13529 0C0.983931 0 0.0244503 0.965726 0.0244503 2.12465C-0.167444 3.28358 0.792037 4.24937 2.13529 4.24937Z" transform="translate(11.7207 17.0573)" fill="white"/>
<path d="M2.13529 4.24937C3.28666 4.24937 4.24608 3.28358 4.24608 2.12465C4.24608 0.965726 3.28666 0 2.13529 0C0.983931 0 0.0244503 0.965726 0.0244503 2.12465C-0.167444 3.28358 0.792037 4.24937 2.13529 4.24937Z" transform="translate(11.7207 17.0573)" stroke="#B3B1B2" stroke-width="0.530393"/>
<path d="M1.1391 4.24937C2.29046 2.89729 3.63372 3.28359 3.05804 4.24937C2.29046 5.4083 4.97702 5.02198 5.7446 4.0562C6.12838 3.66989 6.12838 5.98777 7.66353 4.44253C9.00679 3.09045 8.4311 6.18092 10.35 4.24937C11.8852 2.89729 11.1176 5.4083 12.6527 4.24937C13.996 3.09044 15.1474 4.44253 15.1474 4.44253V0H0.179629V4.44253C-0.204159 4.44253 -0.0122653 5.4083 1.1391 4.24937Z" transform="translate(16.7461 24.7833)" fill="white"/>
<path d="M1.1391 4.24937C2.29046 2.89729 3.63372 3.28359 3.05804 4.24937C2.29046 5.4083 4.97702 5.02198 5.7446 4.0562C6.12838 3.66989 6.12838 5.98777 7.66353 4.44253C9.00679 3.09045 8.4311 6.18092 10.35 4.24937C11.8852 2.89729 11.1176 5.4083 12.6527 4.24937C13.996 3.09044 15.1474 4.44253 15.1474 4.44253V0H0.179629V4.44253C-0.204159 4.44253 -0.0122653 5.4083 1.1391 4.24937Z" transform="translate(16.7461 24.7833)" stroke="#B3B1B2" stroke-width="0.530393"/>
<path d="M4.41359 4.44253C4.60549 4.44253 4.60545 4.24937 4.79735 4.24937L6.90819 5.02198L5.18116 3.86309C5.18116 3.66994 5.37306 3.66992 5.37306 3.47676L6.71628 2.51099H5.18116C5.18116 2.51099 5.18114 2.31782 4.98925 2.31782L4.79735 0L3.83788 1.54521C3.64598 1.54521 3.64602 1.54521 3.45412 1.54521C3.26223 1.54521 3.26221 1.54521 3.07031 1.54521L1.15137 0.579441L2.30275 2.31782C2.11086 2.51098 2.11084 2.70417 2.11084 2.89732L0 3.28359L2.30275 3.66993C2.49464 4.05624 2.68653 4.44255 3.07031 4.6357L2.49465 5.98775L3.64597 4.6357H3.83788H4.02978L4.79735 6.37408" transform="translate(10.4043 23.8176)" fill="#B3B1B2"/>
</svg>
