<svg width="45" height="45" viewBox="0 0 45 45" fill="none" xmlns="http://www.w3.org/2000/svg">
<path d="M2.96999 43.8461C1.386 43.8461 0 42.451 0 40.8566V2.98951C0 1.3951 1.386 0 2.96999 0H40.986C42.5699 0 43.9559 1.3951 43.9559 2.98951V40.8566C43.9559 42.451 42.5699 43.8461 40.986 43.8461" transform="translate(0.519531 0.832031)" fill="#B3B1B2"/>
<path d="M19.008 37.8671C29.502 37.8671 38.016 29.2972 38.016 18.9336C38.016 8.37063 29.502 0 19.008 0C8.514 0 0 8.56993 0 18.9336C0 29.4965 8.514 37.8671 19.008 37.8671Z" transform="translate(3.49023 3.82153)" fill="white"/>
<path d="M0 0L8.90998 6.37765L24.948 1.99301" transform="translate(13.7832 16.3777)" stroke="#B3B1B2" stroke-width="2.19706"/>
<path d="M0 0H4.94999" transform="translate(3.49023 22.7551)" stroke="#B3B1B2" stroke-width="1.46802"/>
<path d="M4.94999 0H0" transform="translate(36.7539 22.7551)" stroke="#B3B1B2" stroke-width="1.46802"/>
<path d="M0 0V4.98252" transform="translate(22.6934 3.62231)" stroke="#B3B1B2" stroke-width="1.46802"/>
<path d="M0 0V4.7832" transform="translate(22.6934 37.3042)" stroke="#B3B1B2" stroke-width="1.46802"/>
<path d="M5.34601 6.77621V7.97203H0V6.5769L0.396023 6.17833C0.792023 5.97903 0.990022 5.58043 1.38602 5.18183C1.58402 4.98253 1.98001 4.58388 2.17801 4.38458C2.97001 3.38807 3.36602 2.79022 3.36602 2.19232C3.36602 1.99302 3.36601 1.79368 3.16801 1.59438C2.77201 1.19578 2.17801 1.19582 2.17801 1.19582C1.38601 1.19582 0.990022 1.39509 0.396023 1.79369L0.198012 0.398565C0.396011 0.398565 0.594047 0.199313 0.792047 0.199313C0.990046 0.199313 1.78203 0 2.57403 0C3.16803 0 3.76202 0.199276 4.35602 0.597878C4.55402 0.797178 5.148 1.39512 5.148 2.19232C5.148 2.39162 5.14799 2.79017 4.94999 3.38807C4.35599 4.58388 2.97001 5.77971 2.17801 6.77621" transform="translate(10.2227 25.7449)" fill="#B3B1B2"/>
<path d="M4.94999 0V5.18183H5.74198V6.37758H4.94999V7.97203H3.36602V6.37758H0V5.18183L2.96999 0.199313L4.94999 0ZM1.58403 5.18183H3.56403V1.39507L1.58403 5.18183Z" transform="translate(16.3594 25.7449)" fill="#B3B1B2"/>
<path d="M1.18801 7.97203H0L2.77198 0H3.95999" transform="translate(23.6836 25.7449)" fill="#B3B1B2"/>
<path d="M5.14794 0V1.19582L2.37596 7.97203H0.593975L3.56397 1.19582H0V0" transform="translate(28.834 25.7449)" fill="#B3B1B2"/>
</svg>
