<svg width="45" height="45" viewBox="0 0 45 45" fill="none" xmlns="http://www.w3.org/2000/svg">
<path d="M2.89114 43.8461C1.3492 43.8461 0 42.4941 0 40.9488V2.89732C0 1.35208 1.3492 0 2.89114 0H40.6688C42.2107 0 43.5599 1.35208 43.5599 2.89732V40.9488C43.5599 42.4941 42.2107 43.8461 40.6688 43.8461" transform="translate(0.998047 0.832031)" fill="#B3B1B2"/>
<path d="M37.5849 28.0074C37.5849 31.8705 34.501 34.961 30.6461 34.961H6.93876C3.0839 34.961 0 31.8705 0 28.0074V6.95352C0 3.09043 3.0839 0 6.93876 0H30.6461C34.501 0 37.5849 3.09043 37.5849 6.95352" transform="translate(3.89062 5.46802)" fill="white"/>
<path d="M37.5849 12.7482C37.5849 8.88513 34.3082 6.56731 34.3082 6.56731L33.5373 7.91936C35.0792 8.69197 36.0429 11.0098 36.0429 12.7482C36.0429 14.4866 36.0429 22.7923 36.0429 22.7923H33.73L36.8139 29.5527L39.8978 22.7923H37.5849V12.7482ZM29.6824 34.3816C33.9228 34.3816 36.4284 31.2911 36.4284 31.2911L34.8865 30.5185C33.9228 32.0637 31.6098 32.8363 29.6824 32.8363C27.755 32.8363 18.696 32.8363 18.696 32.8363V30.9048L11.1791 33.8021L18.696 36.6994V34.5747H29.6824V34.3816ZM6.16774 27.2348C6.16774 31.0979 9.44439 33.4158 9.44439 33.4158L10.2154 32.0637C8.67341 31.2911 7.70972 28.9732 7.70972 27.2348C7.70972 25.4964 7.70972 17.1908 7.70972 17.1908H10.0226L6.93876 10.4304L3.85486 17.1908H6.16774V27.2348V27.2348ZM13.8775 5.60153C9.63711 5.60153 7.13145 8.69196 7.13145 8.69196L8.67343 9.46463C9.63715 7.91939 11.95 7.14675 13.8775 7.14675C15.8049 7.14675 24.8638 7.14675 24.8638 7.14675V9.0783L32.3808 6.18097L24.8638 3.47682V5.60153H13.8775V5.60153ZM2.89114 39.7899C1.3492 39.7899 0 38.631 0 37.0857V2.70421C0 1.15898 1.3492 0 2.89114 0H40.6688C42.2107 0 43.5599 1.15898 43.5599 2.70421V37.0857C43.5599 38.631 42.2107 39.7899 40.6688 39.7899H2.89114Z" transform="translate(0.998047 2.76392)" fill="#B3B1B2"/>
<path d="M8.09523 4.6357L6.36055 9.46457H9.63715L8.09523 4.6357ZM5.20408 12.3619L4.24037 15.066H0L5.78229 0H10.0227L15.6122 15.066H11.3719L10.4082 12.3619H5.20408Z" transform="translate(14.873 14.9327)" fill="white"/>
</svg>
