<svg width="45" height="45" viewBox="0 0 45 45" fill="none" xmlns="http://www.w3.org/2000/svg">
<path d="M2.87841 43.8461C1.34326 43.8461 0 42.4941 0 40.9488V2.89732C0 1.35208 1.34326 0 2.87841 0H40.6815C42.2167 0 43.5599 1.35208 43.5599 2.89732V40.9488C43.5599 42.4941 42.2167 43.8461 40.6815 43.8461" transform="translate(0.480469 0.832031)" fill="#B3B1B2"/>
<path d="M5.56486 11.5893V0H4.22158V11.5893H0V38.8241H11.5136V11.5893H5.56486Z" transform="translate(16.4082 3.34314)" fill="white"/>
<path d="M3.45407 0H0V24.5307H3.45407V0Z" transform="translate(18.1328 16.2847)" fill="#B3B1B2"/>
<path d="M0.95947 1.93155C1.53515 1.93155 1.91894 1.54524 1.91894 0.965774C1.91894 0.386309 1.53515 0 0.95947 0C0.383788 0 0 0.386309 0 0.965774C0.191894 1.54524 0.575682 1.93155 0.95947 1.93155Z" transform="translate(24.8496 28.0669)" fill="#B3B1B2"/>
</svg>
