<svg width="45" height="45" viewBox="0 0 45 45" fill="none" xmlns="http://www.w3.org/2000/svg">
<path d="M33.5814 0H0V38.2446H33.5814V0Z" transform="translate(6.33008 1.60474)" fill="white"/>
<path d="M22.4516 19.5086V1.15894H20.9165V19.5086H10.3623V37.0857H33.5814V19.5086H22.4516ZM2.87841 43.8461C1.34326 43.8461 0 42.4941 0 40.9488V2.89732C0 1.35208 1.34326 0 2.87841 0H40.6815C42.2167 0 43.5599 1.35208 43.5599 2.89732V40.9488C43.5599 42.4941 42.2167 43.8461 40.6815 43.8461H2.87841Z" transform="translate(0.958984 0.832031)" fill="#B3B1B2"/>
<path d="M17.6543 0H0V6.18097H17.6543V0Z" transform="translate(14.3887 22.2722)" fill="#B3B1B2"/>
<path d="M3.64591 0H0V2.70415H3.64591V0Z" transform="translate(16.5 24.2036)" fill="white"/>
<path d="M3.64591 0H0V2.70415H3.64591V0Z" transform="translate(21.3008 24.2036)" fill="white"/>
<path d="M3.64603 0H0V2.70415H3.64603V0Z" transform="translate(26.291 24.2036)" fill="white"/>
<path d="M11.3218 0H0V2.51099H11.3218V0Z" transform="translate(19.9551 31.5437)" fill="#B3B1B2"/>
<path d="M1.72697 3.47676C2.68644 3.47676 3.45407 2.70415 3.45407 1.73838C3.45407 0.772607 2.68644 0 1.72697 0C0.767505 0 0 0.772607 0 1.73838C0 2.70415 0.767505 3.47676 1.72697 3.47676Z" transform="translate(14.582 31.3505)" fill="#B3B1B2"/>
</svg>
