<svg width="44" height="45" viewBox="0 0 44 45" fill="none" xmlns="http://www.w3.org/2000/svg">
<path d="M2.87841 43.8461C1.34326 43.8461 0 42.4941 0 40.9488V2.89732C0 1.35208 1.34326 0 2.87841 0H40.6815C42.2167 0 43.5599 1.35208 43.5599 2.89732V40.9488C43.5599 42.4941 42.2167 43.8461 40.6815 43.8461" transform="translate(0.439453 0.832031)" fill="#B3B1B2"/>
<path d="M28.9576 6.01277C28.9576 6.01277 31.0684 3.3086 30.4928 2.14967C29.5333 1.76336 29.1495 1.76334 29.1495 1.76334C29.1495 1.76334 29.5333 0.99071 29.3414 0.604401C28.9576 0.411246 24.7359 -1.52029 21.6656 2.72911C17.6359 2.53596 7.46551 1.57019 2.86006 5.62644C2.28437 5.62644 2.09243 5.62647 2.09243 5.24016C2.09243 4.85385 2.09243 3.88805 1.13297 3.88805C0.36539 4.27436 -0.977867 5.62647 1.13297 8.13748C1.13297 8.13748 -3.08865 18.3747 4.77899 25.3282C4.77899 25.3282 5.16277 29.5776 6.50603 29.9639C8.61686 30.1571 8.80874 29.9639 11.1115 29.9639C12.0709 29.9639 12.2628 27.0666 12.2628 27.0666C12.2628 27.0666 17.2521 28.2255 19.7467 26.8735C20.5143 29.9639 20.7062 30.3503 22.6251 30.3503C24.3521 30.3503 24.3521 30.3503 25.5035 30.3503C26.2711 30.3503 26.463 30.1571 26.6549 26.1008C28.5738 23.2035 29.3414 22.0446 33.9468 19.3404C34.7144 17.9883 35.6739 15.2842 34.9063 12.9664C33.563 12.1937 28.5738 8.13747 28.9576 6.01277Z" transform="translate(4.67773 11.8171)" fill="white"/>
<path d="M4.98925 0.0482828C4.98925 0.0482828 2.49462 -0.14486 0 0.241449Z" transform="translate(15.5996 15.8501)" fill="white"/>
<path d="M4.98925 0.0482828C4.98925 0.0482828 2.49462 -0.14486 0 0.241449" transform="translate(15.5996 15.8501)" stroke="#808F4D" stroke-width="1.01311"/>
<path d="M0 3.47676C0 5.40831 1.53513 6.95358 3.45407 6.95358C5.373 6.95358 6.90819 5.40831 6.90819 3.47676C6.90819 1.54521 5.373 0 3.45407 0C1.53513 0.193155 0 1.73837 0 3.47676Z" transform="translate(14.832 3.34314)" fill="white"/>
<path d="M0 0.965774C0 1.54524 0.191906 1.93155 0.191906 1.93155C0.383799 1.93155 0.383811 1.54524 0.383811 0.965774C0.383811 0.386309 0.191906 0 0.191906 0C1.17094e-05 0 0 0.386309 0 0.965774Z" transform="translate(33.6348 21.8862)" fill="#B3B1B2"/>
<path d="M0 0.716914C2.68651 0.330604 6.52441 -0.442038 10.938 0.330581C10.938 1.29635 10.938 1.48952 10.938 1.48952C9.01903 1.29637 6.90818 1.10324 0 1.87585C0 1.10324 0 0.716914 0 0.716914Z" transform="translate(12.7207 14.988)" fill="white"/>
<path d="M0 0.716914C2.68651 0.330604 6.52441 -0.442038 10.938 0.330581C10.938 1.29635 10.938 1.48952 10.938 1.48952C9.01903 1.29637 6.90818 1.10324 0 1.87585C0 1.10324 0 0.716914 0 0.716914Z" transform="translate(12.7207 14.988)" stroke="#B3B1B2" stroke-width="0.506555"/>
</svg>
