<svg width="45" height="45" viewBox="0 0 45 45" fill="none" xmlns="http://www.w3.org/2000/svg">
<path d="M2.87841 43.8461C1.34326 43.8461 0 42.4941 0 40.9488V2.89732C0 1.35208 1.34326 0 2.87841 0H40.6815C42.2167 0 43.5599 1.35208 43.5599 2.89732V40.9488C43.5599 42.4941 42.2167 43.8461 40.6815 43.8461" transform="translate(0.519531 0.650391)" fill="#B3B1B2"/>
<path d="M0.170572 22.406C0.170572 22.406 -0.213215 22.0196 0.170572 21.4402C1.89762 18.3497 14.9464 12.9414 5.54358 0" transform="translate(24.9121 20.5452)" stroke="white" stroke-width="0.677393" stroke-linecap="round" stroke-linejoin="round"/>
<path d="M12.6651 6.37408C12.6651 9.85087 9.78656 12.7482 6.33247 12.7482C2.87838 12.7482 0 9.85087 0 6.37408C0 2.8973 2.87838 0 6.33247 0C9.78656 0 12.6651 2.8973 12.6651 6.37408Z" transform="translate(19.3262 21.3179)" stroke="white" stroke-width="1.12833" stroke-linecap="round" stroke-linejoin="round"/>
<path d="M0 6.18097L3.83788 4.05626V1.54527L2.87841 0" transform="translate(33.5215 20.1589)" stroke="white" stroke-width="0.677393" stroke-linecap="round" stroke-linejoin="round"/>
<path d="M2.30275 4.44253L4.02978 5.02203L3.83788 3.28365V1.54521L3.07031 2.12471L1.34328 0L0 1.15894L1.53519 3.28365L0.767564 3.86309L2.30275 4.44253Z" transform="translate(5.125 10.6941)" stroke="white" stroke-width="0.677393" stroke-linecap="round" stroke-linejoin="round"/>
<path d="M4.41359 1.54527L4.98925 0H3.26222H1.53519L2.11084 0.965774L0 2.51105L0.959469 4.05626L3.26222 2.31788L3.83788 3.28365L4.41359 1.54527Z" transform="translate(4.93555 35.6115)" stroke="white" stroke-width="0.677393" stroke-linecap="round" stroke-linejoin="round"/>
<path d="M3.07025 5.60153L6.14063 2.70421H4.60538V0H1.34328V2.70421H0L3.07025 5.60153Z" transform="translate(22.9707 1.61609)" stroke="white" stroke-width="0.677393" stroke-linecap="round" stroke-linejoin="round"/>
<path d="M0.383811 6.56725L0 2.89732L4.60544 0" transform="translate(10.8848 11.4668)" stroke="white" stroke-width="1.12833" stroke-linecap="round" stroke-linejoin="round"/>
<path d="M0.959469 15.0661C0.959469 15.0661 0 11.5893 0 0" transform="translate(9.73047 18.2273)" stroke="white" stroke-width="1.12833" stroke-linecap="round" stroke-linejoin="round"/>
<path d="M0 24.7238L0.767564 28.3938C0.767564 28.3938 5.94873 33.6089 16.6948 34.7678C17.4624 34.7678 27.057 34.7678 27.057 34.7678V0H21.3002" transform="translate(12.0332 8.5697)" stroke="white" stroke-width="1.12833" stroke-linecap="round" stroke-linejoin="round"/>
<path d="M0 18.3497L0.575658 10.4303H2.30275L0.959469 9.65774L3.07025 7.14675H4.22169L3.64603 6.56725L6.52444 3.09049L7.67575 3.28365L7.10009 2.70415L9.40284 0.193167L11.3218 0.965774L13.4326 0L15.7353 2.70415L15.3515 3.47676L16.311 3.28365L18.9975 6.56725L18.4218 7.14675H19.5732L21.684 9.65774L19.3812 11.203L17.0786 8.4988L17.6543 7.72619H16.5028L13.6244 4.44254L14.392 3.86309L13.0488 3.66993L11.5136 1.93155H11.1298L9.40284 3.86309L8.63522 3.66993L8.82707 4.44254L6.14063 7.72619H5.18116L5.56497 8.4988L3.64603 10.6235L3.07025 18.3497H0Z" transform="translate(14.9121 12.626)" stroke="white" stroke-width="0.450933" stroke-linecap="round" stroke-linejoin="round"/>
<path d="M0 4.0562L0.959469 0" transform="translate(22.584 39.088)" stroke="white" stroke-width="0.903853" stroke-linecap="round" stroke-linejoin="round"/>
<path d="M9.40273 0L12.2811 1.73838C12.2811 1.73838 10.1703 4.24943 7.48379 5.2152C4.79728 6.18097 4.22169 8.4988 4.22169 8.4988L5.56485 8.30569L3.83788 11.9756L0 9.65774L1.34322 9.27146C1.34322 9.27146 0.191894 6.56728 2.87841 5.2152C7.48386 2.89734 9.40273 0 9.40273 0Z" transform="translate(13.373 6.63806)" stroke="white" stroke-width="0.677393" stroke-linecap="round" stroke-linejoin="round"/>
<path d="M2.87841 0L0 1.73844C0 1.73844 2.11083 4.24943 4.79735 5.2152C7.29197 6.18097 8.05945 8.49885 8.05945 8.49885L6.71628 8.30569L8.44326 11.9756L12.2811 9.65774L10.9379 9.27146C10.9379 9.27146 12.0892 6.56728 9.40273 5.2152C4.79728 2.89734 2.87841 0 2.87841 0Z" transform="translate(26.2305 6.44507)" stroke="white" stroke-width="0.677393" stroke-linecap="round" stroke-linejoin="round"/>
<path d="M0 3.86309L3.83788 0" transform="translate(17.4062 38.3156)" stroke="white" stroke-width="0.903853" stroke-linecap="round"/>
</svg>
