<svg width="44" height="44" viewBox="0 0 44 44" fill="none" xmlns="http://www.w3.org/2000/svg">
<path d="M2.93004 43.8461C1.36735 43.8461 0 42.4698 0 40.8969V2.94929C0 1.37634 1.36735 0 2.93004 0H40.6299C42.1926 0 43.5599 1.37634 43.5599 2.94929V40.8969C43.5599 42.4698 42.1926 43.8461 40.6299 43.8461" transform="translate(0.101562)" fill="#B3B1B2"/>
<path d="M32.274 29.8951L0 24.7133L19.206 0H33.6599L32.274 29.8951Z" transform="translate(4.65625 3.58752)" stroke="white" stroke-width="0.522447"/>
<path d="M25.74 0L15.642 27.3042L0 24.7133L11.88 9.36709L33.066 10.9615" transform="translate(4.65625 3.58752)" stroke="white" stroke-width="0.522447"/>
<path d="M0 0H2.57397C4.35597 0 4.75198 1.1958 4.75198 1.99301C4.75198 2.79021 4.15797 4.18533 2.57397 4.18533H1.78198V6.17833H0V0ZM1.78198 2.7902H2.17795C2.96995 2.7902 2.96999 2.39161 2.96999 1.99301C2.96999 1.59441 2.77195 1.19582 2.17795 1.19582H1.78198V2.7902Z" transform="translate(2.47461 35.0768)" fill="white"/>
<path d="M0.198012 0H2.77198C4.75198 0 4.94999 1.59439 4.94999 1.79369C4.94999 2.9895 4.15797 3.38815 3.56397 3.58745L5.34601 6.17833H3.16801L1.78198 4.18533V6.17833H0L0.198012 0ZM2.37602 2.7902C2.97002 2.7902 3.16801 2.39161 3.16801 1.99301C3.16801 1.59441 2.97002 1.19582 2.37602 1.19582H1.98V2.59094H2.37602V2.7902Z" transform="translate(8.01953 35.0768)" fill="white"/>
<path d="M1.78198 0H0V6.17833H1.78198V0Z" transform="translate(13.7598 35.0768)" fill="white"/>
<path d="M0 3.38807C0 1.79367 0.989962 0 3.36596 0C5.54395 0 6.73198 1.59437 6.73198 3.38807C6.73198 4.98248 5.74195 6.77621 3.36596 6.77621C1.18796 6.77621 0 5.18178 0 3.38807ZM4.94999 3.38807C4.94999 2.19227 4.15796 1.59438 3.36596 1.59438C2.57396 1.59438 1.78198 2.19227 1.78198 3.38807C1.78198 4.58388 2.57396 5.18177 3.36596 5.18177C4.15796 5.18177 4.94999 4.58388 4.94999 3.38807Z" transform="translate(16.3359 34.6783)" fill="white"/>
<path d="M0 0H2.57397C4.55397 0 4.75198 1.59439 4.75198 1.79369C4.75198 2.9895 3.96002 3.38815 3.36602 3.58745L5.148 6.17833H2.96999L1.58397 4.18533V6.17833H0V0ZM2.17801 2.7902C2.77201 2.7902 2.96999 2.39161 2.96999 1.99301C2.96999 1.59441 2.77201 1.19582 2.17801 1.19582H1.78198V2.59094H2.17801V2.7902Z" transform="translate(23.8594 35.0768)" fill="white"/>
<path d="M1.78198 0H0V6.17833H1.78198V0Z" transform="translate(29.6035 35.0768)" fill="white"/>
<path d="M1.38596 1.39513H0V0H4.35596V1.39513H3.16801V6.17833H1.38596" transform="translate(31.9766 35.0768)" fill="white"/>
<path d="M2.17801 3.7867L0 0H2.17801L3.16801 2.19232L4.158 0H6.138L3.95999 3.7867V6.17833H2.17801" transform="translate(36.334 35.0768)" fill="white"/>
<path d="M0 15.3462L11.88 0L21.978 0.797251L15.642 17.9371" transform="translate(4.65625 12.9545)" fill="white"/>
<path d="M0 0L1.98 3.18882" transform="translate(8.8125 14.1503)" stroke="white" stroke-width="0.522447"/>
<path d="M0 0L3.76198 1.19576" transform="translate(6.23828 16.7413)" stroke="white" stroke-width="0.522447"/>
<path d="M0 0.398626L3.95999 0" transform="translate(5.64648 19.3322)" stroke="white" stroke-width="0.522447"/>
</svg>
