<svg width="44" height="46" viewBox="0 0 44 46" fill="none" xmlns="http://www.w3.org/2000/svg">
<path d="M2.87841 43.4546C1.34326 43.4546 0 42.0844 0 40.5184V2.93612C0 1.37019 1.34326 0 2.87841 0H40.6815C42.2167 0 43.5599 1.37019 43.5599 2.93612V40.5184C43.5599 42.0844 42.2167 43.4546 40.6815 43.4546" transform="translate(0.0605469 0.657349)" fill="#B2B1B1"/>
<path d="M4.41353 4.30634H3.45407L3.07025 3.32763H1.34322L0.959469 4.30634H0L1.72703 0H2.6865L4.41353 4.30634ZM2.6865 2.54467L2.11078 0.978707L1.53513 2.54467H2.6865Z" transform="translate(13.875 3.20215)" fill="white"/>
<path d="M0 0H1.72703C2.11082 0 2.3027 0 2.4946 0L2.87841 0.195753L3.26222 0.58726C3.26222 0.783002 3.45407 0.978719 3.45407 1.17446C3.45407 1.3702 3.45411 1.56592 3.26222 1.76166C3.07032 1.9574 3.0703 1.95743 2.87841 2.15317C3.0703 2.15317 3.26217 2.34893 3.45407 2.54467C3.64596 2.74042 3.64597 2.93613 3.64597 3.13187C3.64597 3.32762 3.64596 3.52333 3.45407 3.71908C3.45407 3.91482 3.26221 4.11058 3.07031 4.11058C2.87842 4.30632 2.68649 4.30634 2.4946 4.30634C2.3027 4.30634 1.91891 4.30634 1.53513 4.30634H0V0ZM0.959469 0.782954V1.76166H1.53513C1.91891 1.76166 2.11084 1.76166 2.11084 1.76166L2.4946 1.56597L2.6865 1.17446L2.4946 0.782954L2.11084 0.58726C2.11084 0.58726 1.72707 0.58726 1.34328 0.58726H0.959469V0.782954ZM0.959469 2.54467V3.71908H1.72703C2.11082 3.71908 2.30275 3.71908 2.30275 3.71908L2.6865 3.52338L2.87841 3.13187V2.74037L2.6865 2.54467C2.49461 2.54467 2.30273 2.54467 1.91894 2.54467H0.959469Z" transform="translate(20.207 3.20215)" fill="white"/>
<path d="M2.87841 2.74037L3.64597 2.93612C3.45408 3.3276 3.26221 3.71909 3.07031 3.91483C2.68653 4.11057 2.30273 4.30634 1.91894 4.30634C1.34326 4.30634 0.959446 4.11056 0.575658 3.71908C0.19187 3.32759 0 2.74039 0 2.15317C0 1.3702 0.19187 0.978743 0.575658 0.58726C0.959446 0.195777 1.34327 0 2.11084 0C2.68653 0 3.07028 0.195765 3.45407 0.391507C3.64596 0.587248 3.83788 0.782978 3.83788 1.17446L3.07031 1.37021C3.07031 1.17447 2.8784 0.978695 2.6865 0.782954C2.49461 0.587212 2.30274 0.58726 2.11084 0.58726C1.72706 0.58726 1.53512 0.782966 1.34322 0.978707C1.15133 1.17445 0.959469 1.56594 0.959469 2.15317C0.959469 2.74039 1.15133 3.13189 1.34322 3.32763C1.53512 3.52337 1.72706 3.71908 2.11084 3.71908C2.30274 3.71908 2.49461 3.71912 2.6865 3.52338C2.6865 3.32764 2.68651 3.13185 2.87841 2.74037Z" transform="translate(26.1562 3.20215)" fill="white"/>
<path d="M0 0H1.91894" transform="translate(24.4297 23.9506)" stroke="#B2B1B1" stroke-width="0.210568"/>
<path d="M0 0V4.30634H0.959469V10.5701H0V14.6806H1.91894V0" transform="translate(11.5762 8.87866)" fill="#B2B1B1"/>
<path d="M0 0V4.30634H0.959469V10.5701H0V14.6806H1.91894V0H0Z" transform="translate(11.5762 8.87866)" stroke="white" stroke-width="0.383393"/>
<path d="M0.959469 10.5701V4.30634H1.91894V0H0V14.6806H1.91894V10.5701" transform="translate(30.5703 8.87866)" fill="#B2B1B1"/>
<path d="M16.8866 13.1147H0V0.978707H16.8866V13.1147ZM17.8461 10.3743V4.11058H18.8056V0H16.6947V14.6806H18.8056V10.57H17.8461V10.3743Z" transform="translate(13.6855 9.07434)" stroke="white" stroke-width="0.383393"/>
<path d="M0.767564 0H0V14.6806H0.767564V0Z" transform="translate(18.6719 8.87866)" fill="#B2B1B1"/>
<path d="M0.767564 0H0V14.6806H0.767564V0Z" transform="translate(18.6719 8.87866)" stroke="white" stroke-width="0.383393"/>
<path d="M0.767622 0H0V14.6806H0.767622V0Z" transform="translate(24.625 8.87866)" fill="#B2B1B1"/>
<path d="M0.767622 0H0V14.6806H0.767622V0Z" transform="translate(24.625 8.87866)" stroke="white" stroke-width="0.383393"/>
<path d="M1.91894 0.978707C1.91894 1.56593 1.53515 1.95741 0.959469 1.95741C0.383788 1.95741 0 1.56593 0 0.978707C0 0.391483 0.383788 0 0.959469 0C1.53515 0 1.91894 0.391483 1.91894 0.978707Z" transform="translate(15.2207 11.2273)" fill="#B2B1B1"/>
<path d="M1.91894 0.978707C1.91894 1.56593 1.53515 1.95741 0.959469 1.95741C0.383788 1.95741 0 1.56593 0 0.978707C0 0.391483 0.383788 0 0.959469 0C1.53515 0 1.91894 0.391483 1.91894 0.978707Z" transform="translate(15.2207 11.2273)" stroke="white" stroke-width="0.460866"/>
<path d="M1.91894 0.978707C1.91894 1.56593 1.53515 1.95741 0.959469 1.95741C0.383788 1.95741 0 1.56593 0 0.978707C0 0.391483 0.383788 0 0.959469 0C1.53515 0 1.91894 0.391483 1.91894 0.978707Z" transform="translate(20.9785 11.2273)" fill="#B2B1B1"/>
<path d="M0.959469 1.95741C1.48937 1.95741 1.91894 1.51923 1.91894 0.978707C1.91894 0.438182 1.48937 0 0.959469 0C0.429569 0 0 0.438182 0 0.978707C0 1.51923 0.429569 1.95741 0.959469 1.95741Z" transform="translate(20.9785 11.2273)" stroke="white" stroke-width="0.460866"/>
<path d="M1.91894 0.978707C1.91894 1.56593 1.53515 1.95741 0.959469 1.95741C0.383788 1.95741 0 1.56593 0 0.978707C0 0.391483 0.383788 0 0.959469 0C1.53515 0 1.91894 0.391483 1.91894 0.978707Z" transform="translate(26.9238 11.2273)" fill="#B2B1B1"/>
<path d="M0.959469 1.95741C1.48937 1.95741 1.91894 1.51923 1.91894 0.978707C1.91894 0.438182 1.48937 0 0.959469 0C0.429569 0 0 0.438182 0 0.978707C0 1.51923 0.429569 1.95741 0.959469 1.95741Z" transform="translate(26.9238 11.2273)" stroke="white" stroke-width="0.460866"/>
<path d="M1.91894 0.978707C1.91894 1.56593 1.53515 1.95741 0.959469 1.95741C0.383788 1.95741 0 1.56593 0 0.978707C0 0.391483 0.383788 0 0.959469 0C1.53515 0 1.91894 0.391483 1.91894 0.978707Z" transform="translate(15.2207 17.2952)" fill="#B2B1B1"/>
<path d="M1.91894 0.978707C1.91894 1.56593 1.53515 1.95741 0.959469 1.95741C0.383788 1.95741 0 1.56593 0 0.978707C0 0.391483 0.383788 0 0.959469 0C1.53515 0 1.91894 0.391483 1.91894 0.978707Z" transform="translate(15.2207 17.2952)" stroke="white" stroke-width="0.460866"/>
<path d="M1.91894 0.978707C1.91894 1.56593 1.53515 1.95741 0.959469 1.95741C0.383788 1.95741 0 1.56593 0 0.978707C0 0.391483 0.383788 0 0.959469 0C1.53515 0 1.91894 0.391483 1.91894 0.978707Z" transform="translate(20.9785 17.2952)" fill="#B2B1B1"/>
<path d="M1.91894 0.978707C1.91894 1.56593 1.53515 1.95741 0.959469 1.95741C0.383788 1.95741 0 1.56593 0 0.978707C0 0.391483 0.383788 0 0.959469 0C1.53515 0 1.91894 0.391483 1.91894 0.978707Z" transform="translate(20.9785 17.2952)" stroke="white" stroke-width="0.460866"/>
<path d="M1.91894 0.978707C1.91894 1.56593 1.53515 1.95741 0.959469 1.95741C0.383788 1.95741 0 1.56593 0 0.978707C0 0.391483 0.383788 0 0.959469 0C1.53515 0 1.91894 0.391483 1.91894 0.978707Z" transform="translate(26.9238 17.2952)" fill="#B2B1B1"/>
<path d="M1.91894 0.978707C1.91894 1.56593 1.53515 1.95741 0.959469 1.95741C0.383788 1.95741 0 1.56593 0 0.978707C0 0.391483 0.383788 0 0.959469 0C1.53515 0 1.91894 0.391483 1.91894 0.978707Z" transform="translate(26.9238 17.2952)" stroke="white" stroke-width="0.460866"/>
<path d="M15.3515 4.89354H11.8974V0H15.3515V4.89354ZM9.21088 4.89354H5.75681V0H9.21088V4.89354ZM3.45407 4.89354H0V0H3.45407V4.89354Z" transform="translate(14.4531 16.5123)" stroke="white" stroke-width="0.307906"/>
<path d="M6.90819 0C6.90819 0 7.48385 5.28503 4.60544 9.00412C1.91893 12.3317 0 16.8338 0 19.5741" transform="translate(21.166 24.9293)" stroke="white" stroke-width="1.75804"/>
<path d="M0.575717 0.146806C1.1514 -0.0489354 2.68651 -0.0489354 3.83788 0.146806C4.02977 0.146806 4.02978 0.538265 4.02978 1.71271C4.02978 2.1042 4.02979 2.29994 4.22169 2.69142C4.41358 2.88716 4.60544 3.27863 4.60544 3.47438C4.79733 4.0616 4.98927 6.21479 4.41359 6.01905C3.45412 5.82331 3.07034 5.8233 2.49465 5.8233C1.72708 5.8233 1.15135 5.82331 0.767564 6.01905C-1.17237e-05 6.21479 0 5.62757 0 5.04034C0 3.08293 0.383811 2.88719 0.383811 2.10422C0.383811 1.71274 0.383811 1.32124 0.383811 0.92976C0.383811 0.342536 0.383823 0.146806 0.575717 0.146806Z" transform="translate(25.7773 20.0848)" fill="#B2B1B1"/>
<path d="M0.575717 0.146806C1.1514 -0.0489354 2.68651 -0.0489354 3.83788 0.146806C4.02977 0.146806 4.02978 0.538265 4.02978 1.71271C4.02978 2.1042 4.02979 2.29994 4.22169 2.69142C4.41358 2.88716 4.60544 3.27863 4.60544 3.47438C4.79733 4.0616 4.98927 6.21479 4.41359 6.01905C3.45412 5.82331 3.07034 5.8233 2.49465 5.8233C1.72708 5.8233 1.15135 5.82331 0.767564 6.01905C-1.17237e-05 6.21479 0 5.62757 0 5.04034C0 3.08293 0.383811 2.88719 0.383811 2.10422C0.383811 1.71274 0.383811 1.32124 0.383811 0.92976C0.383811 0.342536 0.383823 0.146806 0.575717 0.146806Z" transform="translate(25.7773 20.0848)" stroke="white" stroke-width="0.351609"/>
<path d="M6.90819 0C6.90819 0 8.25143 10.9615 0 19.1826" transform="translate(15.4141 25.125)" stroke="white" stroke-width="1.75804" stroke-linecap="round"/>
<path d="M0.575717 0.146806C1.1514 -0.0489354 2.68651 -0.0489354 3.83788 0.146806C4.02977 0.146806 4.02978 0.538265 4.02978 1.71271C4.02978 2.1042 4.02979 2.29994 4.22169 2.69142C4.41358 2.88716 4.6055 3.27863 4.6055 3.47438C4.79739 4.0616 4.98927 6.21479 4.41359 6.01905C3.45412 5.82331 3.07034 5.8233 2.49465 5.8233C1.72708 5.8233 1.15141 5.82331 0.767622 6.01905C4.68376e-05 6.21479 0 5.62757 0 5.04034C0 3.08293 0.383811 2.88719 0.383811 2.10422C0.383811 1.71274 0.383811 1.32124 0.383811 0.92976C0.191917 0.342536 0.383823 0.146806 0.575717 0.146806Z" transform="translate(19.8281 20.0848)" fill="#B2B1B1"/>
<path d="M0.575717 0.146806C1.1514 -0.0489354 2.68651 -0.0489354 3.83788 0.146806C4.02977 0.146806 4.02978 0.538265 4.02978 1.71271C4.02978 2.1042 4.02979 2.29994 4.22169 2.69142C4.41358 2.88716 4.6055 3.27863 4.6055 3.47438C4.79739 4.0616 4.98927 6.21479 4.41359 6.01905C3.45412 5.82331 3.07034 5.8233 2.49465 5.8233C1.72708 5.8233 1.15141 5.82331 0.767622 6.01905C4.68376e-05 6.21479 0 5.62757 0 5.04034C0 3.08293 0.383811 2.88719 0.383811 2.10422C0.383811 1.71274 0.383811 1.32124 0.383811 0.92976C0.191917 0.342536 0.383823 0.146806 0.575717 0.146806Z" transform="translate(19.8281 20.0848)" stroke="white" stroke-width="0.351609"/>
<path d="M0 0C0 0 0.19187 5.285 4.41353 9.39557C8.25141 13.1147 11.3218 15.855 12.8569 19.3784" transform="translate(16.373 24.9293)" stroke="white" stroke-width="1.75804" stroke-linecap="round"/>
<path d="M0 2.74037C0 2.74037 0.191859 2.15312 0.383752 1.37015C0.575646 0.78293 0.959469 0 0.959469 0" transform="translate(21.5508 34.1289)" stroke="#B2B1B1" stroke-width="0.307906"/>
<path d="M0 2.54461C0 2.54461 0.191917 1.76169 0.383811 1.17446C0.575705 0.587236 0.767622 0 0.767622 0" transform="translate(19.8281 32.9547)" stroke="#B2B1B1" stroke-width="0.307906"/>
<path d="M0 0L1.91894 1.76166" transform="translate(23.0859 35.4995)" stroke="#B2B1B1" stroke-width="0.307906"/>
<path d="M0 0L1.53513 1.56597" transform="translate(22.3145 37.4568)" stroke="#B2B1B1" stroke-width="0.307906"/>
<path d="M0.575717 0.146806C1.1514 -0.0489354 2.68651 -0.0489354 3.83788 0.146806C4.02977 0.146806 4.02978 0.538265 4.02978 1.71271C4.02978 2.1042 4.02979 2.29994 4.22169 2.69142C4.41358 2.88716 4.6055 3.27863 4.6055 3.47438C4.79739 4.0616 4.98927 6.21479 4.41359 6.01905C3.45412 5.82331 3.07034 5.8233 2.49465 5.8233C1.72708 5.8233 1.15141 5.82331 0.767622 6.01905C4.68376e-05 6.21479 0 5.62757 0 5.04034C0 3.08293 0.383811 2.88719 0.383811 2.10422C0.383811 1.71274 0.383811 1.32124 0.383811 0.92976C0.191917 0.342536 0.383823 0.146806 0.575717 0.146806Z" transform="translate(14.0664 20.0848)" fill="#B2B1B1"/>
<path d="M0.575717 0.146806C1.1514 -0.0489354 2.68651 -0.0489354 3.83788 0.146806C4.02977 0.146806 4.02978 0.538265 4.02978 1.71271C4.02978 2.1042 4.02979 2.29994 4.22169 2.69142C4.41358 2.88716 4.6055 3.27863 4.6055 3.47438C4.79739 4.0616 4.98927 6.21479 4.41359 6.01905C3.45412 5.82331 3.07034 5.8233 2.49465 5.8233C1.72708 5.8233 1.15141 5.82331 0.767622 6.01905C4.68376e-05 6.21479 0 5.62757 0 5.04034C0 3.08293 0.383811 2.88719 0.383811 2.10422C0.383811 1.71274 0.383811 1.32124 0.383811 0.92976C0.191917 0.342536 0.383823 0.146806 0.575717 0.146806Z" transform="translate(14.0664 20.0848)" stroke="white" stroke-width="0.351609"/>
</svg>
