<svg width="45" height="45" viewBox="0 0 45 45" fill="none" xmlns="http://www.w3.org/2000/svg">
<path d="M2.87841 43.8461C1.34326 43.8461 0 42.4941 0 40.9488V2.89732C0 1.35208 1.34326 0 2.87841 0H40.6815C42.2167 0 43.5599 1.35208 43.5599 2.89732V40.9488C43.5599 42.4941 42.2167 43.8461 40.6815 43.8461" transform="translate(0.599609 0.657349)" fill="#B3B1B2"/>
<path d="M2.30275 5.79464C4.41358 5.79464 4.41359 4.2494 4.41359 3.86309C4.41359 3.47678 4.41358 1.93155 2.30275 1.93155H2.11084V5.79464H2.30275ZM0 0H2.6865C5.7568 0 6.52438 2.12469 6.52438 3.66993C6.52438 5.60147 5.37302 7.33991 2.6865 7.33991H0V0Z" transform="translate(4.24609 5.67932)" fill="white"/>
<path d="M3.07031 4.6357H4.79735L4.02978 1.93155L3.07031 4.6357ZM2.6865 0H5.18116L7.86766 7.53302H5.56491L5.18116 6.18097H2.6865L2.30275 7.53302H0L2.6865 0Z" transform="translate(10.9629 5.67932)" fill="white"/>
<path d="M2.11084 0H0V7.53302H2.11084V0Z" transform="translate(19.4062 5.67932)" fill="white"/>
<path d="M0 0H2.11084V3.28365L4.41353 0H6.90819L4.02978 3.66993L6.90819 7.53302H4.22163L2.11084 4.24943V7.53302H0" transform="translate(22.8574 5.67932)" fill="white"/>
<path d="M2.11084 0H0V7.53302H2.11084V0Z" transform="translate(30.3418 5.67932)" fill="white"/>
<path d="M0 0H2.30275L4.98925 4.44259V0H6.90819V7.53302H4.79735L2.11084 3.09049V7.53302H0" transform="translate(33.7949 5.67932)" fill="white"/>
<path d="M0 0H2.11084V3.09049L4.41359 0H6.90819L4.02978 3.66993L6.90819 7.53302H4.41359L2.11084 4.24937V7.53302H0" transform="translate(5.01367 18.6206)" fill="white"/>
<path d="M0 0H2.30269L4.98919 4.44253V0H6.90813V7.53302H4.79735L2.11079 2.89732V7.53302H0" transform="translate(12.4941 18.6206)" fill="white"/>
<path d="M5.75681 4.05626C5.75681 2.51102 4.79735 1.93155 3.83788 1.93155C2.87841 1.93155 1.91894 2.70418 1.91894 4.05626C1.91894 5.6015 2.87841 6.18097 3.83788 6.18097C4.98924 6.37413 5.75681 5.6015 5.75681 4.05626ZM0 4.05626C0 2.12471 1.34327 0 4.02978 0C6.7163 0 8.05956 1.93156 8.05956 4.05626C8.05956 5.98781 6.7163 8.11252 4.02978 8.11252C1.15137 8.11252 0 6.18096 0 4.05626Z" transform="translate(20.5586 18.2344)" fill="white"/>
<path d="M4.60544 7.53302H2.6865L0 0H2.30269L3.64597 4.6357L4.79735 0H7.10004L8.25141 4.6357L9.59469 0H11.8974L9.21088 7.53302H7.10004L5.94866 2.70415" transform="translate(28.8066 18.6206)" fill="white"/>
<path d="M0 0H2.11084V2.70415H4.79735V0H6.71628V7.53302H4.79735V4.6357H2.11084V7.53302H0" transform="translate(8.85156 31.3688)" fill="white"/>
<path d="M5.75681 4.05626C5.75681 2.51102 4.79735 1.93155 3.83788 1.93155C2.87841 1.93155 1.91894 2.70418 1.91894 4.05626C1.91894 5.6015 2.87841 6.18092 3.83788 6.18092C4.98924 6.18092 5.75681 5.40834 5.75681 4.05626ZM0 4.05626C0 2.12471 1.34327 0 4.02978 0C6.7163 0 8.05956 1.93156 8.05956 4.05626C8.05956 5.98781 6.7163 8.11246 4.02978 8.11246C1.15137 8.11246 0 5.98781 0 4.05626Z" transform="translate(16.7188 31.1758)" fill="white"/>
<path d="M4.60544 7.53302H2.6865L0 0H2.30269L3.64597 4.6357L4.79735 0H7.10004L8.25141 4.6357L9.59469 0H11.7055L9.21088 7.53302H7.10004L5.94866 2.70415" transform="translate(24.9707 31.3688)" fill="white"/>
</svg>
