<svg width="45" height="45" viewBox="0 0 45 45" fill="none" xmlns="http://www.w3.org/2000/svg">
<path d="M2.87841 43.8461C1.34326 43.8461 0 42.4941 0 40.9488V2.89732C0 1.35208 1.34326 0 2.87841 0H40.6815C42.2167 0 43.5599 1.35208 43.5599 2.89732V40.9488C43.5599 42.4941 42.2167 43.8461 40.6815 43.8461" transform="translate(0.560547 0.657349)" fill="#B3B1B2"/>
<path d="M0 19.7018C0 30.5185 8.82709 39.4036 19.5732 39.4036C30.3192 39.4036 39.1464 30.5185 39.1464 19.7018C39.1464 8.88514 30.3192 0 19.5732 0C8.82709 0 0 8.88514 0 19.7018Z" transform="translate(2.67188 2.97498)" fill="white"/>
<path d="M0 11.2029C0 17.3839 4.79736 22.406 10.7461 22.406C16.6948 22.406 21.4922 17.3839 21.4922 11.2029C21.4922 5.022 16.6948 0 10.7461 0C4.79736 0 0 5.022 0 11.2029Z" transform="translate(12.4551 7.99719)" stroke="#B3B1B2" stroke-width="1.6468"/>
<path d="M0 5.79464C0 9.07827 2.68653 11.5893 5.94873 11.5893C9.21093 11.5893 11.8974 9.07827 11.8974 5.79464C11.8974 2.70417 9.21093 0 5.94873 0C2.68653 0 0 2.51101 0 5.79464Z" transform="translate(15.9141 17.0757)" stroke="#B3B1B2" stroke-width="0.872069" stroke-miterlimit="1" stroke-dasharray="3.31 3.31"/>
<path d="M2.18641 14.3695C1.80262 14.7558 1.03506 14.7559 0.459378 14.1764C-0.116305 13.5969 -0.116316 13.0174 0.267472 12.438L11.973 0.269229C12.3568 -0.117081 13.1244 -0.117069 13.7001 0.462395C14.2757 1.04186 14.2758 1.62131 13.892 2.20078" transform="translate(3.16992 27.8162)" fill="white"/>
<path d="M2.18641 14.3695C1.80262 14.7558 1.03506 14.7559 0.459378 14.1764C-0.116305 13.5969 -0.116316 13.0174 0.267472 12.438L11.973 0.269229C12.3568 -0.117081 13.1244 -0.117069 13.7001 0.462395C14.2757 1.04186 14.2758 1.62131 13.892 2.20078L2.18641 14.3695Z" transform="translate(3.16992 27.8162)" stroke="#B3B1B2" stroke-width="0.79261" stroke-miterlimit="1"/>
</svg>
