<svg width="44" height="45" viewBox="0 0 44 45" fill="none" xmlns="http://www.w3.org/2000/svg">
<path d="M2.87841 43.8461C1.34326 43.8461 0 42.4941 0 40.9488V2.89732C0 1.35208 1.34326 0 2.87841 0H40.6815C42.2167 0 43.5599 1.35208 43.5599 2.89732V40.9488C43.5599 42.4941 42.2167 43.8461 40.6815 43.8461" transform="translate(0.0605469 0.657349)" fill="#B3B1B2"/>
<path d="M0 0H4.79735C10.1704 0 11.5136 3.66993 11.5136 6.56725C11.5136 10.044 9.40281 13.1345 4.79735 13.1345H0V0ZM4.02973 10.044C7.67572 10.044 7.67576 7.33987 7.67576 6.56725C7.67576 5.79463 7.67572 3.09049 4.02973 3.09049H3.64592V9.8509H4.02973V10.044Z" transform="translate(10.8066 8.96289)" fill="white"/>
<path d="M10.1704 12.9414C9.019 13.714 7.86766 13.9072 6.71629 13.9072C2.87841 13.9072 0 11.203 0 6.95358C0 2.51102 3.07035 0 6.52445 0C7.67581 0 9.019 0.386309 10.1704 0.965774V4.82887C9.59468 4.05625 8.44336 3.28365 7.1001 3.28365C5.18116 3.28365 3.83788 4.82888 3.83788 6.95358C3.83788 8.88513 4.98927 10.4303 7.1001 10.4303C8.44336 10.4303 9.59468 9.65776 10.1704 9.07829" transform="translate(23.4727 8.5769)" fill="white"/>
<path d="M4.02979 0C4.79736 0 5.56493 0.386309 5.75682 0.965774C6.3325 0.386309 6.71629 0 7.67576 0C9.21092 0 9.78661 1.15894 9.78661 2.12471V6.18097H7.67576V2.70421C7.67576 2.51106 7.67577 1.73844 6.9082 1.73844C6.52441 1.73844 5.94873 2.1247 5.94873 2.89732V6.18097H3.83788V2.70421C3.83788 2.51106 3.83789 1.73844 3.07032 1.73844C2.68653 1.73844 2.11085 2.1247 2.11085 2.89732V6.18097H0V0.193166H2.11085V0.772666C2.68653 0.386357 3.26221 0 4.02979 0Z" transform="translate(4.4707 27.699)" fill="white"/>
<path d="M0 3.28365C0 1.54526 1.15141 0 3.64603 0C6.14066 0 7.29195 1.54526 7.29195 3.28365C7.29195 5.02205 6.14066 6.56731 3.64603 6.56731C1.15141 6.56731 0 5.02205 0 3.28365ZM4.9892 3.28365C4.9892 2.31788 4.6055 1.54527 3.64603 1.54527C2.68656 1.54527 2.30275 2.12473 2.30275 3.28365C2.30275 4.24943 2.68656 5.02203 3.64603 5.02203C4.6055 5.02203 4.9892 4.24943 4.9892 3.28365Z" transform="translate(15.2207 27.699)" fill="white"/>
<path d="M0.767623 3.28359H0V1.54521H0.767623V0H2.87841V1.54521H4.22169V3.28359H2.87841V7.72619H0.767623" transform="translate(22.8965 26.347)" fill="white"/>
<path d="M0 3.28365C0 1.54526 1.15129 0 3.64592 0C6.14054 0 7.29195 1.54526 7.29195 3.28365C7.29195 5.02205 6.14054 6.56731 3.64592 6.56731C1.15129 6.56731 0 5.02205 0 3.28365ZM4.9892 3.28365C4.9892 2.31788 4.60539 1.54527 3.64592 1.54527C2.68645 1.54527 2.30264 2.12473 2.30264 3.28365C2.30264 4.24943 2.68645 5.02203 3.64592 5.02203C4.60539 5.02203 4.9892 4.24943 4.9892 3.28365Z" transform="translate(27.502 27.699)" fill="white"/>
<path d="M0 0.193166H2.11079V0.965774L2.30275 0.772666C2.87843 0.193202 3.45409 0 3.83788 0C4.02978 0 4.41354 0 4.41354 0V1.93155C4.22165 1.93155 4.02978 1.73844 3.83788 1.73844C2.30273 1.73844 2.30275 3.28367 2.30275 3.47682V5.98781H0.191847" transform="translate(35.7539 27.699)" fill="white"/>
</svg>
