<svg width="44" height="45" viewBox="0 0 44 45" fill="none" xmlns="http://www.w3.org/2000/svg">
<path d="M2.87841 43.4598C1.34326 43.4598 0 42.1077 0 40.5625V2.89732C0 1.35208 1.34326 0 2.87841 0H40.6815C42.2167 0 43.5599 1.35208 43.5599 2.89732V40.5625C43.5599 42.1077 42.2167 43.4598 40.6815 43.4598" transform="translate(0.0410156 1.04358)" fill="#B3B1B2"/>
<path d="M0 35.1542H4.98925L2.49465 43.8461L12.2812 31.6774H6.52438L9.9785 26.6554H3.45412L0 35.1542ZM2.11084 11.5893H7.1001L4.60544 20.2812L14.392 8.11252H8.63522L14.0083 0H6.90819L2.11084 11.5893Z" transform="translate(15.2012 0.657349)" fill="white"/>
<path d="M2.4946 1.35211L1.91894 2.89732H2.87841L2.4946 1.35211ZM1.72703 3.86309L1.34328 4.63576H0L1.91894 0H3.26222L4.98925 4.63576H3.64597L3.26222 3.86309H1.72703Z" transform="translate(12.5117 21.9043)" fill="white"/>
<path d="M4.22169 0V2.70415C4.22169 3.28362 4.22171 3.86307 3.64603 4.44253C3.26224 4.82884 2.68653 5.02197 2.11084 5.02197C1.53516 5.02197 0.959504 4.82884 0.575717 4.44253C3.51139e-05 4.05622 0 3.47677 0 2.70415V0H1.15137V2.51099C1.15137 3.09045 1.15136 3.86309 1.91894 3.86309C2.68651 3.86309 2.68656 3.28361 2.68656 2.51099V0" transform="translate(17.8887 21.7113)" fill="white"/>
<path d="M2.30269 4.82887H0.959469V1.15888H0V0H3.26216V1.15888H2.30269" transform="translate(22.4941 21.7113)" fill="white"/>
<path d="M1.53519 2.31782C1.53519 3.09044 2.11083 3.66993 2.87841 3.66993C3.64598 3.66993 4.22169 3.09044 4.22169 2.31782C4.22169 1.73836 3.64598 1.15888 2.87841 1.15888C2.11083 1.15888 1.53519 1.73836 1.53519 2.31782ZM5.37306 2.31782C5.37306 3.86306 4.22165 4.82887 2.6865 4.82887C1.15135 4.82887 0 3.6699 0 2.31782C0 0.965738 1.34325 0 2.6865 0C4.22165 0 5.37306 0.965738 5.37306 2.31782Z" transform="translate(25.7559 21.7113)" fill="white"/>
</svg>
