<svg width="45" height="45" viewBox="0 0 45 45" fill="none" xmlns="http://www.w3.org/2000/svg">
<path d="M2.87841 43.8461C1.34326 43.8461 0 42.4941 0 40.9488V2.89732C0 1.35208 1.34326 0 2.87841 0H40.6815C42.2167 0 43.5599 1.35208 43.5599 2.89732V40.9488C43.5599 42.4941 42.2167 43.8461 40.6815 43.8461" transform="translate(0.537109 0.657349)" fill="#B3B1B2"/>
<path d="M9.40279 16.9977C13.4326 16.9977 16.6947 13.714 16.6947 9.65774C16.6947 5.60149 13.4326 2.31788 9.40279 2.31788C5.37302 2.31788 2.11079 5.60149 2.11079 9.65774C2.11079 13.714 5.37302 16.9977 9.40279 16.9977ZM28.5922 0H0V19.1223H28.5922V0Z" transform="translate(8.59961 22.0975)" stroke="white" stroke-width="1.60508"/>
<path d="M24.5624 0L11.1299 16.0319L0 2.70421" transform="translate(7.83203 3.55469)" stroke="white" stroke-width="2.24871"/>
<path d="M7.48385 3.66993L0 6.76041V0" transform="translate(4.76172 2.39575)" fill="white"/>
<path d="M24.5624 0L11.3217 16.0319L0 2.70421" transform="translate(17.041 3.55469)" stroke="white" stroke-width="2.09773"/>
<path d="M7.67575 3.66993L0.191906 6.76041L0 0" transform="translate(13.9707 2.39575)" fill="white"/>
</svg>
