<svg width="44" height="45" viewBox="0 0 44 45" fill="none" xmlns="http://www.w3.org/2000/svg">
<path d="M2.87841 43.8461C1.34326 43.8461 0 42.4941 0 40.9488V2.89732C0 1.35208 1.34326 0 2.87841 0H40.6815C42.2167 0 43.5599 1.35208 43.5599 2.89732V40.9488C43.5599 42.4941 42.2167 43.8461 40.6815 43.8461" transform="translate(0.0390625 0.657349)" fill="#B3B1B2"/>
<path d="M33.0058 7.14669H1.91894L0 0H1.15138L3.83788 5.40831H31.2787L33.5815 0H34.7328L33.0058 7.14669Z" transform="translate(4.45312 35.0388)" stroke="white" stroke-width="1.06476" stroke-linecap="round" stroke-linejoin="round"/>
<path d="M0 22.7922V0" transform="translate(12.1289 6.06555)" stroke="white" stroke-width="1.06476"/>
<path d="M0 22.7922V0" transform="translate(17.1152 6.06555)" stroke="white" stroke-width="1.06476"/>
<path d="M0 22.7922V0" transform="translate(22.1074 6.06555)" stroke="white" stroke-width="1.06476"/>
<path d="M0 22.7922V0" transform="translate(27.2891 6.06555)" stroke="white" stroke-width="1.06476"/>
<path d="M0 22.7922V0" transform="translate(32.2754 6.06555)" stroke="white" stroke-width="1.06476"/>
<path d="M0 0H20.1489" transform="translate(12.1289 28.8579)" stroke="white" stroke-width="1.06476" stroke-linecap="square"/>
<path d="M0 0H20.1489" transform="translate(12.1289 23.0632)" stroke="white" stroke-width="1.06476"/>
<path d="M0 0H20.1489" transform="translate(12.1289 17.4619)" stroke="white" stroke-width="1.06476"/>
<path d="M0 0H20.1489" transform="translate(12.1289 11.667)" stroke="white" stroke-width="1.06476"/>
<path d="M0 0H20.1489" transform="translate(12.1289 6.06555)" stroke="white" stroke-width="1.06476" stroke-linecap="square"/>
<path d="M1.36811 4.24937C0.600532 4.24937 0.21672 4.0562 0.0248263 3.09043C-0.167068 2.12465 0.792438 1.54524 1.56001 0C1.56001 0 2.32758 1.35208 2.32758 2.89732C2.51947 3.66994 2.32758 4.24937 1.36811 4.24937Z" transform="translate(12.6797 30.4033)" stroke="white" stroke-width="0.53238" stroke-linecap="square"/>
<path d="M1.36811 4.24943C0.600532 4.24943 0.21672 4.05626 0.0248263 3.09049C-0.167068 2.12471 0.792438 1.54524 1.56001 0C1.56001 0 2.32758 1.35208 2.32758 2.89732C2.51947 3.66994 2.13568 4.24943 1.36811 4.24943Z" transform="translate(16.709 33.6869)" stroke="white" stroke-width="0.53238" stroke-linecap="square"/>
<path d="M1.36811 4.24937C0.600532 4.24937 0.21672 4.05626 0.0248263 3.09049C-0.167068 2.12471 0.792438 1.54524 1.56001 0C1.56001 0 2.32758 1.35208 2.32758 2.89732C2.51947 3.66994 2.32758 4.24937 1.36811 4.24937Z" transform="translate(20.5469 30.2101)" stroke="white" stroke-width="0.53238" stroke-linecap="square"/>
<path d="M1.36811 4.24943C0.600532 4.24943 0.21672 4.05626 0.0248263 3.09049C-0.167068 2.12471 0.792438 1.54524 1.56001 0C1.56001 0 2.32758 1.35208 2.32758 2.89732C2.51947 3.66994 2.32758 4.24943 1.36811 4.24943Z" transform="translate(24.3848 33.8801)" stroke="white" stroke-width="0.53238" stroke-linecap="square"/>
<path d="M1.36805 4.24943C0.600475 4.24943 0.216722 4.05626 0.0248275 3.09049C-0.167067 2.12471 0.79238 1.54524 1.55996 0C1.55996 0 2.32752 1.35208 2.32752 2.89732C2.51942 3.66994 2.32752 4.24943 1.36805 4.24943Z" transform="translate(28.7988 30.0168)" stroke="white" stroke-width="0.53238" stroke-linecap="square"/>
</svg>
