<svg width="45" height="45" viewBox="0 0 45 45" fill="none" xmlns="http://www.w3.org/2000/svg">
<path d="M2.87841 43.8461C1.34326 43.8461 0 42.4941 0 40.9488V2.89732C0 1.35208 1.34326 0 2.87841 0H40.6815C42.2167 0 43.5599 1.35208 43.5599 2.89732V40.9488C43.5599 42.4941 42.2167 43.8461 40.6815 43.8461" transform="translate(0.498047 0.657349)" fill="#B3B1B2"/>
<path fill-rule="evenodd" clip-rule="evenodd" d="M13.6245 9.46463L14.3921 10.2372L15.7353 10.0441L16.5029 7.33991L18.6137 6.76042L18.9975 5.2152L16.8867 5.60153L17.2705 4.24943L19.3813 3.66999L19.7651 2.12471L17.6543 2.51105L18.038 0.965774L17.2705 0L16.1191 0.386333L15.7353 1.73844L14.2002 0L13.6245 1.73844L15.1596 3.47682L14.7759 4.82887L13.2407 3.09049L12.8569 4.82887L14.3921 6.56731L13.6245 9.46463ZM25.9057 9.27146L24.5625 9.65774L25.33 7.53308L23.603 7.91936L22.8354 10.0441L21.4922 10.4304L22.0678 8.30569L20.3408 8.69196L19.7651 10.8167L17.2705 11.3962L17.4624 11.0098L17.8462 10.8167C19.957 9.07828 16.311 7.33989 16.1191 9.8509L14.3921 10.2372L13.0488 8.88513C14.3921 6.56727 10.1704 6.18095 11.1299 8.69196L11.3217 8.88513L11.1299 9.27146L9.5947 7.72619L10.1704 5.60153L9.01905 4.24943L8.44333 6.37414L7.48386 5.40837L8.05957 3.28365L6.9082 1.93155L6.33254 4.05626L5.37307 2.89732L4.02979 3.09049L3.83788 4.24943L4.98926 5.40837L2.87841 5.98781L4.02979 7.14675L6.14063 6.56731L7.1001 7.53308L4.98926 8.11252L6.14063 9.27146L8.25148 8.69196L9.97852 10.4304L9.5947 10.6235C7.86766 8.49881 5.94872 12.1688 8.63523 12.3619H8.82714L9.4028 12.9414L6.71629 13.5208L5.18116 11.9756L3.45413 12.5551L4.98926 14.1003L3.64598 14.4866L2.11085 12.9414L0.383812 13.3277L1.91894 14.8729L0.575717 15.2593L0 16.4182L0.95947 17.1908L2.49466 16.8045L1.91894 18.9292L3.45413 18.5429L4.02979 16.4182L5.37307 16.0319L4.79735 18.1566L6.33254 17.7703L6.9082 15.6455L9.01905 15.0661L8.82714 15.6455H8.44333C6.33249 17.5771 10.1704 19.1223 10.1704 16.6113V16.4182L11.1299 16.225L10.3623 19.1224L8.25148 19.7018L7.67576 21.4402L9.78661 20.8607L9.4028 22.2128L7.29201 22.7923L6.9082 24.5307L9.01905 23.9512L8.63523 25.4964L9.4028 26.4622L10.5542 26.0759L10.938 24.5307L12.4731 26.0759L12.8569 24.5307L11.3217 22.9855L11.7056 21.6334L13.2407 23.1786L13.6245 21.6334L12.0894 20.0881L12.8569 17.5771L13.2407 17.9634C11.8974 20.6676 16.6948 20.2813 14.9678 17.7703L14.584 17.5771L14.7759 16.8045L16.8867 18.9292L16.311 21.0539L17.4624 22.2128L18.2299 20.0881L19.1894 21.0539L18.6137 23.1786L19.7651 24.3375L20.3408 22.2128L21.4922 23.3717L22.6435 23.1786L22.8354 21.8265L21.8759 20.6676L23.9868 20.2812L22.8354 18.9292L20.7246 19.5086L19.7651 18.5429L21.8759 17.9634L20.7246 16.6113L18.6137 17.1908L16.8867 15.2593H17.2705L17.4624 15.4524C19.7651 16.8045 20.1489 12.5551 17.6543 13.5208L17.4624 13.714L17.0786 13.3277L19.957 12.5551L21.4922 14.2935L23.0273 13.9072L21.4922 12.1688L22.8354 11.7824L24.3706 13.5208L25.9057 13.1346L24.3706 11.3962L25.9057 11.0098L26.4814 9.8509L25.9057 9.27146Z" transform="translate(8.75391 9.34912)" fill="white"/>
<path d="M3.45407 0L2.30275 1.35211L0.767565 0.772666L1.34328 2.31788L0 3.47682L1.72703 3.66999L1.91894 5.40837L3.07032 4.05626L4.60545 4.63576L4.02979 3.09049L5.37301 2.12471L3.64598 1.73844" transform="translate(19.4961 19.9729)" fill="#B3B1B2"/>
<path d="M20.3408 0C9.01903 0 0 9.07828 0 20.4744C0 31.8705 9.01903 40.9488 20.3408 40.9488C31.6625 40.9488 40.6816 31.8705 40.6816 20.4744C40.6816 9.27144 31.6625 0 20.3408 0ZM20.3408 3.47676C24.3706 3.47676 28.2085 4.82884 31.0869 7.33986L7.1001 31.4842C4.79738 28.5869 3.26222 24.7238 3.26222 20.6675C3.45412 11.2029 10.938 3.47676 20.3408 3.47676ZM20.3408 37.6652C16.311 37.6652 12.4731 36.3131 9.5947 33.8021L33.5815 9.65774C35.8842 12.5551 37.4193 16.4182 37.4193 20.4744C37.4193 29.939 29.7436 37.6652 20.3408 37.6652Z" transform="translate(1.8418 2.20276)" fill="#B3B1B2"/>
<path d="M10.7461 28.0074C6.7163 28.0074 2.87841 26.6553 0 24.1443L23.9868 0C26.2895 2.89732 27.8246 6.76043 27.8246 10.8167C27.8246 20.2813 20.1489 28.0074 10.7461 28.0074Z" transform="translate(11.4336 11.8602)" stroke="white" stroke-width="0.607866"/>
<path d="M17.0786 0C21.1083 0 24.9462 1.35208 27.8246 3.86309L3.83788 28.0074C1.53515 25.1101 0 21.247 0 17.1908C0.191894 7.72618 7.67575 0 17.0786 0Z" transform="translate(5.10352 5.67932)" stroke="white" stroke-width="0.607866"/>
<path d="M20.3408 0C9.01903 0 0 9.07828 0 20.4744C0 31.8705 9.01903 40.9488 20.3408 40.9488C31.6625 40.9488 40.6816 31.8705 40.6816 20.4744C40.6816 9.27144 31.6625 0 20.3408 0Z" transform="translate(1.8418 2.20276)" stroke="white" stroke-width="0.607866"/>
</svg>
