<svg width="45" height="44" viewBox="0 0 45 44" fill="none" xmlns="http://www.w3.org/2000/svg">
<path d="M2.87841 43.8461C1.34326 43.8461 0 42.4941 0 40.9488V2.89732C0 1.35208 1.34326 0 2.87841 0H40.6815C42.2167 0 43.5599 1.35208 43.5599 2.89732V40.9488C43.5599 42.4941 42.2167 43.8461 40.6815 43.8461" transform="translate(0.597656)" fill="#B3B1B2"/>
<path d="M17.4624 0H0V33.609H17.4624V0Z" transform="translate(6.93359 4.82874)" stroke="white" stroke-width="1.4124"/>
<path d="M5.37307 0H0V25.4964H5.37307V0Z" transform="translate(21.1309 9.27148)" fill="#B3B1B2"/>
<path d="M28.976 2.12471C28.976 2.12471 24.9462 3.86309 21.684 3.86309C18.4218 3.86309 15.7353 2.12471 15.7353 2.12471C15.7353 2.12471 11.8974 0 7.67576 0C3.45409 0 0 2.12471 0 2.12471" transform="translate(9.8125 9.85095)" stroke="white" stroke-width="1.4124" stroke-linecap="round"/>
<path d="M28.976 2.12471C28.976 2.12471 24.9462 3.86309 21.684 3.86309C18.4218 3.86309 15.7353 2.12471 15.7353 2.12471C15.7353 2.12471 11.8974 0 7.67576 0C3.45409 0 0 2.12471 0 2.12471" transform="translate(9.8125 15.066)" stroke="white" stroke-width="1.4124" stroke-linecap="round"/>
<path d="M28.976 2.12471C28.976 2.12471 24.9462 3.86309 21.684 3.86309C18.4218 3.86309 15.7353 2.12471 15.7353 2.12471C15.7353 2.12471 11.8974 0 7.67576 0C3.45409 0 0 2.12471 0 2.12471" transform="translate(9.8125 20.2815)" stroke="white" stroke-width="1.4124" stroke-linecap="round"/>
<path d="M28.976 2.12471C28.976 2.12471 24.9462 3.86309 21.684 3.86309C18.4218 3.86309 15.7353 2.12471 15.7353 2.12471C15.7353 2.12471 11.8974 0 7.67576 0C3.45409 0 0 2.12471 0 2.12471" transform="translate(9.8125 25.3032)" stroke="white" stroke-width="1.4124" stroke-linecap="round"/>
<path d="M28.976 2.12471C28.976 2.12471 24.9462 3.86309 21.684 3.86309C18.4218 3.86309 15.7353 2.12471 15.7353 2.12471C15.7353 2.12471 11.8974 0 7.67576 0C3.45409 0 0 2.12471 0 2.12471" transform="translate(9.8125 30.5184)" stroke="white" stroke-width="1.4124" stroke-linecap="round"/>
</svg>
