<svg width="44" height="45" viewBox="0 0 44 45" fill="none" xmlns="http://www.w3.org/2000/svg">
<path d="M2.87841 43.8461C1.34326 43.8461 0 42.4941 0 40.9488V2.89732C0 1.35208 1.34326 0 2.87841 0H40.6815C42.2167 0 43.5599 1.35208 43.5599 2.89732V40.9488C43.5599 42.4941 42.2167 43.8461 40.6815 43.8461" transform="translate(0 0.482422)" fill="#B2B1B1"/>
<path d="M18.9975 38.2446C29.3598 38.2446 37.995 29.7458 37.995 19.1223C37.995 8.69195 29.5517 0 18.9975 0C8.63522 0 0 8.4988 0 19.1223C0 29.5527 8.44333 38.2446 18.9975 38.2446Z" transform="translate(2.875 3.37976)" fill="white"/>
<path d="M0 0L8.82714 6.37408L24.5625 2.12471" transform="translate(13.0508 16.1281)" stroke="#B2B1B1" stroke-width="2.26063"/>
<path d="M0 0H4.79735" transform="translate(2.875 22.5021)" stroke="#B2B1B1" stroke-width="1.50973"/>
<path d="M4.79735 0H0" transform="translate(35.8867 22.5021)" stroke="#B2B1B1" stroke-width="1.50973"/>
<path d="M0 0V4.82887" transform="translate(21.877 3.37976)" stroke="#B2B1B1" stroke-width="1.50973"/>
<path d="M0 0V4.82887" transform="translate(21.877 37.1818)" stroke="#B2B1B1" stroke-width="1.50973"/>
<path d="M0.767565 8.4988C1.15135 7.72618 2.11082 7.14669 3.64598 6.18092C4.98923 5.4083 5.75679 5.02201 6.14058 4.6357C6.71626 4.24939 7.10005 3.66989 7.10005 3.09043C7.10005 2.70412 6.90818 2.31786 6.52439 1.93155C6.1406 1.54524 5.75678 1.54521 4.9892 1.54521C4.22162 1.54521 3.45406 1.73836 3.26216 2.31782C3.07027 2.51098 3.07031 3.09046 2.87841 3.66993H0.191847C0.191847 2.70415 0.383776 2.12468 0.767565 1.54521C1.53514 0.579441 2.87841 0 4.79735 0C6.3325 0 7.48386 0.386309 8.44333 0.965774C9.4028 1.54524 9.78655 2.31783 9.78655 3.47676C9.78655 4.24938 9.40276 5.02201 8.82708 5.60147C8.44329 5.98778 7.67576 6.37406 6.71629 6.95352L5.56492 7.53302C4.79734 7.91933 4.41352 8.11247 4.02973 8.30563C3.83783 8.49878 3.45407 8.69192 3.45407 8.88507H9.78655V10.6235H0C0.191894 9.65774 0.383776 9.07826 0.767565 8.4988Z" transform="translate(10.7461 25.0129)" fill="#B2B1B1"/>
<path d="M1.91894 6.56725L5.56492 2.12465V6.56725H1.91894ZM9.97846 6.56725H8.25142V0H5.1811L0 6.37408V8.11246H5.75682V10.4303H8.44333V8.30563H9.97846V6.56725Z" transform="translate(22.2578 25.0129)" fill="#B2B1B1"/>
</svg>
