<svg width="44" height="45" viewBox="0 0 44 45" fill="none" xmlns="http://www.w3.org/2000/svg">
<path d="M2.87841 43.8461C1.34326 43.8461 0 42.4941 0 40.9488V2.89732C0 1.35208 1.34326 0 2.87841 0H40.6815C42.2167 0 43.5599 1.35208 43.5599 2.89732V40.9488C43.5599 42.4941 42.2167 43.8461 40.6815 43.8461" transform="translate(0.0605469 0.482422)" fill="#B2B1B1"/>
<path d="M16.1191 5.60147C16.1191 6.18094 15.7353 6.56725 15.1597 6.56725H0.959469C0.383788 6.56725 0 6.18094 0 5.60147V0.965774C0 0.386309 0.383788 0 0.959469 0H15.1597C15.7353 0 16.1191 0.386309 16.1191 0.965774" transform="translate(4.47852 4.5387)" fill="white"/>
<path d="M16.1191 5.60147C16.1191 6.18094 15.7353 6.56725 15.1597 6.56725H0.959469C0.383788 6.56725 0 6.18094 0 5.60147V0.965774C0 0.386309 0.383788 0 0.959469 0H15.1597C15.7353 0 16.1191 0.386309 16.1191 0.965774V5.60147Z" transform="translate(4.47852 4.5387)" stroke="white" stroke-width="0.52642"/>
<path d="M16.1191 5.60147C16.1191 6.18094 15.7353 6.56725 15.1597 6.56725H0.959469C0.383788 6.56725 0 6.18094 0 5.60147V0.965774C0 0.386309 0.383788 0 0.959469 0H15.1597C15.7353 0 16.1191 0.386309 16.1191 0.965774" transform="translate(4.47852 4.5387)" fill="white"/>
<path d="M16.1191 5.60147C16.1191 6.18094 15.7353 6.56725 15.1597 6.56725H0.959469C0.383788 6.56725 0 6.18094 0 5.60147V0.965774C0 0.386309 0.383788 0 0.959469 0H15.1597C15.7353 0 16.1191 0.386309 16.1191 0.965774V5.60147Z" transform="translate(4.47852 4.5387)" stroke="white" stroke-width="0.941597"/>
<path d="M14.0083 1.35205C14.0083 1.93151 13.6245 2.31782 13.0488 2.31782H0.959469C0.383788 2.31782 0 1.93151 0 1.35205V0.965774C0 0.386309 0.383788 0 0.959469 0H13.0488C13.6245 0 14.0083 0.386309 14.0083 0.965774" transform="translate(5.43555 5.89062)" fill="#B2B1B1"/>
<path d="M1.23081 1.35211C1.03892 1.54526 0.847047 1.54526 0.655153 1.35211C0.463259 1.15895 0.271389 0.772642 0.0794947 0.386333C-0.112399 0.193178 0.0794479 0 0.271342 0H1.23081C1.4227 0 1.61461 0.193178 1.42272 0.386333C1.61461 0.772642 1.23081 1.15895 1.23081 1.35211Z" transform="translate(17.6328 9.36768)" fill="#B2B1B1"/>
<path d="M0 0H10.3623" transform="translate(5.62305 9.75366)" stroke="#B2B1B1" stroke-width="1.05085" stroke-linecap="round"/>
<path d="M3.64597 5.98781C3.64597 6.56727 3.26218 6.95358 2.6865 6.95358H0.959469C0.383788 6.95358 0 6.56727 0 5.98781V0.965774C0 0.386309 0.383788 0 0.959469 0H2.6865C3.26218 0 3.64597 0.386309 3.64597 0.965774V5.98781Z" transform="translate(35.748 4.5387)" stroke="white" stroke-width="0.941597"/>
<path d="M2.49465 8.88513C2.49465 9.46459 2.68651 10.6235 3.83788 10.6235C4.98924 10.6235 5.18116 9.46459 5.18116 8.88513C5.18116 7.53305 4.22166 7.53302 3.83788 7.53302H3.45412V5.40837H3.83788C4.02977 5.40837 4.98925 5.40834 4.98925 4.05626C4.98925 2.89733 4.41357 2.70415 4.02978 2.70415C3.4541 2.70415 2.87841 3.28364 2.87841 4.05626H0.383811C0.767599 0.193166 3.26221 0 4.02978 0C5.75683 0 7.48391 0.965809 7.48391 3.47682C7.48391 4.8289 6.90819 5.79466 5.94872 6.18097C6.7163 6.56728 7.67575 7.33987 7.67575 9.46457C7.67575 11.9756 6.1406 13.5208 3.83788 13.5208C0.383788 13.5208 0.191894 10.0441 0 9.07829" transform="translate(10.2285 26.7513)" fill="white"/>
<path d="M4.98925 0H0V2.89732H4.98925V0Z" transform="translate(19.0605 31.7736)" fill="white"/>
<path d="M0 0H3.64603C7.86769 0 8.82713 3.47676 8.82713 6.37408C8.82713 9.85087 7.29201 12.7482 3.64603 12.7482H0V0ZM3.07031 9.65774C5.94872 9.65774 5.94872 6.95355 5.94872 6.37408C5.94872 5.60146 5.94872 3.09049 3.07031 3.09049H2.68656V9.8509H3.07031V9.65774Z" transform="translate(25.584 26.9446)" fill="white"/>
<path d="M0.191906 7.33986L0 0" transform="translate(38.25 14.7759)" stroke="white" stroke-width="0.941597" stroke-linecap="round"/>
<path d="M0 6.95352L2.11079 0" transform="translate(34.9844 14.7759)" stroke="white" stroke-width="0.941597" stroke-linecap="round"/>
<path d="M0 6.18097L4.02978 0" transform="translate(31.9141 14.0034)" stroke="white" stroke-width="0.941597" stroke-linecap="round"/>
<path d="M0 4.44259L6.14063 0" transform="translate(29.4219 13.2307)" stroke="white" stroke-width="0.941597" stroke-linecap="round"/>
<path d="M0 2.31788L6.71628 0" transform="translate(27.8867 12.2648)" stroke="white" stroke-width="0.941597" stroke-linecap="round"/>
<path d="M0 0H7.48385" transform="translate(26.9238 11.1061)" stroke="white" stroke-width="0.941597" stroke-linecap="round"/>
<path d="M0 0.772607L1.34328 0" transform="translate(34.4082 10.7196)" stroke="white" stroke-width="0.941597" stroke-linecap="round"/>
<path d="M0 0V3.28365" transform="translate(12.9141 14.3894)" stroke="white" stroke-width="0.941597" stroke-linecap="round"/>
<path d="M0.767622 0L0 3.09049" transform="translate(10.2285 14.1964)" stroke="white" stroke-width="0.941597" stroke-linecap="round"/>
<path d="M1.53519 0L0 2.31782" transform="translate(7.54492 13.8099)" stroke="white" stroke-width="0.941597" stroke-linecap="round"/>
<path d="M1.91894 0L0 2.12471" transform="translate(5.43555 12.458)" stroke="white" stroke-width="0.941597" stroke-linecap="round"/>
<path d="M0 0L0.767564 3.09049" transform="translate(14.834 14.3894)" stroke="white" stroke-width="0.941597" stroke-linecap="round"/>
<path d="M0 0L1.53513 2.51099" transform="translate(16.7539 13.6167)" stroke="white" stroke-width="0.941597" stroke-linecap="round"/>
<path d="M0 0L2.11084 2.12471" transform="translate(18.2891 12.2648)" stroke="white" stroke-width="0.941597" stroke-linecap="round"/>
<path d="M0 0C0 0 2.8784 3.86306 6.52438 4.24937C10.1704 4.63568 13.4326 2.51099 13.4326 2.51099" transform="translate(5.81836 19.6046)" stroke="white" stroke-width="0.941597" stroke-linecap="round"/>
<path d="M0 0.965774C0 0.965774 1.91893 3.47677 5.56491 2.70415C9.21089 2.12469 11.5136 0 11.5136 0" transform="translate(8.69336 19.2185)" stroke="white" stroke-width="0.941597" stroke-linecap="round"/>
<path d="M0 0L2.49465 1.15894L0.191906 2.89732" transform="translate(4.66602 18.0594)" fill="white"/>
<path d="M0 0.193167L2.68656 0L1.53519 2.51099" transform="translate(18.8672 18.2527)" fill="white"/>
<path d="M0.00299935 0C0.00299935 0 -0.188918 4.82884 2.4976 7.33986C5.18411 9.85087 9.02197 10.2372 9.02197 10.2372" transform="translate(24.2324 15.5486)" stroke="white" stroke-width="0.941597" stroke-linecap="round"/>
<path d="M0 0C0 0 -3.52283e-05 3.09048 3.26216 4.82887C6.52435 6.56726 9.59469 6.37408 9.59469 6.37408" transform="translate(26.1562 17.6732)" stroke="white" stroke-width="0.941597" stroke-linecap="round"/>
<path d="M1.53519 0L2.87841 2.51099L0 2.31782" transform="translate(22.707 13.6167)" fill="white"/>
<path d="M0 0L2.30275 1.35211L0 2.70421" transform="translate(35.1797 22.6953)" fill="white"/>
</svg>
