<svg width="45" height="45" viewBox="0 0 45 45" fill="none" xmlns="http://www.w3.org/2000/svg">
<path d="M2.87841 43.6521C1.34326 43.6521 0 42.2941 0 40.742V2.91014C0 1.35807 1.34326 0 2.87841 0H40.6815C42.2167 0 43.5599 1.35807 43.5599 2.91014V40.936C43.5599 42.4881 42.2167 43.8461 40.6815 43.8461" transform="translate(0.599609 0.482422)" fill="#B3B1B2"/>
<path d="M14.3921 2.71612C14.3921 1.16404 13.2407 0 11.8975 0H2.4946C1.15134 0 0 1.16404 0 2.71612V25.9973C0 27.5493 1.15134 28.7134 2.4946 28.7134H11.8975C13.2407 28.7134 14.3921 27.5493 14.3921 25.9973V2.71612Z" transform="translate(16.7188 13.2872)" stroke="white" stroke-width="1.15018"/>
<path d="M1.15132 21.147C1.15132 21.147 2.4946 20.177 2.4946 18.6249V2.71612C2.4946 2.71612 2.30273 0 0 0" transform="translate(16.7188 20.6595)" stroke="white" stroke-width="0.921732"/>
<path d="M0 5.4323H2.11079V0.776026L1.15132 0" transform="translate(16.7188 13.8691)" stroke="white" stroke-width="0.921732" stroke-linejoin="round"/>
<path d="M0 28.7134V0" transform="translate(26.3145 13.2872)" stroke="white" stroke-width="0.460866"/>
<path d="M2.4946 0H0V3.49221H2.4946V0Z" transform="translate(27.082 36.9564)" stroke="white" stroke-width="0.460866" stroke-linejoin="round"/>
<path d="M0 0V12.8046" transform="translate(26.123 0.482422)" stroke="white" stroke-width="0.691299" stroke-linejoin="round"/>
<path d="M10.1704 0H0" transform="translate(8.85156 42.5826)" stroke="white" stroke-width="0.460866" stroke-linejoin="round"/>
<path d="M0 2.71612L2.68645 0" transform="translate(26.123 0.482422)" stroke="white" stroke-width="0.460866" stroke-linejoin="round"/>
<path d="M0 2.71612L2.68645 0" transform="translate(26.123 2.81079)" stroke="white" stroke-width="0.460866" stroke-linejoin="round"/>
<path d="M0 2.91014L2.68645 0" transform="translate(26.123 4.9447)" stroke="white" stroke-width="0.460866" stroke-linejoin="round"/>
<path d="M0 2.91014L2.68645 0" transform="translate(26.123 7.27295)" stroke="white" stroke-width="0.460866" stroke-linejoin="round"/>
<path d="M0 2.91014L2.68645 0" transform="translate(26.123 9.60083)" stroke="white" stroke-width="0.460866" stroke-linejoin="round"/>
<path d="M0 2.91014L2.68656 0" transform="translate(28.4258 9.60083)" stroke="white" stroke-width="0.460866" stroke-linejoin="round"/>
<path d="M0 2.91014L2.68645 0" transform="translate(30.9199 9.60083)" stroke="white" stroke-width="0.460866" stroke-linejoin="round"/>
<path d="M0 2.71612L2.87841 0" transform="translate(31.3008 11.9291)" stroke="white" stroke-width="0.460866" stroke-linejoin="round"/>
<path d="M0 2.71612L2.87841 0" transform="translate(31.3008 14.2571)" stroke="white" stroke-width="0.460866" stroke-linejoin="round"/>
<path d="M0 2.71618L2.87841 0" transform="translate(31.3008 16.5852)" stroke="white" stroke-width="0.460866" stroke-linejoin="round"/>
<path d="M0 2.71612L2.87841 0" transform="translate(31.3008 18.9135)" stroke="white" stroke-width="0.460866" stroke-linejoin="round"/>
<path d="M0 2.91014L2.87841 0" transform="translate(31.3008 21.2415)" stroke="white" stroke-width="0.460866" stroke-linejoin="round"/>
<path d="M0 2.71612L2.87841 0" transform="translate(31.3008 23.7637)" stroke="white" stroke-width="0.460866" stroke-linejoin="round"/>
<path d="M0 2.71612L2.87841 0" transform="translate(31.3008 26.0919)" stroke="white" stroke-width="0.460866" stroke-linejoin="round"/>
<path d="M0 2.71612L2.87841 0" transform="translate(31.3008 28.4198)" stroke="white" stroke-width="0.460866" stroke-linejoin="round"/>
<path d="M0 2.71612L2.87841 0" transform="translate(31.3008 30.7478)" stroke="white" stroke-width="0.460866" stroke-linejoin="round"/>
<path d="M0 2.71618L2.87841 0" transform="translate(31.3008 33.076)" stroke="white" stroke-width="0.460866" stroke-linejoin="round"/>
<path d="M0 2.71612L2.87841 0" transform="translate(31.3008 35.4042)" stroke="white" stroke-width="0.460866" stroke-linejoin="round"/>
<path d="M0 2.91014L2.87841 0" transform="translate(31.3008 37.7324)" stroke="white" stroke-width="0.460866" stroke-linejoin="round"/>
<path d="M0 2.71618L2.87841 0" transform="translate(31.3008 39.8663)" stroke="white" stroke-width="0.460866" stroke-linejoin="round"/>
<path d="M0 0L1.53513 1.55205" transform="translate(9.04297 42.5826)" stroke="white" stroke-width="0.460866" stroke-linejoin="round"/>
<path d="M0 0L1.53519 1.55205" transform="translate(11.5352 42.5826)" stroke="white" stroke-width="0.460866" stroke-linejoin="round"/>
<path d="M0 0L1.53519 1.55205" transform="translate(14.0293 42.5826)" stroke="white" stroke-width="0.460866" stroke-linejoin="round"/>
<path d="M0 0L1.53513 1.55205" transform="translate(16.5312 42.5826)" stroke="white" stroke-width="0.460866" stroke-linejoin="round"/>
<path d="M0 0L1.53513 1.55205" transform="translate(19.0234 42.5826)" stroke="white" stroke-width="0.460866" stroke-linejoin="round"/>
<path d="M0 0L1.53513 1.55205" transform="translate(21.5176 42.5826)" stroke="white" stroke-width="0.460866" stroke-linejoin="round"/>
<path d="M0 0L1.53513 1.55205" transform="translate(24.0117 42.5826)" stroke="white" stroke-width="0.460866" stroke-linejoin="round"/>
<path d="M0 0L1.53525 1.55205" transform="translate(26.5059 42.5826)" stroke="white" stroke-width="0.460866" stroke-linejoin="round"/>
<path d="M0 0L1.53513 1.55205" transform="translate(29.002 42.5826)" stroke="white" stroke-width="0.460866" stroke-linejoin="round"/>
<path d="M0 0L1.53513 1.55205" transform="translate(31.4961 42.5826)" stroke="white" stroke-width="0.460866" stroke-linejoin="round"/>
<path d="M0 0H5.56486" transform="translate(26.123 12.5112)" stroke="white" stroke-width="0.691299" stroke-linecap="round" stroke-linejoin="round"/>
<path d="M0 4.07415V0" transform="translate(31.6875 12.5112)" stroke="white" stroke-width="0.691299" stroke-linecap="round" stroke-linejoin="round"/>
<path d="M0 0H4.98932" transform="translate(26.5059 42.5826)" stroke="white" stroke-width="0.460866" stroke-linecap="round" stroke-linejoin="round"/>
<path d="M0 0V3.29818" transform="translate(31.3008 39.2842)" stroke="white" stroke-width="0.691299" stroke-linecap="round" stroke-linejoin="round"/>
</svg>
