<svg width="44" height="45" viewBox="0 0 44 45" fill="none" xmlns="http://www.w3.org/2000/svg">
<path d="M2.87841 43.8461C1.34326 43.8461 0 42.4941 0 40.9488V2.89732C0 1.35208 1.34326 0 2.87841 0H40.6815C42.2167 0 43.5599 1.35208 43.5599 2.89732V40.9488C43.5599 42.4941 42.2167 43.8461 40.6815 43.8461" transform="translate(0.0820312 0.482422)" fill="#B3B1B2"/>
<path d="M1.91894 0H0V1.35211H1.91894V0Z" transform="translate(16.0078 5.31116)" fill="#C0BAB0"/>
<path d="M17.8461 20.2812V11.7825L20.9164 8.69196H19.9569L17.2704 11.203L14.9677 8.88513H14.0082L17.0785 11.9756V20.4744L17.8461 20.2812ZM14.392 0H0V2.51099H14.392V0ZM14.392 3.28365H0V8.11252H14.392V3.28365ZM34.5409 0H20.3407V2.51099H34.7327V0H34.5409ZM34.5409 3.28365H20.3407V8.11252H34.7327V3.28365H34.5409Z" transform="translate(4.49219 4.73193)" fill="white"/>
<path d="M1.91894 0H0V1.35211H1.91894V0Z" transform="translate(36.3477 5.31116)" fill="#B3B1B2"/>
<path d="M16.8867 0H0V15.2592H16.8867V0Z" transform="translate(13.5156 25.0129)" fill="white"/>
<path d="M2.4946 0H0V2.51099H2.4946V0Z" transform="translate(26.3691 26.9448)" fill="#B3B1B2"/>
<path d="M5.56485 11.203C8.63515 11.203 11.1298 8.69201 11.1298 5.60153C11.1298 2.51106 8.63515 0 5.56485 0C2.49455 0 0 2.51106 0 5.60153C0 8.69201 2.49455 11.203 5.56485 11.203Z" transform="translate(14.6602 27.524)" fill="#B3B1B2"/>
<path d="M4.80854 9.65774C7.49505 9.65774 9.60589 7.53303 9.60589 4.82887C9.60589 2.1247 7.49505 0 4.80854 0C2.12203 0 0.0111939 2.1247 0.0111939 4.82887C-0.1807 7.33988 2.12203 9.65774 4.80854 9.65774Z" transform="translate(15.4219 28.49)" fill="white"/>
<path d="M4.41353 8.88513C6.90815 8.88513 8.82719 6.9536 8.82719 4.44259C8.82719 1.93158 6.90815 0 4.41353 0C1.91891 0 0 1.93158 0 4.44259C0 6.9536 1.91891 8.88513 4.41353 8.88513Z" transform="translate(15.8145 28.683)" fill="#B3B1B2"/>
<path d="M3.83788 7.72619C5.94871 7.72619 7.67575 5.9878 7.67575 3.86309C7.67575 1.73839 5.94871 0 3.83788 0C1.72704 0 0 1.73839 0 3.86309C0 5.9878 1.72704 7.72619 3.83788 7.72619Z" transform="translate(16.3906 29.2627)" fill="white"/>
<path d="M3.2621 6.56725C4.98915 6.56725 6.52432 5.02205 6.52432 3.28365C6.52432 1.54526 4.98915 0 3.2621 0C1.53506 0 0 1.54526 0 3.28365C0 5.02205 1.34316 6.56725 3.2621 6.56725Z" transform="translate(16.9668 29.8422)" fill="#B3B1B2"/>
<path d="M1.94351 3.86309C3.09487 3.86309 3.86245 2.89732 3.86245 1.93155C3.86245 0.772619 2.90298 0 1.94351 0C0.792148 0 0.0245731 0.965774 0.0245731 1.93155C-0.167321 3.09048 0.792148 3.86309 1.94351 3.86309Z" transform="translate(18.2871 31.1941)" fill="white"/>
<path d="M1.94351 3.86309C3.09487 3.86309 3.86245 2.89732 3.86245 1.93155C3.86245 0.772619 2.90298 0 1.94351 0C0.792148 0 0.0245731 0.965774 0.0245731 1.93155C-0.167321 3.09048 0.792148 3.86309 1.94351 3.86309Z" transform="translate(18.2871 31.1941)" stroke="#B3B1B2" stroke-width="0.572109"/>
</svg>
