<svg width="45" height="45" viewBox="0 0 45 45" fill="none" xmlns="http://www.w3.org/2000/svg">
<path d="M2.6865 41.5283C1.15135 41.5283 0 40.3693 0 38.8241V2.70415C0 1.15892 1.15135 0 2.6865 0H38.5707C40.1058 0 41.2572 1.15892 41.2572 2.70415V38.8241C41.2572 40.3693 40.1058 41.5283 38.5707 41.5283" transform="translate(1.69336 1.64136)" fill="white"/>
<path d="M1.72703 0H0V1.35205H1.72703V0Z" transform="translate(11.4766 3.76599)" fill="#B3B1B2"/>
<path d="M40.2977 15.8387H29.3597V20.2812H40.2977V15.8387ZM40.2977 12.9414H29.3597V15.2592H40.2977V12.9414ZM37.8031 13.5208H39.5301V14.8729H37.8031V13.5208ZM13.4326 15.8387H2.4946V20.2812H13.4326V15.8387ZM13.4326 12.9414H2.4946V15.2592H13.4326V12.9414ZM10.938 13.5208H12.665V14.8729H10.938V13.5208ZM40.2977 5.79464H29.3597V10.2372H40.2977V5.79464ZM40.2977 2.89732H29.3597V5.2152H40.2977V2.89732ZM37.8031 3.28365H39.5301V4.6357H37.8031V3.28365ZM26.8651 5.79464H15.9272V10.2372H26.8651V5.79464ZM26.8651 2.89732H15.9272V5.2152H26.8651V2.89732ZM24.3705 3.28365H26.0976V4.6357H24.3705V3.28365ZM13.4326 5.79464H2.4946V10.2372H13.4326V5.79464ZM13.4326 2.89732H2.4946V5.2152H13.4326V2.89732ZM22.0678 26.0759V18.1565H28.976V17.5771H22.8354L29.5516 10.6235H28.5922L22.0678 17.3839V10.6235H21.3002V17.1908L14.5839 10.6235H13.6245L20.5327 17.5771H13.8164V18.3497H21.1083L21.3002 26.2691H22.0678V26.0759ZM2.87841 43.8461C1.34326 43.8461 0 42.4941 0 40.9488V2.89732C0 1.35208 1.34326 0 2.87841 0H40.6815C42.2167 0 43.5599 1.35208 43.5599 2.89732V40.7557C43.5599 42.3009 42.2167 43.653 40.6815 43.653H2.87841V43.8461Z" transform="translate(0.541016 0.482422)" fill="#B3B1B2"/>
<path d="M15.7353 0H0V14.2934H15.7353V0Z" transform="translate(14.3555 26.7516)" fill="white"/>
<path d="M2.30275 0H0V2.31788H2.30275V0Z" transform="translate(26.252 28.49)" fill="#B3B1B2"/>
<path d="M5.1811 10.4303C8.05951 10.4303 10.3623 8.11246 10.3623 5.21514C10.3623 2.31782 8.05951 0 5.1811 0C2.30269 0 0 2.31782 0 5.21514C0 8.11246 2.30269 10.4303 5.1811 10.4303Z" transform="translate(15.3145 29.0695)" fill="#B3B1B2"/>
<path d="M4.60544 9.2714C7.10006 9.2714 9.21088 7.14671 9.21088 4.6357C9.21088 2.12469 7.10006 0 4.60544 0C2.11082 0 0 2.12469 0 4.6357C0 7.14671 2.11082 9.2714 4.60544 9.2714Z" transform="translate(15.8906 29.6489)" fill="white"/>
<path d="M4.04303 8.11252C6.34576 8.11252 8.07282 6.18096 8.07282 4.05626C8.07282 1.7384 6.15387 0 4.04303 0C1.74031 0 0.0132505 1.93156 0.0132505 4.05626C-0.178643 6.37412 1.74031 8.11252 4.04303 8.11252Z" transform="translate(16.4531 30.2281)" fill="#B3B1B2"/>
<path d="M3.46868 6.95358C5.38762 6.95358 6.9228 5.40831 6.9228 3.47676C6.9228 1.54521 5.38762 0 3.46868 0C1.54974 0 0.0146157 1.54521 0.0146157 3.47676C-0.177278 5.40831 1.54974 6.95358 3.46868 6.95358Z" transform="translate(17.0293 30.8076)" fill="white"/>
<path d="M3.07031 6.18097C4.79736 6.18097 6.14063 4.82888 6.14063 3.09049C6.14063 1.35209 4.79736 0 3.07031 0C1.34327 0 0 1.35209 0 3.09049C0 4.82888 1.34327 6.18097 3.07031 6.18097Z" transform="translate(17.4258 31.1941)" fill="#B3B1B2"/>
<path d="M1.75173 3.47676C2.7112 3.47676 3.47876 2.70415 3.47876 1.73838C3.47876 0.772607 2.7112 0 1.75173 0C0.792262 0 0.0246988 0.772607 0.0246988 1.73838C-0.167195 2.70415 0.792262 3.47676 1.75173 3.47676Z" transform="translate(18.7461 32.5463)" fill="white"/>
<path d="M1.75173 3.47676C2.7112 3.47676 3.47876 2.70415 3.47876 1.73838C3.47876 0.772607 2.7112 0 1.75173 0C0.792262 0 0.0246988 0.772607 0.0246988 1.73838C-0.167195 2.70415 0.792262 3.47676 1.75173 3.47676Z" transform="translate(18.7461 32.5463)" stroke="#B3B1B2" stroke-width="0.530393"/>
</svg>
