<svg width="44" height="45" viewBox="0 0 44 45" fill="none" xmlns="http://www.w3.org/2000/svg">
<path d="M2.87841 43.8461C1.34326 43.8461 0 42.4941 0 40.9488V2.89732C0 1.35208 1.34326 0 2.87841 0H40.6815C42.2167 0 43.5599 1.35208 43.5599 2.89732V40.7557C43.5599 42.3009 42.2167 43.653 40.6815 43.653" transform="translate(0 0.482422)" fill="#B3B1B2"/>
<path d="M23.4111 9.07829V5.02203H16.311C15.7353 4.05626 15.1596 3.47682 12.665 3.47682L12.0894 1.54527C12.0894 1.54527 14.3921 0.965821 14.9678 0.772666C15.5435 0.579511 15.5434 0 14.584 0C13.8164 0 8.25145 0 7.67576 0C7.10008 0 6.71629 0.579511 7.67576 0.772666C8.63523 0.965821 10.5542 1.54527 10.5542 1.54527C10.5542 1.54527 10.1704 2.89737 9.78661 3.66999C8.63525 3.66999 7.29197 3.4768 6.71629 5.02203H3.45413C1.91898 5.02203 0 6.56731 0 8.49885V12.9414H4.02979V11.0098C4.02979 9.4646 4.79735 9.27146 6.71629 9.27146C6.90819 9.85093 7.4839 10.4304 8.25148 10.4304H14.584C15.5434 10.4304 15.7354 9.85091 16.1191 9.07829" transform="translate(12.666 5.11792)" fill="white"/>
<path d="M0 0L5.56492 7.14669" transform="translate(16.8887 19.2185)" stroke="white" stroke-width="0.756853" stroke-linecap="round"/>
<path d="M5.56492 0L0 7.14669" transform="translate(8.25195 19.2185)" stroke="white" stroke-width="0.756853" stroke-linecap="round"/>
<path d="M0 0V7.14669" transform="translate(15.3535 19.2185)" stroke="white" stroke-width="0.756853" stroke-linecap="round"/>
<path d="M18.8056 0H0V11.3962H18.8056V0Z" transform="translate(7.48438 28.2968)" fill="white"/>
<path d="M2.68651 0H0V2.70415H2.68651V0Z" transform="translate(8.25195 29.0695)" fill="#B3B1B2"/>
<path d="M2.68651 0H0V2.70415H2.68651V0Z" transform="translate(11.8945 29.0695)" fill="#B3B1B2"/>
<path d="M2.68656 0H0V2.70415H2.68656V0Z" transform="translate(15.541 29.0695)" fill="#B3B1B2"/>
<path d="M2.68651 0H0V2.70415H2.68651V0Z" transform="translate(19.1875 29.0695)" fill="#B3B1B2"/>
<path d="M2.68651 0H0V2.70415H2.68651V0Z" transform="translate(22.834 29.0695)" fill="#B3B1B2"/>
<path d="M2.68651 0H0V2.70415H2.68651V0Z" transform="translate(8.25195 32.5463)" fill="#B3B1B2"/>
<path d="M2.68651 0H0V2.70415H2.68651V0Z" transform="translate(11.8945 32.5463)" fill="#B3B1B2"/>
<path d="M2.68656 0H0V2.70415H2.68656V0Z" transform="translate(15.541 32.5463)" fill="#B3B1B2"/>
<path d="M2.68651 0H0V2.70415H2.68651V0Z" transform="translate(19.1875 32.5463)" fill="#B3B1B2"/>
<path d="M2.68651 0H0V2.70415H2.68651V0Z" transform="translate(22.834 32.5463)" fill="#B3B1B2"/>
<path d="M2.68651 0H0V2.70415H2.68651V0Z" transform="translate(8.25195 36.2163)" fill="#B3B1B2"/>
<path d="M2.68651 0H0V2.70415H2.68651V0Z" transform="translate(11.8945 36.2163)" fill="#B3B1B2"/>
<path d="M2.68656 0H0V2.70415H2.68656V0Z" transform="translate(15.541 36.2163)" fill="#B3B1B2"/>
<path d="M2.68651 0H0V2.70415H2.68651V0Z" transform="translate(19.1875 36.2163)" fill="#B3B1B2"/>
<path d="M2.68651 0H0V2.70415H2.68651V0Z" transform="translate(22.834 36.2163)" fill="#B3B1B2"/>
</svg>
