<svg width="44" height="45" viewBox="0 0 44 45" fill="none" xmlns="http://www.w3.org/2000/svg">
<path d="M2.68651 41.5283C1.15135 41.5283 0 40.3693 0 38.8241V2.70415C0 1.15892 1.15135 0 2.68651 0H38.5707C40.1059 0 41.2572 1.15892 41.2572 2.70415V38.8241C41.2572 40.3693 40.1059 41.5283 38.5707 41.5283" transform="translate(1.39844 1.83459)" fill="white"/>
<path d="M3.64598 0H0V1.93155H3.64598V0Z" transform="translate(8.69141 36.0231)" fill="white"/>
<path d="M0 2.12471V0H3.83788V9.65774H1.34328V2.12471" transform="translate(15.2168 31.3873)" fill="white"/>
<path d="M2.49466 5.21514C2.49466 6.18092 2.87842 8.30563 4.02979 8.30563C5.37305 8.30563 5.56492 6.18092 5.56492 5.21514C5.56492 4.24937 5.18115 2.31782 4.02979 2.31782C2.68653 2.12467 2.49466 4.24937 2.49466 5.21514ZM8.05958 5.21514C8.05958 7.72615 6.9082 10.4303 4.02979 10.4303C1.15138 10.4303 0 7.72615 0 5.21514C0 2.70413 1.15138 0 4.02979 0C6.9082 0 8.05958 2.70413 8.05958 5.21514Z" transform="translate(22.1211 31.0009)" fill="white"/>
<path d="M1.91894 0.965774C1.53515 0.965774 1.15138 1.35213 1.15138 1.73844C1.15138 2.12475 1.53515 2.51105 1.91894 2.51105C2.30273 2.51105 2.68651 2.12475 2.68651 1.73844C2.68651 1.35213 2.49462 0.965774 1.91894 0.965774ZM1.91894 3.86309C0.767576 3.86309 0 3.09048 0 1.93155C0 0.772619 0.767576 0 1.91894 0C2.87841 0 3.83788 0.772619 3.83788 1.93155C3.83788 2.89732 3.07031 3.86309 1.91894 3.86309Z" transform="translate(31.1406 31.1941)" fill="white"/>
<path d="M12.0893 14.4866C11.3217 16.0318 10.938 18.736 13.6245 18.736C16.311 18.736 16.311 15.8387 15.5434 14.8729C14.9677 13.9072 14.0083 11.0098 13.6245 9.46457C13.6245 10.8167 13.0488 12.9414 12.0893 14.4866ZM7.67576 18.5429C6.71629 20.0881 6.52438 22.7923 9.21089 22.7923C11.8974 22.7923 11.8974 19.895 11.1298 18.9292C10.5542 17.9634 9.59468 15.0661 9.21089 13.5208C9.21089 15.0661 8.63523 16.9976 7.67576 18.5429ZM3.64598 13.714C2.68651 15.2592 2.49459 17.9634 5.1811 17.9634C7.86762 17.9634 7.86762 15.0661 7.10005 14.1003C6.52436 13.1346 5.56489 10.2372 5.1811 8.69196C4.98921 10.2372 4.41355 12.1688 3.64598 13.714ZM2.87841 43.8461C1.34326 43.8461 0 42.4941 0 40.9488V2.89732C0 1.35208 1.34326 0 2.87841 0H40.6815C42.2167 0 43.5599 1.35208 43.5599 2.89732V40.7557C43.5599 42.3009 42.2167 43.653 40.6815 43.653H2.87841V43.8461Z" transform="translate(0.439453 0.482422)" fill="#B3B1B2"/>
<path d="M7.67576 20.6676H13.8164V18.9292H0V20.6676H5.75682V27.8143C5.75682 29.5527 7.10007 32.45 10.3623 32.45H28.976C33.5815 32.45 37.4193 28.5869 37.4193 23.9512V0H29.7436V15.4524C29.7436 15.4524 29.3598 15.4524 29.1679 15.4524C24.5625 15.4524 20.7245 19.3155 20.7245 23.9512C20.7245 26.6554 21.8759 28.9732 23.7949 30.5185H10.3623C8.44333 30.5185 7.48386 28.9733 7.48386 27.8143" transform="translate(3.12695 6.08386)" fill="white"/>
<path d="M2.30275 0L0 2.89732H0.95947V6.18097H3.64598V2.89732H4.60545" transform="translate(34.5957 7.43604)" fill="#B3B1B2"/>
<path d="M2.30269 0C0.959435 0.965774 0 2.51103 0 4.24943C0 7.14675 2.30269 9.46457 5.1811 9.46457C8.05952 9.46457 10.3623 7.14675 10.3623 4.24943" transform="translate(27.3027 25.7856)" stroke="#B3B1B2" stroke-width="0.941597"/>
<path d="M0 3.66999H2.49466C2.30276 3.47683 1.34327 0.386309 1.15138 0C1.15138 0.386309 0.191894 2.89737 0 3.66999Z" transform="translate(36.3223 27.3308)" fill="#B3B1B2"/>
</svg>
