<svg width="45" height="45" viewBox="0 0 45 45" fill="none" xmlns="http://www.w3.org/2000/svg">
<path d="M2.87841 43.8461C1.34326 43.8461 0 42.4881 0 40.936V2.91014C0 1.35807 1.34326 0 2.87841 0H40.6815C42.2167 0 43.5599 1.35807 43.5599 2.91014V40.742C43.5599 42.2941 42.2167 43.6521 40.6815 43.6521" transform="translate(0.898438 0.482422)" fill="#B3B1B2"/>
<path d="M0 5.04426V9.50645C0 9.50645 0.19187 11.0585 0.575658 12.4166C1.15134 14.3567 4.02978 15.3267 4.02978 15.3267L21.684 22.1171C21.684 22.1171 23.0273 22.5051 24.1786 22.5051C25.7138 22.5051 26.6732 22.3111 26.6732 22.3111L34.1571 20.759L34.5409 0.582064H24.1786L4.22169 0C4.22169 0 3.26222 1.18385e-05 2.30275 0.194021C0.191917 0.77605 0 5.04426 0 5.04426Z" transform="translate(6.84766 7.07861)" stroke="white" stroke-width="0.862137" stroke-linecap="round" stroke-linejoin="round"/>
<path d="M0.959469 2.32814L0 0L16.1191 5.62632L16.8867 8.53646" transform="translate(8.38281 19.4954)" stroke="white" stroke-width="0.647596" stroke-linejoin="round"/>
<path d="M0.383811 1.74607L0 0L3.83788 1.16407V3.10416L0.383811 1.74607Z" transform="translate(25.6543 25.5095)" stroke="white" stroke-width="0.647596"/>
<path d="M30.1273 0C28.784 0 27.6327 0.194021 26.0975 2.13412C22.6434 6.20831 23.2191 16.8788 23.2191 16.8788L22.6434 17.2668L0 10.2825" transform="translate(7.23242 8.04895)" stroke="white" stroke-width="0.862137"/>
<path d="M0.383811 0L0 20.759" transform="translate(37.5527 7.85486)" stroke="white" stroke-width="0.431068"/>
<path d="M25.8843 0C21.4708 3.88019 21.6627 15.5208 21.8546 15.5208C22.0464 15.5208 0.170572 9.11841 0.170572 9.11841C0.170572 9.11841 -0.213215 7.37233 0.170572 6.40229" transform="translate(7.83008 8.63086)" stroke="white" stroke-width="0.421136" stroke-linecap="round"/>
<path d="M4.60544 10.2825L4.41353 11.6406L2.87841 13.1927L1.72703 12.9987L3.07031 11.6406L2.87841 10.2825L1.72703 9.89449L0.383753 11.2526L0 10.0885L1.53513 8.73042H2.87841L4.60544 6.98435L9.01897 2.91014V1.55211L10.7461 0L11.8974 0.388043L10.3623 1.55211L10.5542 2.91014L11.8974 3.29818L13.2407 1.94009L13.6245 3.10416L12.0893 4.65627L10.7461 4.46225L6.33247 8.73042L4.60544 10.2825Z" transform="translate(2.24219 26.2858)" stroke="white" stroke-width="0.862137" stroke-linecap="round" stroke-linejoin="round"/>
<path d="M28.2084 3.29812L18.4218 1.74607L17.4623 2.5221L16.8867 1.74607L15.9272 1.55205L15.7353 2.91014L2.68656 0.776026L2.11084 0.387983L0.191906 0L0 1.35803L1.72709 1.74607L2.68656 1.35803L15.7353 3.68617L15.5434 4.85024L16.311 5.0442L17.0786 4.65621L17.8462 5.62626L27.6328 7.17831L28.2084 3.29812Z" transform="translate(11.2578 33.8521)" stroke="white" stroke-width="0.862137" stroke-linecap="round" stroke-linejoin="round"/>
<path d="M0 0L9.21088 1.35803" transform="translate(29.3008 38.7023)" stroke="white" stroke-width="0.647596" stroke-linecap="round" stroke-linejoin="round"/>
<path d="M0 0L9.21094 1.55205" transform="translate(29.6836 36.374)" stroke="white" stroke-width="0.647596" stroke-linecap="round" stroke-linejoin="round"/>
<path d="M0 0L9.21094 1.55205" transform="translate(29.4883 37.5383)" stroke="white" stroke-width="0.647596" stroke-linecap="round" stroke-linejoin="round"/>
<path d="M0.383753 0L0 1.74607" transform="translate(28.3418 36.374)" stroke="white" stroke-width="0.647596" stroke-linecap="round" stroke-linejoin="round"/>
<path d="M0 0V0.776026" transform="translate(26.9941 36.7621)" stroke="white" stroke-width="0.647596" stroke-linecap="round" stroke-linejoin="round"/>
<path d="M34.7328 0.776026C34.7328 0.776026 26.2895 0.776061 21.3002 11.0586L0 6.98435C1.72704 3.29817 3.64603 0.776038 7.48391 0" transform="translate(2.62891 7.07861)" fill="#B3B1B2"/>
<path d="M34.7328 0.776026C34.7328 0.776026 26.2895 0.776061 21.3002 11.0586L0 6.98435C1.72704 3.29817 3.64603 0.776038 7.48391 0L34.7328 0.776026Z" transform="translate(2.62891 7.07861)" stroke="white" stroke-width="0.862137"/>
<path d="M0 0L21.4921 1.55211" transform="translate(7.42383 8.82483)" stroke="white" stroke-width="0.421136" stroke-linecap="round"/>
<path d="M0 0L21.1083 1.16407" transform="translate(8.95898 8.24292)" stroke="white" stroke-width="0.421136" stroke-linecap="round"/>
<path d="M0 0L21.4921 0.970047" transform="translate(10.3008 7.66101)" stroke="white" stroke-width="0.421136" stroke-linecap="round"/>
<path d="M21.3002 1.55205L0 0" transform="translate(6.46484 9.60083)" stroke="white" stroke-width="0.421136" stroke-linecap="round"/>
</svg>
