<svg width="44" height="45" viewBox="0 0 44 45" fill="none" xmlns="http://www.w3.org/2000/svg">
<path d="M43.5599 38.9959C43.5599 41.712 41.4583 43.8461 38.9746 43.8461H4.58519C2.10151 43.8461 0 41.712 0 38.9959V4.85024C0 2.1341 2.10151 0 4.58519 0H38.9746C41.4583 0 43.5599 2.1341 43.5599 4.85024" transform="translate(0.380859 0.482422)" fill="#A5D4E2"/>
<path d="M12.4184 27.1613C19.2769 27.1613 24.8368 21.0811 24.8368 13.5807C24.8368 6.08027 19.2769 0 12.4184 0C5.55991 0 0 6.08027 0 13.5807C0 21.0811 5.55991 27.1613 12.4184 27.1613Z" transform="translate(4.39062 3.58655)" stroke="white" stroke-width="0.874056"/>
<path d="M6.87796 0H7.83322V2.91014L9.93475 1.35803L10.3169 2.13406L7.83322 4.07415V8.14836L11.0811 6.20827V2.91014H12.0364V5.43224L14.5201 3.88019L14.9022 4.85024L12.6095 6.40229L14.7111 7.76038L14.3289 8.5364L11.4631 6.98429L8.21535 9.11841L11.6543 11.2525L14.1379 9.89443L14.7111 10.6705L12.6095 11.8345L14.9022 13.5807L14.3289 14.3567L12.0364 12.6106V15.3267H11.0811V12.0285L7.83322 10.0885V13.9686L10.3169 16.1028L9.74374 17.0728L7.83322 15.3267V18.2369H6.87796V15.3267L4.96743 17.0728L4.5853 15.9087L6.87796 13.9686V10.0885L3.82105 12.0285V15.5208H2.86579V12.8046L0.57325 14.3567L0.191122 13.3866L2.48377 11.8345L0.191122 10.6705L0.764256 9.89443L3.43904 11.2525L6.49583 9.11841L3.24791 6.98429L0.57325 8.5364L0.191122 7.56636L2.29265 6.40229L0 4.85024L0.57325 3.88019L2.86579 5.23822L3.05691 2.91014H4.01217L3.82105 6.20827L6.87796 8.14836V4.07415L4.5853 2.13406L4.96743 1.35803L6.87796 2.91014" transform="translate(9.35742 8.04895)" fill="white"/>
<path d="M2.10153 0H0V0.970047H2.10153V0Z" transform="translate(8.21484 35.5983)" fill="white"/>
<path d="M1.20594 2.71612C1.397 2.71612 1.77915 2.71617 1.9702 2.52216C2.3523 2.32815 2.35233 1.94008 2.35233 1.74607C2.35233 1.16404 2.1613 0.970047 1.77919 0.970047C1.58814 0.970047 1.20594 1.16409 1.20594 1.55211V1.94009H0.0596757C0.0596757 0.582028 0.441827 0 1.77919 0C2.92551 0 3.4986 0.582016 3.4986 1.74607C3.4986 2.3281 3.30761 3.10416 2.73446 3.10416C3.30761 3.10416 3.68972 3.68618 3.68972 4.85024C3.68972 6.2083 3.11656 6.98435 1.77919 6.98435C0.0597224 6.98435 -0.131377 5.62629 0.0596757 5.04426V4.65621H1.20594C1.20594 5.23824 1.20599 6.0143 1.9702 6.0143C2.73441 6.0143 2.54333 5.43225 2.54333 4.65621C2.54333 4.46221 2.54338 4.0742 2.35233 3.88019C2.16128 3.68618 1.58805 3.68617 1.20594 3.68617" transform="translate(11.0156 32.6881)" fill="white"/>
<path d="M0 1.94009C0 0.582028 0.573204 0 1.71952 0C2.86583 0 3.43892 0.582028 3.43892 1.94009V5.04426C3.43892 6.40232 2.86583 6.98435 1.71952 6.98435C0.573204 6.98435 0 6.40232 0 5.04426V1.94009ZM1.14638 5.04426C1.14638 5.82029 1.33741 6.0143 1.71952 6.0143C2.10162 6.0143 2.29265 5.82029 2.29265 5.04426V1.94009C2.29265 1.16406 2.10162 0.970047 1.71952 0.970047C1.33741 0.970047 1.14638 1.16406 1.14638 1.94009V5.04426Z" transform="translate(15.4727 32.6881)" fill="white"/>
<path d="M0 1.35809C0 0.388043 0 0 0.955262 0C1.71947 0 1.71952 0.582052 1.71952 1.35809C1.71952 2.32814 1.52842 2.71618 0.955262 2.71618C0.191052 2.52217 0 2.13413 0 1.35809ZM0.573134 1.74613C0.573134 2.13415 0.573157 2.13412 0.955262 2.13412C1.14631 2.13412 1.14627 1.94014 1.14627 1.74613V0.970047C1.14627 0.776038 1.14631 0.388043 0.955262 0.388043C0.573157 0.388043 0.573134 0.582028 0.573134 0.970047V1.74613Z" transform="translate(19.6738 32.4939)" fill="white"/>
<path d="M4.01205 4.65621C4.01205 4.85022 4.01205 4.85019 4.01205 5.0442C4.01205 6.20825 3.62995 7.17831 2.10153 7.17831C0.191006 7.17831 0 5.82024 0 4.07415V3.1041C0 1.35802 0.191006 0 2.10153 0C3.24784 0 3.82105 0.582016 3.82105 1.74607C3.82105 1.94008 3.82105 2.13407 3.82105 2.32808H2.67466C2.67466 1.94006 2.67469 1.16401 2.10153 1.16401C1.14627 1.16401 1.14627 2.32811 1.14627 2.91014V4.85024C1.14627 5.43226 1.14627 6.40229 2.10153 6.40229C2.67469 6.40229 2.67466 5.23825 2.67466 4.85024" transform="translate(21.9707 32.3)" fill="white"/>
<path d="M6.1137 3.49215C6.1137 5.43224 4.77638 6.98429 3.05691 6.98429C1.33744 6.98429 0 5.43224 0 3.49215C0 1.55205 1.33744 0 3.05691 0C4.77638 0 6.1137 1.55205 6.1137 3.49215Z" transform="translate(32.666 33.27)" fill="white"/>
<path d="M3.05691 0H0V26.5793H3.05691V0Z" transform="translate(34.1953 7.66101)" stroke="white" stroke-width="0.617799"/>
<path d="M3.05691 0H0V4.65627H3.05691V0Z" transform="translate(34.1953 29.584)" fill="white"/>
</svg>
