<svg width="44" height="44" viewBox="0 0 44 44" fill="none" xmlns="http://www.w3.org/2000/svg">
<path d="M2.87841 43.8461C1.34326 43.8461 0 42.4941 0 40.9488V2.89732C0 1.35208 1.34326 0 2.87841 0H40.6815C42.2167 0 43.5599 1.35208 43.5599 2.89732V40.9488C43.5599 42.4941 42.2167 43.8461 40.6815 43.8461" transform="translate(0.0996094)" fill="#B3B1B2"/>
<path d="M4.32364 22.1223C5.475 23.0881 7.39395 23.088 8.35342 21.7359L20.4427 7.44251C21.4022 6.28358 21.4022 4.35202 20.0589 3.38625L16.7967 0.682095C15.6454 -0.283678 13.7264 -0.283654 12.767 1.06843L0.677668 15.3619C-0.281801 16.5208 -0.281836 18.4524 1.06142 19.4181" transform="translate(2.68164 19.0198)" fill="white"/>
<path d="M0.317911 1.75584C0.701698 2.14215 1.2774 1.94898 1.66119 1.56267C2.04498 1.17636 1.85307 0.596877 1.46929 0.210568C1.0855 -0.175742 0.509851 0.0174247 0.126064 0.403734C-0.0658301 0.790044 -0.0658769 1.36953 0.317911 1.75584Z" transform="translate(7.07031 30.6941)" fill="#B3B1B2"/>
<path d="M0.401099 1.75578C0.784886 2.14209 1.36059 1.94892 1.74438 1.56262C2.12817 1.17631 1.93626 0.596877 1.55247 0.210568C1.16869 -0.175742 0.592981 0.0174247 0.209193 0.403734C-0.174595 0.983198 0.0173109 1.56263 0.401099 1.75578Z" transform="translate(9.10156 32.2395)" fill="#B3B1B2"/>
<path d="M0.317947 1.75578C0.701735 2.14209 1.27744 1.94892 1.66123 1.56262C2.04502 1.17631 1.85311 0.596877 1.46932 0.210568C1.08553 -0.175742 0.50983 0.0174247 0.126042 0.403734C-0.0658519 0.983198 -0.0658402 1.56263 0.317947 1.75578Z" transform="translate(11.2949 34.1711)" fill="#B3B1B2"/>
<path d="M0.459377 10.3133C1.03506 10.6996 1.80262 10.6996 2.18641 10.1201L9.0946 2.00761C9.47839 1.42815 9.47838 0.655538 8.90269 0.269229C8.32701 -0.117081 7.55945 -0.117069 7.17566 0.462395L0.267471 8.57492C-0.116316 9.15438 -0.116305 9.92699 0.459377 10.3133Z" transform="translate(9.62109 20.2052)" fill="white"/>
<path d="M0.459377 10.3133C1.03506 10.6996 1.80262 10.6996 2.18641 10.1201L9.0946 2.00761C9.47839 1.42815 9.47838 0.655538 8.90269 0.269229C8.32701 -0.117081 7.55945 -0.117069 7.17566 0.462395L0.267471 8.57492C-0.116316 9.15438 -0.116305 9.92699 0.459377 10.3133Z" transform="translate(9.62109 20.2052)" stroke="#B3B1B2" stroke-width="0.466825"/>
<path d="M0.852844 10.8434C1.62042 11.616 2.77181 11.616 3.15559 11.0366L10.0638 2.92406C10.4476 2.34459 10.2556 1.3788 9.48807 0.606178C8.72049 -0.166441 7.56916 -0.166394 7.18537 0.413071L0.277186 8.52553C-0.298495 9.105 0.0852688 10.0708 0.852844 10.8434Z" transform="translate(12.4863 22.5723)" fill="white"/>
<path d="M0.852844 10.8434C1.62042 11.616 2.77181 11.616 3.15559 11.0366L10.0638 2.92406C10.4476 2.34459 10.2556 1.3788 9.48807 0.606178C8.72049 -0.166441 7.56916 -0.166394 7.18537 0.413071L0.277186 8.52553C-0.298495 9.105 0.0852688 10.0708 0.852844 10.8434Z" transform="translate(12.4863 22.5723)" stroke="#B3B1B2" stroke-width="0.466825"/>
<path d="M12.8569 10.6235C10.938 5.02202 5.94871 0.965809 0 0.5795V0C6.3325 0.193155 11.7055 4.63576 13.4326 10.4304" transform="translate(18.1348 11.5892)" fill="white"/>
<path d="M10.3623 8.4988C8.8271 4.05624 4.79735 0.772642 0 0.386333V0C5.18113 0.193155 9.40281 3.66997 10.7461 8.30569" transform="translate(18.5234 13.7141)" fill="white"/>
<path d="M8.25141 6.76041C7.10005 3.28363 3.83788 0.579488 0 0.386333V0C4.02977 0.193155 7.48386 2.89732 8.63522 6.76041" transform="translate(18.5234 15.6455)" fill="white"/>
<path d="M6.52438 5.40831C5.56491 2.51099 3.0703 0.386262 0 0.193108V0C3.26219 0.193155 5.94872 2.31783 6.90819 5.40831" transform="translate(18.5234 17.1909)" fill="white"/>
<path d="M18.4218 0H0V9.65774H18.4218V0Z" transform="translate(22.5527 2.31787)" fill="white"/>
<path d="M0.317947 1.75584C0.701735 2.14215 1.27738 1.94898 1.66117 1.56267C2.04496 1.17636 1.85305 0.596877 1.46926 0.210568C1.08548 -0.175742 0.50983 0.0174247 0.126042 0.403734C-0.0658519 0.790044 -0.0658402 1.36953 0.317947 1.75584Z" transform="translate(5.92383 33.5917)" fill="#B3B1B2"/>
</svg>
