<svg width="45" height="45" viewBox="0 0 45 45" fill="none" xmlns="http://www.w3.org/2000/svg">
<path d="M21.684 43.4598C9.59467 43.4598 0 33.6089 0 21.6333C0 10.6235 8.05956 1.54524 18.6137 0C25.7138 12.3619 33.9653 21.6333 42.9843 27.0417C40.4896 36.3131 31.8544 43.4598 21.684 43.4598Z" transform="translate(0.859375 0.868652)" fill="#B3B1B2"/>
<path d="M0 0.193166C0.959469 1.17863e-05 2.11086 0 3.26222 0C15.3515 0 24.9462 9.85093 24.9462 21.8265C24.9462 23.5649 24.7543 25.4964 24.3705 27.0417C15.3515 21.8265 7.10007 12.5551 0 0.193166Z" transform="translate(19.4707 0.482422)" fill="#B3B1B2"/>
<path d="M0 20.0881C0.383788 8.88516 9.59467 0 20.7245 0C31.8544 0 41.0652 8.88516 41.449 20.0881H0ZM26.2895 20.0881C27.6327 19.5087 28.9759 17.3839 28.9759 14.4866C28.9759 11.203 26.4814 7.53308 20.9165 7.53308C16.311 7.53308 13.6245 9.65777 11.8974 12.1688L16.311 15.0661C17.2704 13.714 18.6137 13.1346 20.3407 13.1346C22.6434 13.1346 23.2191 14.6798 23.2191 15.6455C23.2191 17.5771 21.1083 17.7703 20.3407 17.7703H17.6543V22.2128H19.765C21.8759 22.2128 23.4111 22.9854 23.4111 25.1101C23.4111 27.0417 21.8759 28.2006 19.957 28.2006C18.9975 28.2006 17.0785 28.0075 15.3515 25.8828L11.7055 29.7459C14.7758 33.0295 18.2299 33.609 20.3407 33.609C28.784 33.609 29.5517 28.3938 29.5517 26.4622C29.9355 23.1786 28.7841 20.8608 26.2895 20.0881Z" transform="translate(1.81836 1.25513)" fill="white"/>
<path d="M2.30275 5.79464L3.26222 5.2152L1.34328 1.93155L3.64603 0.5795L3.26222 0L0 1.93155" transform="translate(11.4141 4.3457)" fill="#B3B1B2"/>
<path d="M1.10339 4.3763C1.67907 4.76261 2.25471 4.76262 3.21418 4.56946C3.98175 4.37631 4.55748 3.99 4.94127 3.60369C5.32505 3.02423 5.51697 2.44477 5.32508 1.86531C5.13318 1.09269 4.7494 0.706346 4.36561 0.320037C3.78993 -0.0662728 3.21418 -0.0662846 2.25471 0.12687C1.87092 0.12687 1.48718 0.320048 1.10339 0.513203C0.911496 0.706358 0.719625 0.899489 0.527731 1.09264C0.335838 1.2858 0.14392 1.479 0.14392 1.86531C-0.0479735 2.25162 -0.0479735 2.63788 0.14392 3.02419C0.335814 3.60365 0.527708 3.98999 1.10339 4.3763ZM1.4872 1.28581C1.67909 0.899501 2.06288 0.70637 2.44667 0.70637C2.83046 0.70637 3.2142 0.706381 3.59799 0.899536C3.98177 1.09269 4.17364 1.479 4.17364 1.86531C4.36554 2.44477 4.17369 2.83104 3.9818 3.02419C3.7899 3.4105 3.40612 3.60369 3.02233 3.60369C2.63854 3.60369 2.25468 3.60368 1.87089 3.41052C1.48711 3.21737 1.29524 2.83106 1.29524 2.44475C1.10334 2.05844 1.29531 1.67212 1.4872 1.28581Z" transform="translate(16.4512 3.05981)" fill="#B3B1B2"/>
<path d="M2.11079 0.772607C1.91889 1.54523 1.72702 2.12469 1.53513 2.70415C1.34323 3.09046 1.15129 3.47678 0.767505 3.86309L0.383811 3.66993L0 5.40831L0.959469 5.60147L1.15132 4.6357L4.60538 5.40831L4.41353 6.37408L5.373 6.56725L5.75681 4.82887L5.373 4.6357L6.33247 0.965774L2.68644 0L2.11079 0.772607ZM4.60538 1.73838L3.83788 4.6357L1.72697 4.05626C2.11076 3.4768 2.49462 2.51103 2.87841 1.35211L4.60538 1.73838Z" transform="translate(23.3125 2.60706)" fill="#B3B1B2"/>
<path d="M5.37312 0.772607L4.41365 0L0 2.12471L0.959469 2.89732L1.91894 2.31782L3.64603 3.66993L3.45418 4.82887L4.41365 5.60147L5.37312 0.772607ZM2.49471 1.93155L4.02984 1.15894L3.64603 2.89732L2.49471 1.93155Z" transform="translate(29.834 6.66333)" fill="#B3B1B2"/>
<path d="M0 0.579441L0.191906 1.73838L3.83788 1.15894L4.22169 3.66993H4.98925L4.41353 0" transform="translate(3.73438 23.0815)" fill="white"/>
<path d="M5.56491 0.965774L4.98925 0L0 0.193108L0.575658 1.15888H1.72703L2.87841 3.09043L2.30275 4.0562L2.87841 5.21514L5.56491 0.965774ZM2.6865 1.15888L4.41353 0.965774L3.26222 2.51099L2.6865 1.15888Z" transform="translate(4.69727 29.0695)" fill="white"/>
<path d="M1.15137 4.24937L2.11084 2.89732L2.6865 3.28359C3.07029 3.6699 3.45408 3.86309 3.64597 3.86309C3.83786 3.86309 4.02979 4.0562 4.22169 4.0562C4.41358 4.0562 4.60545 4.0562 4.79735 4.0562C4.98924 4.0562 5.18111 3.86308 5.373 3.66993C5.5649 3.47677 5.75686 3.09046 5.56497 2.70415C5.56497 2.31784 5.37305 2.1247 5.18116 1.93155C4.98926 1.73839 4.79737 1.54519 4.22169 1.15888L2.6865 0L0 3.66993L1.15137 4.24937ZM3.83788 1.54521C4.22166 1.73837 4.41353 1.9315 4.41353 2.12465C4.60543 2.31781 4.60544 2.31783 4.60544 2.51099C4.60544 2.70414 4.60543 2.89732 4.41353 2.89732C4.41353 3.09048 4.22168 3.09043 4.02978 3.09043C3.83789 3.09043 3.83786 3.09043 3.64597 3.09043C3.45408 3.09043 3.2622 2.89731 2.87841 2.70415L2.30275 2.31782L3.07031 1.35205L3.83788 1.54521Z" transform="translate(9.49414 32.9324)" fill="white"/>
<path d="M4.41353 0.386333L3.26222 0L0 3.66993L1.15143 4.05626L1.91894 3.28365L4.02984 3.86309L4.22169 5.02203L5.373 5.40837L4.41353 0.386333ZM2.4946 2.70415L3.64603 1.35211L4.02984 3.09049L2.4946 2.70415Z" transform="translate(14.8652 36.2162)" fill="white"/>
<path d="M1.91894 5.02203L1.53513 3.09049L3.64591 2.70415L4.02972 4.6357L5.18104 4.44253L4.41353 0L3.2621 0.193166L3.64591 1.93155L1.34316 2.31788L1.15132 0.57944L0 0.772607L0.767505 5.2152" transform="translate(22.7363 36.4091)" fill="white"/>
<path d="M4.60538 4.6357L2.68644 1.54521L4.02972 0.57944L3.64591 0L0 2.31788L0.383694 3.09049L1.72697 2.12471L3.83788 5.2152" transform="translate(28.4902 33.5117)" fill="white"/>
<path d="M3.64591 6.18092L4.22157 5.21514L3.07025 1.73838L5.56485 3.28359L6.14051 2.51099L2.30263 0L1.72697 0.772607L2.87841 4.44253L0.575658 2.70415L0 3.66993" transform="translate(33.291 28.8762)" fill="white"/>
<path d="M4.98931 0.772607L0.575775 0L0.191964 2.31788C0.191964 2.89734 0 3.28362 0 3.66993C0 3.86308 0.191917 4.24944 0.383811 4.44259C0.575705 4.63575 0.767575 4.82887 0.959469 4.82887C1.34326 4.82887 1.5352 4.82886 1.72709 4.6357C1.91899 4.44255 2.11086 4.05624 2.30275 3.66993C2.30275 3.86308 2.49471 4.05627 2.49471 4.24943C2.68661 4.44258 2.87848 4.63572 3.07037 5.02203L3.83788 5.79464L4.02984 4.44259L3.26222 3.47682C2.87843 3.09051 2.68656 2.7042 2.68656 2.51105C2.68656 2.31789 2.68656 2.12469 2.68656 1.73838V1.54527L4.6055 1.93155L4.98931 0.772607ZM2.30275 1.54527L2.1109 2.31788C2.1109 2.70419 1.91894 3.0905 1.91894 3.28365C1.91894 3.47681 1.72709 3.47677 1.72709 3.66993C1.5352 3.66993 1.53517 3.86308 1.34328 3.66993C1.15139 3.66993 1.15136 3.66997 0.959469 3.47682C0.959469 3.28367 0.767622 3.28364 0.767622 3.09049C0.767622 2.89733 0.767575 2.70418 0.959469 2.12471L1.15143 1.15894L2.30275 1.54527Z" transform="translate(36.5527 22.6953)" fill="white"/>
</svg>
