<svg width="44" height="45" viewBox="0 0 44 45" fill="none" xmlns="http://www.w3.org/2000/svg">
<path d="M2.87841 43.8461C1.34326 43.8461 0 42.4941 0 40.9488V2.89732C0 1.35208 1.34326 0 2.87841 0H40.6815C42.2167 0 43.5599 1.35208 43.5599 2.89732V40.9488C43.5599 42.4941 42.2167 43.8461 40.6815 43.8461" transform="translate(0 0.314575)" fill="#B2B1B1"/>
<path d="M21.684 25.6896L18.9975 14.6798H13.2407V13.3277C15.5434 12.1688 17.2704 9.8509 17.2704 6.95358C17.2704 3.09049 14.2002 0 10.3623 0C6.52444 0 3.45407 3.09049 3.45407 6.95358C3.45407 10.0441 5.373 12.7482 8.25141 13.5208V14.6798H2.4946L0 25.8828H3.64603L5.75681 20.0881V28.2006H15.7353V19.3155L18.0381 25.8828" transform="translate(3.64648 11.9038)" fill="white"/>
<path d="M15.3515 0H0V2.70415H15.3515V0Z" transform="translate(23.2168 4.56384)" fill="white"/>
<path d="M15.3515 0H0V1.35211H15.3515V0Z" transform="translate(23.2168 7.46118)" fill="white"/>
<path d="M7.48379 0.193166C6.33243 2.89733 4.98919 8.49877 6.90813 11.0098C7.8676 10.044 9.21088 8.69197 10.1703 7.91935C9.21088 10.2372 10.3622 14.1003 12.6649 17.1908C8.82707 17.3839 4.22166 16.9976 0 13.3277C1.53515 13.3277 2.87843 13.1345 4.22169 12.7482C1.72707 9.07828 -1.15136 4.05625 0.959469 0" transform="translate(27.0547 9.58582)" fill="white"/>
</svg>
