<svg width="45" height="45" viewBox="0 0 45 45" fill="none" xmlns="http://www.w3.org/2000/svg">
<path d="M2.87841 43.8461C1.34326 43.8461 0 42.4941 0 40.9488V2.89732C0 1.35208 1.34326 0 2.87841 0H40.6815C42.2167 0 43.5599 1.35208 43.5599 2.89732V40.9488C43.5599 42.4941 42.2167 43.8461 40.6815 43.8461" transform="translate(0.519531 0.314575)" fill="#B2B1B1"/>
<path d="M33.3895 10.0441C35.1166 8.88514 36.8436 7.53308 36.8436 7.53308L34.349 3.47682C28.2084 4.44259 22.2596 1.73839 18.4218 0C21.1083 5.60149 28.5922 8.30568 33.3895 10.0441ZM18.4218 0C14.392 1.73839 8.6352 4.44259 2.4946 3.47682L0 7.53308C0 7.53308 1.91891 8.88514 3.45407 10.0441C8.44331 8.30568 15.9271 5.60149 18.4218 0ZM18.8056 5.98781H18.4218V16.9977H18.8056V5.98781ZM16.1191 5.79464C15.3515 7.53303 13.2406 11.203 9.78654 14.1003L10.1704 14.6798C10.1704 14.6798 15.5434 9.65775 16.6947 5.98781L16.1191 5.79464ZM19.9569 5.98781C21.1083 9.65775 26.4813 14.6798 26.4813 14.6798L26.8651 14.1003C23.6029 11.203 21.3002 7.53303 20.5326 5.79464L19.9569 5.98781Z" transform="translate(3.78125 13.8354)" fill="white"/>
<path d="M0.383811 0.579441L3.26222 1.15894L3.64597 0L5.75681 2.51099L2.6865 4.05626L2.87841 3.09049L0 2.31782L0.383811 0.579441Z" transform="translate(33.1426 18.278)" fill="#B2B1B1"/>
<path d="M0.959469 0L0.575658 1.93155L0 1.73844L0.383811 0" transform="translate(32.1797 18.6644)" fill="#B2B1B1"/>
<path d="M0.767564 0L0.383753 1.93155H0L0.383753 0" transform="translate(31.416 18.4709)" fill="#B2B1B1"/>
<path d="M0.383753 0H0.767564L0.383753 1.93155H0L0.383753 0Z" transform="translate(30.6445 18.278)" fill="#B2B1B1"/>
<path d="M5.56491 0.386274L2.4946 1.15894L2.30269 0L0 2.51099L3.07031 4.05626L2.87841 3.09049L5.94872 2.31782L5.56491 0.579441" transform="translate(5.50781 18.278)" fill="#B2B1B1"/>
<path d="M0 0L0.383752 1.93155L0.959469 1.73844L0.575658 0" transform="translate(11.2656 18.6644)" fill="#B2B1B1"/>
<path d="M0 0L0.383753 1.93155H0.767564L0.383753 0" transform="translate(12.2246 18.4709)" fill="#B2B1B1"/>
<path d="M0.383811 0H0L0.383811 1.93155H0.959469L0.383811 0Z" transform="translate(12.9922 18.278)" fill="#B2B1B1"/>
</svg>
