<svg width="44" height="45" viewBox="0 0 44 45" fill="none" xmlns="http://www.w3.org/2000/svg">
<path d="M2.87841 43.0869C1.34326 43.0869 0 41.7582 0 40.2397V2.84715C0 1.32867 1.34326 0 2.87841 0H40.6815C42.2167 0 43.5599 1.32867 43.5599 2.84715V40.2397C43.5599 41.7582 42.2167 43.0869 40.6815 43.0869" transform="translate(0.0605469 1.08093)" fill="#B2B1B1"/>
<path d="M7.48385 4.3656L8.44332 0H10.9379L9.01897 7.02293H6.33253L5.37306 3.03691L4.60544 7.02293H1.91894L0 0H2.49465L3.45412 4.3656L4.41359 0H6.52438" transform="translate(6.58203 24.6172)" fill="white"/>
<path d="M2.68656 0H0V7.02293H2.68656V0Z" transform="translate(18.4824 24.6172)" fill="white"/>
<path d="M0 7.02293V0H3.45407C5.94868 0 7.67575 1.13884 7.67575 3.41655C7.67575 6.07389 5.94868 7.02293 3.45407 7.02293H0ZM2.68644 5.50447H3.26222C4.41358 5.50447 5.18116 4.93504 5.18116 3.60638C5.18116 2.0879 4.60547 1.70828 3.26222 1.70828H2.68644V5.50447Z" transform="translate(22.5098 24.6172)" fill="white"/>
<path d="M0 7.02293V0H6.52444V1.70828H2.68656V2.65733H5.94878V4.3656H2.68656V5.50447H6.71628V7.02293" transform="translate(31.3418 24.6172)" fill="white"/>
<path d="M0 7.02293L2.49465 0H4.79735L7.292 7.02293H5.18116L4.98925 6.07388H2.68656L2.49465 7.02293H0ZM3.64603 2.08792L2.87841 4.55542H4.41359L3.64603 2.08792Z" transform="translate(3.51562 33.9178)" fill="white"/>
<path d="M4.79729 3.7962V2.27768V0H6.90819V7.02293H4.79729L2.30269 3.22673V4.74525V7.02293H0V0H2.30269" transform="translate(11.7656 33.9178)" fill="white"/>
<path d="M7.09998 7.21275H5.56485V6.45352C5.18106 6.83314 4.60543 7.40257 3.45407 7.40257C1.53513 7.40257 0 6.26372 0 3.7962C0 1.51848 1.34326 0 3.83788 0C5.56492 0 6.90815 0.949038 7.29194 2.65733H4.98919C4.7973 2.0879 4.41356 1.70828 3.83788 1.70828C2.87841 1.70828 2.4946 2.46753 2.4946 3.7962C2.4946 4.74525 2.87836 5.69429 4.02972 5.69429C4.41351 5.69429 5.18104 5.31469 5.18104 4.93507H4.22157V3.41655H7.48379" transform="translate(20.0195 33.7281)" fill="white"/>
<path d="M0 7.02293V0H2.30275V5.50447H5.56497V7.02293" transform="translate(28.459 33.9178)" fill="white"/>
<path d="M0 7.02293V0H5.75681V1.70828H2.30275V2.65733H5.18116V4.3656H2.30275V5.50447H5.94878V7.02293" transform="translate(35.1797 33.9178)" fill="white"/>
<path d="M35.3085 16.7033V0C29.1679 1.51848 23.603 2.27775 17.6543 2.46756C11.7055 2.46756 6.1406 1.70829 0 0V16.7033C6.1406 14.995 11.7055 14.046 17.6543 14.046C23.603 14.046 29.1679 14.995 35.3085 16.7033Z" transform="translate(4.47852 4.8772)" fill="#B2B1B1"/>
<path d="M0 0V26.953" transform="translate(37.4785 0.321533)" stroke="white" stroke-width="1.59913"/>
<path d="M0 0V26.953" transform="translate(32.3008 0.321533)" stroke="white" stroke-width="1.59913"/>
<path d="M0 0V26.953" transform="translate(27.3086 0.321533)" stroke="white" stroke-width="1.59913"/>
<path d="M0 0V26.953" transform="translate(22.127 0.321533)" stroke="white" stroke-width="1.59913"/>
<path d="M0 0V26.953" transform="translate(17.1367 0.321533)" stroke="white" stroke-width="1.59913"/>
<path d="M0 0V26.953" transform="translate(11.9551 0.321533)" stroke="white" stroke-width="1.59913"/>
<path d="M0 0V26.953" transform="translate(6.77734 0.321533)" stroke="white" stroke-width="1.59913"/>
</svg>
