<svg width="45" height="45" viewBox="0 0 45 45" fill="none" xmlns="http://www.w3.org/2000/svg">
<path d="M2.69839 41.712C1.15645 41.712 0 40.548 0 38.9959V2.71612C0 1.16404 1.15645 0 2.69839 0H38.7413C40.2833 0 41.4397 1.16404 41.4397 2.71612V38.9959C41.4397 40.548 40.2833 41.712 38.7413 41.712" transform="translate(1.75586 1.29163)" fill="white"/>
<path d="M0 1.94009L3.27665 1.16407L2.89114 0L6.36049 1.16407L4.04761 4.26823L3.85486 3.29818L0.578205 4.07421" transform="translate(29.8926 16.0355)" fill="#B2B1B1"/>
<path d="M0.77096 0L1.34922 2.13412H0.578205L0 0.194021" transform="translate(28.9316 18.1688)" fill="#B2B1B1"/>
<path d="M0.578205 0L1.15647 2.13406L0.578205 2.32808L0 0.193962" transform="translate(28.1602 18.364)" fill="#B2B1B1"/>
<path d="M0 0H0.385451L0.963715 1.94009L0.578205 2.13412" transform="translate(27.1953 18.7526)" fill="#B2B1B1"/>
<path d="M0.385509 0.582005L3.66216 1.16401L3.85486 0L6.55331 2.5221L3.0839 4.46219L3.27665 3.29812L0 2.71612" transform="translate(27.584 25.1543)" fill="#B2B1B1"/>
<path d="M24.0929 39.5779C26.213 39.1899 28.7187 38.6079 28.7187 38.6079L27.755 33.5637C21.2018 31.8176 16.3832 26.5793 13.1066 23.0871C13.492 29.6834 19.8525 35.6977 24.0929 39.5779ZM31.6099 31.0415C33.3446 29.6834 35.4648 28.1314 35.4648 28.1314L32.3809 23.8632C25.6348 25.2213 19.0816 22.5051 14.6485 20.759C17.7324 26.5793 26.0203 29.2954 31.6099 31.0415ZM35.4648 20.9531C36.4285 19.013 37.5849 16.6848 37.5849 16.6848L33.1518 14.1627C27.5623 18.2369 20.6235 18.6249 15.8049 18.8189C21.009 22.8931 29.6825 21.7291 35.4648 20.9531ZM2.89114 43.8461C1.3492 43.8461 0 42.4881 0 40.936V2.91014C0 1.35807 1.3492 0 2.89114 0H40.6688C42.2107 0 43.5599 1.35807 43.5599 2.91014V40.936C43.5599 42.4881 42.2107 43.8461 40.6688 43.8461H2.89114Z" transform="translate(0.599609 0.321533)" fill="#B2B1B1"/>
<path d="M1.15647 0L3.85486 1.94009L4.62582 0.970047L5.78229 4.46225L2.12018 4.65627L2.69839 3.68623L0 1.74613" transform="translate(21.9922 33.1082)" fill="#B2B1B1"/>
<path d="M3.85486 16.1028L7.13145 11.8345V0H0V16.1028" transform="translate(8.11133 4.78357)" fill="white"/>
<path d="M1.15641 0.194021L0.77096 2.32814L0 2.13412L0.385451 0" transform="translate(26.4238 25.543)" fill="#B2B1B1"/>
<path d="M0.963715 0.194021L0.578264 2.32814L0 2.13412L0.385509 0" transform="translate(25.6562 25.3478)" fill="#B2B1B1"/>
<path d="M0.385509 0L0.771019 0.193962L0.385509 2.32808L0 2.13406" transform="translate(24.6934 25.1543)" fill="#B2B1B1"/>
<path d="M1.92743 0.388043L0.578264 2.13412L0 1.74607L1.15647 0" transform="translate(21.0293 32.5265)" fill="#B2B1B1"/>
<path d="M1.73467 0.387983L0.578205 2.13406L0 1.74607L1.34922 0" transform="translate(20.2559 31.9448)" fill="#B2B1B1"/>
<path d="M1.34917 0L1.54192 0.194021L0.385451 1.94009L0 1.74607" transform="translate(19.4883 31.3632)" fill="#B2B1B1"/>
</svg>
