<svg width="45" height="45" viewBox="0 0 45 45" fill="none" xmlns="http://www.w3.org/2000/svg">
<path d="M2.87841 43.8461C1.34326 43.8461 0 42.4941 0 40.9488V2.89732C0 1.35208 1.34326 0 2.87841 0H40.6815C42.2167 0 43.5599 1.35208 43.5599 2.89732V40.9488C43.5599 42.4941 42.2167 43.8461 40.6815 43.8461" transform="translate(0.541016 0.314575)" fill="#B2B1B1"/>
<path d="M19.957 9.07824C22.4516 7.14669 25.33 4.44253 25.33 4.44253L19.7651 0C15.1596 2.1247 12.665 2.8973 3.83788 3.47676C7.29197 6.56724 12.665 8.49877 19.957 9.07824ZM14.2002 28.0074C19.957 28.0074 25.9057 28.0074 25.9057 28.0074L22.6435 16.9976C12.4731 17.5771 3.2622 11.3961 0 7.72619C0 14.8729 5.75686 23.3717 14.2002 28.0074Z" transform="translate(13.9707 14.4146)" fill="white"/>
<path d="M1.34328 0L4.22169 1.93155L4.98925 0.965774L6.33247 4.6357L2.30275 4.82887L2.87841 3.86309L0 1.73838L1.34328 0Z" transform="translate(30.666 35.856)" fill="#B2B1B1"/>
<path d="M4.22169 16.6113L7.67575 12.3619V0H0V16.6113" transform="translate(7.44531 4.56445)" fill="white"/>
<path d="M1.91894 0.386274L0.767622 2.31782L0 1.73838L1.34328 0" transform="translate(29.3223 34.8901)" fill="#B2B1B1"/>
<path d="M1.91894 0.386333L0.575717 2.12471L0 1.93155L1.34328 0" transform="translate(28.5547 34.311)" fill="#B2B1B1"/>
<path d="M1.34328 0L1.72703 0.193167L0.383811 2.12471L0 1.93155L1.34328 0Z" transform="translate(27.7871 33.7301)" fill="#B2B1B1"/>
<path d="M0 1.54527H0.191906C1.91895 1.54527 2.49465 0.579464 2.49465 0H4.02978V9.27146H2.30275V2.89732H0.191906" transform="translate(35.0801 5.14355)" fill="white"/>
<path d="M0.191906 3.28365C0.191906 0.193178 2.30275 0 3.26222 0C4.98926 0 6.33253 0.965774 6.33253 2.89732C6.33253 4.44256 5.37306 5.21519 4.41359 5.98781C3.26223 6.76043 2.49464 7.33988 2.30275 7.72619H6.33253V9.27146H0C0 8.11253 0.191906 7.14677 2.11084 5.60153C3.83789 4.44261 4.41359 3.86309 4.41359 2.89732C4.41359 2.31786 4.02978 1.54527 3.07031 1.54527C1.72706 1.54527 1.72709 2.51103 1.72709 3.28365" transform="translate(10.1328 33.1508)" fill="white"/>
<path d="M0 1.35211H3.45407V0L6.71628 2.12471L3.45407 4.63576V3.47682H0V1.35211Z" transform="translate(30.0898 16.7328)" fill="#B2B1B1"/>
<path d="M0.767564 0V2.12471H0V0" transform="translate(29.1309 18.0854)" fill="#B2B1B1"/>
<path d="M0.575658 0V2.12471L0 2.31788V0" transform="translate(28.1719 18.0854)" fill="#B2B1B1"/>
<path d="M0 0H0.383753V2.12471L0 2.31788V0Z" transform="translate(27.209 18.0854)" fill="#B2B1B1"/>
</svg>
