<svg width="44" height="45" viewBox="0 0 44 45" fill="none" xmlns="http://www.w3.org/2000/svg">
<path d="M2.87841 43.8461C1.34326 43.8461 0 42.4941 0 40.9488V2.89732C0 1.35208 1.34326 0 2.87841 0H40.6815C42.2167 0 43.5599 1.35208 43.5599 2.89732V40.9488C43.5599 42.4941 42.2167 43.8461 40.6815 43.8461" transform="translate(0.439453 0.314575)" fill="#B2B1B1"/>
<path d="M0 6.56727C7.67575 -1.93154 19.3813 -2.70417 27.8246 7.33987" transform="translate(8.30664 23.8781)" stroke="white" stroke-width="0.937624"/>
<path d="M0 0.386333C5.94871 6.37413 15.9272 6.56726 22.6434 0" transform="translate(10.9941 30.446)" stroke="white" stroke-width="0.468812"/>
<path d="M0.191847 0.99112C-4.68519e-05 1.57058 0 1.95693 0 2.53639C0 5.82002 2.68651 8.33103 5.75681 8.33103C8.82712 8.33103 11.5136 5.62687 11.5136 2.53639C11.5136 1.95693 11.5136 1.76375 11.3217 1.18429C7.67568 -0.360951 3.64594 -0.360963 0.191847 0.99112Z" transform="translate(16.5547 25.2061)" stroke="white" stroke-width="0.468812"/>
<path d="M4.6055 2.31788C4.6055 3.66996 3.64601 4.6357 2.30275 4.6357C0.959493 4.6357 0 3.66996 0 2.31788C0 0.965797 0.959493 0 2.30275 0C3.64601 0 4.6055 0.965797 4.6055 2.31788Z" transform="translate(20.0098 26.5828)" fill="white"/>
<path d="M4.6055 2.31788C4.6055 3.66996 3.64601 4.6357 2.30275 4.6357C0.959493 4.6357 0 3.66996 0 2.31788C0 0.965797 0.959493 0 2.30275 0C3.64601 0 4.6055 0.965797 4.6055 2.31788Z" transform="translate(20.0098 26.5828)" stroke="white" stroke-width="0.468812"/>
<path d="M1.15132 0L0 3.09049L4.41353 0.579441" transform="translate(22.3125 25.8097)" fill="#B2B1B1"/>
<path d="M2.30263 5.60147C4.41346 5.60147 4.41353 4.05624 4.41353 3.66993C4.41353 3.28362 4.41346 1.73838 2.30263 1.73838H2.11079V5.60147H2.30263ZM0 0H2.68644C5.75674 0 6.52432 2.12469 6.52432 3.66993C6.52432 5.60147 5.37296 7.33991 2.68644 7.33991H0" transform="translate(3.50977 12.8698)" fill="white"/>
<path d="M0 0H4.41353V1.73838H2.1109V2.89732H4.22169V4.44259H2.1109V5.60147H4.41353V7.33991H0" transform="translate(10.9941 12.8698)" fill="white"/>
<path d="M4.22169 2.12471C3.8379 1.7384 3.45409 1.54527 2.87841 1.54527C2.30273 1.54527 2.11079 1.93156 2.11079 2.12471C2.11079 2.51102 2.68647 2.70415 3.07025 2.70415C4.22162 2.89731 5.373 3.47681 5.373 5.2152C5.373 6.76044 4.4136 7.72619 2.68656 7.72619C1.72709 7.72619 0.959469 7.33987 0 6.56725L0.959469 5.02203C1.53515 5.6015 2.11083 5.98781 2.87841 5.98781C3.26219 5.98781 3.64603 5.79468 3.64603 5.40837C3.64603 4.63575 3.07032 4.63575 2.30275 4.44259C1.72707 4.24944 0.575658 3.86312 0.575658 2.31788C0.575658 1.15895 1.34321 0 3.07025 0C4.22162 0 4.98922 0.579452 5.373 0.772607" transform="translate(16.1758 12.8698)" fill="white"/>
<path d="M2.1109 0H0V7.33991H2.1109V0Z" transform="translate(22.5078 12.8698)" fill="white"/>
<path d="M7.67575 3.47676C7.86765 5.21515 7.29192 7.9193 4.02972 7.9193C1.727 7.9193 0 6.56721 0 4.0562C0 1.54519 1.53515 0 3.83788 0C6.1406 0 6.90815 1.35207 7.29194 1.73838L5.373 2.51099C5.18111 1.93152 4.60545 1.54521 3.83788 1.54521C2.87841 1.54521 1.91894 2.31784 1.91894 3.66993C1.91894 5.21517 2.87841 5.98775 3.83788 5.98775C4.60545 5.98775 5.37296 5.40833 5.56485 4.82887H3.64591V3.28359" transform="translate(25.5762 12.483)" fill="white"/>
<path d="M0 0H2.11079L4.98919 4.44259V0H6.90813V7.33991H4.79735L2.11079 2.89732V7.33991H0" transform="translate(34.2109 12.8698)" fill="white"/>
</svg>
