<svg width="45" height="45" viewBox="0 0 45 45" fill="none" xmlns="http://www.w3.org/2000/svg">
<path d="M2.87841 43.8461C1.34326 43.8461 0 42.4941 0 40.9488V2.89732C0 1.35208 1.34326 0 2.87841 0H40.6815C42.2167 0 43.5599 1.35208 43.5599 2.89732V40.9488C43.5599 42.4941 42.2167 43.8461 40.6815 43.8461" transform="translate(0.917969 0.314575)" fill="#B2B1B1"/>
<path d="M28.0165 7.91935L29.5516 0.193166V0H29.3598H0.191906H0V0.193166L1.53519 7.91935L1.72703 8.11252H27.8246L28.0165 7.91935ZM1.91894 7.91935L0.383811 0.193166V0.386333H0.191906H29.5516H29.3598V0.193166L27.8246 7.91935L28.0165 7.72619H1.91894V7.91935Z" transform="translate(7.82617 3.79089)" fill="white"/>
<path d="M22.6434 4.63576L23.4111 0.193167V0H23.2192H0.191906H0V0.193167L0.767564 4.63576L0.959469 4.82887H22.6434V4.63576ZM1.15137 4.44259L0.383811 0V0.193167H0.191906H23.2192H23.0273V0L22.2597 4.44259L22.4516 4.24943H0.959469L1.15137 4.44259Z" transform="translate(10.8965 5.72278)" fill="white"/>
<path d="M21.8759 0H0V0.386333H21.8759V0Z" transform="translate(11.666 9.00647)" fill="white"/>
<path d="M22.2597 0H0V0.386333H22.2597V0Z" transform="translate(11.4727 7.84851)" fill="white"/>
<path d="M22.6434 0H0V0.386333H22.6434V0Z" transform="translate(11.2812 6.68823)" fill="white"/>
<path d="M13.8164 0C13.8164 0.579464 13.8164 0.965809 13.8164 1.54527C13.8164 7.14676 13.8164 17.5771 6.71628 24.5307L4.60544 22.0196L0 31.0979L14.5839 33.0295L12.0893 30.1321C21.684 21.0539 21.684 7.91938 21.8759 1.54527C21.8759 0.965809 21.8759 0.386309 21.8759 0" transform="translate(4.94922 5.91687)" fill="#B2B1B1"/>
<path d="M23.2192 1.54527C23.2192 0.965809 23.2192 0.386309 23.2192 0H22.0678C22.0678 0.386309 22.0678 0.965762 22.0678 1.73838C22.0678 7.91933 22.0678 21.0539 12.4731 29.939L12.0893 30.3253L12.4731 30.7116L14.0083 32.2569L1.91894 30.7116L5.75681 23.1786L7.292 24.9169L7.67575 25.3033L8.05956 24.9169C15.3515 17.7702 15.3515 7.33992 15.3515 1.54527V0H14.2002V1.54527C14.2002 6.95361 14.2001 16.8045 7.67575 23.5649L5.94872 21.6334L5.37306 21.0539L4.98925 21.8265L0 31.6774L0.767622 31.8705L16.8867 33.9952L15.7353 32.8363L13.6245 30.5185C23.2192 20.8607 23.2192 7.91938 23.2192 1.54527Z" transform="translate(3.79688 5.91687)" fill="white"/>
<path d="M8.05956 0C8.05956 0.579464 8.05956 0.965809 8.05956 1.54527C8.05956 7.14676 8.05953 17.5771 15.1596 24.5307L17.2704 22.0196L21.8759 31.0979L7.292 33.0295L9.7866 30.1321C0.191906 21.0539 0.191894 7.91938 0 1.54527C0 0.965809 0 0.386309 0 0" transform="translate(18.3809 5.91687)" fill="#B2B1B1"/>
<path d="M22.8354 30.9048L18.2299 21.8265L17.8462 21.0539L17.2704 21.6334L15.5434 23.5649C9.01902 16.8045 9.01903 6.95361 9.01903 1.54527V0H7.86766V1.54527C7.86766 7.14676 7.86769 17.7702 15.1597 24.9169L15.5434 25.3033L15.9272 24.9169L17.4623 23.1786L21.3002 30.7116L9.21094 32.2569L10.7461 30.7116L11.1299 30.3253L10.7461 29.939C1.34327 21.0539 1.34327 7.91933 1.15137 1.73838C1.15137 1.15892 1.15137 0.579464 1.15137 0H0C0 0.386309 0 0.965809 0 1.54527C0 7.91938 4.66661e-05 20.8607 9.40284 30.3253L7.292 32.6431L6.14063 33.8021L7.67575 33.6089L22.2597 31.6774L23.0273 31.4843" transform="translate(18.1895 5.91687)" fill="white"/>
<path d="M23.0273 0H0V0.386333H23.0273V0Z" transform="translate(11.0859 5.72278)" fill="white"/>
</svg>
