<svg width="45" height="44" viewBox="0 0 45 44" fill="none" xmlns="http://www.w3.org/2000/svg">
<path d="M2.87841 43.8461C1.34326 43.8461 0 42.4941 0 40.9488V2.89732C0 1.35208 1.34326 0 2.87841 0H40.6815C42.2167 0 43.5599 1.35208 43.5599 2.89732V40.9488C43.5599 42.4941 42.2167 43.8461 40.6815 43.8461" transform="translate(0.599609)" fill="#B3B1B2"/>
<path d="M11.682 2.98951V5.58039H13.0679V2.98951L15.0479 0.199252H13.2659L12.2759 1.59438L11.2859 0.199252H9.70197L11.682 2.98951ZM6.73198 1.19576C7.32597 1.19576 7.91999 1.19579 7.91999 1.79369C7.91999 2.3916 7.32599 2.39157 6.92999 2.39157H6.73198V1.19576ZM8.11794 3.38807C8.90994 3.18877 9.30595 2.5909 9.30595 1.79369C9.30595 0.59789 8.51396 0.199252 7.52396 0.199252H5.34595V5.58039H6.73198V3.58739L8.11794 5.58039H9.89998L8.11794 3.38807ZM1.38596 1.39507H1.78198C2.77198 1.39507 3.36596 1.99301 3.36596 2.98951C3.36596 3.98601 2.57398 4.58389 1.78198 4.58389H1.38596V1.39507ZM0 5.58039H1.98C3.56399 5.58039 4.75198 4.3846 4.75198 2.7902C4.75198 1.19579 3.56399 0 1.98 0H0V5.58039Z" transform="translate(24.3594 35.874)" fill="white"/>
<path d="M4.02781 14.6798C-0.00196821 18.736 -3.07231 27.0417 5.37103 29.3595C13.8144 31.8706 16.309 22.7923 15.1576 18.9292C14.1982 15.0661 13.6225 5.40833 14.0063 0C12.0873 4.82887 8.24948 10.4304 4.02781 14.6798Z" transform="translate(4.24609 8.88501)" fill="white"/>
<path d="M4.02781 14.6798C-0.00196821 18.736 -3.07231 27.0417 5.37103 29.3595C13.8144 31.8705 16.1171 22.7922 15.1576 18.9291C14.1982 15.066 13.6225 5.40833 14.0063 0C11.8954 4.82887 8.05758 10.4304 4.02781 14.6798Z" transform="translate(21.5176 3.28357)" fill="white"/>
<path d="M2.30275 0C0.575706 0.772619 1.72705 0.193166 0 1.15894L0.191906 1.54521C1.91895 0.772595 0.767565 1.15889 2.68651 0.386274" transform="translate(15.5664 21.8264)" fill="#B3B1B2"/>
<path d="M3.45413 0C1.34329 0.579464 2.11083 0.772595 0 1.54521L0.191906 1.93155C2.11085 1.15893 1.53514 0.965738 3.64598 0.386274" transform="translate(14.6074 23.951)" fill="#B3B1B2"/>
<path d="M4.79735 0C2.68652 0.579464 1.91894 1.35209 0 2.12471L0.191906 2.51105C2.11085 1.73843 3.07032 0.965797 4.98926 0.386333" transform="translate(13.457 26.0759)" fill="#B3B1B2"/>
<path d="M5.75682 0C3.64599 0.579464 1.91894 1.93159 0 2.70421L0.191906 3.09049C2.11085 2.31787 4.02979 1.15895 5.94873 0.386333" transform="translate(12.6855 28.0076)" fill="#B3B1B2"/>
<path d="M6.52439 0C4.41355 0.579464 1.91894 2.1247 0 2.89732L0.191906 3.28359C2.11085 2.51098 4.60546 1.15889 6.71629 0.386274" transform="translate(12.1133 29.746)" fill="#B3B1B2"/>
<path d="M6.71629 0C4.60546 0.579464 1.91894 1.93155 0 2.89732L0.191906 3.28365C2.11085 2.51103 4.98926 1.15896 6.9082 0.5795" transform="translate(11.7285 32.0637)" fill="#B3B1B2"/>
<path d="M5.18116 0C3.07033 0.579464 1.91894 1.35209 0 2.12471L0.191906 2.51099C2.11085 1.73837 3.45413 1.15895 5.37307 0.386333" transform="translate(12.4961 34.1884)" fill="#B3B1B2"/>
<path d="M2.4946 0C0.767553 0.772619 1.91894 0.193167 0 1.15894L0.191847 1.54527C1.91889 0.772654 0.767565 1.15895 2.68651 0.386333" transform="translate(32.4551 16.4182)" fill="#B3B1B2"/>
<path d="M3.45413 0C1.34329 0.579464 2.11083 0.772654 0 1.54527L0.191906 1.93155C2.11085 1.15893 1.5352 1.15895 3.64603 0.386333" transform="translate(31.6875 18.3496)" fill="#B3B1B2"/>
<path d="M4.79735 0C2.68652 0.579464 1.91894 1.35209 0 2.12471L0.191847 2.51105C2.11079 1.73843 3.07026 0.965797 4.9892 0.386333" transform="translate(30.5352 20.4745)" fill="#B3B1B2"/>
<path d="M5.75682 0C3.64599 0.579464 1.91894 1.93154 0 2.70415L0.191906 3.09049C2.11085 2.31787 4.02979 1.15895 5.94873 0.386333" transform="translate(29.7676 22.4059)" fill="#B3B1B2"/>
<path d="M6.52439 0C4.41355 0.579464 1.91894 2.1247 0 2.89732L0.191906 3.28365C2.11085 2.51103 4.60546 1.15895 6.71629 0.386333" transform="translate(29.1934 24.3375)" fill="#B3B1B2"/>
<path d="M6.71629 0C4.60546 0.579464 1.91894 1.93154 0 2.70415L0.191906 3.09049C2.11085 2.31787 4.98926 0.965738 6.9082 0.386274" transform="translate(28.8086 26.6556)" fill="#B3B1B2"/>
<path d="M5.1811 0C3.07027 0.579464 1.91894 1.35204 0 2.12465L0.191847 2.51099C2.11079 1.73837 3.45407 1.15889 5.37301 0.386274" transform="translate(29.5762 28.7803)" fill="#B3B1B2"/>
<path d="M2.49466 0C0.383823 0.579464 2.11083 0.193155 0 0.965774L0.191906 1.35211C2.11085 0.579488 0.575729 1.15895 2.68656 0.386333" transform="translate(30.7285 31.0979)" fill="#B3B1B2"/>
</svg>
