<svg width="45" height="45" viewBox="0 0 45 45" fill="none" xmlns="http://www.w3.org/2000/svg">
<path d="M2.93004 43.8461C1.36735 43.8461 0 42.4698 0 40.8969V2.94929C0 1.37634 1.36735 0 2.93004 0H40.6299C42.1926 0 43.5599 1.37634 43.5599 2.94929V40.8969C43.5599 42.4698 42.1926 43.8461 40.6299 43.8461" transform="translate(0.380859 0.314575)" fill="#B2B1B1"/>
<path d="M1.17203 23.0045C0.390683 21.8248 0 20.6451 0 19.0721C0 15.1397 3.32067 11.7972 7.22739 11.7972C8.59474 11.7972 9.76679 12.1904 10.7435 12.7803C11.7201 10.8141 13.4782 9.43774 15.6269 9.0445C15.6269 8.65126 15.6269 8.25802 15.6269 8.0614C15.6269 4.12902 18.9475 0.786465 22.8543 0.786465C24.4169 0.786465 25.9797 1.37636 27.347 2.35946C28.7144 0.983121 30.4723 0 32.621 0C33.4024 0 34.1838 0.196643 34.9651 0.393263" transform="translate(8.58203 20.9597)" stroke="white" stroke-width="2.03417" stroke-linecap="round"/>
<path d="M2.73475 5.50538C4.29744 5.50538 5.46944 4.32561 5.46944 2.75266C5.46944 1.1797 4.29744 0 2.73475 0C1.17206 0 0 1.1797 0 2.75266C0 4.32561 1.17206 5.50538 2.73475 5.50538Z" transform="translate(3.11523 26.8583)" stroke="white" stroke-width="2.03417"/>
<path d="M2.73469 5.50532C4.29738 5.50532 5.46938 4.32561 5.46938 2.75266C5.46938 1.1797 4.29738 0 2.73469 0C1.172 0 0 1.1797 0 2.75266C0 4.32561 1.36734 5.50532 2.73469 5.50532Z" transform="translate(14.6387 24.4983)" stroke="white" stroke-width="2.03417"/>
<path d="M2.73469 5.50538C4.29738 5.50538 5.46938 4.32561 5.46938 2.75266C5.46938 1.1797 4.29738 0 2.73469 0C1.172 0 0 1.1797 0 2.75266C0 4.12899 1.172 5.50538 2.73469 5.50538Z" transform="translate(17.373 15.0612)" stroke="white" stroke-width="2.03417"/>
<path d="M3.90672 7.86477C6.05541 7.86477 7.81343 6.0952 7.81343 3.93239C7.81343 1.76957 6.05541 0 3.90672 0C1.75802 0 0 1.76957 0 3.93239C0 6.0952 1.75802 7.86477 3.90672 7.86477Z" transform="translate(4.28516 13.8802)" stroke="white" stroke-width="2.03417"/>
<path d="M0.195348 2.3594H23.6356H0.195348ZM0.195348 4.71885H23.6356H0.195348ZM0.195348 7.27488H23.6356H0.195348ZM23.6356 0H0V9.83097H23.6356V0Z" transform="translate(16.0078 4.83655)" stroke="white" stroke-width="1.51967"/>
</svg>
