<svg width="45" height="45" viewBox="0 0 45 45" fill="none" xmlns="http://www.w3.org/2000/svg">
<path d="M2.91685 43.8461C1.3612 43.8461 0 42.482 0 40.9231V2.92308C0 1.3641 1.3612 0 2.91685 0H40.6415C42.1972 0 43.5583 1.3641 43.5583 2.92308V40.9231C43.5583 42.482 42.1972 43.8461 40.6415 43.8461" transform="translate(0 1.15381)" fill="#B2B1B1"/>
<path d="M13.2231 0H0V14.6154H13.2231V0Z" transform="translate(2.33398 15.9637)" fill="#DADAD9"/>
<path d="M0 0V31.959" transform="translate(16.918 6.22058)" stroke="white" stroke-width="0.629718"/>
<path d="M0 0V31.5692" transform="translate(14.1973 8.36377)" stroke="white" stroke-width="0.629718"/>
<path d="M0 5.84615L7.77828 0" transform="translate(11.668 8.94861)" stroke="white" stroke-width="0.629718"/>
<path d="M0 5.65127L7.77828 0" transform="translate(11.668 13.6257)" stroke="white" stroke-width="0.629718"/>
<path d="M0 5.84615L7.77828 0" transform="translate(11.668 18.1074)" stroke="white" stroke-width="0.629718"/>
<path d="M0 5.84615L7.77828 0" transform="translate(11.668 22.5898)" stroke="white" stroke-width="0.629718"/>
<path d="M0 5.84615L7.77828 0" transform="translate(11.668 27.2667)" stroke="white" stroke-width="0.629718"/>
<path d="M0 5.84615L7.97275 0" transform="translate(11.668 31.7485)" stroke="white" stroke-width="0.629718"/>
<path d="M0 37.8051L7.77828 31.959V0L0 5.84615V37.8051Z" transform="translate(11.668 4.46667)" stroke="white" stroke-width="1.5733"/>
<path d="M0 6.04104H7.97275V0L15.3621 13.2513L7.97275 26.5026V20.6564H0" transform="translate(15.5566 9.92322)" fill="white"/>
<path d="M1.76764 1.80453C2.35101 1.02504 2.35102 0.245565 1.96211 0.0506929C1.57319 -0.144179 0.989787 0.245553 0.406416 0.830168C0.0175022 1.60965 -0.176907 2.38913 0.212007 2.584C0.600921 2.97375 1.37872 2.58401 1.76764 1.80453Z" transform="translate(6.79102 20.0059)" stroke="white" stroke-width="0.498609"/>
<path d="M0.72919 0.855931C0.923647 0.466187 0.923647 0.271327 0.72919 0.0764554C0.534733 -0.118416 0.3403 0.0764198 0.145843 0.466163C-0.0486142 0.855907 -0.0486142 1.05083 0.145843 1.2457C0.3403 1.2457 0.534733 1.0508 0.72919 0.855931Z" transform="translate(7.44141 20.7593)" fill="white"/>
<path d="M0.972285 0.194884L0 0" transform="translate(6.03125 21.8101)" stroke="white" stroke-width="0.349622"/>
<path d="M0.777816 0.389767L0 0" transform="translate(6.61523 20.4462)" stroke="white" stroke-width="0.349622"/>
<path d="M0.388878 0.779475L0 0" transform="translate(7.77734 19.4718)" stroke="white" stroke-width="0.349622"/>
<path d="M0 0L0.388878 0.779475" transform="translate(7.77734 22.5898)" stroke="white" stroke-width="0.349622"/>
<path d="M0 0L0.777816 0.389708" transform="translate(8.56055 21.8101)" stroke="white" stroke-width="0.349622"/>
<path d="M0 0L0.972285 0.194884" transform="translate(8.94531 20.8357)" stroke="white" stroke-width="0.349622"/>
<path d="M1.20439 1.68701C1.98221 1.88188 2.76009 1.88187 2.95455 1.49212C3.149 1.10238 2.56562 0.517741 1.78779 0.127998C1.00996 -0.0668739 0.232148 -0.0668619 0.0376909 0.322882C-0.156766 0.712625 0.426557 1.29726 1.20439 1.68701Z" transform="translate(3.07031 37.6619)" stroke="white" stroke-width="0.498609"/>
<path d="M0.583347 0.860191C0.972261 1.05506 1.16671 0.860239 1.36116 0.665367C1.36116 0.470495 1.16673 0.275588 0.777816 0.0807161C0.388902 -0.114156 0.194457 0.0807279 0 0.2756C0 0.470471 0.194433 0.860191 0.583347 0.860191Z" transform="translate(3.89062 37.9039)" fill="white"/>
<path d="M0 0.779535V0" transform="translate(3.69336 36.8154)" stroke="white" stroke-width="0.349622"/>
<path d="M0 0.779475L0.194469 0" transform="translate(4.85938 37.0101)" stroke="white" stroke-width="0.349622"/>
<path d="M0 0.584651L0.583347 0" transform="translate(5.63867 37.7899)" stroke="white" stroke-width="0.349622"/>
<path d="M0.583347 0L0 0.584651" transform="translate(2.72266 38.7643)" stroke="white" stroke-width="0.349622"/>
<path d="M0.194409 0L0 0.584591" transform="translate(4.08594 39.3486)" stroke="white" stroke-width="0.349622"/>
<path d="M0 0V0.779475" transform="translate(5.44336 39.3486)" stroke="white" stroke-width="0.349622"/>
<path d="M1.75016 2.48459C1.75016 2.87433 2.33348 3.26413 2.91685 3.26413C3.50023 3.26413 4.08361 2.6795 4.08361 2.09488C4.08361 1.70514 3.69472 1.1205 3.50026 0.730757C2.13906 -0.438473 0.583407 0.146166 0.583407 0.146166C0.194493 0.146166 0 0.341014 0 0.730757C0 1.1205 0.194493 1.31541 0.583407 1.31541C0.583407 1.31541 1.5557 1.12049 1.75016 2.48459Z" transform="translate(3.31055 15.818)" stroke="white" stroke-width="0.498609"/>
<path d="M0.388938 0.779535C0.583395 0.779535 0.777816 0.584639 0.777816 0.389767C0.777816 0.194896 0.583395 0 0.388938 0C0.194481 0 0 0.194896 0 0.389767C0 0.584639 0.194481 0.779535 0.388938 0.779535Z" transform="translate(4.47461 16.3538)" fill="white"/>
<path d="M0.388938 0.779475C0.583395 0.779475 0.777816 0.58458 0.777816 0.389708C0.777816 0.194836 0.583395 0 0.388938 0C0.194481 0 0 0.194836 0 0.389708C0 0.58458 0.194481 0.779475 0.388938 0.779475Z" transform="translate(5.44336 16.9384)" fill="white"/>
<path d="M0.388878 0.779475C0.583335 0.779475 0.777816 0.584639 0.777816 0.389767C0.777816 0.194896 0.583335 0 0.388878 0C0.194421 0 0 0.194896 0 0.389767C0 0.584639 0.194421 0.779475 0.388878 0.779475Z" transform="translate(6.03125 17.7179)" fill="white"/>
<path d="M2.91685 3.50767C3.11131 3.70254 3.69468 3.70255 3.88914 3.70255C4.27805 3.70255 4.66696 3.31282 4.66696 2.92308C4.66696 2.53333 4.27805 1.94873 3.88914 2.1436C2.52794 2.53334 2.72239 0.779475 2.72239 0.779475C2.72239 0.389732 2.33348 0 1.94457 0C1.55566 0 1.16675 0.389732 1.16675 0.779475C1.55567 2.92306 0.777816 2.72819 0.777816 2.72819C0.388902 2.72819 0 3.11794 0 3.70255C0 4.0923 0.388902 4.48203 0.777816 4.48203C1.16673 4.48203 1.55569 4.0923 1.55569 3.70255C1.75015 3.50768 1.55566 2.72818 2.91685 3.50767Z" transform="translate(3.49805 25.5127)" stroke="white" stroke-width="0.498609"/>
<path d="M0.388878 0.779475C0.583335 0.779475 0.777816 0.58458 0.777816 0.389708C0.777816 0.194836 0.583335 0 0.388878 0C0.194421 0 0 0.194836 0 0.389708C0 0.58458 0.194421 0.779475 0.388878 0.779475Z" transform="translate(5.05469 25.9025)" fill="white"/>
<path d="M0.388878 0.779535C0.583335 0.779535 0.777816 0.584639 0.777816 0.389767C0.777816 0.194896 0.583335 0 0.388878 0C0.194421 0 0 0.194896 0 0.389767C0 0.584639 0.194421 0.779535 0.388878 0.779535Z" transform="translate(7 28.0464)" fill="white"/>
<path d="M0.388878 0.779475C0.583335 0.779475 0.777816 0.58458 0.777816 0.389708C0.777816 0.194836 0.583335 0 0.388878 0C0.194421 0 0 0.194836 0 0.389708C0 0.58458 0.194421 0.779475 0.388878 0.779475Z" transform="translate(4.08594 28.6306)" fill="white"/>
<path d="M0 0.779475L0.388878 0" transform="translate(6.03125 24.9281)" stroke="white" stroke-width="0.349622"/>
<path d="M0 0.779475L0.388878 0" transform="translate(7.77734 26.682)" stroke="white" stroke-width="0.349622"/>
<path d="M0 0L0.777816 0.584591" transform="translate(4.08594 25.5127)" stroke="white" stroke-width="0.349622"/>
<path d="M0 0L0.194469 0.779475" transform="translate(3.69336 27.4613)" stroke="white" stroke-width="0.349622"/>
<path d="M0 0V0.779535" transform="translate(4.47461 29.995)" stroke="white" stroke-width="0.349622"/>
<path d="M0 0L0.388878 0.779535" transform="translate(7.97266 29.0206)" stroke="white" stroke-width="0.349622"/>
<path d="M0.583347 0L0 0.389708" transform="translate(2.91406 29.605)" stroke="white" stroke-width="0.349622"/>
<path d="M0.388938 0.779535C0.583395 0.779535 0.777816 0.584639 0.777816 0.389767C0.777816 0.194896 0.583395 0 0.388938 0C0.194481 0 0 0.194896 0 0.389767C0 0.584639 0.194481 0.779535 0.388938 0.779535Z" transform="translate(3.69336 20.2513)" fill="white"/>
<path d="M0.388938 0.779475C0.583395 0.779475 0.777816 0.584639 0.777816 0.389767C0.777816 0.194896 0.583395 0 0.388938 0C0.194481 0 0 0.194896 0 0.389767C0 0.584639 0.194481 0.779475 0.388938 0.779475Z" transform="translate(7.38867 41.1025)" fill="white"/>
<path d="M0.388938 0.779475C0.583395 0.779475 0.777816 0.58458 0.777816 0.389708C0.777816 0.194836 0.583395 0 0.388938 0C0.194481 0 0 0.194836 0 0.389708C0 0.58458 0.194481 0.779475 0.388938 0.779475Z" transform="translate(2.5293 23.7588)" fill="white"/>
<path d="M0.388878 0.779535C0.583335 0.779535 0.777816 0.584639 0.777816 0.389767C0.777816 0.194896 0.583335 0 0.388878 0C0.194421 0 0 0.194896 0 0.389767C0 0.584639 0.194421 0.779535 0.388878 0.779535Z" transform="translate(8.75 17.3284)" fill="white"/>
<path d="M0.388878 0.779475C0.583335 0.779475 0.777816 0.58458 0.777816 0.389708C0.777816 0.194836 0.583335 0 0.388878 0C0.194421 0 0 0.194836 0 0.389708C0 0.58458 0.194421 0.779475 0.388878 0.779475Z" transform="translate(8.75 13.2357)" fill="white"/>
<path d="M0.388878 0.779475C0.583335 0.779475 0.777816 0.584639 0.777816 0.389767C0.777816 0.194896 0.583335 0 0.388878 0C0.194421 0 0 0.194896 0 0.389767C0 0.584639 0.194421 0.779475 0.388878 0.779475Z" transform="translate(4.85938 11.8718)" fill="white"/>
<path d="M0.388878 0.779475C0.583335 0.779475 0.777816 0.584639 0.777816 0.389767C0.777816 0.194896 0.583335 0 0.388878 0C0.194421 0 0 0.194896 0 0.389767C0 0.584639 0.194421 0.779475 0.388878 0.779475Z" transform="translate(3.11328 32.3333)" fill="white"/>
<path d="M1.23967 1.05081C0.850756 0.855942 0.267373 1.24567 0.0729158 1.83029C-0.121541 2.4149 0.0729514 3.19437 0.656322 3.38924C1.04524 3.58411 1.62857 3.5841 2.01749 3.19436C3.57314 2.41487 3.76759 0.855931 3.76759 0.855931C3.96204 0.466187 3.76762 0.271327 3.37871 0.0764554C2.98979 -0.118416 2.79535 0.0764198 2.60089 0.466163C2.79535 0.466163 2.40641 1.44056 1.23967 1.05081Z" transform="translate(6.34961 31.6722)" stroke="white" stroke-width="0.498609"/>
<path d="M0 0.194824C0 0.389696 1.18658e-05 0.584603 0.194469 0.779475C0.388926 0.974347 0.583359 0.779463 0.777816 0.584591C0.777816 0.38972 0.777804 0.194872 0.583347 0C0.38889 0 0.194457 -4.7579e-05 0 0.194824Z" transform="translate(8.75 32.723)" fill="white"/>
<path d="M0 0.194884C0 0.389755 1.18658e-05 0.584603 0.194469 0.779475C0.388926 0.974347 0.583359 0.779463 0.777816 0.584591C0.777816 0.38972 0.777804 0.194872 0.583347 0C0.38889 0 0.194457 1.18911e-05 0 0.194884Z" transform="translate(7.77734 33.3076)" fill="white"/>
<path d="M0 0.194824C0 0.389696 1.18658e-05 0.584603 0.194469 0.779475C0.388926 0.779475 0.583359 0.779463 0.777816 0.584591C0.777816 0.38972 0.777804 0.194872 0.583347 0C0.38889 0 0.194457 -4.7579e-05 0 0.194824Z" transform="translate(6.80469 33.6974)" fill="white"/>
<path d="M0.388938 0.779535C0.583395 0.779535 0.777816 0.584639 0.777816 0.389767C0.777816 0.194896 0.583395 0 0.388938 0C0.194481 0 0 0.194896 0 0.389767C0 0.584639 0.194481 0.779535 0.388938 0.779535Z" transform="translate(8.56055 37.7899)" fill="white"/>
<path d="M0.583347 0C0.194433 0.779487 0 1.55895 0 2.53331C0 5.84613 2.72241 8.57434 6.02818 8.57434C7.00046 8.57434 7.77827 8.3795 8.5561 7.98975" transform="translate(35.002 1.34863)" stroke="white" stroke-width="1.04887" stroke-linecap="round"/>
<path d="M0 0C2.91685 0.389744 4.66696 0.584591 4.66696 0.584591" transform="translate(28.9727 2.51794)" stroke="white" stroke-width="1.04887" stroke-linecap="round"/>
<path d="M0 0.779475C2.91685 0.389732 6.41706 0 6.41706 0" transform="translate(27.0293 4.8562)" stroke="white" stroke-width="1.04887" stroke-linecap="round"/>
<path d="M0 1.75389C2.7224 0.779535 4.27808 0 4.27808 0" transform="translate(29.7539 6.60986)" stroke="white" stroke-width="1.04887" stroke-linecap="round"/>
<path d="M0 3.89744C2.33348 2.14359 5.63924 0 5.63924 0" transform="translate(29.3652 8.36401)" stroke="white" stroke-width="1.04887" stroke-linecap="round"/>
<path d="M0 3.50773C1.94457 1.36414 3.11132 0 3.11132 0" transform="translate(33.0566 9.5332)" stroke="white" stroke-width="1.04887" stroke-linecap="round"/>
<path d="M0 6.04104C1.3612 3.31283 3.11132 0 3.11132 0" transform="translate(34.6133 10.5074)" stroke="white" stroke-width="1.04887" stroke-linecap="round"/>
<path d="M0 4.48203C0.583371 1.55895 0.972285 0 0.972285 0" transform="translate(38.3105 11.2872)" stroke="white" stroke-width="1.04887" stroke-linecap="round"/>
<path d="M0 6.82051C0 3.89743 0 0 0 0" transform="translate(41.2246 11.4818)" stroke="white" stroke-width="1.04887" stroke-linecap="round"/>
<path d="M0.60496 2.55059C-0.172868 -0.372491 0.0216125 0.0172767 0.0216125 0.0172767" transform="translate(42.957 11.27)" stroke="white" stroke-width="1.04887" stroke-linecap="round"/>
</svg>
