<svg width="45" height="44" viewBox="0 0 45 44" fill="none" xmlns="http://www.w3.org/2000/svg">
<path d="M2.93004 43.8461C1.36735 43.8461 0 42.4698 0 40.8969V2.94929C0 1.37634 1.36735 0 2.93004 0H40.6299C42.1926 0 43.5599 1.37634 43.5599 2.94929V40.8969C43.5599 42.4698 42.1926 43.8461 40.6299 43.8461" transform="translate(0.519531 0.153809)" fill="#B2B1B1"/>
<path d="M31.8398 29.4929L0 24.5774L19.143 0H33.4025L31.8398 29.4929Z" transform="translate(4.82227 3.69312)" stroke="white" stroke-width="0.522447"/>
<path d="M25.589 0L15.4315 26.9369L0 24.5774L11.9155 9.24114L32.8165 10.8141" transform="translate(4.82227 3.69312)" stroke="white" stroke-width="0.522447"/>
<path d="M0 0H2.5394C4.29743 0 4.68805 1.17972 4.68805 1.9662C4.68805 2.75267 4.10209 4.12902 2.5394 4.12902H1.75801V6.09522H0V0ZM1.75801 2.75266H2.14871C2.93005 2.75266 2.93004 2.35943 2.93004 1.9662C2.93004 1.57296 2.73472 1.17973 2.14871 1.17973H1.75801V2.75266Z" transform="translate(2.86914 34.7587)" fill="white"/>
<path d="M0.195348 0H2.73469C4.68805 0 4.8834 1.57294 4.8834 1.76956C4.8834 2.94928 4.10203 3.34251 3.51603 3.53913L5.27404 6.09522H3.12539L1.75801 4.12902V6.09522H0L0.195348 0ZM2.344 2.75266C2.93001 2.75266 3.12539 2.35943 3.12539 1.9662C3.12539 1.57296 2.93001 1.17973 2.344 1.17973H1.95336V2.55603H2.344V2.75266Z" transform="translate(8.13867 34.7587)" fill="white"/>
<path d="M1.75801 0H0V6.09522H1.75801V0Z" transform="translate(13.9961 34.7587)" fill="white"/>
<path d="M0 3.34256C0 1.7696 0.976704 0 3.32074 0C5.46943 0 6.64141 1.57298 6.64141 3.34256C6.64141 4.91551 5.66477 6.68505 3.32074 6.68505C1.17204 6.68505 0 5.11213 0 3.34256ZM4.8834 3.34256C4.8834 2.16284 4.10208 1.57299 3.32074 1.57299C2.53939 1.57299 1.75801 2.16284 1.75801 3.34256C1.75801 4.52227 2.53939 5.11212 3.32074 5.11212C4.10208 5.30874 4.8834 4.71889 4.8834 3.34256Z" transform="translate(16.543 34.3655)" fill="white"/>
<path d="M0.195348 0H2.73469C4.68805 0 4.8834 1.57294 4.8834 1.76956C4.8834 2.94928 4.10203 3.34251 3.51603 3.53913L5.27404 6.09522H3.12539L1.75801 4.12902V6.09522H0L0.195348 0ZM2.344 2.75266C2.93001 2.75266 3.12539 2.35943 3.12539 1.9662C3.12539 1.57296 2.93001 1.17973 2.344 1.17973H1.95336V2.55603H2.344V2.75266Z" transform="translate(23.7656 34.7587)" fill="white"/>
<path d="M1.75801 0H0V6.09522H1.75801V0Z" transform="translate(29.623 34.7587)" fill="white"/>
<path d="M1.36738 1.3763H0V0H4.29742V1.3763H2.93004V6.09522H1.36738" transform="translate(31.9727 34.7587)" fill="white"/>
<path d="M2.14871 3.73576L0 0H2.14871L3.12539 2.16283L4.10207 0H6.05543L3.90672 3.73576V6.09522H2.14871" transform="translate(36.2695 34.7587)" fill="white"/>
<path d="M0 15.3363L11.9155 0L21.8777 0.786466L15.4315 17.6958" transform="translate(4.82227 12.9342)" fill="white"/>
<path d="M0 0L1.95336 3.14593" transform="translate(8.91992 14.1138)" stroke="white" stroke-width="0.522447"/>
<path d="M0 0L3.71143 1.17973" transform="translate(6.58008 16.6698)" stroke="white" stroke-width="0.522447"/>
<path d="M0 0.393203L3.71137 0" transform="translate(5.99219 19.2258)" stroke="white" stroke-width="0.522447"/>
</svg>
