<svg width="44" height="44" viewBox="0 0 44 44" fill="none" xmlns="http://www.w3.org/2000/svg">
<path d="M2.87841 43.8461C1.34326 43.8461 0 42.4941 0 40.9488V2.89732C0 1.35208 1.34326 0 2.87841 0H40.6815C42.2167 0 43.5599 1.35208 43.5599 2.89732V40.9488C43.5599 42.4941 42.2167 43.8461 40.6815 43.8461" transform="translate(0.0605469 0.153809)" fill="#B2B1B1"/>
<path d="M17.5398 31.8715C17.5398 31.8715 23.6804 19.3165 24.2561 18.3507C24.8318 17.3849 35.0022 13.9081 35.386 13.3286C36.1535 12.556 30.9724 1.93251 30.5886 1.5462C30.2048 1.15989 28.094 0.000997249 26.5589 1.15993C23.8724 3.09147 25.2156 5.21614 26.7507 6.37507C27.3264 6.76138 28.4778 6.18194 29.2454 6.7614C29.8211 7.14771 30.9724 10.4313 30.5886 10.6245C30.2048 10.8176 29.2454 8.88609 27.1345 9.46555C25.0237 10.045 25.0237 12.1697 25.0237 12.1697C25.0237 12.1697 21.7615 12.7492 20.6101 12.7492C19.4588 12.7492 19.075 12.556 19.2669 11.2039C19.2669 9.85185 23.1047 9.07926 23.1047 4.82985C23.1047 -0.192169 17.7317 0.000985481 17.7317 0.000985481C17.7317 0.000985481 12.3587 0.000985506 12.3587 4.82985C12.3587 9.07926 16.1965 9.85185 16.1965 11.2039C16.1965 12.556 16.0047 12.7492 14.8533 12.7492C13.702 12.7492 10.4397 12.1697 10.4397 12.1697C10.4397 12.1697 10.6317 10.045 8.32893 9.46555C6.2181 8.88609 5.25859 10.8176 4.87481 10.6245C4.49102 10.4313 5.64241 7.34086 6.21809 6.7614C6.79377 6.37509 8.13701 6.95453 8.71269 6.37507C10.2478 5.02298 11.3992 2.89832 8.90459 1.15993C7.36944 0.000997249 5.25859 1.15989 4.87481 1.5462C4.49102 1.93251 -0.690123 12.556 0.0774536 13.3286C0.461242 13.9081 10.6317 17.1918 11.2073 18.3507C11.3992 19.5096 17.5398 31.8715 17.5398 31.8715Z" transform="translate(4.39648 7.10657)" fill="#B2B1B1"/>
<path d="M17.5398 31.8715C17.5398 31.8715 23.6804 19.3165 24.2561 18.3507C24.8318 17.3849 35.0022 13.9081 35.386 13.3286C36.1535 12.556 30.9724 1.93251 30.5886 1.5462C30.2048 1.15989 28.094 0.000997249 26.5589 1.15993C23.8724 3.09147 25.2156 5.21614 26.7507 6.37507C27.3264 6.76138 28.4778 6.18194 29.2454 6.7614C29.8211 7.14771 30.9724 10.4313 30.5886 10.6245C30.2048 10.8176 29.2454 8.88609 27.1345 9.46555C25.0237 10.045 25.0237 12.1697 25.0237 12.1697C25.0237 12.1697 21.7615 12.7492 20.6101 12.7492C19.4588 12.7492 19.075 12.556 19.2669 11.2039C19.2669 9.85185 23.1047 9.07926 23.1047 4.82985C23.1047 -0.192169 17.7317 0.000985481 17.7317 0.000985481C17.7317 0.000985481 12.3587 0.000985506 12.3587 4.82985C12.3587 9.07926 16.1965 9.85185 16.1965 11.2039C16.1965 12.556 16.0047 12.7492 14.8533 12.7492C13.702 12.7492 10.4397 12.1697 10.4397 12.1697C10.4397 12.1697 10.6317 10.045 8.32893 9.46555C6.2181 8.88609 5.25859 10.8176 4.87481 10.6245C4.49102 10.4313 5.64241 7.34086 6.21809 6.7614C6.79377 6.37509 8.13701 6.95453 8.71269 6.37507C10.2478 5.02298 11.3992 2.89832 8.90459 1.15993C7.36944 0.000997249 5.25859 1.15989 4.87481 1.5462C4.49102 1.93251 -0.690123 12.556 0.0774536 13.3286C0.461242 13.9081 10.6317 17.1918 11.2073 18.3507C11.3992 19.5096 17.5398 31.8715 17.5398 31.8715Z" transform="translate(4.39648 7.10657)" stroke="white" stroke-width="1.06079"/>
</svg>
