<svg width="45" height="44" viewBox="0 0 45 44" fill="none" xmlns="http://www.w3.org/2000/svg">
<path d="M2.90399 43.653C1.3552 43.653 0 42.3009 0 40.7557V2.89732C0 1.35208 1.3552 0 2.90399 0H40.6559C42.2047 0 43.5599 1.35208 43.5599 2.89732V40.7557C43.5599 42.3009 42.2047 43.653 40.6559 43.653" transform="translate(0.599609 0.153809)" fill="#B2B1B1"/>
<path d="M0 9.65774L33.1055 9.46457L43.5599 0" transform="translate(0.599609 16.9581)" stroke="white" stroke-width="0.975367"/>
<path d="M0 0V17.5771" transform="translate(33.7031 26.4227)" stroke="white" stroke-width="0.975367"/>
<path d="M36.5904 0L30.0079 7.91935H0L6.38888 0H36.5904Z" transform="translate(3.88867 5.94849)" stroke="white" stroke-width="0.975367"/>
<path d="M26.9104 0L24.2 3.47676H0L2.90399 0H26.9104Z" transform="translate(8.53711 8.07312)" stroke="white" stroke-width="0.975367"/>
<path d="M0 0H23.4255" transform="translate(10.2812 9.81152)" stroke="white" stroke-width="0.975367"/>
<path d="M0 8.69196C0 8.69196 5.61444 5.21518 5.61444 0C5.61444 0 8.13123 8.69196 11.4224 8.69196C11.4224 8.69196 5.61444 13.9072 5.61444 17.5771C5.61444 17.7702 3.67839 8.69196 0 8.69196Z" transform="translate(14.3438 22.3665)" fill="#B2B1B1"/>
<path d="M0 8.69196C0 8.69196 5.61444 5.21518 5.61444 0C5.61444 0 8.13123 8.69196 11.4224 8.69196C11.4224 8.69196 5.61444 13.9072 5.61444 17.5771C5.61444 17.7702 3.67839 8.69196 0 8.69196Z" transform="translate(14.3438 22.3665)" stroke="white" stroke-width="0.975367"/>
<path d="M0 6.95352C0 6.95352 4.45277 4.05625 4.45277 0C4.45277 0 6.38881 6.95352 9.09921 6.95352C9.09921 6.95352 4.45277 11.203 4.45277 14.1003C4.45277 14.1003 3.09759 6.95352 0 6.95352Z" transform="translate(24.4102 15.9928)" fill="#B2B1B1"/>
<path d="M0 6.95352C0 6.95352 4.45277 4.05625 4.45277 0C4.45277 0 6.38881 6.95352 9.09921 6.95352C9.09921 6.95352 4.45277 11.203 4.45277 14.1003C4.45277 14.1003 3.09759 6.95352 0 6.95352Z" transform="translate(24.4102 15.9928)" fill="#B2B1B1"/>
<path d="M0 6.95352C0 6.95352 4.45277 4.05625 4.45277 0C4.45277 0 6.38881 6.95352 9.09921 6.95352C9.09921 6.95352 4.45277 11.203 4.45277 14.1003C4.25917 14.1003 2.90399 6.95352 0 6.95352Z" transform="translate(24.6055 15.9928)" stroke="white" stroke-width="0.975367"/>
<path d="M0 5.60147C0 5.60147 3.48489 3.28363 3.48489 0C3.48489 0 5.03361 5.60147 7.16321 5.60147C7.16321 5.60147 3.48489 8.88511 3.48489 11.3961C3.67849 11.3961 2.3232 5.60147 0 5.60147Z" transform="translate(5.82422 15.0271)" fill="#B2B1B1"/>
<path d="M0 5.60147C0 5.60147 3.48489 3.28363 3.48489 0C3.48489 0 5.03361 5.60147 7.16321 5.60147C7.16321 5.60147 3.48489 8.88511 3.48489 11.3961C3.67849 11.3961 2.3232 5.60147 0 5.60147Z" transform="translate(5.82422 15.0271)" fill="#B2B1B1"/>
<path d="M0 5.60147C0 5.60147 3.48489 3.28363 3.48489 0C3.48489 0 5.03361 5.60147 7.16321 5.60147C7.16321 5.60147 3.48489 8.88511 3.48489 11.3961C3.67849 11.3961 2.3232 5.60147 0 5.60147Z" transform="translate(5.82422 15.0271)" stroke="white" stroke-width="0.975367"/>
</svg>
