<svg width="109" height="46" viewBox="0 0 109 46" fill="none" xmlns="http://www.w3.org/2000/svg">
<path d="M35.6399 0H0V17.0513H35.6399V0Z" transform="translate(23.4355 6.24646)" fill="#A3D4E1"/>
<path d="M39.4031 0H0V17.0513H39.4031V0Z" transform="translate(62.1777 6.24646)" fill="#A3D4E1"/>
<path d="M4.6487 0C7.30509 0 9.2974 1.99295 9.2974 4.6503C9.2974 7.30764 7.30509 9.30066 4.6487 9.30066C1.99231 9.30066 0 7.30764 0 4.6503C0 1.99295 2.21367 0 4.6487 0Z" transform="translate(10.1582 24.4054)" fill="#A3D4E1"/>
<path d="M4.66398 0C7.32038 0 9.31268 1.99295 9.31268 4.6503C9.31268 7.30764 7.32038 9.30066 4.66398 9.30066C2.00759 9.30066 0.0152856 7.30764 0.0152856 4.6503C-0.20608 1.99295 2.00759 0 4.66398 0Z" transform="translate(42.9043 24.4054)" fill="#A3D4E1"/>
<path d="M4.6487 0C7.30509 0 9.2974 1.99295 9.2974 4.6503C9.2974 7.30764 7.30509 9.30066 4.6487 9.30066C1.99231 9.30066 0 7.30764 0 4.6503C0 1.99295 1.99231 0 4.6487 0Z" transform="translate(66.6016 24.4054)" fill="#A3D4E1"/>
<path d="M4.66405 0C7.32044 0 9.31268 1.99295 9.31268 4.6503C9.31268 7.30764 7.32044 9.30066 4.66405 9.30066C2.00766 9.30066 0.0152852 7.30764 0.0152852 4.6503C-0.206081 1.99295 2.00766 0 4.66405 0Z" transform="translate(87.1738 24.4054)" fill="#A3D4E1"/>
<path d="M7.74781 0C6.64098 0.664336 5.7555 1.77155 5.31277 3.10022H0V0H7.74781Z" transform="translate(61.0664 24.4054)" fill="#A3D4E1"/>
<path d="M2.43497 3.10022C1.99224 1.77155 1.10683 0.664336 0 0H7.30505V3.10022H2.43497Z" transform="translate(94.2754 24.4054)" fill="#A3D4E1"/>
<path d="M13.0605 3.10022C13.5032 1.77155 14.3888 0.664336 15.4956 0H0C1.10683 0.664336 1.99224 1.77155 2.43497 3.10022H13.0605Z" transform="translate(73.6855 24.4054)" fill="#A3D4E1"/>
<path d="M2.65635 4.42891C2.65635 2.4359 1.54956 0.885781 0 0H9.29733V3.10022L5.75553 4.42891H2.65635Z" transform="translate(50.2207 24.4054)" fill="#A3D4E1"/>
<path d="M14.6102 0C14.6102 0 4.64866 0.44285 3.98456 0.44285C3.0991 0.44285 3.09915 1.1072 2.65642 1.77154C2.43505 2.43587 0 9.30066 0 9.30066V16.6084C0 17.4942 0.885437 17.9371 1.7709 17.9371C1.99227 15.0583 4.20598 12.8438 7.08374 12.8438C9.9615 12.8438 12.1751 15.0583 12.3965 17.9371H34.3117C34.3117 15.9441 35.4186 14.394 36.9681 13.5082H14.6102V0V0ZM9.96147 7.75059C9.96147 7.75059 1.99227 8.63635 1.7709 8.63635C1.54953 8.63635 1.32822 8.41492 1.54959 7.75059C1.77095 7.30769 3.3205 3.10021 3.54187 2.87876C3.76324 2.65732 3.54184 2.21444 4.20594 1.99299C4.87004 1.77155 10.1828 1.55008 10.1828 1.55008V7.75059H9.96147Z" transform="translate(7.93945 10.896)" fill="#A3D4E1"/>
<path d="M3.32049 0V5.53613H1.99228V1.10723H1.32821V5.53613H0V0" transform="translate(9.04688 36.3623)" fill="#A3D4E1"/>
<path d="M1.32821 5.31467H0V0H1.7709C2.435 0 3.32049 0.221405 3.32049 1.55008C3.32049 2.87875 2.435 3.10022 1.7709 3.10022H1.10683L1.32821 5.31467ZM1.32821 2.21445H1.54959C1.77095 2.21445 2.21366 1.99297 2.21366 1.55008C2.21366 1.10719 1.99232 0.885768 1.54959 0.885768H1.32821V2.21445Z" transform="translate(13.4746 36.5852)" fill="#A3D4E1"/>
<path d="M0 0H3.09911V1.10723H1.32821V2.21445H2.87773V3.10022H1.32821V4.42891H3.09911V5.53613H0" transform="translate(17.9043 36.3623)" fill="#A3D4E1"/>
<path d="M4.20594 0V4.42891H4.42732V6.64336H3.09911V5.53613H1.32814V6.64336H0V4.42891H0.221312C0.664044 3.76457 0.664071 3.32164 0.664071 1.55008V0H4.20594ZM2.87773 1.10723H1.99228V2.21445C1.99228 3.32168 1.99225 3.98602 1.54952 4.42891H2.87773V1.10723V1.10723Z" transform="translate(21.6641 36.3623)" fill="#A3D4E1"/>
<path d="M0 0H1.99228C2.65638 0 3.32049 0.442904 3.32049 1.32869C3.32049 1.99302 2.87772 2.43591 2.65635 2.43591C3.09908 2.65736 3.54187 2.87875 3.54187 3.76453C3.54187 4.87176 3.09911 5.31467 1.99228 5.31467H0.221379L0 0ZM1.10683 2.21445H1.54952C1.99225 2.21445 1.99228 1.99297 1.99228 1.55008C1.99228 1.32863 1.77089 1.10723 1.54952 1.10723H1.10683V2.21445ZM1.10683 4.42891H1.32821C1.77094 4.42891 1.99228 4.20742 1.99228 3.76453C1.99228 3.32164 1.77094 3.10022 1.32821 3.10022H1.10683V4.42891Z" transform="translate(26.9805 36.3623)" fill="#A3D4E1"/>
<path d="M2.8778 0L3.98463 5.31467H2.65642L2.43504 4.20745H1.54959L1.32821 5.31467H0L1.10683 0H2.8778ZM2.43504 3.32168L1.99228 0.885768L1.54959 3.32168H2.43504Z" transform="translate(30.9668 36.3623)" fill="#A3D4E1"/>
<path d="M1.32821 5.31467H0V0H1.7709C2.435 0 3.32049 0.221405 3.32049 1.55008C3.32049 2.87875 2.435 3.10022 1.7709 3.10022H1.10683L1.32821 5.31467ZM1.32821 2.21445H1.54959C1.77095 2.21445 2.21366 1.99297 2.21366 1.55008C2.21366 1.10719 1.99232 0.885768 1.54959 0.885768H1.32821V2.21445Z" transform="translate(35.6133 36.5852)" fill="#A3D4E1"/>
<path d="M1.32821 0V1.32869C1.32821 1.99302 1.10683 2.87879 1.10683 3.32168L2.21366 0H3.54187V5.31467H2.21366V3.98599C2.21366 3.32165 2.43504 2.43588 2.43504 1.99299L1.32821 5.31467H0V0" transform="translate(40.0391 36.3623)" fill="#A3D4E1"/>
<path d="M2.21366 5.53613H0.88545V1.10723H0V0H3.09911V1.10723H2.21366" transform="translate(44.4668 36.3623)" fill="#A3D4E1"/>
<path d="M0 0H3.09918V1.10723H1.32821V2.21445H2.8778V3.10022H1.32821V4.42891H3.09918V5.53613H0" transform="translate(48.4531 36.3623)" fill="#A3D4E1"/>
<path d="M4.20594 0V5.31467H2.8778V0.885768H1.99228V2.6573C1.99228 4.65031 1.5496 5.31467 0.664138 5.31467C0.442772 5.31467 0.221366 5.31466 0 5.09321V4.20745H0.221379C0.664111 4.20745 0.664138 3.98603 0.664138 2.43591V0" transform="translate(51.9941 36.3623)" fill="#A3D4E1"/>
<path d="M1.10683 2.21445H1.77097C2.43507 2.21445 3.32049 2.6573 3.32049 3.76453C3.32049 5.0932 2.43507 5.31467 1.77097 5.31467H0V0H1.32821L1.10683 2.21445ZM1.10683 4.42891H1.32821C1.77094 4.42891 1.99228 4.20742 1.99228 3.76453C1.99228 3.32164 1.77094 3.10022 1.32821 3.10022H1.10683V4.42891Z" transform="translate(57.5293 36.3623)" fill="#A3D4E1"/>
<path d="M1.32821 2.21445H2.21366V0H3.54187V5.53613H2.21366V3.10022H1.32821V5.53613H0V0H1.32821" transform="translate(61.7344 36.3623)" fill="#A3D4E1"/>
<path d="M1.10683 2.21445H1.7709C2.435 2.21445 3.32049 2.6573 3.32049 3.76453C3.32049 5.0932 2.435 5.31467 1.7709 5.31467H0V0H1.32821L1.10683 2.21445ZM1.10683 4.42891C1.77093 4.42891 1.99228 4.20742 1.99228 3.76453C1.99228 3.32164 1.77094 3.10022 1.32821 3.10022H1.10683V4.42891ZM4.87008 5.53613H3.54187V0.221459H4.87008V5.53613Z" transform="translate(66.6016 36.3623)" fill="#A3D4E1"/>
<path d="M1.32814 1.10723V2.43591C1.32814 3.10025 1.10683 3.98602 1.10683 4.42891L2.21366 1.10723H3.5418V6.4219H2.21366V5.09321C2.21366 4.42888 2.43497 3.54311 2.43497 3.10022L1.32814 6.4219H0V1.10723H1.32814ZM1.10683 0C1.10683 0.442891 1.54953 0.44285 1.7709 0.44285C1.99227 0.44285 2.21361 0.442891 2.43497 0H2.87773C2.87773 0.664336 2.435 0.885768 1.7709 0.885768C1.1068 0.885768 0.664071 0.664336 0.664071 0H1.10683Z" transform="translate(72.5801 35.2551)" fill="#A3D4E1"/>
<path d="M0.221312 1.77154C0.221312 0.664309 0.885437 0 1.7709 0C2.87773 0 3.32049 0.664349 3.32049 1.32869C3.32049 1.99302 3.09915 2.21441 2.65642 2.6573C3.09915 2.87875 3.5418 3.10021 3.5418 3.98599C3.5418 5.09322 2.87773 5.53613 1.7709 5.53613C0.885437 5.53613 0 5.0932 0 3.76453H1.10683C1.10683 4.42887 1.32822 4.42891 1.54959 4.42891C1.99232 4.42891 1.99221 4.20742 1.99221 3.76453C1.99221 3.32164 1.77087 3.10022 1.32814 3.10022H1.10683V2.21445H1.32814C1.54951 2.21445 1.7709 1.99297 1.7709 1.55008C1.7709 1.10719 1.54951 0.885768 1.32814 0.885768C1.10678 0.885768 0.885383 1.1072 0.885383 1.77154" transform="translate(81.4336 36.3623)" fill="#A3D4E1"/>
<path d="M2.87787 0L3.9847 5.31467H2.65642L2.43511 4.20745H1.54959L1.32828 5.31467H0L1.10683 0H2.87787ZM2.43511 3.32168L1.99235 0.885768L1.54959 3.32168H2.43511Z" transform="translate(85.6387 36.3623)" fill="#A3D4E1"/>
<path d="M1.32814 2.21445L2.21366 0H3.5418L2.43497 2.43591L3.5418 5.53613H2.21366L1.7709 3.54314L1.32814 4.20745V5.53613H0V0H1.32814" transform="translate(90.2891 36.3623)" fill="#A3D4E1"/>
<path d="M2.87773 0L3.98456 5.31467H2.65642L2.43497 4.20745H1.54959L1.32814 5.31467H0L1.10683 0H2.87773ZM2.43497 3.32168L1.99235 0.885768L1.54959 3.32168H2.43497Z" transform="translate(94.2754 36.3623)" fill="#A3D4E1"/>
<path d="M0.221312 1.77154C0.221312 0.664309 0.885437 0 1.7709 0C2.87773 0 3.32049 0.664349 3.32049 1.32869C3.32049 1.99302 3.09915 2.21441 2.65642 2.6573C3.09915 2.87875 3.5418 3.10021 3.5418 3.98599C3.5418 5.09322 2.87773 5.53613 1.7709 5.53613C0.885437 5.53613 0 5.0932 0 3.76453H1.10683C1.10683 4.42887 1.32822 4.42891 1.54959 4.42891C1.99232 4.42891 1.99235 4.20742 1.99235 3.76453C1.99235 3.32164 1.77087 3.10022 1.32814 3.10022H1.10683V2.21445H1.32814C1.54951 2.21445 1.7709 1.99297 1.7709 1.55008C1.7709 1.10719 1.54951 0.885768 1.32814 0.885768C1.10678 0.885768 0.885518 1.1072 0.885518 1.77154" transform="translate(98.7031 36.3623)" fill="#A3D4E1"/>
<path d="M106.92 39.8602C106.92 42.0746 105.149 43.8461 102.935 43.8461H3.98463C1.77097 43.8461 0 42.0746 0 39.8602V3.98599C0 1.77154 1.77097 0 3.98463 0H102.935C105.149 0 106.92 1.77154 106.92 3.98599V39.8602Z" transform="translate(1.08203 1.15381)" stroke="#A3D4E1" stroke-width="0.870083"/>
</svg>
