<svg width="44" height="44" viewBox="0 0 44 44" fill="none" xmlns="http://www.w3.org/2000/svg">
<path d="M38.187 0H0V36.6994H38.187V0Z" transform="translate(1.82812 2.12463)" fill="white"/>
<path d="M29.9355 32.0637C29.3598 31.2911 28.5922 30.1321 28.5922 30.1321L23.7949 37.0857L32.0463 35.7336L31.0868 33.8021C35.3085 31.2911 37.2275 26.6554 37.9951 23.3717C37.0356 23.1786 36.0761 22.9855 36.0761 22.9855C35.3085 25.8828 33.0058 30.1321 29.9355 32.0637ZM14.2002 9.8509C14.7758 10.6235 15.5434 11.7825 15.5434 11.7825L20.3408 4.82887L12.0893 6.18097L13.0488 8.11252C8.8271 10.6235 6.90815 15.2592 6.14058 18.5429C7.10005 18.736 8.05952 18.9292 8.05952 18.9292C8.82709 16.0319 11.1298 11.7825 14.2002 9.8509ZM2.87841 43.8461C1.34326 43.8461 0 42.4941 0 40.9488V2.89732C0 1.35208 1.34326 0 2.87841 0H40.6815C42.2167 0 43.5599 1.35208 43.5599 2.89732V40.9488C43.5599 42.4941 42.2167 43.8461 40.6815 43.8461H2.87841Z" transform="translate(0.0976562)" fill="#B3B1B2"/>
<path d="M18.9976 0H0V19.3155H18.9976V0Z" transform="translate(22.5508 1.54541)" fill="white"/>
<path d="M5.37301 11.0098V0H1.34316V11.0098C0.575589 11.5893 0 12.7482 0 13.714C0 15.6455 1.53513 17.1908 3.45407 17.1908C5.37301 17.1908 6.90814 15.6455 6.90814 13.714C6.90814 12.5551 6.33248 11.5893 5.37301 11.0098Z" transform="translate(28.5 2.31812)" fill="#B3B1B2"/>
<path d="M2.87841 0H0V2.89732H2.87841V0Z" transform="translate(30.418 2.89734)" fill="white"/>
<path d="M2.87841 19.7018C1.34326 19.7018 0 18.3497 0 16.8045V2.89732C0 1.35208 1.34326 0 2.87841 0H18.4218C19.9569 0 21.3002 1.35208 21.3002 2.89732V16.8045C21.3002 18.3497 19.9569 19.7018 18.4218 19.7018" transform="translate(1.25 21.2469)" fill="white"/>
<path d="M10.3622 0H0V2.70415H10.3622V0Z" transform="translate(8.92578 35.1543)" fill="#B3B1B2"/>
<path d="M1.72703 3.86309C2.68651 3.86309 3.45407 2.89732 3.45407 1.93155C3.45407 0.772619 2.68651 0 1.72703 0C0.767565 0 0 0.965774 0 1.93155C0 2.89732 0.767565 3.86309 1.72703 3.86309Z" transform="translate(4.13086 34.7678)" fill="#B3B1B2"/>
<path d="M15.7353 9.65774C17.2704 9.65774 18.6137 8.30565 18.6137 6.76042V2.89732C18.6137 1.35208 17.2704 0 15.7353 0H2.87841C1.34326 0 0 1.35208 0 2.89732V6.76042C0 8.30565 1.34326 9.65774 2.87841 9.65774" transform="translate(2.5957 22.5991)" fill="#B3B1B2"/>
<path d="M3.26222 0H0V2.70415H3.26222V0Z" transform="translate(5.66602 25.4965)" fill="white"/>
<path d="M3.26222 0H0V2.70415H3.26222V0Z" transform="translate(10.4648 25.4965)" fill="white"/>
<path d="M3.26222 0H0V2.70415H3.26222V0Z" transform="translate(15.2578 25.4965)" fill="white"/>
</svg>
