<svg width="46" height="44" viewBox="0 0 46 44" fill="none" xmlns="http://www.w3.org/2000/svg">
<path d="M2.96999 43.6468C1.386 43.6468 0 42.451 0 40.6573V2.98951C0 1.3951 1.386 0 2.96999 0H41.9759C43.5599 0 44.9459 1.1958 44.9459 2.98951V40.6573C44.9459 42.2517 43.5599 43.6468 41.9759 43.6468" transform="translate(0.599609)" fill="#B3B1B2"/>
<path d="M16.6319 0H0V14.7482H16.6319V0Z" transform="translate(4.75586 14.3495)" fill="#DBDAD9"/>
<path d="M0 38.0664L8.31601 32.2867V0L0 5.97902V38.0664Z" transform="translate(17.2305 2.79028)" stroke="white" stroke-width="1.58721"/>
<path d="M0 0V32.0874" transform="translate(22.7734 4.58411)" stroke="white" stroke-width="0.635677"/>
<path d="M0 0V32.0874" transform="translate(20.0039 6.57715)" stroke="white" stroke-width="0.635677"/>
<path d="M0 5.77971L8.11806 0" transform="translate(17.4277 7.3739)" stroke="white" stroke-width="0.635677"/>
<path d="M0 5.77971L8.31601 0" transform="translate(17.2305 11.958)" stroke="white" stroke-width="0.635677"/>
<path d="M0 5.77971L8.31601 0" transform="translate(17.2305 16.5421)" stroke="white" stroke-width="0.635677"/>
<path d="M0 5.77977L8.31601 0" transform="translate(17.2305 21.1257)" stroke="white" stroke-width="0.635677"/>
<path d="M0 5.97902L8.11806 0" transform="translate(17.4277 25.7098)" stroke="white" stroke-width="0.635677"/>
<path d="M0 5.97902L8.31601 0" transform="translate(17.2305 30.2937)" stroke="white" stroke-width="0.635677"/>
<path d="M0 1.02265C3.16799 -0.173155 5.34597 -0.571744 7.52396 1.22196C9.30596 2.61707 11.4839 2.61705 13.0679 2.01915" transform="translate(23.9648 24.687)" stroke="white" stroke-width="0.528407" stroke-linecap="round"/>
<path d="M0 5.97902H12.276V0L19.8 13.3532L12.276 26.7063V20.7273H0" transform="translate(21.3906 8.37048)" fill="white"/>
</svg>
