<svg width="44" height="44" viewBox="0 0 44 44" fill="none" xmlns="http://www.w3.org/2000/svg">
<path d="M2.87841 43.8461C1.34326 43.8461 0 42.4941 0 40.9488V2.89732C0 1.35208 1.34326 0 2.87841 0H40.6815C42.2167 0 43.5599 1.35208 43.5599 2.89732V40.9488C43.5599 42.4941 42.2167 43.8461 40.6815 43.8461" transform="translate(0.0800781)" fill="#B3B1B2"/>
<path d="M0 16.4182L18.038 0L35.8842 16.6113" transform="translate(3.91406 3.09058)" stroke="white" stroke-width="2.38379"/>
<path d="M0 0H35.5004" transform="translate(4.10938 38.4379)" stroke="white" stroke-width="2.38379"/>
<path d="M0 21.0538V0" transform="translate(7.5625 16.6115)" stroke="white" stroke-width="2.38379"/>
<path d="M0 22.0196V0" transform="translate(36.1543 15.8387)" stroke="white" stroke-width="2.38379"/>
<path d="M9.60395 19.2971C14.9081 19.2971 19.2079 14.9773 19.2079 9.64853C19.2079 4.31979 14.9081 0 9.60395 0C4.29983 0 0 4.31979 0 9.64853C0 14.9773 4.29983 19.2971 9.60395 19.2971Z" transform="matrix(0.923009 -0.384843 0.380565 0.924782 9.43555 20.0424)" stroke="white" stroke-width="1.5892"/>
<path d="M0 0C0.383788 0.386309 1.53515 0.772666 2.87841 0.772666C4.02977 0.772666 5.18112 0.386309 5.56491 0" transform="translate(15.2363 22.2129)" fill="#B3B1B2"/>
<path d="M0 0C0.383788 0.386309 1.53515 0.772666 2.87841 0.772666C4.02977 0.772666 5.18112 0.386309 5.56491 0" transform="translate(15.2363 22.2129)" stroke="white" stroke-width="1.0588" stroke-linecap="round"/>
<path d="M0 0C0.383788 0.386309 1.53515 0.772666 2.87841 0.772666C4.02977 0.772666 5.18112 0.386309 5.56491 0" transform="translate(22.916 22.2129)" fill="#B3B1B2"/>
<path d="M0 0C0.383788 0.386309 1.53515 0.772666 2.87841 0.772666C4.02977 0.772666 5.18112 0.386309 5.56491 0" transform="translate(22.916 22.2129)" stroke="white" stroke-width="1.0588" stroke-linecap="round"/>
<path d="M6.90819 9.8509V1.54521C6.90819 0.579441 6.14063 0 5.18116 0C4.02979 0 3.45412 0.96575 3.45412 1.54521V4.44253C3.07034 3.86307 2.49461 3.66994 1.72703 3.86309C0.767564 3.86309 0 4.6357 0 5.60147V9.2714" transform="translate(17.1582 24.5305)" stroke="white" stroke-width="1.0588" stroke-linejoin="round"/>
</svg>
