<svg width="45" height="44" viewBox="0 0 45 44" fill="none" xmlns="http://www.w3.org/2000/svg">
<path d="M2.83645 43.8461C1.21561 43.8461 0 42.6225 0 40.9911V2.85509C0 1.2236 1.21561 0 2.83645 0H40.7235C42.3443 0 43.5599 1.2236 43.5599 2.85509V40.9911C43.5599 42.6225 42.3443 43.8461 40.7235 43.8461H2.83645Z" transform="translate(0.558594)" fill="#B3B1B2"/>
<path d="M1.64338 15.1263C2.25119 17.5736 3.66941 17.5736 5.49285 16.5539C10.1527 14.1067 13.597 9.21223 13.597 3.2981C13.597 0.035134 12.9892 -0.372737 10.9631 0.23907C9.13969 0.646941 3.26419 2.27843 3.26419 2.27843C3.26419 2.6863 3.46681 2.89023 3.46681 3.2981C3.46681 5.33746 2.04855 7.17283 0.0225084 7.5807C-0.180096 7.5807 1.03557 12.4752 1.64338 15.1263Z" transform="translate(18.3691 13.4246)" fill="white"/>
<path d="M18.5582 6.43487C20.179 4.59945 19.5711 3.57977 17.7477 2.35616C13.2904 -0.498937 7.21232 -0.906833 2.34982 1.94826C-0.486644 3.57975 -0.486669 4.39548 0.931561 5.82303C2.14719 7.04664 6.60446 11.5333 6.60446 11.5333C6.80706 11.3293 7.21232 11.1254 7.41492 10.9214C9.23836 9.90174 11.467 10.3096 12.8852 11.7371C13.0878 11.7371 16.5321 8.27029 18.5582 6.43487Z" transform="translate(7.52734 2.13037)" fill="white"/>
<path d="M3.04995 0.158036C0.618695 -0.45377 0.0108818 0.769818 0.0108818 2.80917C-0.191722 8.1115 2.44208 13.6178 7.30459 16.4729C10.141 18.1044 10.7489 17.6965 11.3567 15.6572C11.9645 14.0257 13.3827 7.90756 13.3827 7.90756C12.9775 7.90756 12.7749 7.70366 12.3697 7.49973C10.5463 6.48005 9.73584 4.23676 10.3437 2.40134C10.3437 2.40134 5.6838 0.973779 3.04995 0.158036Z" transform="translate(2.77344 13.0979)" fill="white"/>
<path d="M3.64685 8.56526C3.84946 8.56526 4.25465 8.56526 4.45726 8.56526C4.65986 8.56526 5.06506 8.56526 5.26766 8.56526C7.29371 8.15738 8.71196 6.32195 8.71196 4.2826C8.71196 3.87473 8.71195 3.46685 8.50934 3.26292C8.30674 2.44718 7.90153 1.83538 7.49632 1.42751C6.6859 0.611769 5.47027 0 4.25464 0C3.03901 0 2.02599 0.407821 1.21558 1.22356C0.810368 1.63143 0.405159 2.24328 0.202555 2.85509C-4.9467e-05 3.26296 0 3.87473 0 4.2826C0 6.32195 1.62081 8.15738 3.64685 8.56526Z" transform="translate(12.918 12.644)" fill="white"/>
<path d="M7.09115 25.8998H12.9667V21.6172C10.9406 22.4329 8.91459 23.0447 7.09115 23.4526V25.8998ZM0 25.8998H5.87551V23.8605C3.24166 24.4723 1.21563 24.6762 0 24.8802V25.8998ZM13.9797 25.8998H19.8552V18.1503C18.0318 19.3739 16.0057 20.3935 13.9797 21.2093V25.8998ZM32.4167 0C31.6063 4.28265 29.9855 7.74958 27.7568 10.6047V25.8998H33.6323V0H32.4167ZM20.8682 17.3345V25.8998H26.7438V12.0322C24.9204 14.0715 22.8943 15.907 20.8682 17.3345Z" transform="translate(8.46094 15.0911)" fill="white"/>
</svg>
