<svg width="67" height="25" viewBox="0 0 67 25" fill="none" xmlns="http://www.w3.org/2000/svg">
<path fill-rule="evenodd" clip-rule="evenodd" d="M1 0C0.447266 0 0 0.447693 0 1V18.1923C0 19.2969 0.895508 20.1923 2 20.1923H65C66.1045 20.1923 67 19.2969 67 18.1923V1C67 0.447693 66.5527 0 66 0H1ZM64.1289 18.2692C64.6572 18.2692 65.0859 17.8387 65.0859 17.3077C65.0859 16.7766 64.6572 16.3461 64.1289 16.3461C63.6006 16.3461 63.1719 16.7766 63.1719 17.3077C63.1719 17.8387 63.6006 18.2692 64.1289 18.2692ZM61.2568 17.3077C61.2568 17.8387 60.8281 18.2692 60.2998 18.2692C59.7715 18.2692 59.3428 17.8387 59.3428 17.3077C59.3428 16.7766 59.7715 16.3461 60.2998 16.3461C60.8281 16.3461 61.2568 16.7766 61.2568 17.3077ZM0 25H67V23.1539C67 22.0493 66.1045 21.1539 65 21.1539H2C0.895508 21.1539 0 22.0493 0 23.1539V25Z" fill="#3F3F3F"/>
</svg>
