<svg width="67" height="42" viewBox="0 0 67 42" fill="none" xmlns="http://www.w3.org/2000/svg">
<path fill-rule="evenodd" clip-rule="evenodd" d="M6.21484 40.0909C5.05957 40.0909 4.09668 40.9108 3.87598 42H3.84375H0V4V2C0 0.895447 0.895508 0 2 0H4H63H65C66.1045 0 67 0.895447 67 2V4V42H63.1553H63.123C62.9023 40.9108 61.9395 40.0909 60.7852 40.0909H55.9863C54.8311 40.0909 53.8682 40.9108 53.6475 42H53.6152H13.3838H13.3516C13.1309 40.9108 12.168 40.0909 11.0137 40.0909H6.21484ZM34.457 21C34.457 29.4349 27.6006 36.2728 19.1426 36.2728C10.6846 36.2728 3.82812 29.4349 3.82812 21C3.82812 12.5651 10.6846 5.72729 19.1426 5.72729C27.6006 5.72729 34.457 12.5651 34.457 21ZM19.1436 34.3182C26.5225 34.3182 32.5 28.3529 32.5 21C32.5 13.6472 26.5225 7.68182 19.1436 7.68182C11.7637 7.68182 5.78613 13.6472 5.78613 21C5.78613 28.3529 11.7637 34.3182 19.1436 34.3182ZM19.1436 35.3182C27.0723 35.3182 33.5 28.9077 33.5 21C33.5 13.0923 27.0723 6.68182 19.1436 6.68182C11.2139 6.68182 4.78613 13.0923 4.78613 21C4.78613 28.9077 11.2139 35.3182 19.1436 35.3182ZM19.1426 32.4091C25.4648 32.4091 30.5859 27.2985 30.5859 21.0001C30.5859 14.7015 25.4648 9.59094 19.1426 9.59094C12.8203 9.59094 7.7002 14.7015 7.7002 21.0001C7.7002 27.2985 12.8203 32.4091 19.1426 32.4091ZM19.1426 33.4091C26.0146 33.4091 31.5859 27.8534 31.5859 21.0001C31.5859 14.1467 26.0146 8.59094 19.1426 8.59094C12.2715 8.59094 6.7002 14.1467 6.7002 21.0001C6.7002 27.8534 12.2715 33.4091 19.1426 33.4091ZM28.6719 21C28.6719 26.2441 24.4082 30.5 19.1426 30.5C13.8779 30.5 9.61426 26.2441 9.61426 21C9.61426 15.7559 13.8779 11.5 19.1426 11.5C24.4082 11.5 28.6719 15.7559 28.6719 21ZM29.6719 21C29.6719 26.799 24.958 31.5 19.1426 31.5C13.3281 31.5 8.61426 26.799 8.61426 21C8.61426 15.201 13.3281 10.5 19.1426 10.5C24.958 10.5 29.6719 15.201 29.6719 21ZM19.1426 28.5909C23.3506 28.5909 26.7568 25.1898 26.7568 20.9999C26.7568 16.8102 23.3506 13.4091 19.1426 13.4091C14.9346 13.4091 11.5283 16.8102 11.5283 20.9999C11.5283 25.1898 14.9346 28.5909 19.1426 28.5909ZM19.1426 29.5909C23.9004 29.5909 27.7568 25.7446 27.7568 20.9999C27.7568 16.2553 23.9004 12.4091 19.1426 12.4091C14.3848 12.4091 10.5283 16.2553 10.5283 20.9999C10.5283 25.7446 14.3848 29.5909 19.1426 29.5909ZM19.1436 27.6818C22.8438 27.6818 25.8438 24.6902 25.8438 21C25.8438 17.3098 22.8438 14.3182 19.1436 14.3182C15.4434 14.3182 12.4434 17.3098 12.4434 21C12.4434 24.6902 15.4434 27.6818 19.1436 27.6818ZM53.5996 5.72729H63.1709V8.59094H53.5996V5.72729Z" fill="#3F3F3F"/>
</svg>
