<svg width="67" height="42" viewBox="0 0 67 42" fill="none" xmlns="http://www.w3.org/2000/svg">
<path fill-rule="evenodd" clip-rule="evenodd" d="M2.87109 3.81818C2.87109 1.70947 4.58008 0 6.68945 0H22.9814C25.0898 0 26.7998 1.70947 26.7998 3.81818H40.1992C40.1992 1.70947 41.9082 0 44.0176 0H60.3096C62.418 0 64.1279 1.70947 64.1279 3.81818L66 3.81824C66.5527 3.81824 67 4.26593 67 4.81824V42.0001H0V4.81824C0 4.26593 0.447266 3.81824 1 3.81824L2.87109 3.81818ZM27.9473 5.72729C27.8428 5.72729 27.7568 5.81274 27.7568 5.91821C27.7568 6.33997 28.0986 6.68182 28.5205 6.68182H31.7793C32.2002 6.68182 32.543 6.33997 32.543 5.91821C32.543 5.81274 32.457 5.72729 32.3516 5.72729H27.9473ZM34.4561 5.91821C34.4561 5.81274 34.542 5.72729 34.6465 5.72729H39.0508C39.1562 5.72729 39.2422 5.81274 39.2422 5.91821C39.2422 6.33997 38.8994 6.68182 38.4785 6.68182H35.2197C34.7979 6.68182 34.4561 6.33997 34.4561 5.91821ZM27.9473 8.59094C27.8428 8.59094 27.7568 8.67639 27.7568 8.78186C27.7568 9.20361 28.0986 9.54547 28.5205 9.54547H31.7793C32.2002 9.54547 32.543 9.20361 32.543 8.78186C32.543 8.67639 32.457 8.59094 32.3516 8.59094H27.9473ZM34.4561 8.78186C34.4561 8.67639 34.542 8.59094 34.6465 8.59094H39.0508C39.1562 8.59094 39.2422 8.67639 39.2422 8.78186C39.2422 9.20361 38.8994 9.54547 38.4785 9.54547H35.2197C34.7979 9.54547 34.4561 9.20361 34.4561 8.78186ZM27.9473 11.4546C27.8428 11.4546 27.7568 11.54 27.7568 11.6455C27.7568 12.0673 28.0986 12.4091 28.5205 12.4091H31.7793C32.2002 12.4091 32.543 12.0673 32.543 11.6455C32.543 11.54 32.457 11.4546 32.3516 11.4546H27.9473ZM34.4561 11.6455C34.4561 11.54 34.542 11.4546 34.6465 11.4546H39.0508C39.1562 11.4546 39.2422 11.54 39.2422 11.6455C39.2422 12.0673 38.8994 12.4091 38.4785 12.4091H35.2197C34.7979 12.4091 34.4561 12.0673 34.4561 11.6455ZM27.9473 14.3182C27.8428 14.3182 27.7568 14.4037 27.7568 14.5092C27.7568 14.9309 28.0986 15.2728 28.5205 15.2728H31.7793C32.2002 15.2728 32.543 14.9309 32.543 14.5092C32.543 14.4037 32.457 14.3182 32.3516 14.3182H27.9473ZM34.4561 14.5092C34.4561 14.4037 34.542 14.3182 34.6465 14.3182H39.0508C39.1562 14.3182 39.2422 14.4037 39.2422 14.5092C39.2422 14.9309 38.8994 15.2728 38.4785 15.2728H35.2197C34.7979 15.2728 34.4561 14.9309 34.4561 14.5092ZM27.9473 17.1819C27.8428 17.1819 27.7568 17.2673 27.7568 17.3728C27.7568 17.7946 28.0986 18.1364 28.5205 18.1364H31.7793C32.2002 18.1364 32.543 17.7946 32.543 17.3728C32.543 17.2673 32.457 17.1819 32.3516 17.1819H27.9473ZM34.4561 17.3728C34.4561 17.2673 34.542 17.1819 34.6465 17.1819H39.0508C39.1562 17.1819 39.2422 17.2673 39.2422 17.3728C39.2422 17.7946 38.8994 18.1364 38.4785 18.1364H35.2197C34.7979 18.1364 34.4561 17.7946 34.4561 17.3728ZM27.9473 20.0455C27.8428 20.0455 27.7568 20.131 27.7568 20.2365C27.7568 20.6582 28.0986 21.0001 28.5205 21.0001H31.7793C32.2002 21.0001 32.543 20.6582 32.543 20.2365C32.543 20.131 32.457 20.0455 32.3516 20.0455H27.9473ZM34.4561 20.2365C34.4561 20.131 34.542 20.0455 34.6465 20.0455H39.0508C39.1562 20.0455 39.2422 20.131 39.2422 20.2365C39.2422 20.6582 38.8994 21.0001 38.4785 21.0001H35.2197C34.7979 21.0001 34.4561 20.6582 34.4561 20.2365ZM27.9473 22.9092C27.8428 22.9092 27.7568 22.9946 27.7568 23.1001C27.7568 23.5219 28.0986 23.8637 28.5205 23.8637H31.7793C32.2002 23.8637 32.543 23.5219 32.543 23.1001C32.543 22.9946 32.457 22.9092 32.3516 22.9092H27.9473ZM34.4561 23.1001C34.4561 22.9946 34.542 22.9092 34.6465 22.9092H39.0508C39.1562 22.9092 39.2422 22.9946 39.2422 23.1001C39.2422 23.5219 38.8994 23.8637 38.4785 23.8637H35.2197C34.7979 23.8637 34.4561 23.5219 34.4561 23.1001ZM27.9473 25.7728C27.8428 25.7728 27.7568 25.8583 27.7568 25.9637C27.7568 26.3855 28.0986 26.7274 28.5205 26.7274H31.7793C32.2002 26.7274 32.543 26.3855 32.543 25.9637C32.543 25.8583 32.457 25.7728 32.3516 25.7728H27.9473ZM34.4561 25.9637C34.4561 25.8583 34.542 25.7728 34.6465 25.7728H39.0508C39.1562 25.7728 39.2422 25.8583 39.2422 25.9637C39.2422 26.3855 38.8994 26.7274 38.4785 26.7274H35.2197C34.7979 26.7274 34.4561 26.3855 34.4561 25.9637ZM27.9473 28.6364C27.8428 28.6364 27.7568 28.7219 27.7568 28.8273C27.7568 29.2491 28.0986 29.5909 28.5205 29.5909H31.7793C32.2002 29.5909 32.543 29.2491 32.543 28.8273C32.543 28.7219 32.457 28.6364 32.3516 28.6364H27.9473ZM34.4561 28.8273C34.4561 28.7219 34.542 28.6364 34.6465 28.6364H39.0508C39.1562 28.6364 39.2422 28.7219 39.2422 28.8273C39.2422 29.2491 38.8994 29.5909 38.4785 29.5909H35.2197C34.7979 29.5909 34.4561 29.2491 34.4561 28.8273ZM27.9473 31.5001C27.8428 31.5001 27.7568 31.5855 27.7568 31.691C27.7568 32.1127 28.0986 32.4546 28.5205 32.4546H31.7793C32.2002 32.4546 32.543 32.1127 32.543 31.691C32.543 31.5855 32.457 31.5001 32.3516 31.5001H27.9473ZM34.4561 31.691C34.4561 31.5855 34.542 31.5001 34.6465 31.5001H39.0508C39.1562 31.5001 39.2422 31.5855 39.2422 31.691C39.2422 32.1127 38.8994 32.4546 38.4785 32.4546H35.2197C34.7979 32.4546 34.4561 32.1127 34.4561 31.691ZM27.9473 34.3637C27.8428 34.3637 27.7568 34.4492 27.7568 34.5546C27.7568 34.9764 28.0986 35.3182 28.5205 35.3182H31.7793C32.2002 35.3182 32.543 34.9764 32.543 34.5546C32.543 34.4492 32.457 34.3637 32.3516 34.3637H27.9473ZM34.4561 34.5546C34.4561 34.4492 34.542 34.3637 34.6465 34.3637H39.0508C39.1562 34.3637 39.2422 34.4492 39.2422 34.5546C39.2422 34.9764 38.8994 35.3182 38.4785 35.3182H35.2197C34.7979 35.3182 34.4561 34.9764 34.4561 34.5546ZM27.9473 37.2273C27.8428 37.2273 27.7568 37.3127 27.7568 37.4182C27.7568 37.84 28.0986 38.1818 28.5205 38.1818H31.7793C32.2002 38.1818 32.543 37.84 32.543 37.4182C32.543 37.3127 32.457 37.2273 32.3516 37.2273H27.9473ZM34.4561 37.4182C34.4561 37.3127 34.542 37.2273 34.6465 37.2273H39.0508C39.1562 37.2273 39.2422 37.3127 39.2422 37.4182C39.2422 37.84 38.8994 38.1818 38.4785 38.1818H35.2197C34.7979 38.1818 34.4561 37.84 34.4561 37.4182ZM27.9473 40.0909C27.8428 40.0909 27.7568 40.1764 27.7568 40.2819C27.7568 40.7036 28.0986 41.0455 28.5205 41.0455H31.7793C32.2002 41.0455 32.543 40.7036 32.543 40.2819C32.543 40.1764 32.457 40.0909 32.3516 40.0909H27.9473ZM34.4561 40.2819C34.4561 40.1764 34.542 40.0909 34.6465 40.0909H39.0508C39.1562 40.0909 39.2422 40.1764 39.2422 40.2819C39.2422 40.7036 38.8994 41.0455 38.4785 41.0455H35.2197C34.7979 41.0455 34.4561 40.7036 34.4561 40.2819ZM3.34961 40.0909C4.14258 40.0909 4.78516 39.4499 4.78516 38.6591C4.78516 37.8683 4.14258 37.2273 3.34961 37.2273C2.55664 37.2273 1.91406 37.8683 1.91406 38.6591C1.91406 39.4499 2.55664 40.0909 3.34961 40.0909ZM4.78516 33.8864C4.78516 34.6772 4.14258 35.3182 3.34961 35.3182C2.55664 35.3182 1.91406 34.6772 1.91406 33.8864C1.91406 33.0956 2.55664 32.4546 3.34961 32.4546C4.14258 32.4546 4.78516 33.0956 4.78516 33.8864Z" fill="#3F3F3F"/>
</svg>
