<svg width="67" height="42" viewBox="0 0 67 42" fill="none" xmlns="http://www.w3.org/2000/svg">
<path fill-rule="evenodd" clip-rule="evenodd" d="M6.7002 3.81818C6.7002 1.70947 8.40918 0 10.5186 0H26.8105C28.9189 0 30.6289 1.70947 30.6289 3.81818H36.3711C36.3711 1.70947 38.0801 0 40.1895 0H56.4814C58.5898 0 60.2998 1.70947 60.2998 3.81818H66.043C66.5713 3.81818 67 4.2467 67 4.77533V40.0909V41.0428V42.0001L66.043 42L63.1719 42.0001C63.1719 41.4729 62.7441 41.0455 62.2168 41.0455H58.3828C57.8564 41.0455 57.4287 41.4729 57.4287 42.0001H9.57129C9.57129 41.4729 9.14355 41.0455 8.61621 41.0455H4.78223C4.25586 41.0455 3.82812 41.4729 3.82812 42.0001L0.957031 42L0 42.0001V41.0428V40.0909V4.77533C0 4.2467 0.428711 3.81818 0.957031 3.81818H6.7002ZM26.7998 40.0909H40.2002V29.5909H26.7998V40.0909ZM33.5 5.72729L39.6641 27.6818H27.3359L33.5 5.72729Z" fill="#3F3F3F"/>
</svg>
