<svg width="44" height="44" viewBox="0 0 44 44" fill="none" xmlns="http://www.w3.org/2000/svg">
<path fill-rule="evenodd" clip-rule="evenodd" d="M0 0H44V44H0V0ZM40 21.5C40 31.165 32.165 39 22.5 39C12.835 39 5 31.165 5 21.5C5 11.835 12.835 4 22.5 4C32.165 4 40 11.835 40 21.5ZM2 3C2.55273 3 3 2.55231 3 2C3 1.44769 2.55273 1 2 1C1.44727 1 1 1.44769 1 2C1 2.55231 1.44727 3 2 3ZM43 2C43 2.55231 42.5527 3 42 3C41.4473 3 41 2.55231 41 2C41 1.44769 41.4473 1 42 1C42.5527 1 43 1.44769 43 2ZM2 43C2.55273 43 3 42.5523 3 42C3 41.4477 2.55273 41 2 41C1.44727 41 1 41.4477 1 42C1 42.5523 1.44727 43 2 43ZM43 42C43 42.5523 42.5527 43 42 43C41.4473 43 41 42.5523 41 42C41 41.4477 41.4473 41 42 41C42.5527 41 43 41.4477 43 42ZM18.0879 7.39587C15.6865 6.81842 13.1719 8.2702 12.4717 10.6384C11.9668 12.3466 12.5371 14.139 13.9248 15.2012L18.8037 18.9357C18.2061 19.7985 17.9258 20.8489 18.0166 21.8946L11.9355 22.6879C10.2031 22.9139 8.8125 24.1808 8.39648 25.9128C7.81836 28.314 9.27051 30.8286 11.6387 31.5291C13.3467 32.0344 15.1396 31.4635 16.2012 30.0759L19.9355 25.1974C20.7988 25.7951 21.8496 26.0753 22.8955 25.9837L23.6885 32.0637C23.9141 33.7964 25.1807 35.187 26.9131 35.6035C29.3145 36.181 31.8291 34.7292 32.5293 32.361C33.0342 30.6528 32.4639 28.8604 31.0762 27.7982L26.1973 24.0637C26.7949 23.201 27.0742 22.151 26.9834 21.1056L33.0645 20.3123C34.7969 20.0862 36.1875 18.8193 36.6035 17.0873C37.1816 14.6861 35.7295 12.1716 33.3613 11.4711C31.6533 10.9658 29.8604 11.5366 28.7988 12.9242L25.0645 17.8027C24.2012 17.205 23.1514 16.925 22.1055 17.0162L21.3125 10.9357C21.0869 9.203 19.8203 7.81238 18.0879 7.39587Z" fill="#3F3F3F"/>
</svg>
