<svg width="38" height="48" viewBox="0 0 38 48" fill="none" xmlns="http://www.w3.org/2000/svg">
<path fill-rule="evenodd" clip-rule="evenodd" d="M13 3.73242C13.5977 3.3866 14 2.74023 14 2C14 0.895447 13.1045 0 12 0C10.8955 0 10 0.895447 10 2C10 2.74023 10.4023 3.3866 11 3.73242V4H2H1C0.447266 4 0 4.44769 0 5C0 5.55231 0.447266 6 1 6H2V46H1C0.447266 46 0 46.4477 0 47C0 47.5523 0.447266 48 1 48H2H36H37C37.5527 48 38 47.5523 38 47C38 46.4477 37.5527 46 37 46H36V6H37C37.5527 6 38 5.55231 38 5C38 4.44769 37.5527 4 37 4H36H13V3.73242ZM19 44C19.5527 44 20 43.5523 20 43C20 42.4477 19.5527 42 19 42C18.4473 42 18 42.4477 18 43C18 43.5523 18.4473 44 19 44ZM20 39C20 39.5523 19.5527 40 19 40C18.4473 40 18 39.5523 18 39C18 38.4477 18.4473 38 19 38C19.5527 38 20 38.4477 20 39Z" fill="#3F3F3F"/>
</svg>
