<svg width="62" height="40" viewBox="0 0 62 40" fill="none" xmlns="http://www.w3.org/2000/svg">
<path fill-rule="evenodd" clip-rule="evenodd" d="M42 0H36V15C36 15.5523 35.5527 16 35 16C34.4473 16 34 15.5523 34 15V0H28V15C28 15.5523 27.5527 16 27 16C26.4473 16 26 15.5523 26 15V0H20V13C20 13.5523 19.5527 14 19 14C18.4473 14 18 13.5523 18 13V0H12V10C12 10.5523 11.5527 11 11 11C10.4473 11 10 10.5523 10 10V0H2C0.895508 0 0 0.895447 0 2V38V40H11V38H51V40H62V38V2C62 0.895447 61.1045 0 60 0H52V10C52 10.5523 51.5527 11 51 11C50.4473 11 50 10.5523 50 10V0H44V13C44 13.5523 43.5527 14 43 14C42.4473 14 42 13.5523 42 13V0ZM7 32.5C7 33.3284 6.32812 34 5.5 34C4.67188 34 4 33.3284 4 32.5C4 31.6716 4.67188 31 5.5 31C6.32812 31 7 31.6716 7 32.5Z" fill="#3F3F3F"/>
</svg>
