<svg width="1184" height="242" viewBox="0 0 1184 242" fill="none" xmlns="http://www.w3.org/2000/svg">
<g opacity="0.1">
<path d="M0 0H143.388H144.084H267.286L0 242V0Z" fill="#9C9C9C"/>
<path d="M133.643 0H0V120.659L133.643 0Z" fill="black"/>
<path d="M34.8029 -6.5011e-07H98.1443L63.3413 138.383H-2.1242e-05L34.8029 -6.5011e-07Z" transform="translate(895.83 51.8103)" fill="#322F2F"/>
<path d="M-1.0621e-05 138.383H57.0768L67.5177 96.8L99.5364 138.383H169.142L119.026 68.169L196.984 -6.5011e-07H130.859L80.7427 42.9465L91.8797 -6.5011e-07H32.0187L-1.0621e-05 138.383Z" transform="translate(707.199 51.8103)" fill="#322F2F"/>
<path d="M-1.0621e-05 138.383L34.8029 -6.5011e-07H98.1442L63.3413 138.383H-1.0621e-05Z" transform="translate(609.752 51.8103)" fill="#322F2F"/>
<path d="M4.2484e-05 138.383H43.1556L63.3413 59.307L89.0954 138.383H159.397L194.896 -6.5011e-07H148.26L128.771 76.3493L100.929 -6.5011e-07H34.803L4.2484e-05 138.383Z" transform="translate(989.104 51.8103)" fill="#322F2F"/>
<path d="M1.0621e-05 138.383L35.499 -6.5011e-07H129.467C129.467 -6.5011e-07 194.896 4.77182 187.936 69.5324C187.936 71.5775 184.455 126.794 114.85 137.701H1.0621e-05V138.383ZM95.36 106.344C95.36 106.344 122.506 104.299 130.163 72.9408C130.163 72.9408 134.339 49.0817 125.291 40.2197C125.291 40.2197 119.026 34.7662 109.977 34.7662H85.6152L68.2137 106.344H95.36Z" transform="translate(232.486 51.8097)" fill="#322F2F"/>
<path d="M58.4689 111.797L41.7635 138.383H-1.0621e-05L77.9586 -6.5011e-07H149.653L174.711 138.383H112.065L107.889 111.797H58.4689ZM101.625 80.4394L95.36 44.9916L75.8704 80.4394H101.625Z" transform="translate(414.855 51.8103)" fill="#322F2F"/>
</g>
</svg>
