<svg width="70" height="70" viewBox="0 0 70 70" fill="none" xmlns="http://www.w3.org/2000/svg">
<path d="M61.3658 0H0V58.5903H61.3658V0Z" transform="translate(2.77441 3.39203)" fill="#CCAA66"/>
<path d="M48.1058 51.1894C47.1807 49.9559 45.9472 48.1057 45.9472 48.1057L38.2379 59.2071L51.4978 57.0484L49.9559 53.9647C56.7401 49.9559 59.8239 42.5551 61.0574 37.3128C59.5155 37.0044 57.9737 36.6961 57.9737 36.6961C56.7402 41.3216 53.0397 48.1057 48.1058 51.1894ZM22.8194 15.7269C23.7445 16.9604 24.978 18.8106 24.978 18.8106L32.6873 7.70925L19.4273 9.86787L20.9691 12.9516C14.185 16.9604 11.1013 24.3612 9.86779 29.6035C11.4096 29.9119 12.9515 30.2203 12.9515 30.2203C14.185 25.5948 17.8855 18.8106 22.8194 15.7269ZM4.62555 70C2.15859 70 0 67.8414 0 65.3745V4.62555C0 2.15859 2.15859 0 4.62555 0H65.3744C67.8414 0 70 2.15859 70 4.62555V65.3745C70 67.8414 67.8414 70 65.3744 70H4.62555Z" fill="#141414"/>
<path d="M30.5287 0H0V30.837H30.5287V0Z" transform="translate(36.0781 2.46695)" fill="white"/>
<path d="M8.63433 17.5771V0H2.15844V17.5771C0.92496 18.5022 0 20.3524 0 21.8943C0 24.978 2.46692 27.4449 5.55063 27.4449C8.63433 27.4449 11.1013 24.978 11.1013 21.8943C11.1013 20.0441 10.1762 18.5022 8.63433 17.5771Z" transform="translate(45.6387 3.70053)" fill="#141414"/>
<path d="M4.62555 0H0V4.62555H4.62555V0Z" transform="translate(48.7217 4.62561)" fill="white"/>
<path d="M4.62555 31.4538C2.15859 31.4538 0 29.2952 0 26.8282V4.62555C0 2.15859 2.15859 0 4.62555 0H29.6035C32.0704 0 34.229 2.15859 34.229 4.62555V26.8282C34.229 29.2952 32.0704 31.4538 29.6035 31.4538" transform="translate(1.84863 33.9206)" fill="white"/>
<path d="M17 0H0V3H17V0Z" transform="translate(14 57)" fill="#141414"/>
<path d="M2.5 5C3.8889 5 5 3.75 5 2.5C5 1 3.8889 0 2.5 0C1.1111 0 0 1.25 0 2.5C0 3.75 1.1111 5 2.5 5Z" transform="translate(7 56)" fill="#141414"/>
<path d="M25.2863 15.4185C27.7533 15.4185 29.9119 13.2599 29.9119 10.7929V4.62555C29.9119 2.15859 27.7533 0 25.2863 0H4.62556C2.15859 0 0 2.15859 0 4.62555V10.7929C0 13.2599 2.15859 15.4185 4.62556 15.4185" transform="translate(4.00781 36.0794)" fill="#141414"/>
<path d="M5.24233 0H0V4.31716H5.24233V0Z" transform="translate(8.94238 40.7048)" fill="white"/>
<path d="M5.24233 0H0V4.31716H5.24233V0Z" transform="translate(16.6514 40.7048)" fill="white"/>
<path d="M5.24233 0H0V4.31716H5.24233V0Z" transform="translate(24.3613 40.7048)" fill="white"/>
</svg>
