<svg width="70" height="70" viewBox="0 0 70 70" fill="none" xmlns="http://www.w3.org/2000/svg">
<path d="M4.64602 70C2.16814 70 0 67.8414 0 65.3745V4.62555C0 2.15859 2.16814 0 4.64602 0H65.354C67.8319 0 70 2.15859 70 4.62555V65.3745C70 67.8414 67.8319 70 65.354 70" fill="#141414"/>
<path d="M5.78259 7.00004C5.78259 7.00004 4.56525 7.63644 3.65221 7.63644C1.52178 7.63644 0 6.04549 0 3.81822C0 1.90913 1.21743 0 3.65221 0C4.56525 0 5.17389 0.318221 5.78259 0.636402V2.86371C5.17389 2.22735 4.56527 2.22731 3.95658 2.22731C3.04353 2.22731 2.43484 2.86369 2.43484 4.13642C2.43484 5.09097 3.04353 6.04553 3.95658 6.04553C4.26093 6.04553 4.86962 6.04549 5.47832 5.40913" transform="translate(10.3467 55.6818)" fill="white"/>
<path d="M0 3.81822C0 1.59095 1.21737 0 4.26085 0C7.30433 0 8.5217 1.90913 8.5217 3.81822C8.5217 6.04549 7.30433 7.63644 4.26085 7.63644C1.21737 7.63644 0 5.72731 0 3.81822ZM5.78259 3.81822C5.78259 2.54549 5.17389 1.90911 4.26085 1.90911C3.34781 1.90911 2.73911 2.86368 2.73911 3.81822C2.73911 5.09095 3.34781 5.72733 4.26085 5.72733C5.17389 5.72733 5.78259 4.77277 5.78259 3.81822Z" transform="translate(17.043 55.6818)" fill="white"/>
<path d="M0 0.318104H2.43475V1.27271C3.04344 0.636344 3.6521 0 4.86949 0C7.30427 0 7.30433 2.2272 7.30433 3.49992V7.95455H4.86949V3.81812C4.86949 3.49994 4.86953 2.54542 3.95648 2.54542C3.34779 2.54542 2.73911 3.1818 2.73911 4.45453V7.95455H0.304274" transform="translate(26.4766 55.3637)" fill="white"/>
<path d="M0.913099 3.81812H0V1.90901H0.913099V0H3.34784V1.90901H4.86958V3.81812H3.34784V9.22725H0.913099" transform="translate(34.6953 53.7728)" fill="white"/>
<path d="M0 0.318104H2.43484V1.27271C2.43484 1.27271 2.43486 0.954507 2.7392 0.954507C3.3479 0.318143 3.95652 0 4.56522 0C4.86957 0 5.17395 0 5.17395 0V2.22721C4.8696 2.22721 4.86957 2.22721 4.56522 2.22721C2.73913 2.22721 2.7392 4.13634 2.7392 4.45453V7.63634H0.304366" transform="translate(40.4785 55.3637)" fill="white"/>
<path d="M0 3.81822C0 1.59095 1.21737 0 4.26085 0C7.30433 0 8.5217 1.90913 8.5217 3.81822C8.5217 6.04549 7.30433 7.63644 4.26085 7.63644C1.21737 7.63644 0 5.72731 0 3.81822ZM5.78259 3.81822C5.78259 2.54549 5.17389 1.90911 4.26085 1.90911C3.34781 1.90911 2.73911 2.86368 2.73911 3.81822C2.73911 5.09095 3.34781 5.72733 4.26085 5.72733C5.17389 5.72733 5.78259 4.77277 5.78259 3.81822Z" transform="translate(46.2607 55.6818)" fill="white"/>
<path d="M2.43484 0H0V11.1364H2.43484V0Z" transform="translate(55.6943 51.8637)" fill="white"/>
<path d="M0 10.1818H2.73911L3.95648 0H1.21737L0 10.1818ZM4.26085 10.1818H6.99996L7.6087 4.13632L10.6522 10.1818H13.3913L14.6087 0H11.8695L11.2608 6.04543L8.5217 0H5.78259L4.26085 10.1818ZM17.9565 10.1818H20.6956L25.5652 0H22.5217L19.7826 6.68184L18.5652 0H15.5218L17.9565 10.1818ZM24.9565 10.1818H30.7392L31.0434 7.63634H27.9999L28.3043 6.04543H31.0434L31.3478 3.81812H28.6087L28.913 2.54542H31.9565L32.2609 0H26.4782L24.9565 10.1818ZM32.2609 10.1818H35L35.3044 6.99994L36.8261 10.1818H40.1739L38.0435 6.04543C38.9565 5.72725 39.2609 5.40911 39.5652 5.09093C40.1739 4.45457 40.1739 3.81818 40.1739 3.18182C40.1739 2.54545 39.8696 1.90907 39.5652 1.27271C38.9565 0.318162 37.7391 0.318201 37.1304 0.318201H33.1739L32.2609 10.1818ZM35.913 2.54542H36.5217C36.8261 2.54542 37.1304 2.54544 37.4347 2.86362C37.4347 3.1818 37.7391 3.18184 37.7391 3.50002C37.7391 3.8182 37.7391 4.13634 37.4347 4.45453C37.1304 4.77271 36.5217 4.77273 36.2174 4.77273H35.6086L35.913 2.54542ZM42.3043 10.1818H45.0434L45.9565 2.54542H48.0869L48.3913 0H41.3913L41.087 2.54542H43.2173L42.3043 10.1818ZM48.0869 10.1818H53.8695L54.1739 7.63634H51.1304L51.4348 6.04543H54.1739L54.4782 3.81812H51.7391L52.0435 2.54542H55.087L55.3913 0H49.6087L48.0869 10.1818ZM55.3913 10.1818H58.1305L58.4347 6.99994L59.9565 10.1818H63.3043L61.1739 6.04543C62.087 5.72725 62.3913 5.40911 62.6957 5.09093C63.3044 4.45457 63.3043 3.81818 63.3043 3.18182C63.3043 2.54545 63 1.90907 62.6957 1.27271C62.087 0.318162 60.8695 0.318201 60.2608 0.318201H56.3044L55.3913 10.1818ZM59.0435 2.54542H59.6522C59.9565 2.54542 60.2609 2.54544 60.5652 2.86362C60.5652 3.1818 60.8696 3.18184 60.8696 3.50002C60.8696 3.8182 60.8695 4.13634 60.5652 4.45453C60.2609 4.77271 59.6522 4.77273 59.3478 4.77273H58.7391L59.0435 2.54542Z" transform="translate(3.34668 35.9546)" fill="white"/>
<path d="M0 0H0.304366" transform="translate(0 47.4092)" stroke="white" stroke-width="0.133"/>
<path d="M0 0H0.913006" transform="translate(0 45.8183)" stroke="white" stroke-width="0.133"/>
<path d="M0 0H1.21737" transform="translate(0 44.5455)" stroke="white" stroke-width="0.133"/>
<path d="M0 0H1.52174" transform="translate(0 42.9546)" stroke="white" stroke-width="0.133"/>
<path d="M0 0H2.13047" transform="translate(0 41.3636)" stroke="white" stroke-width="0.133"/>
<path d="M0 0H2.43475" transform="translate(0 39.7728)" stroke="white" stroke-width="0.133"/>
<path d="M0 0H2.73911" transform="translate(0 38.1818)" stroke="white" stroke-width="0.133"/>
<path d="M0 0H3.34784" transform="translate(0 36.5909)" stroke="white" stroke-width="0.133"/>
<path d="M0 0H3.65221" transform="translate(0 35.3182)" stroke="white" stroke-width="0.133"/>
<path d="M0 0H4.26085" transform="translate(0 33.7273)" stroke="white" stroke-width="0.133"/>
<path d="M0 0H4.56522" transform="translate(0 32.1364)" stroke="white" stroke-width="0.133"/>
<path d="M0 0H4.86958" transform="translate(0.304688 30.5455)" stroke="white" stroke-width="0.133"/>
<path d="M0 0H4.56522" transform="translate(0.913086 29.2728)" stroke="white" stroke-width="0.133"/>
<path d="M0 0H4.56522" transform="translate(1.52246 27.6819)" stroke="white" stroke-width="0.133"/>
<path d="M0 0H4.26085" transform="translate(2.13184 26.4092)" stroke="white" stroke-width="0.133"/>
<path d="M0 0H4.26085" transform="translate(2.74023 24.8183)" stroke="white" stroke-width="0.133"/>
<path d="M0 0H4.56522" transform="translate(3.04199 23.5455)" stroke="white" stroke-width="0.133"/>
<path d="M0 0H4.26085" transform="translate(3.65137 22.2728)" stroke="white" stroke-width="0.133"/>
<path d="M0 0H4.26085" transform="translate(4.25977 21.0001)" stroke="white" stroke-width="0.133"/>
<path d="M0 0H4.26085" transform="translate(4.86914 19.7274)" stroke="white" stroke-width="0.133"/>
<path d="M0 0H3.95658" transform="translate(5.47852 18.4547)" stroke="white" stroke-width="0.133"/>
<path d="M0 0H3.95648" transform="translate(6.08691 17.5)" stroke="white" stroke-width="0.133"/>
<path d="M0 0H3.95648" transform="translate(6.69629 16.5455)" stroke="white" stroke-width="0.133"/>
<path d="M0 0H3.65221" transform="translate(7.30469 15.591)" stroke="white" stroke-width="0.133"/>
<path d="M0 0H3.65212" transform="translate(7.91406 14.6364)" stroke="white" stroke-width="0.133"/>
<path d="M0 0H3.65221" transform="translate(8.52344 13.6819)" stroke="white" stroke-width="0.133"/>
<path d="M0 0H3.65221" transform="translate(8.82422 13.0455)" stroke="white" stroke-width="0.133"/>
<path d="M0 0H3.65212" transform="translate(9.43359 12.4092)" stroke="white" stroke-width="0.133"/>
<path d="M0 0H3.65221" transform="translate(10.043 11.7728)" stroke="white" stroke-width="0.133"/>
<path d="M0 0H3.34784" transform="translate(10.6514 11.4546)" stroke="white" stroke-width="0.133"/>
<path d="M0 0H3.34775" transform="translate(11.2607 10.8182)" stroke="#CCAA66" stroke-width="0.132"/>
<path d="M0 0H3.34784" transform="translate(11.8701 10.5001)" stroke="#CCAA66" stroke-width="0.13"/>
<path d="M0 0H3.34784" transform="translate(12.4785 10.1819)" stroke="#CCAA66" stroke-width="0.129"/>
<path d="M0 0H3.65212" transform="translate(12.7832 9.86365)" stroke="#CCAA66" stroke-width="0.128"/>
<path d="M0 0H3.65221" transform="translate(13.3926 9.54547)" stroke="#CCAA66" stroke-width="0.126"/>
<path d="M0 0H3.65212" transform="translate(14.001 9.54547)" stroke="#CCAA66" stroke-width="0.125"/>
<path d="M0 0H3.65221" transform="translate(14.6074 9.54547)" stroke="#CCAA66" stroke-width="0.124"/>
<path d="M0 0H3.65221" transform="translate(15.2158 9.22736)" stroke="#CCAA66" stroke-width="0.123"/>
<path d="M0 0H3.95648" transform="translate(15.5205 9.22736)" stroke="#CCAA66" stroke-width="0.121"/>
<path d="M0 0H3.95658" transform="translate(16.1299 9.22736)" stroke="#CCAA66" stroke-width="0.12"/>
<path d="M0 0H3.95648" transform="translate(16.7383 9.22736)" stroke="#CCAA66" stroke-width="0.119"/>
<path d="M0 0H4.26085" transform="translate(17.043 9.54547)" stroke="#CCAA66" stroke-width="0.117"/>
<path d="M0 0H3.95658" transform="translate(17.6523 9.54547)" stroke="#CCAA66" stroke-width="0.116"/>
<path d="M0 0H3.95648" transform="translate(18.2617 9.86365)" stroke="#CCAA66" stroke-width="0.115"/>
<path d="M0 0H4.26085" transform="translate(18.5654 9.86365)" stroke="#CCAA66" stroke-width="0.114"/>
<path d="M0 0H4.26094" transform="translate(19.1748 10.1819)" stroke="#CCAA66" stroke-width="0.112"/>
<path d="M0 0H4.26085" transform="translate(19.7842 10.5001)" stroke="#CCAA66" stroke-width="0.111"/>
<path d="M0 0H4.26085" transform="translate(20.0879 10.8182)" stroke="#CCAA66" stroke-width="0.11"/>
<path d="M0 0H4.26094" transform="translate(20.6943 11.1364)" stroke="#CCAA66" stroke-width="0.108"/>
<path d="M0 0H4.26085" transform="translate(21.3037 11.4546)" stroke="#CCAA66" stroke-width="0.107"/>
<path d="M0 0H4.56522" transform="translate(21.6074 11.7728)" stroke="#CCAA66" stroke-width="0.106"/>
<path d="M0 0H4.26094" transform="translate(22.2168 12.0909)" stroke="#CCAA66" stroke-width="0.104"/>
<path d="M0 0H4.56522" transform="translate(22.5215 12.4092)" stroke="#CCAA66" stroke-width="0.103"/>
<path d="M0 0H4.56522" transform="translate(23.1299 13.0455)" stroke="#CCAA66" stroke-width="0.102"/>
<path d="M0 0H4.56522" transform="translate(23.4346 13.3636)" stroke="#CCAA66" stroke-width="0.1"/>
<path d="M0 0H4.56522" transform="translate(24.0439 13.6819)" stroke="#CCAA66" stroke-width="0.099"/>
<path d="M0 0H4.86958" transform="translate(24.3486 14.3182)" stroke="#CCAA66" stroke-width="0.098"/>
<path d="M0 0H4.56522" transform="translate(24.957 14.6364)" stroke="#CCAA66" stroke-width="0.097"/>
<path d="M0 0H4.86958" transform="translate(25.2617 15.2728)" stroke="#CCAA66" stroke-width="0.095"/>
<path d="M0 0H4.86958" transform="translate(25.5664 15.591)" stroke="#CCAA66" stroke-width="0.094"/>
<path d="M0 0H4.86958" transform="translate(26.1758 16.2273)" stroke="#CCAA66" stroke-width="0.093"/>
<path d="M0 0H4.86949" transform="translate(26.4766 16.5455)" stroke="#CCAA66" stroke-width="0.091"/>
<path d="M0 0H5.17395" transform="translate(26.7812 16.8637)" stroke="#CCAA66" stroke-width="0.09"/>
<path d="M0 0H4.86958" transform="translate(27.3906 17.5)" stroke="#CCAA66" stroke-width="0.089"/>
<path d="M0 0H5.17386" transform="translate(27.6953 17.8182)" stroke="#CCAA66" stroke-width="0.087"/>
<path d="M0 0H5.17386" transform="translate(27.999 18.4546)" stroke="#CCAA66" stroke-width="0.086"/>
<path d="M0 0H5.17395" transform="translate(28.6084 18.7728)" stroke="#CCAA66" stroke-width="0.085"/>
<path d="M0 0H5.17395" transform="translate(28.9131 19.4091)" stroke="#CCAA66" stroke-width="0.083"/>
<path d="M0 0H5.17386" transform="translate(29.2178 19.7273)" stroke="#CCAA66" stroke-width="0.082"/>
<path d="M0 0H5.47822" transform="translate(29.5215 20.0455)" stroke="#CCAA66" stroke-width="0.081"/>
<path d="M0 0H5.47832" transform="translate(29.8262 20.3637)" stroke="#CCAA66" stroke-width="0.08"/>
<path d="M0 0H5.47822" transform="translate(30.4355 20.6818)" stroke="#CCAA66" stroke-width="0.078"/>
<path d="M0 0H5.47822" transform="translate(30.7402 21.3182)" stroke="#CCAA66" stroke-width="0.077"/>
<path d="M0 0H5.47822" transform="translate(31.0449 21.6364)" stroke="#CCAA66" stroke-width="0.076"/>
<path d="M0 0H5.47832" transform="translate(31.3486 21.6364)" stroke="#CCAA66" stroke-width="0.074"/>
<path d="M0 0H5.78259" transform="translate(31.6533 21.9547)" stroke="#CCAA66" stroke-width="0.073"/>
<path d="M0 0H5.78259" transform="translate(31.958 22.2727)" stroke="#CCAA66" stroke-width="0.072"/>
<path d="M0 0H5.78259" transform="translate(32.2598 22.5909)" stroke="#CCAA66" stroke-width="0.071"/>
<path d="M0 0H5.78259" transform="translate(32.5635 22.5909)" stroke="#CCAA66" stroke-width="0.069"/>
<path d="M0 0H5.78268" transform="translate(32.8682 22.9091)" stroke="#CCAA66" stroke-width="0.068"/>
<path d="M0 0H5.78259" transform="translate(33.1729 22.9091)" stroke="#CCAA66" stroke-width="0.067"/>
<path d="M0 0H5.78259" transform="translate(33.7822 22.9091)" stroke="#CCAA66" stroke-width="0.067"/>
<path d="M0 0H5.78268" transform="translate(34.3906 23.2274)" stroke="#CCAA66" stroke-width="0.067"/>
<path d="M0 0H5.78259" transform="translate(34.6953 23.2274)" stroke="#CCAA66" stroke-width="0.067"/>
<path d="M0 0H5.78259" transform="translate(35.3047 23.2274)" stroke="#CCAA66" stroke-width="0.067"/>
<path d="M0 0H5.47832" transform="translate(35.9131 23.2274)" stroke="#CCAA66" stroke-width="0.067"/>
<path d="M0 0H5.78259" transform="translate(36.2178 23.2274)" stroke="#CCAA66" stroke-width="0.067"/>
<path d="M0 0H5.47822" transform="translate(36.8271 23.2274)" stroke="#CCAA66" stroke-width="0.067"/>
<path d="M0 0H5.47832" transform="translate(37.4365 23.2274)" stroke="#CCAA66" stroke-width="0.067"/>
<path d="M0 0H5.47832" transform="translate(37.7402 23.2274)" stroke="#CCAA66" stroke-width="0.067"/>
<path d="M0 0H5.47822" transform="translate(38.3467 23.2274)" stroke="#CCAA66" stroke-width="0.067"/>
<path d="M0 0H5.17395" transform="translate(38.9551 23.2274)" stroke="#CCAA66" stroke-width="0.067"/>
<path d="M0 0H5.47832" transform="translate(39.2598 22.9091)" stroke="#CCAA66" stroke-width="0.067"/>
<path d="M0 0H5.17386" transform="translate(39.8691 22.9091)" stroke="#CCAA66" stroke-width="0.067"/>
<path d="M0 0H5.17386" transform="translate(40.1738 22.9091)" stroke="#CCAA66" stroke-width="0.067"/>
<path d="M0 0H5.17395" transform="translate(40.7822 22.5909)" stroke="#CCAA66" stroke-width="0.067"/>
<path d="M0 0H4.86958" transform="translate(41.3916 22.5909)" stroke="#CCAA66" stroke-width="0.067"/>
<path d="M0 0H5.17386" transform="translate(41.6963 22.2727)" stroke="#CCAA66" stroke-width="0.067"/>
<path d="M0 0H4.86958" transform="translate(42.3047 22.2727)" stroke="#CCAA66" stroke-width="0.067"/>
<path d="M0 0H4.86958" transform="translate(42.6094 21.9547)" stroke="#CCAA66" stroke-width="0.067"/>
<path d="M0 0H4.86949" transform="translate(43.2188 21.6364)" stroke="#CCAA66" stroke-width="0.067"/>
<path d="M0 0H4.86958" transform="translate(43.5234 21.6364)" stroke="#CCAA66" stroke-width="0.067"/>
<path d="M0 0H4.86958" transform="translate(44.1289 21.3182)" stroke="#CCAA66" stroke-width="0.067"/>
<path d="M0 0H4.56522" transform="translate(44.7383 21)" stroke="#CCAA66" stroke-width="0.067"/>
<path d="M0 0H4.56522" transform="translate(45.043 21)" stroke="#CCAA66" stroke-width="0.067"/>
<path d="M0 0H4.56522" transform="translate(45.6514 20.6818)" stroke="#CCAA66" stroke-width="0.067"/>
<path d="M0 0H4.56522" transform="translate(45.9561 20.3637)" stroke="#CCAA66" stroke-width="0.067"/>
<path d="M0 0H4.26094" transform="translate(46.5654 20.0455)" stroke="#CCAA66" stroke-width="0.067"/>
<path d="M0 0H4.56522" transform="translate(46.8701 20.0455)" stroke="#CCAA66" stroke-width="0.067"/>
<path d="M0 0H4.26085" transform="translate(47.4785 19.7273)" stroke="#CCAA66" stroke-width="0.067"/>
<path d="M0 0H4.26085" transform="translate(47.7832 19.4091)" stroke="#CCAA66" stroke-width="0.067"/>
<path d="M0 0H4.26085" transform="translate(48.3926 19.0909)" stroke="#CCAA66" stroke-width="0.067"/>
<path d="M0 0H4.26085" transform="translate(48.6963 18.7728)" stroke="#CCAA66" stroke-width="0.067"/>
<path d="M0 0H4.26085" transform="translate(49.001 18.7728)" stroke="#CCAA66" stroke-width="0.067"/>
<path d="M0 0H4.26094" transform="translate(49.6074 18.4546)" stroke="#CCAA66" stroke-width="0.067"/>
<path d="M0 0H4.26085" transform="translate(49.9121 18.1364)" stroke="#CCAA66" stroke-width="0.067"/>
<path d="M0 0H3.95648" transform="translate(50.5205 17.8182)" stroke="#CCAA66" stroke-width="0.067"/>
<path d="M0 0H3.95648" transform="translate(50.8252 17.8182)" stroke="#CCAA66" stroke-width="0.067"/>
<path d="M0 0H3.95658" transform="translate(51.4346 17.5)" stroke="#CCAA66" stroke-width="0.067"/>
<path d="M0 0H3.95648" transform="translate(51.7383 17.1819)" stroke="#CCAA66" stroke-width="0.067"/>
<path d="M0 0H3.95648" transform="translate(52.043 17.1819)" stroke="#CCAA66" stroke-width="0.067"/>
<path d="M0 0H3.65221" transform="translate(52.6523 16.8637)" stroke="#CCAA66" stroke-width="0.067"/>
<path d="M0 0H3.65221" transform="translate(52.957 16.5455)" stroke="#CCAA66" stroke-width="0.067"/>
<path d="M0 0H3.95648" transform="translate(53.2617 16.5455)" stroke="#CCAA66" stroke-width="0.067"/>
<path d="M0 0H3.65212" transform="translate(53.8701 16.2273)" stroke="#CCAA66" stroke-width="0.067"/>
<path d="M0 0H3.65221" transform="translate(54.1748 16.2273)" stroke="#CCAA66" stroke-width="0.067"/>
<path d="M0 0H3.34784" transform="translate(54.7842 15.9091)" stroke="#CCAA66" stroke-width="0.067"/>
<path d="M0 0H3.34784" transform="translate(55.0879 15.9091)" stroke="#CCAA66" stroke-width="0.067"/>
<path d="M0 0H3.65212" transform="translate(55.3926 15.9091)" stroke="#CCAA66" stroke-width="0.067"/>
<path d="M0 0H3.34784" transform="translate(55.999 15.591)" stroke="#CCAA66" stroke-width="0.067"/>
<path d="M0 0H3.34784" transform="translate(56.3037 15.591)" stroke="#CCAA66" stroke-width="0.067"/>
<path d="M0 0H3.34784" transform="translate(56.6074 15.591)" stroke="#CCAA66" stroke-width="0.067"/>
<path d="M0 0H3.04348" transform="translate(57.2168 15.591)" stroke="#CCAA66" stroke-width="0.067"/>
<path d="M0 0H3.34784" transform="translate(57.5215 15.591)" stroke="#CCAA66" stroke-width="0.067"/>
<path d="M0 0H3.34784" transform="translate(57.8262 15.591)" stroke="#CCAA66" stroke-width="0.067"/>
<path d="M0 0H3.34775" transform="translate(58.4346 15.591)" stroke="#CCAA66" stroke-width="0.067"/>
<path d="M0 0H3.34784" transform="translate(58.7393 15.591)" stroke="#CCAA66" stroke-width="0.067"/>
<path d="M0 0H3.34784" transform="translate(59.3486 15.591)" stroke="#CCAA66" stroke-width="0.067"/>
<path d="M0 0H3.34784" transform="translate(59.6533 15.591)" stroke="#CCAA66" stroke-width="0.067"/>
<path d="M0 0H3.34784" transform="translate(60.2617 15.591)" stroke="#CCAA66" stroke-width="0.067"/>
<path d="M0 0H3.34784" transform="translate(60.8711 15.591)" stroke="#CCAA66" stroke-width="0.067"/>
<path d="M0 0H3.34784" transform="translate(61.1758 15.591)" stroke="#CCAA66" stroke-width="0.067"/>
<path d="M0 0H3.34784" transform="translate(61.7812 15.9091)" stroke="#CCAA66" stroke-width="0.067"/>
<path d="M0 0H3.34784" transform="translate(62.0859 15.9091)" stroke="#CCAA66" stroke-width="0.067"/>
<path d="M0 0H3.34784" transform="translate(62.6953 15.9091)" stroke="#CCAA66" stroke-width="0.067"/>
<path d="M0 0H3.34775" transform="translate(62.999 16.2273)" stroke="#CCAA66" stroke-width="0.067"/>
<path d="M0 0H3.34784" transform="translate(63.6084 16.2273)" stroke="#CCAA66" stroke-width="0.067"/>
<path d="M0 0H3.65221" transform="translate(63.9131 16.2273)" stroke="#CCAA66" stroke-width="0.067"/>
<path d="M0 0H3.34775" transform="translate(64.5215 16.5455)" stroke="#CCAA66" stroke-width="0.067"/>
<path d="M0 0H3.34784" transform="translate(65.1309 16.5455)" stroke="#CCAA66" stroke-width="0.067"/>
</svg>
