<svg width="67" height="61" viewBox="0 0 67 61" fill="none" xmlns="http://www.w3.org/2000/svg">
<path d="M64.8806 22.5119C64.4096 22.1488 63.8208 21.9067 63.232 21.6646C59.4641 8.83535 47.8067 0 34.8542 0C18.4868 0 5.18103 13.6765 5.18103 30.5C5.18103 31.7103 5.29883 32.9206 5.41652 34.1309C2.96294 36.5076 1.17387 39.5168 0.235492 42.8453L0 43.5715L0.706476 43.3294C1.17746 43.2083 1.64845 42.9663 2.11953 42.8453C3.76808 42.2401 5.53432 41.635 7.06507 41.1508C11.4218 53.0119 22.4904 61 34.8542 61C51.2215 61 64.5273 47.3235 64.5273 30.5C64.5273 29.6528 64.5273 28.6845 64.4095 27.8373C65.7047 27.3532 66.529 26.8691 66.7645 26.1428L66.8822 26.0217V25.9008C66.8822 25.7797 67 25.6587 67 25.4166C67.0001 24.4484 66.2935 23.3591 64.8806 22.5119ZM23.1968 15.371L23.079 14.2817L22.9612 13.9186L22.608 13.0714L22.3725 12.8293L21.666 11.8611L21.4305 11.619L20.724 10.6508L20.4885 10.2877C20.4885 10.2877 20.253 9.92454 20.253 9.68249C20.8418 8.10908 25.6696 7.38292 31.6749 7.38292C35.5606 7.38292 39.7997 7.62497 43.8032 8.23016C47.6889 8.83535 51.2214 9.56151 53.5764 10.5297C55.225 11.2559 56.167 11.9822 56.167 12.8293C55.8137 13.6765 55.225 14.2817 54.7539 14.8868C53.9296 15.855 53.2231 16.8234 52.7522 18.2757C43.5677 16.4603 32.9701 15.7341 23.3146 16.0972H23.1968C23.2217 15.9325 23.2612 15.7704 23.3146 15.6131L23.1968 15.371ZM26.6116 26.0218C26.8471 25.5377 27.0826 25.2957 27.4359 24.9325C28.1113 24.2384 28.9717 23.7656 29.9085 23.5741C30.8453 23.3826 31.8162 23.4809 32.6987 23.8566C33.5811 24.2323 34.3353 24.8685 34.8659 25.6848C35.3965 26.5011 35.6797 27.4608 35.6797 28.4425C35.6797 29.4242 35.3965 30.3839 34.8659 31.2002C34.3353 32.0164 33.5811 32.6527 32.6987 33.0284C31.8162 33.4041 30.8453 33.5024 29.9085 33.3108C28.9717 33.1193 28.1113 32.6466 27.4359 31.9524C26.3761 30.8631 25.7874 29.1686 26.1406 27.5952L26.2584 27.1111C26.3397 26.7366 26.4581 26.3716 26.6116 26.0218ZM22.4904 23.6011C22.1371 24.3272 21.9016 25.4165 21.7839 26.2638C20.2531 25.9007 18.7224 25.6586 17.4271 25.2956C12.5994 23.9642 9.53789 22.6329 9.42009 21.4226C12.4816 20.6964 17.7804 20.3333 24.1389 20.4544C23.4323 21.3016 22.8436 22.5119 22.4904 23.6011ZM22.2549 34.0098C17.5448 34.0098 13.6591 34.9781 10.3621 36.4305C7.06507 37.8829 4.35676 39.9405 1.64855 42.119C1.41305 42.2401 1.17756 42.2401 1.05977 42.3611C2.16298 38.7707 4.3486 35.6341 7.30056 33.4048C10.7153 30.7421 15.5431 28.6845 22.0194 27.3532H22.3727V26.385C22.8436 26.385 23.4324 26.385 23.9034 26.506C24.3744 26.6271 24.8454 26.7481 25.3165 27.1112C24.9632 29.0478 25.4343 30.9842 26.8472 32.4366C28.9668 34.6152 32.617 34.6152 34.7365 32.4366C36.8559 30.258 36.856 26.5061 34.7365 24.3276C32.6169 22.1491 29.2021 22.149 26.9649 24.2065C26.3761 23.9644 25.6697 23.7224 25.0809 23.4803C24.4921 23.3592 23.9034 23.3592 23.3146 23.3592C23.7856 22.2699 24.2566 21.3017 24.8454 20.4545C29.2021 20.5756 34.0299 20.8176 38.8577 21.1806C39.4465 21.1806 40.0352 21.3017 40.5063 21.3017C40.0353 23.4803 39.5643 25.5378 38.8577 27.5953C38.1512 29.5319 37.4447 31.3473 36.6205 32.7997C36.1495 33.6469 35.5607 34.3731 34.972 35.2203C34.3832 35.9465 33.7945 36.7937 33.0879 37.5199C29.9086 40.4246 26.0227 40.9085 22.1371 40.1826C22.0193 40.0615 21.9016 39.8195 21.7838 39.6985L21.4305 38.9723V38.7303H21.195C21.1311 38.7384 21.0662 38.7318 21.005 38.7108C20.9439 38.6899 20.8881 38.6551 20.8417 38.6092H20.4884C20.2529 38.6092 20.0174 38.4881 19.7819 38.4881H16.0141C15.7344 38.4766 15.4551 38.5176 15.1898 38.6092H14.8365C14.601 38.6092 14.2477 38.7303 14.0122 38.7303H13.6589C13.4235 38.7303 13.0702 38.8513 12.8347 38.8513L12.4814 38.9724C12.3165 38.9671 12.1534 39.0091 12.0104 39.0935H11.7749L11.4216 39.2146C11.1861 39.2146 10.9506 39.3356 10.7151 39.3356H10.3619C10.1264 39.3356 9.89087 39.4566 9.77308 39.4566L9.41979 39.5777C9.18429 39.5777 9.0665 39.6988 8.83101 39.6988L8.36033 39.9405C8.14198 39.9451 7.93271 40.0311 7.77154 40.1826L7.41826 40.3037C6.2408 40.6668 5.18103 41.0298 4.00347 41.393C6.123 39.8196 8.24253 38.3671 10.833 37.1569C14.0123 35.7044 17.7803 34.7362 22.3726 34.7362C22.6081 34.7362 22.7259 34.6152 22.7259 34.3731C22.6081 34.1309 22.4904 34.0098 22.2549 34.0098ZM41.8014 26.2638C42.0369 26.3849 42.1547 26.2638 42.2724 26.1427C42.6257 25.5375 42.7434 24.9324 42.9789 24.0852C43.0966 23.359 43.2144 22.5118 43.3322 21.5436C43.8032 21.5436 44.1564 21.6646 44.6274 21.6646C43.6855 28.6845 42.5079 35.9464 37.5624 41.6349C36.2671 43.2083 34.7364 44.2976 33.0878 45.1449C30.9683 46.1131 27.789 46.5973 25.4341 46.1131C24.4921 45.871 23.9033 45.3869 23.55 44.9028C23.3101 44.5032 23.1874 44.0409 23.1967 43.5715C24.2511 43.9766 25.3682 44.1816 26.4937 44.1766C27.5535 44.0556 28.4955 43.8135 29.9085 43.2084C30.144 43.0875 30.144 42.9664 30.144 42.7243C30.0262 42.4823 29.9085 42.4823 29.673 42.4823C28.3778 42.9664 27.4358 43.3295 26.4937 43.3295C25.5517 43.3295 24.492 43.2084 23.0789 42.7243C22.608 42.4823 22.2547 42.1191 22.137 41.7561C22.0192 41.4447 22.0192 41.0993 22.137 40.7879C26.847 41.7561 30.7328 40.7879 33.7943 38.0041C34.0298 37.883 34.1476 37.641 34.3831 37.52C35.6267 36.2195 36.6959 34.7541 37.5624 33.1628V32.7997V32.4365L37.6802 32.3155L37.798 32.0734L37.9158 31.9523C38.0336 31.8312 38.0336 31.7103 38.1512 31.4682C38.6222 30.3789 39.211 29.0476 39.5643 27.7162C40.2141 25.7293 40.7643 23.7095 41.2128 21.6646L41.3306 21.3015C41.8016 21.3015 42.1549 21.4226 42.6259 21.4226C42.5081 22.3908 42.3904 23.2381 42.2726 23.8432C42.1548 24.5694 41.9193 25.1746 41.6838 25.7798C41.5659 25.9008 41.5659 26.1428 41.8014 26.2638ZM46.6292 48.8968L46.8647 52.0436L33.6765 60.1528H33.5589L33.9122 59.7896C36.5027 56.6428 39.2109 53.617 41.5659 50.2281C42.6257 48.6547 43.6855 47.2023 44.7452 45.5079L44.863 45.3868V45.0237L44.9808 44.9026L45.0986 44.7815C45.9231 43.4502 46.7474 41.9978 47.5713 40.4243C47.8068 40.0612 48.0423 39.6982 48.1601 39.2141L48.7489 41.0295L48.9844 41.9977L50.8684 48.2914L46.865 48.4124H46.5115L46.6292 48.8968ZM24.2566 53.8591L24.0211 52.2857L26.7293 50.2282L25.905 55.5536L25.4341 58.4584C25.3163 58.4584 25.1986 58.3373 24.9631 58.3373L24.2566 53.8591ZM24.2566 58.0952C23.3146 57.7321 22.4904 57.248 21.5484 56.885L23.6678 54.8275L24.2566 58.0952ZM26.6116 55.7957L27.2004 55.3116L27.5537 56.0377L26.8472 58.9425C26.6117 58.8215 26.3762 58.8215 26.1407 58.7004L26.6116 55.7957ZM26.7294 54.8275L27.2004 52.0437C27.3182 52.1646 27.4359 52.4068 27.5537 52.5278C27.7892 52.8909 28.1425 53.133 28.4957 53.496L26.7294 54.8275ZM29.7909 56.4009L30.4974 55.0692L34.3832 57.974C33.9122 58.4581 33.5589 58.9422 33.0879 59.4264C32.8524 59.6684 32.7346 59.9105 32.4991 60.0316C31.6749 59.9106 30.9684 59.9106 30.1441 59.7895L29.7909 56.4009ZM30.0264 53.7382C31.2039 53.6172 32.2636 53.375 33.3234 53.133C36.2672 52.2857 38.7399 50.9544 40.8595 49.0179C41.4772 48.4859 42.0668 47.9202 42.6257 47.3235C42.0369 48.1707 41.5659 49.0179 40.9772 49.7441C40.3884 50.4703 39.7997 51.3175 39.2109 52.0437C37.9157 53.7382 36.5026 55.4325 35.0896 57.127H34.7364L30.0264 53.7382ZM47.9244 30.0159C47.5711 32.5575 47.5711 34.9782 47.9244 38.2461C46.6292 40.6667 45.3339 42.9663 43.8032 44.9028C42.6257 46.3552 41.4481 47.6866 40.0352 48.8969C38.0334 50.4703 35.7961 51.8016 33.2056 52.5278C31.8959 52.8971 30.5557 53.1402 29.2021 53.2539L28.1424 52.1646C27.8316 51.8319 27.5554 51.4668 27.3181 51.0753C27.3181 50.8333 27.4359 50.7122 27.4359 50.4702C27.6714 49.3809 27.7892 48.2916 27.6714 47.2023H28.9666C29.3199 47.2023 29.5554 47.2023 29.7909 47.0812H30.1442C30.3797 47.0812 30.733 46.9601 30.9685 46.9601L31.3218 46.839C31.5573 46.718 31.9106 46.718 32.146 46.597L32.4993 46.4759L33.2058 46.1128L33.5591 45.9917L34.2656 45.6286L34.6189 45.3865C34.8544 45.2654 35.0898 45.0234 35.3253 44.9024L35.6786 44.6603C35.9141 44.5393 36.0319 44.2972 36.2674 44.1762L36.6207 43.8131C36.8562 43.692 36.974 43.45 37.2095 43.329L37.5628 42.9659C37.7983 42.7238 37.9161 42.6027 38.0338 42.3607L38.387 41.8766C38.6225 41.6345 38.7403 41.3924 38.9758 41.1504L39.3291 40.6663C41.8018 37.1563 43.6859 32.1941 44.7456 26.1425C44.9811 24.8111 45.2166 23.4798 45.3344 22.0275C46.8652 22.1485 48.3959 22.3906 49.809 22.6327C48.984 25.1745 48.2777 27.5952 47.9244 30.0159ZM35.0896 60.1528L47.4532 52.5278L47.6887 52.4067V52.1646L47.4532 49.2599L51.4568 49.1388H51.9278L51.81 48.5336L50.1618 43.0873L57.4623 48.8969C52.2813 55.6746 44.1565 60.0318 35.0896 60.1528ZM57.5805 28.4425C55.1078 28.6845 52.164 28.8056 48.867 28.8056C49.2203 26.8691 49.9268 24.8116 50.6332 22.3909C57.345 23.3591 62.997 24.5695 65.9407 26.0218C65.3515 27.1111 62.2901 27.9584 57.5805 28.4425ZM50.9864 21.6648L50.6331 21.5437C46.9829 20.8175 42.8616 20.5755 39.0936 20.3334C27.083 19.3652 15.0725 19.2441 9.53819 20.5755C10.127 19.0021 13.1885 18.0338 17.1919 17.4286C18.8405 17.1866 20.6067 17.0655 22.373 16.9445H22.6085C33.3237 16.4604 47.5715 17.4286 58.9934 20.6965C61.2306 21.4227 63.1146 22.149 64.4099 22.9961C65.4697 23.7223 66.1761 24.4485 66.1761 25.1747C63.232 23.8432 57.5809 22.6331 50.9864 21.6648Z" fill="#CCAA66"/>
<path d="M1.00243 3.38887C1.7089 3.38887 2.06219 3.14681 2.17989 2.6627C2.65087 2.78378 3.47514 2.78378 3.82843 3.02584C3.47514 3.752 1.35571 3.99405 0.649136 3.99405C0.41361 3.99405 0.295847 4.1151 0.295847 4.35719C0.295847 4.59928 0.413644 4.72029 0.649238 4.72022C1.59121 4.72022 4.53501 4.35708 4.53501 3.02573V2.90476C4.53501 2.05751 4.06403 1.45233 3.47524 0.968218C2.76867 0.484109 1.8267 0.242054 0.766933 7.94976e-08C0.531407 7.94976e-08 0.413644 0.121045 0.413644 0.363134C0.413644 0.605223 0.531407 0.726267 0.766933 0.726267C1.7089 0.847347 2.53317 1.0894 3.12196 1.45243C3.35745 1.69448 3.59294 1.93654 3.71074 2.17859C3.47524 2.17859 3.35745 2.05751 3.12196 2.05751C2.26967 1.86323 1.40321 1.74177 0.531441 1.69438C-0.292832 1.69448 -0.175035 3.38887 1.00243 3.38887Z" transform="translate(28.7881 25.6587)" fill="#CCAA66"/>
</svg>
